;TYPE=PLATED
;Layer: PTH_Through
;EasyEDA Pro v3.2.77, 2026-07-23 02:52:35
;Gerber Generator version 0.3
M48
METRIC,LZ,0000.00000
;Hole size 1 = 0.30500 METRIC
T01C0.30500
;Hole size 2 = 1.00000 METRIC
T02C1.00000
;Hole size 3 = 1.02001 METRIC
T03C1.02001
;Hole size 4 = 1.10002 METRIC
T04C1.10002
;Hole size 5 = 1.20000 METRIC
T05C1.20000
;Hole size 6 = 3.00000 METRIC
T06C3.00000
%
G05
G90
T01
X44.069Y-22.098
X44.069Y-19.812
X38.2905Y-36.3855
X37.592Y-32.004
X35.052Y-29.21
X10.922Y-32.512
X20.193Y-31.369
X29.21Y-22.352
X28.575Y-24.638
X27.94Y-26.289
X27.178Y-24.638
X48.26Y-18.796
T02
X59.817Y-9.398
X59.817Y-11.938
X21.21057Y-86.35985
X21.21057Y-83.81985
X21.21057Y-81.27985
X21.20803Y-78.73985
X32.25803Y-33.90905
X32.25803Y-36.44905
X32.25803Y-38.98905
X32.25803Y-41.52905
X32.25803Y-44.06903
X32.25803Y-46.60903
X32.25803Y-49.14903
X32.25803Y-51.68903
X32.25803Y-54.22903
X32.25803Y-56.769
X32.25803Y-59.309
X32.25803Y-61.849
X32.25803Y-64.389
X32.25803Y-66.929
X32.25803Y-69.46897
X32.25803Y-72.00897
X32.25803Y-74.54897
X32.25803Y-77.08897
X32.25803Y-79.62897
X32.25803Y-82.16895
X47.498Y-82.16895
X47.498Y-79.62897
X47.498Y-77.08897
X47.498Y-74.54897
X47.498Y-72.00897
X47.498Y-69.46897
X47.498Y-66.929
X47.498Y-64.389
X47.498Y-61.849
X47.498Y-59.309
X47.498Y-56.769
X47.498Y-54.22903
X47.498Y-51.68903
X47.498Y-49.14903
X47.498Y-46.60903
X47.498Y-44.06903
X47.498Y-41.52905
X47.498Y-38.98905
X47.498Y-36.44905
X47.498Y-33.90905
X19.304Y-6.35
X19.304Y-3.81
X14.86482Y-6.39202
X14.86482Y-3.85202
T03
X59.54298Y-64.30551
X59.54298Y-61.76551
X59.54298Y-59.22551
X3.683Y-3.58298
X3.683Y-6.12298
X3.683Y-8.66298
X3.683Y-11.20298
X3.683Y-13.74298
X3.683Y-19.86402
X3.683Y-22.40402
X3.683Y-24.94402
X3.683Y-27.48402
X3.683Y-30.02402
X3.66298Y-36.14503
X3.66298Y-38.68503
X3.66298Y-41.22503
X3.556Y-63.5
X3.556Y-60.96
X3.556Y-58.42
X3.66298Y-52.42601
X3.66298Y-49.88601
X3.66298Y-47.34601
X59.54298Y-84.201
X59.54298Y-81.661
X59.54298Y-79.121
T04
X59.563Y-36.83
X59.563Y-39.37
X59.563Y-41.91
X59.563Y-44.45
X40.132Y-7.874
X37.592Y-7.874
X35.052Y-7.874
X32.512Y-7.874
X29.972Y-7.874
X27.432Y-7.874
X24.892Y-7.874
X18.161Y-10.795
X18.161Y-13.335
X18.161Y-15.875
X18.161Y-18.415
X14.732Y-18.415
X14.732Y-15.875
X14.732Y-13.335
X14.732Y-10.795
T05
X21.463Y-44.069
X21.463Y-46.609
X21.463Y-49.149
X21.463Y-51.689
X21.463Y-54.229
X21.463Y-56.769
X21.463Y-59.309
X21.463Y-61.849
T06
X9.017Y-4.064
X54.102Y-3.81
X8.636Y-84.074
X53.721Y-83.82
M30