G04 Layer: TopLayer*
G04 EasyEDA Pro v3.2.77, 2026-07-23 02:52:35*
G04 Gerber Generator version 0.3*
G04 Scale: 100 percent, Rotated: No, Reflected: No*
G04 Dimensions in millimeters*
G04 Leading zeros omitted, absolute positions, 4 integers and 5 decimals*
G04 Generated by one-click*
%FSLAX45Y45*%
%MOMM*%
%ADD10C,0.2032*%
%ADD11C,0.254*%
%ADD12R,1.7X1.7*%
%ADD13C,1.7*%
%ADD14C,1.65001*%
%ADD15C,1.6*%
%ADD16R,1.5748X1.7*%
%ADD17C,1.5794*%
%ADD18C,1.5748*%
%ADD19R,1.5748X1.5748*%
%ADD20R,1.8X1.8*%
%ADD21C,1.8*%
%ADD22C,4.0*%
%ADD23C,0.61*%
%ADD24C,0.4191*%
G75*


G04 Copper Start*
G36*
G01X36830Y-49530D02*
G01X200387Y-49530D01*
G01X124958Y-124958D01*
G01X115937Y-136715D01*
G01X110265Y-150407D01*
G01X108331Y-165100D01*
G01X108331Y-5674976D01*
G01X74158Y-5709148D01*
G01X65137Y-5720905D01*
G01X59465Y-5734597D01*
G01X57531Y-5749290D01*
G01X57531Y-5791200D01*
G01X59465Y-5805893D01*
G01X65137Y-5819584D01*
G01X74158Y-5831342D01*
G01X137658Y-5894842D01*
G01X149416Y-5903863D01*
G01X163107Y-5909535D01*
G01X177800Y-5911469D01*
G01X213995Y-5911469D01*
G01X223674Y-5912579D01*
G01X232850Y-5915850D01*
G01X241048Y-5921113D01*
G01X242892Y-5932090D01*
G01X248018Y-5941971D01*
G01X255930Y-5949801D01*
G01X265864Y-5954824D01*
G01X276860Y-5956554D01*
G01X434340Y-5956554D01*
G01X445407Y-5954801D01*
G01X455391Y-5949714D01*
G01X463314Y-5941791D01*
G01X468401Y-5931807D01*
G01X468545Y-5930900D01*
G01X2020486Y-5930900D01*
G01X2022398Y-5952747D01*
G01X2028074Y-5973931D01*
G01X2037342Y-5993807D01*
G01X2049921Y-6011772D01*
G01X2065428Y-6027279D01*
G01X2083393Y-6039858D01*
G01X2103269Y-6049126D01*
G01X2124453Y-6054802D01*
G01X2146300Y-6056714D01*
G01X2168147Y-6054802D01*
G01X2189331Y-6049126D01*
G01X2209207Y-6039858D01*
G01X2227172Y-6027279D01*
G01X2242679Y-6011772D01*
G01X2255258Y-5993807D01*
G01X2264526Y-5973931D01*
G01X2270202Y-5952747D01*
G01X2272114Y-5930900D01*
G01X2272114Y-5930900D01*
G01X2270202Y-5909053D01*
G01X2264526Y-5887869D01*
G01X2255258Y-5867993D01*
G01X2242679Y-5850028D01*
G01X2227172Y-5834521D01*
G01X2209207Y-5821942D01*
G01X2189331Y-5812674D01*
G01X2168147Y-5806998D01*
G01X2146300Y-5805086D01*
G01X2124453Y-5806998D01*
G01X2103269Y-5812674D01*
G01X2083393Y-5821942D01*
G01X2065428Y-5834521D01*
G01X2049921Y-5850028D01*
G01X2037342Y-5867993D01*
G01X2028074Y-5887869D01*
G01X2022398Y-5909053D01*
G01X2020486Y-5930900D01*
G01X468545Y-5930900D01*
G01X470154Y-5920740D01*
G01X470154Y-5763260D01*
G01X468401Y-5752193D01*
G01X463314Y-5742209D01*
G01X455391Y-5734286D01*
G01X445407Y-5729199D01*
G01X434340Y-5727446D01*
G01X276860Y-5727446D01*
G01X265793Y-5729199D01*
G01X255809Y-5734286D01*
G01X247886Y-5742209D01*
G01X242799Y-5752193D01*
G01X241046Y-5763260D01*
G01X241046Y-5788289D01*
G01X232848Y-5793551D01*
G01X223673Y-5796822D01*
G01X213995Y-5797931D01*
G01X201314Y-5797931D01*
G01X173628Y-5770245D01*
G01X205242Y-5738632D01*
G01X214263Y-5726874D01*
G01X219935Y-5713183D01*
G01X221869Y-5698490D01*
G01X221869Y-5676900D01*
G01X2020486Y-5676900D01*
G01X2022398Y-5698747D01*
G01X2028074Y-5719931D01*
G01X2037342Y-5739807D01*
G01X2049921Y-5757772D01*
G01X2065428Y-5773279D01*
G01X2083393Y-5785858D01*
G01X2103269Y-5795126D01*
G01X2124453Y-5800802D01*
G01X2146300Y-5802714D01*
G01X2168147Y-5800802D01*
G01X2189331Y-5795126D01*
G01X2209207Y-5785858D01*
G01X2227172Y-5773279D01*
G01X2242679Y-5757772D01*
G01X2255258Y-5739807D01*
G01X2264526Y-5719931D01*
G01X2270202Y-5698747D01*
G01X2272114Y-5676900D01*
G01X2272114Y-5676900D01*
G01X2270202Y-5655053D01*
G01X2264526Y-5633869D01*
G01X2255258Y-5613993D01*
G01X2242679Y-5596028D01*
G01X2227172Y-5580521D01*
G01X2209207Y-5567942D01*
G01X2189331Y-5558674D01*
G01X2168147Y-5552998D01*
G01X2146300Y-5551086D01*
G01X2124453Y-5552998D01*
G01X2103269Y-5558674D01*
G01X2083393Y-5567942D01*
G01X2065428Y-5580521D01*
G01X2049921Y-5596028D01*
G01X2037342Y-5613993D01*
G01X2028074Y-5633869D01*
G01X2022398Y-5655053D01*
G01X2020486Y-5676900D01*
G01X221869Y-5676900D01*
G01X221869Y-5422900D01*
G01X2020486Y-5422900D01*
G01X2022398Y-5444747D01*
G01X2028074Y-5465931D01*
G01X2037342Y-5485807D01*
G01X2049921Y-5503772D01*
G01X2065428Y-5519279D01*
G01X2083393Y-5531858D01*
G01X2103269Y-5541126D01*
G01X2124453Y-5546802D01*
G01X2146300Y-5548714D01*
G01X2168147Y-5546802D01*
G01X2189331Y-5541126D01*
G01X2209207Y-5531858D01*
G01X2227172Y-5519279D01*
G01X2242679Y-5503772D01*
G01X2255258Y-5485807D01*
G01X2264526Y-5465931D01*
G01X2270202Y-5444747D01*
G01X2272114Y-5422900D01*
G01X2272114Y-5422900D01*
G01X2270202Y-5401053D01*
G01X2264526Y-5379869D01*
G01X2255258Y-5359993D01*
G01X2242679Y-5342028D01*
G01X2227172Y-5326521D01*
G01X2209207Y-5313942D01*
G01X2189331Y-5304674D01*
G01X2168147Y-5298998D01*
G01X2146300Y-5297086D01*
G01X2124453Y-5298998D01*
G01X2103269Y-5304674D01*
G01X2083393Y-5313942D01*
G01X2065428Y-5326521D01*
G01X2049921Y-5342028D01*
G01X2037342Y-5359993D01*
G01X2028074Y-5379869D01*
G01X2022398Y-5401053D01*
G01X2020486Y-5422900D01*
G01X221869Y-5422900D01*
G01X221869Y-5242601D01*
G01X251998Y-5242601D01*
G01X253945Y-5263604D01*
G01X259717Y-5283891D01*
G01X269119Y-5302773D01*
G01X281830Y-5319605D01*
G01X297417Y-5333815D01*
G01X315351Y-5344919D01*
G01X335019Y-5352538D01*
G01X355752Y-5356414D01*
G01X376845Y-5356414D01*
G01X397578Y-5352538D01*
G01X417246Y-5344919D01*
G01X435180Y-5333815D01*
G01X450767Y-5319605D01*
G01X463478Y-5302773D01*
G01X472880Y-5283891D01*
G01X478652Y-5263604D01*
G01X480598Y-5242601D01*
G01X480598Y-5242601D01*
G01X478652Y-5221599D01*
G01X472880Y-5201311D01*
G01X463478Y-5182430D01*
G01X453261Y-5168900D01*
G01X2020486Y-5168900D01*
G01X2022398Y-5190747D01*
G01X2028074Y-5211931D01*
G01X2037342Y-5231807D01*
G01X2049921Y-5249772D01*
G01X2065428Y-5265279D01*
G01X2083393Y-5277858D01*
G01X2103269Y-5287126D01*
G01X2124453Y-5292802D01*
G01X2146300Y-5294714D01*
G01X2168147Y-5292802D01*
G01X2189331Y-5287126D01*
G01X2209207Y-5277858D01*
G01X2227172Y-5265279D01*
G01X2242679Y-5249772D01*
G01X2255258Y-5231807D01*
G01X2264526Y-5211931D01*
G01X2270202Y-5190747D01*
G01X2272114Y-5168900D01*
G01X2272114Y-5168900D01*
G01X2270202Y-5147053D01*
G01X2264526Y-5125869D01*
G01X2255258Y-5105993D01*
G01X2242679Y-5088028D01*
G01X2227172Y-5072521D01*
G01X2209207Y-5059942D01*
G01X2189331Y-5050674D01*
G01X2168147Y-5044998D01*
G01X2146300Y-5043086D01*
G01X2124453Y-5044998D01*
G01X2103269Y-5050674D01*
G01X2083393Y-5059942D01*
G01X2065428Y-5072521D01*
G01X2049921Y-5088028D01*
G01X2037342Y-5105993D01*
G01X2028074Y-5125869D01*
G01X2022398Y-5147053D01*
G01X2020486Y-5168900D01*
G01X453261Y-5168900D01*
G01X450767Y-5165598D01*
G01X435180Y-5151388D01*
G01X417246Y-5140284D01*
G01X397578Y-5132665D01*
G01X376845Y-5128789D01*
G01X355752Y-5128789D01*
G01X335019Y-5132665D01*
G01X315351Y-5140284D01*
G01X297417Y-5151388D01*
G01X281830Y-5165598D01*
G01X269119Y-5182430D01*
G01X259717Y-5201311D01*
G01X253945Y-5221599D01*
G01X251998Y-5242601D01*
G01X221869Y-5242601D01*
G01X221869Y-4988601D01*
G01X251744Y-4988601D01*
G01X253695Y-5009651D01*
G01X259480Y-5029983D01*
G01X268903Y-5048906D01*
G01X281642Y-5065776D01*
G01X297264Y-5080017D01*
G01X315237Y-5091146D01*
G01X334949Y-5098782D01*
G01X355729Y-5102667D01*
G01X376868Y-5102667D01*
G01X397648Y-5098782D01*
G01X417360Y-5091146D01*
G01X435333Y-5080017D01*
G01X450955Y-5065776D01*
G01X463694Y-5048906D01*
G01X473117Y-5029983D01*
G01X478902Y-5009651D01*
G01X480852Y-4988601D01*
G01X480852Y-4988601D01*
G01X478902Y-4967552D01*
G01X473117Y-4947220D01*
G01X463694Y-4928296D01*
G01X453578Y-4914900D01*
G01X2020486Y-4914900D01*
G01X2022398Y-4936747D01*
G01X2028074Y-4957931D01*
G01X2037342Y-4977807D01*
G01X2049921Y-4995772D01*
G01X2065428Y-5011279D01*
G01X2083393Y-5023858D01*
G01X2103269Y-5033126D01*
G01X2124453Y-5038802D01*
G01X2146300Y-5040714D01*
G01X2168147Y-5038802D01*
G01X2189331Y-5033126D01*
G01X2209207Y-5023858D01*
G01X2227172Y-5011279D01*
G01X2242679Y-4995772D01*
G01X2255258Y-4977807D01*
G01X2264526Y-4957931D01*
G01X2270202Y-4936747D01*
G01X2272114Y-4914900D01*
G01X2272114Y-4914900D01*
G01X2270202Y-4893053D01*
G01X2264526Y-4871869D01*
G01X2255258Y-4851993D01*
G01X2242679Y-4834028D01*
G01X2227172Y-4818521D01*
G01X2209207Y-4805942D01*
G01X2189331Y-4796674D01*
G01X2168147Y-4790998D01*
G01X2146300Y-4789086D01*
G01X2124453Y-4790998D01*
G01X2103269Y-4796674D01*
G01X2083393Y-4805942D01*
G01X2065428Y-4818521D01*
G01X2049921Y-4834028D01*
G01X2037342Y-4851993D01*
G01X2028074Y-4871869D01*
G01X2022398Y-4893053D01*
G01X2020486Y-4914900D01*
G01X453578Y-4914900D01*
G01X450955Y-4911427D01*
G01X435333Y-4897185D01*
G01X417360Y-4886057D01*
G01X397648Y-4878420D01*
G01X376868Y-4874536D01*
G01X355729Y-4874536D01*
G01X334949Y-4878420D01*
G01X315237Y-4886057D01*
G01X297264Y-4897185D01*
G01X281642Y-4911427D01*
G01X268903Y-4928296D01*
G01X259480Y-4947220D01*
G01X253695Y-4967552D01*
G01X251744Y-4988601D01*
G01X221869Y-4988601D01*
G01X221869Y-4043763D01*
G01X251744Y-4043763D01*
G01X251744Y-4201243D01*
G01X253497Y-4212310D01*
G01X258584Y-4222294D01*
G01X266508Y-4230217D01*
G01X276491Y-4235304D01*
G01X287558Y-4237057D01*
G01X445038Y-4237057D01*
G01X456106Y-4235304D01*
G01X466089Y-4230217D01*
G01X474013Y-4222294D01*
G01X479100Y-4212310D01*
G01X480852Y-4201243D01*
G01X480852Y-4188914D01*
G01X486348Y-4185101D01*
G01X492372Y-4182192D01*
G01X499768Y-4189589D01*
G01X523113Y-4215116D01*
G01X544081Y-4242628D01*
G01X562502Y-4271907D01*
G01X578231Y-4302716D01*
G01X578231Y-4662786D01*
G01X563184Y-4677832D01*
G01X507903Y-4677832D01*
G01X498226Y-4676723D01*
G01X489050Y-4673452D01*
G01X480852Y-4668190D01*
G01X480852Y-4655861D01*
G01X479100Y-4644794D01*
G01X474013Y-4634810D01*
G01X466089Y-4626887D01*
G01X456106Y-4621800D01*
G01X445038Y-4620047D01*
G01X287558Y-4620047D01*
G01X276491Y-4621800D01*
G01X266508Y-4626887D01*
G01X258584Y-4634810D01*
G01X253497Y-4644794D01*
G01X251744Y-4655861D01*
G01X251744Y-4813341D01*
G01X253497Y-4824409D01*
G01X258584Y-4834392D01*
G01X266508Y-4842316D01*
G01X276491Y-4847403D01*
G01X287558Y-4849155D01*
G01X445038Y-4849155D01*
G01X456106Y-4847403D01*
G01X466089Y-4842316D01*
G01X474013Y-4834392D01*
G01X479100Y-4824409D01*
G01X480852Y-4813341D01*
G01X480852Y-4801012D01*
G01X489050Y-4795750D01*
G01X498226Y-4792480D01*
G01X507903Y-4791370D01*
G01X586699Y-4791370D01*
G01X601391Y-4789436D01*
G01X615083Y-4783765D01*
G01X626840Y-4774743D01*
G01X675142Y-4726442D01*
G01X684163Y-4714684D01*
G01X689835Y-4700993D01*
G01X691769Y-4686300D01*
G01X691769Y-4660900D01*
G01X2020740Y-4660900D01*
G01X2022648Y-4682703D01*
G01X2028312Y-4703844D01*
G01X2037562Y-4723680D01*
G01X2050116Y-4741608D01*
G01X2065592Y-4757084D01*
G01X2083520Y-4769638D01*
G01X2103356Y-4778888D01*
G01X2124497Y-4784552D01*
G01X2146300Y-4786460D01*
G01X2168103Y-4784552D01*
G01X2189244Y-4778888D01*
G01X2209080Y-4769638D01*
G01X2227008Y-4757084D01*
G01X2242484Y-4741608D01*
G01X2255038Y-4723680D01*
G01X2264288Y-4703844D01*
G01X2269952Y-4682703D01*
G01X2271860Y-4660900D01*
G01X2271860Y-4660900D01*
G01X2269952Y-4639097D01*
G01X2264288Y-4617956D01*
G01X2255038Y-4598120D01*
G01X2242484Y-4580192D01*
G01X2227008Y-4564716D01*
G01X2209080Y-4552162D01*
G01X2189244Y-4542912D01*
G01X2168103Y-4537248D01*
G01X2146300Y-4535340D01*
G01X2124497Y-4537248D01*
G01X2103356Y-4542912D01*
G01X2083520Y-4552162D01*
G01X2065592Y-4564716D01*
G01X2050116Y-4580192D01*
G01X2037562Y-4598120D01*
G01X2028312Y-4617956D01*
G01X2022648Y-4639097D01*
G01X2020740Y-4660900D01*
G01X691769Y-4660900D01*
G01X691769Y-4099831D01*
G01X712754Y-4089013D01*
G01X735011Y-4081140D01*
G01X758131Y-4076358D01*
G01X781685Y-4074754D01*
G01X1733870Y-4074754D01*
G01X2006775Y-4347658D01*
G01X2014285Y-4361059D01*
G01X2018920Y-4375706D01*
G01X2020486Y-4390987D01*
G01X2020486Y-4496900D01*
G01X2022239Y-4507967D01*
G01X2027326Y-4517951D01*
G01X2035249Y-4525874D01*
G01X2045233Y-4530961D01*
G01X2056300Y-4532714D01*
G01X2236300Y-4532714D01*
G01X2247367Y-4530961D01*
G01X2257351Y-4525874D01*
G01X2265274Y-4517951D01*
G01X2270361Y-4507967D01*
G01X2272114Y-4496900D01*
G01X2272114Y-4316900D01*
G01X2270361Y-4305833D01*
G01X2265274Y-4295849D01*
G01X2257351Y-4287926D01*
G01X2247367Y-4282839D01*
G01X2236300Y-4281086D01*
G01X2130387Y-4281086D01*
G01X2115106Y-4279520D01*
G01X2100459Y-4274885D01*
G01X2087058Y-4267375D01*
G01X1797526Y-3977843D01*
G01X1785769Y-3968821D01*
G01X1772077Y-3963150D01*
G01X1757385Y-3961216D01*
G01X781685Y-3961216D01*
G01X758131Y-3959611D01*
G01X735011Y-3954829D01*
G01X712754Y-3946956D01*
G01X691769Y-3936138D01*
G01X691769Y-3897014D01*
G01X753764Y-3835019D01*
G01X2196918Y-3835019D01*
G01X2210516Y-3839831D01*
G01X2224889Y-3841060D01*
G01X2239107Y-3838627D01*
G01X2252253Y-3832689D01*
G01X2263478Y-3823629D01*
G01X2272057Y-3812033D01*
G01X2277436Y-3798649D01*
G01X2279269Y-3784341D01*
G01X2279269Y-2464776D01*
G01X2651493Y-2464776D01*
G01X2653406Y-2479642D01*
G01X2658608Y-2493698D01*
G01X2666834Y-2506227D01*
G01X2668420Y-2508383D01*
G01X2669286Y-2509956D01*
G01X2669286Y-5930903D01*
G01X2670939Y-5943459D01*
G01X2675786Y-5955160D01*
G01X2683495Y-5965207D01*
G01X3112150Y-6393862D01*
G01X3112461Y-6395933D01*
G01X3112461Y-6395933D01*
G01X3112660Y-6398486D01*
G01X3112664Y-6406698D01*
G01X3112081Y-6415704D01*
G01X3111835Y-6418310D01*
G01X3110186Y-6432148D01*
G01X3110211Y-6446085D01*
G01X3113278Y-6466259D01*
G01X3119837Y-6485583D01*
G01X3129685Y-6503456D01*
G01X3142516Y-6519323D01*
G01X3157932Y-6532693D01*
G01X3175455Y-6543151D01*
G01X3194541Y-6550371D01*
G01X3214598Y-6554131D01*
G01X3235003Y-6554313D01*
G01X3255124Y-6550912D01*
G01X3274336Y-6544033D01*
G01X3292043Y-6533890D01*
G01X3307695Y-6520798D01*
G01X3320788Y-6505145D01*
G01X3330931Y-6487439D01*
G01X3337810Y-6468227D01*
G01X3341211Y-6448106D01*
G01X3341129Y-6438905D01*
G01X4633989Y-6438905D01*
G01X4635961Y-6460186D01*
G01X4641809Y-6480742D01*
G01X4651336Y-6499873D01*
G01X4664215Y-6516928D01*
G01X4680009Y-6531327D01*
G01X4698180Y-6542577D01*
G01X4718109Y-6550298D01*
G01X4739117Y-6554225D01*
G01X4760488Y-6554225D01*
G01X4781497Y-6550298D01*
G01X4801425Y-6542577D01*
G01X4819596Y-6531327D01*
G01X4835390Y-6516928D01*
G01X4848269Y-6499873D01*
G01X4857796Y-6480742D01*
G01X4863644Y-6460186D01*
G01X4865616Y-6438905D01*
G01X4865616Y-6438905D01*
G01X4863644Y-6417624D01*
G01X4857796Y-6397068D01*
G01X4848269Y-6377937D01*
G01X4835390Y-6360882D01*
G01X4819596Y-6346484D01*
G01X4801425Y-6335233D01*
G01X4781497Y-6327512D01*
G01X4760488Y-6323585D01*
G01X4739117Y-6323585D01*
G01X4718109Y-6327512D01*
G01X4698180Y-6335233D01*
G01X4680009Y-6346484D01*
G01X4664215Y-6360882D01*
G01X4651336Y-6377937D01*
G01X4641809Y-6397068D01*
G01X4635961Y-6417624D01*
G01X4633989Y-6438905D01*
G01X3341129Y-6438905D01*
G01X3341029Y-6427700D01*
G01X3337269Y-6407644D01*
G01X3330048Y-6388558D01*
G01X3319590Y-6371035D01*
G01X3306220Y-6355619D01*
G01X3290353Y-6342787D01*
G01X3272480Y-6332940D01*
G01X3253157Y-6326381D01*
G01X3232982Y-6323314D01*
G01X3219046Y-6323289D01*
G01X3205207Y-6324937D01*
G01X3202602Y-6325184D01*
G01X3193596Y-6325767D01*
G01X3185383Y-6325762D01*
G01X3182831Y-6325564D01*
G01X3180760Y-6325253D01*
G01X2766314Y-5910807D01*
G01X2766314Y-5794026D01*
G01X3112150Y-6139862D01*
G01X3112461Y-6141933D01*
G01X3112660Y-6144486D01*
G01X3112664Y-6152698D01*
G01X3112081Y-6161704D01*
G01X3111835Y-6164310D01*
G01X3110186Y-6178148D01*
G01X3110211Y-6192085D01*
G01X3113278Y-6212259D01*
G01X3119837Y-6231583D01*
G01X3129685Y-6249456D01*
G01X3142516Y-6265323D01*
G01X3157932Y-6278693D01*
G01X3175455Y-6289151D01*
G01X3194541Y-6296371D01*
G01X3214598Y-6300131D01*
G01X3235003Y-6300313D01*
G01X3255124Y-6296912D01*
G01X3274336Y-6290033D01*
G01X3292043Y-6279890D01*
G01X3307695Y-6266798D01*
G01X3320788Y-6251145D01*
G01X3330931Y-6233439D01*
G01X3337810Y-6214227D01*
G01X3341211Y-6194106D01*
G01X3341129Y-6184905D01*
G01X4633989Y-6184905D01*
G01X4635961Y-6206186D01*
G01X4641809Y-6226742D01*
G01X4651336Y-6245873D01*
G01X4664215Y-6262928D01*
G01X4680009Y-6277327D01*
G01X4698180Y-6288577D01*
G01X4718109Y-6296298D01*
G01X4739117Y-6300225D01*
G01X4760488Y-6300225D01*
G01X4781497Y-6296298D01*
G01X4801425Y-6288577D01*
G01X4819596Y-6277327D01*
G01X4835390Y-6262928D01*
G01X4848269Y-6245873D01*
G01X4857796Y-6226742D01*
G01X4863644Y-6206186D01*
G01X4865616Y-6184905D01*
G01X4865616Y-6184905D01*
G01X4863644Y-6163624D01*
G01X4857796Y-6143068D01*
G01X4848269Y-6123937D01*
G01X4835390Y-6106882D01*
G01X4819596Y-6092484D01*
G01X4801425Y-6081233D01*
G01X4781497Y-6073512D01*
G01X4760488Y-6069585D01*
G01X4739117Y-6069585D01*
G01X4718109Y-6073512D01*
G01X4698180Y-6081233D01*
G01X4680009Y-6092484D01*
G01X4664215Y-6106882D01*
G01X4651336Y-6123937D01*
G01X4641809Y-6143068D01*
G01X4635961Y-6163624D01*
G01X4633989Y-6184905D01*
G01X3341129Y-6184905D01*
G01X3341029Y-6173700D01*
G01X3337269Y-6153644D01*
G01X3330048Y-6134558D01*
G01X3319590Y-6117035D01*
G01X3306220Y-6101619D01*
G01X3290353Y-6088787D01*
G01X3272480Y-6078940D01*
G01X3253157Y-6072381D01*
G01X3232982Y-6069314D01*
G01X3219046Y-6069289D01*
G01X3205207Y-6070937D01*
G01X3202602Y-6071184D01*
G01X3193596Y-6071767D01*
G01X3185383Y-6071762D01*
G01X3182831Y-6071564D01*
G01X3180760Y-6071253D01*
G01X2842514Y-5733007D01*
G01X2842514Y-5616226D01*
G01X3112150Y-5885862D01*
G01X3112461Y-5887933D01*
G01X3112660Y-5890486D01*
G01X3112664Y-5898698D01*
G01X3112081Y-5907704D01*
G01X3111835Y-5910310D01*
G01X3110186Y-5924148D01*
G01X3110211Y-5938085D01*
G01X3113278Y-5958259D01*
G01X3119837Y-5977583D01*
G01X3129685Y-5995456D01*
G01X3142516Y-6011323D01*
G01X3157932Y-6024693D01*
G01X3175455Y-6035151D01*
G01X3194541Y-6042371D01*
G01X3214598Y-6046131D01*
G01X3235003Y-6046313D01*
G01X3255124Y-6042912D01*
G01X3274336Y-6036033D01*
G01X3292043Y-6025890D01*
G01X3307695Y-6012798D01*
G01X3320788Y-5997145D01*
G01X3330931Y-5979439D01*
G01X3337810Y-5960227D01*
G01X3341211Y-5940106D01*
G01X3341129Y-5930905D01*
G01X4633989Y-5930905D01*
G01X4635961Y-5952186D01*
G01X4641809Y-5972742D01*
G01X4651336Y-5991873D01*
G01X4664215Y-6008928D01*
G01X4680009Y-6023327D01*
G01X4698180Y-6034577D01*
G01X4718109Y-6042298D01*
G01X4739117Y-6046225D01*
G01X4760488Y-6046225D01*
G01X4781497Y-6042298D01*
G01X4801425Y-6034577D01*
G01X4819596Y-6023327D01*
G01X4835390Y-6008928D01*
G01X4848269Y-5991873D01*
G01X4857796Y-5972742D01*
G01X4863644Y-5952186D01*
G01X4865616Y-5930905D01*
G01X4865616Y-5930905D01*
G01X4863644Y-5909624D01*
G01X4857796Y-5889068D01*
G01X4848269Y-5869937D01*
G01X4835390Y-5852882D01*
G01X4819596Y-5838484D01*
G01X4801425Y-5827233D01*
G01X4781497Y-5819512D01*
G01X4760488Y-5815585D01*
G01X4739117Y-5815585D01*
G01X4718109Y-5819512D01*
G01X4698180Y-5827233D01*
G01X4680009Y-5838484D01*
G01X4664215Y-5852882D01*
G01X4651336Y-5869937D01*
G01X4641809Y-5889068D01*
G01X4635961Y-5909624D01*
G01X4633989Y-5930905D01*
G01X3341129Y-5930905D01*
G01X3341029Y-5919700D01*
G01X3337269Y-5899644D01*
G01X3330048Y-5880558D01*
G01X3319590Y-5863035D01*
G01X3306220Y-5847619D01*
G01X3290353Y-5834787D01*
G01X3272480Y-5824940D01*
G01X3253157Y-5818381D01*
G01X3232982Y-5815314D01*
G01X3219046Y-5815289D01*
G01X3205207Y-5816937D01*
G01X3202602Y-5817184D01*
G01X3193596Y-5817767D01*
G01X3185383Y-5817762D01*
G01X3182831Y-5817564D01*
G01X3180760Y-5817253D01*
G01X2906014Y-5542507D01*
G01X2906014Y-5425726D01*
G01X3112150Y-5631862D01*
G01X3112461Y-5633933D01*
G01X3112660Y-5636486D01*
G01X3112664Y-5644698D01*
G01X3112081Y-5653704D01*
G01X3111835Y-5656310D01*
G01X3110186Y-5670148D01*
G01X3110211Y-5684085D01*
G01X3113278Y-5704259D01*
G01X3119837Y-5723583D01*
G01X3129685Y-5741456D01*
G01X3142516Y-5757323D01*
G01X3157932Y-5770693D01*
G01X3175455Y-5781151D01*
G01X3194541Y-5788371D01*
G01X3214598Y-5792131D01*
G01X3235003Y-5792313D01*
G01X3255124Y-5788912D01*
G01X3274336Y-5782033D01*
G01X3292043Y-5771890D01*
G01X3307695Y-5758798D01*
G01X3320788Y-5743145D01*
G01X3330931Y-5725439D01*
G01X3337810Y-5706227D01*
G01X3341211Y-5686106D01*
G01X3341129Y-5676905D01*
G01X4633989Y-5676905D01*
G01X4635961Y-5698186D01*
G01X4641809Y-5718742D01*
G01X4651336Y-5737873D01*
G01X4664215Y-5754928D01*
G01X4680009Y-5769327D01*
G01X4698180Y-5780577D01*
G01X4718109Y-5788298D01*
G01X4739117Y-5792225D01*
G01X4760488Y-5792225D01*
G01X4781497Y-5788298D01*
G01X4801425Y-5780577D01*
G01X4819596Y-5769327D01*
G01X4835390Y-5754928D01*
G01X4848269Y-5737873D01*
G01X4857796Y-5718742D01*
G01X4863644Y-5698186D01*
G01X4865616Y-5676905D01*
G01X4865616Y-5676905D01*
G01X4863644Y-5655624D01*
G01X4857796Y-5635068D01*
G01X4848269Y-5615937D01*
G01X4835390Y-5598882D01*
G01X4819596Y-5584484D01*
G01X4801425Y-5573233D01*
G01X4781497Y-5565512D01*
G01X4760488Y-5561585D01*
G01X4739117Y-5561585D01*
G01X4718109Y-5565512D01*
G01X4698180Y-5573233D01*
G01X4680009Y-5584484D01*
G01X4664215Y-5598882D01*
G01X4651336Y-5615937D01*
G01X4641809Y-5635068D01*
G01X4635961Y-5655624D01*
G01X4633989Y-5676905D01*
G01X3341129Y-5676905D01*
G01X3341029Y-5665700D01*
G01X3337269Y-5645644D01*
G01X3330048Y-5626558D01*
G01X3319590Y-5609035D01*
G01X3306220Y-5593619D01*
G01X3290353Y-5580787D01*
G01X3272480Y-5570940D01*
G01X3253157Y-5564381D01*
G01X3232982Y-5561314D01*
G01X3219046Y-5561289D01*
G01X3205207Y-5562937D01*
G01X3202602Y-5563184D01*
G01X3193596Y-5563767D01*
G01X3185383Y-5563762D01*
G01X3182831Y-5563564D01*
G01X3180760Y-5563253D01*
G01X3040412Y-5422905D01*
G01X3109989Y-5422905D01*
G01X3111961Y-5444186D01*
G01X3117809Y-5464742D01*
G01X3127336Y-5483873D01*
G01X3140215Y-5500928D01*
G01X3156009Y-5515327D01*
G01X3174180Y-5526577D01*
G01X3194109Y-5534298D01*
G01X3215117Y-5538225D01*
G01X3236488Y-5538225D01*
G01X3257497Y-5534298D01*
G01X3277425Y-5526577D01*
G01X3295596Y-5515327D01*
G01X3311390Y-5500928D01*
G01X3324269Y-5483873D01*
G01X3333796Y-5464742D01*
G01X3339644Y-5444186D01*
G01X3341616Y-5422905D01*
G01X3341616Y-5422905D01*
G01X4633989Y-5422905D01*
G01X4635961Y-5444186D01*
G01X4641809Y-5464742D01*
G01X4651336Y-5483873D01*
G01X4664215Y-5500928D01*
G01X4680009Y-5515327D01*
G01X4698180Y-5526577D01*
G01X4718109Y-5534298D01*
G01X4739117Y-5538225D01*
G01X4760488Y-5538225D01*
G01X4781497Y-5534298D01*
G01X4801425Y-5526577D01*
G01X4819596Y-5515327D01*
G01X4835390Y-5500928D01*
G01X4848269Y-5483873D01*
G01X4857796Y-5464742D01*
G01X4863644Y-5444186D01*
G01X4865616Y-5422905D01*
G01X4865616Y-5422905D01*
G01X4863644Y-5401624D01*
G01X4857796Y-5381068D01*
G01X4848269Y-5361937D01*
G01X4835390Y-5344882D01*
G01X4819596Y-5330484D01*
G01X4801425Y-5319233D01*
G01X4781497Y-5311512D01*
G01X4760488Y-5307585D01*
G01X4739117Y-5307585D01*
G01X4718109Y-5311512D01*
G01X4698180Y-5319233D01*
G01X4680009Y-5330484D01*
G01X4664215Y-5344882D01*
G01X4651336Y-5361937D01*
G01X4641809Y-5381068D01*
G01X4635961Y-5401624D01*
G01X4633989Y-5422905D01*
G01X3341616Y-5422905D01*
G01X3339644Y-5401624D01*
G01X3333796Y-5381068D01*
G01X3324269Y-5361937D01*
G01X3311390Y-5344882D01*
G01X3295596Y-5330484D01*
G01X3277425Y-5319233D01*
G01X3257497Y-5311512D01*
G01X3236488Y-5307585D01*
G01X3215117Y-5307585D01*
G01X3194109Y-5311512D01*
G01X3174180Y-5319233D01*
G01X3156009Y-5330484D01*
G01X3140215Y-5344882D01*
G01X3127336Y-5361937D01*
G01X3117809Y-5381068D01*
G01X3111961Y-5401624D01*
G01X3109989Y-5422905D01*
G01X3109989Y-5422905D01*
G01X3040412Y-5422905D01*
G01X2969514Y-5352007D01*
G01X2969514Y-5168905D01*
G01X3109989Y-5168905D01*
G01X3111961Y-5190186D01*
G01X3117809Y-5210742D01*
G01X3127336Y-5229873D01*
G01X3140215Y-5246928D01*
G01X3156009Y-5261327D01*
G01X3174180Y-5272577D01*
G01X3194109Y-5280298D01*
G01X3215117Y-5284225D01*
G01X3236488Y-5284225D01*
G01X3257497Y-5280298D01*
G01X3277425Y-5272577D01*
G01X3295596Y-5261327D01*
G01X3311390Y-5246928D01*
G01X3324269Y-5229873D01*
G01X3333796Y-5210742D01*
G01X3339644Y-5190186D01*
G01X3341616Y-5168905D01*
G01X3341616Y-5168905D01*
G01X3341616Y-5168905D01*
G01X4633989Y-5168905D01*
G01X4635961Y-5190186D01*
G01X4641809Y-5210742D01*
G01X4651336Y-5229873D01*
G01X4664215Y-5246928D01*
G01X4680009Y-5261327D01*
G01X4698180Y-5272577D01*
G01X4718109Y-5280298D01*
G01X4739117Y-5284225D01*
G01X4760488Y-5284225D01*
G01X4781497Y-5280298D01*
G01X4801425Y-5272577D01*
G01X4819596Y-5261327D01*
G01X4835390Y-5246928D01*
G01X4848269Y-5229873D01*
G01X4857796Y-5210742D01*
G01X4863644Y-5190186D01*
G01X4865616Y-5168905D01*
G01X4865616Y-5168905D01*
G01X4863644Y-5147624D01*
G01X4857796Y-5127068D01*
G01X4848269Y-5107937D01*
G01X4835390Y-5090882D01*
G01X4819596Y-5076484D01*
G01X4801425Y-5065233D01*
G01X4781497Y-5057512D01*
G01X4760488Y-5053585D01*
G01X4739117Y-5053585D01*
G01X4718109Y-5057512D01*
G01X4698180Y-5065233D01*
G01X4680009Y-5076484D01*
G01X4664215Y-5090882D01*
G01X4651336Y-5107937D01*
G01X4641809Y-5127068D01*
G01X4635961Y-5147624D01*
G01X4633989Y-5168905D01*
G01X3341616Y-5168905D01*
G01X3339644Y-5147624D01*
G01X3333796Y-5127068D01*
G01X3324269Y-5107937D01*
G01X3311390Y-5090882D01*
G01X3295596Y-5076484D01*
G01X3277425Y-5065233D01*
G01X3257497Y-5057512D01*
G01X3236488Y-5053585D01*
G01X3215117Y-5053585D01*
G01X3194109Y-5057512D01*
G01X3174180Y-5065233D01*
G01X3156009Y-5076484D01*
G01X3140215Y-5090882D01*
G01X3127336Y-5107937D01*
G01X3117809Y-5127068D01*
G01X3111961Y-5147624D01*
G01X3109989Y-5168905D01*
G01X2969514Y-5168905D01*
G01X2969514Y-4914905D01*
G01X3109989Y-4914905D01*
G01X3111961Y-4936186D01*
G01X3117809Y-4956742D01*
G01X3127336Y-4975873D01*
G01X3140215Y-4992928D01*
G01X3156009Y-5007327D01*
G01X3174180Y-5018577D01*
G01X3194109Y-5026298D01*
G01X3215117Y-5030225D01*
G01X3236488Y-5030225D01*
G01X3257497Y-5026298D01*
G01X3277425Y-5018577D01*
G01X3295596Y-5007327D01*
G01X3311390Y-4992928D01*
G01X3324269Y-4975873D01*
G01X3333796Y-4956742D01*
G01X3339644Y-4936186D01*
G01X3341616Y-4914905D01*
G01X3341616Y-4914905D01*
G01X3341616Y-4914905D01*
G01X4633989Y-4914905D01*
G01X4635961Y-4936186D01*
G01X4641809Y-4956742D01*
G01X4651336Y-4975873D01*
G01X4664215Y-4992928D01*
G01X4680009Y-5007327D01*
G01X4698180Y-5018577D01*
G01X4718109Y-5026298D01*
G01X4739117Y-5030225D01*
G01X4760488Y-5030225D01*
G01X4781497Y-5026298D01*
G01X4801425Y-5018577D01*
G01X4819596Y-5007327D01*
G01X4835390Y-4992928D01*
G01X4848269Y-4975873D01*
G01X4857796Y-4956742D01*
G01X4863644Y-4936186D01*
G01X4865616Y-4914905D01*
G01X4865616Y-4914905D01*
G01X4863644Y-4893624D01*
G01X4857796Y-4873068D01*
G01X4848269Y-4853937D01*
G01X4835390Y-4836882D01*
G01X4819596Y-4822484D01*
G01X4801425Y-4811233D01*
G01X4781497Y-4803512D01*
G01X4760488Y-4799585D01*
G01X4739117Y-4799585D01*
G01X4718109Y-4803512D01*
G01X4698180Y-4811233D01*
G01X4680009Y-4822484D01*
G01X4664215Y-4836882D01*
G01X4651336Y-4853937D01*
G01X4641809Y-4873068D01*
G01X4635961Y-4893624D01*
G01X4633989Y-4914905D01*
G01X3341616Y-4914905D01*
G01X3339644Y-4893624D01*
G01X3333796Y-4873068D01*
G01X3324269Y-4853937D01*
G01X3311390Y-4836882D01*
G01X3295596Y-4822484D01*
G01X3277425Y-4811233D01*
G01X3257497Y-4803512D01*
G01X3236488Y-4799585D01*
G01X3215117Y-4799585D01*
G01X3194109Y-4803512D01*
G01X3174180Y-4811233D01*
G01X3156009Y-4822484D01*
G01X3140215Y-4836882D01*
G01X3127336Y-4853937D01*
G01X3117809Y-4873068D01*
G01X3111961Y-4893624D01*
G01X3109989Y-4914905D01*
G01X2969514Y-4914905D01*
G01X2969514Y-4660905D01*
G01X3109989Y-4660905D01*
G01X3111961Y-4682186D01*
G01X3117809Y-4702742D01*
G01X3127336Y-4721873D01*
G01X3140215Y-4738928D01*
G01X3156009Y-4753327D01*
G01X3174180Y-4764577D01*
G01X3194109Y-4772298D01*
G01X3215117Y-4776225D01*
G01X3236488Y-4776225D01*
G01X3257497Y-4772298D01*
G01X3277425Y-4764577D01*
G01X3295596Y-4753327D01*
G01X3311390Y-4738928D01*
G01X3324269Y-4721873D01*
G01X3333796Y-4702742D01*
G01X3339644Y-4682186D01*
G01X3341616Y-4660905D01*
G01X3341616Y-4660905D01*
G01X3341616Y-4660905D01*
G01X4633989Y-4660905D01*
G01X4635961Y-4682186D01*
G01X4641809Y-4702742D01*
G01X4651336Y-4721873D01*
G01X4664215Y-4738928D01*
G01X4680009Y-4753327D01*
G01X4698180Y-4764577D01*
G01X4718109Y-4772298D01*
G01X4739117Y-4776225D01*
G01X4760488Y-4776225D01*
G01X4781497Y-4772298D01*
G01X4801425Y-4764577D01*
G01X4819596Y-4753327D01*
G01X4835390Y-4738928D01*
G01X4848269Y-4721873D01*
G01X4857796Y-4702742D01*
G01X4863644Y-4682186D01*
G01X4865616Y-4660905D01*
G01X4865616Y-4660905D01*
G01X4863644Y-4639624D01*
G01X4857796Y-4619068D01*
G01X4848269Y-4599937D01*
G01X4835390Y-4582882D01*
G01X4819596Y-4568484D01*
G01X4801425Y-4557233D01*
G01X4781497Y-4549512D01*
G01X4760488Y-4545585D01*
G01X4739117Y-4545585D01*
G01X4718109Y-4549512D01*
G01X4698180Y-4557233D01*
G01X4680009Y-4568484D01*
G01X4664215Y-4582882D01*
G01X4651336Y-4599937D01*
G01X4641809Y-4619068D01*
G01X4635961Y-4639624D01*
G01X4633989Y-4660905D01*
G01X3341616Y-4660905D01*
G01X3339644Y-4639624D01*
G01X3333796Y-4619068D01*
G01X3324269Y-4599937D01*
G01X3311390Y-4582882D01*
G01X3295596Y-4568484D01*
G01X3277425Y-4557233D01*
G01X3257497Y-4549512D01*
G01X3236488Y-4545585D01*
G01X3215117Y-4545585D01*
G01X3194109Y-4549512D01*
G01X3174180Y-4557233D01*
G01X3156009Y-4568484D01*
G01X3140215Y-4582882D01*
G01X3127336Y-4599937D01*
G01X3117809Y-4619068D01*
G01X3111961Y-4639624D01*
G01X3109989Y-4660905D01*
G01X2969514Y-4660905D01*
G01X2969514Y-4406905D01*
G01X3109989Y-4406905D01*
G01X3111961Y-4428186D01*
G01X3117809Y-4448742D01*
G01X3127336Y-4467873D01*
G01X3140215Y-4484928D01*
G01X3156009Y-4499327D01*
G01X3174180Y-4510577D01*
G01X3194109Y-4518298D01*
G01X3215117Y-4522225D01*
G01X3236488Y-4522225D01*
G01X3257497Y-4518298D01*
G01X3277425Y-4510577D01*
G01X3295596Y-4499327D01*
G01X3311390Y-4484928D01*
G01X3324269Y-4467873D01*
G01X3333796Y-4448742D01*
G01X3339644Y-4428186D01*
G01X3341616Y-4406905D01*
G01X3341616Y-4406905D01*
G01X4633989Y-4406905D01*
G01X4635961Y-4428186D01*
G01X4641809Y-4448742D01*
G01X4651336Y-4467873D01*
G01X4664215Y-4484928D01*
G01X4680009Y-4499327D01*
G01X4698180Y-4510577D01*
G01X4718109Y-4518298D01*
G01X4739117Y-4522225D01*
G01X4760488Y-4522225D01*
G01X4781497Y-4518298D01*
G01X4801425Y-4510577D01*
G01X4819596Y-4499327D01*
G01X4835390Y-4484928D01*
G01X4848269Y-4467873D01*
G01X4857796Y-4448742D01*
G01X4863644Y-4428186D01*
G01X4865616Y-4406905D01*
G01X4865616Y-4406905D01*
G01X4863644Y-4385624D01*
G01X4857796Y-4365068D01*
G01X4848269Y-4345937D01*
G01X4835390Y-4328882D01*
G01X4819596Y-4314484D01*
G01X4801425Y-4303233D01*
G01X4781497Y-4295512D01*
G01X4760488Y-4291585D01*
G01X4739117Y-4291585D01*
G01X4718109Y-4295512D01*
G01X4698180Y-4303233D01*
G01X4680009Y-4314484D01*
G01X4664215Y-4328882D01*
G01X4651336Y-4345937D01*
G01X4641809Y-4365068D01*
G01X4635961Y-4385624D01*
G01X4633989Y-4406905D01*
G01X3341616Y-4406905D01*
G01X3339644Y-4385624D01*
G01X3333796Y-4365068D01*
G01X3324269Y-4345937D01*
G01X3311390Y-4328882D01*
G01X3295596Y-4314484D01*
G01X3277425Y-4303233D01*
G01X3257497Y-4295512D01*
G01X3236488Y-4291585D01*
G01X3215117Y-4291585D01*
G01X3194109Y-4295512D01*
G01X3174180Y-4303233D01*
G01X3156009Y-4314484D01*
G01X3140215Y-4328882D01*
G01X3127336Y-4345937D01*
G01X3117809Y-4365068D01*
G01X3111961Y-4385624D01*
G01X3109989Y-4406905D01*
G01X2969514Y-4406905D01*
G01X2969514Y-4152905D01*
G01X3109989Y-4152905D01*
G01X3111961Y-4174186D01*
G01X3117809Y-4194742D01*
G01X3127336Y-4213873D01*
G01X3140215Y-4230928D01*
G01X3156009Y-4245327D01*
G01X3174180Y-4256577D01*
G01X3194109Y-4264298D01*
G01X3215117Y-4268225D01*
G01X3236488Y-4268225D01*
G01X3257497Y-4264298D01*
G01X3277425Y-4256577D01*
G01X3295596Y-4245327D01*
G01X3311390Y-4230928D01*
G01X3324269Y-4213873D01*
G01X3333796Y-4194742D01*
G01X3339644Y-4174186D01*
G01X3341616Y-4152905D01*
G01X3341616Y-4152905D01*
G01X3341616Y-4152905D01*
G01X4633989Y-4152905D01*
G01X4635961Y-4174186D01*
G01X4641809Y-4194742D01*
G01X4651336Y-4213873D01*
G01X4664215Y-4230928D01*
G01X4680009Y-4245327D01*
G01X4698180Y-4256577D01*
G01X4718109Y-4264298D01*
G01X4739117Y-4268225D01*
G01X4760488Y-4268225D01*
G01X4781497Y-4264298D01*
G01X4801425Y-4256577D01*
G01X4819596Y-4245327D01*
G01X4835390Y-4230928D01*
G01X4848269Y-4213873D01*
G01X4857796Y-4194742D01*
G01X4863644Y-4174186D01*
G01X4865616Y-4152905D01*
G01X4865616Y-4152905D01*
G01X4863644Y-4131624D01*
G01X4857796Y-4111068D01*
G01X4848269Y-4091937D01*
G01X4835390Y-4074882D01*
G01X4819596Y-4060484D01*
G01X4801425Y-4049233D01*
G01X4781497Y-4041512D01*
G01X4760488Y-4037585D01*
G01X4739117Y-4037585D01*
G01X4718109Y-4041512D01*
G01X4698180Y-4049233D01*
G01X4680009Y-4060484D01*
G01X4664215Y-4074882D01*
G01X4651336Y-4091937D01*
G01X4641809Y-4111068D01*
G01X4635961Y-4131624D01*
G01X4633989Y-4152905D01*
G01X3341616Y-4152905D01*
G01X3339644Y-4131624D01*
G01X3333796Y-4111068D01*
G01X3324269Y-4091937D01*
G01X3311390Y-4074882D01*
G01X3295596Y-4060484D01*
G01X3277425Y-4049233D01*
G01X3257497Y-4041512D01*
G01X3236488Y-4037585D01*
G01X3215117Y-4037585D01*
G01X3194109Y-4041512D01*
G01X3174180Y-4049233D01*
G01X3156009Y-4060484D01*
G01X3140215Y-4074882D01*
G01X3127336Y-4091937D01*
G01X3117809Y-4111068D01*
G01X3111961Y-4131624D01*
G01X3109989Y-4152905D01*
G01X2969514Y-4152905D01*
G01X2969514Y-3898905D01*
G01X3109989Y-3898905D01*
G01X3111882Y-3919761D01*
G01X3117500Y-3939935D01*
G01X3126660Y-3958767D01*
G01X3139060Y-3975643D01*
G01X3154298Y-3990009D01*
G01X3171873Y-4001396D01*
G01X3191211Y-4009432D01*
G01X3211680Y-4013855D01*
G01X3232612Y-4014519D01*
G01X3253320Y-4011402D01*
G01X3273129Y-4004608D01*
G01X3291390Y-3994357D01*
G01X3307507Y-3980986D01*
G01X3320953Y-3964930D01*
G01X3322621Y-3962913D01*
G01X3328577Y-3956132D01*
G01X3328577Y-3956132D01*
G01X3334387Y-3950329D01*
G01X3336333Y-3948664D01*
G01X3338017Y-3947419D01*
G01X3568695Y-3947419D01*
G01X3581251Y-3945766D01*
G01X3592952Y-3940919D01*
G01X3602999Y-3933210D01*
G01X3830718Y-3705491D01*
G01X3832441Y-3704992D01*
G01X3835087Y-3704589D01*
G01X3849764Y-3701546D01*
G01X3863382Y-3695285D01*
G01X3875246Y-3686126D01*
G01X3884750Y-3674537D01*
G01X3891409Y-3661109D01*
G01X3894882Y-3646529D01*
G01X3894894Y-3644905D01*
G01X4634243Y-3644905D01*
G01X4636210Y-3666139D01*
G01X4642046Y-3686650D01*
G01X4651552Y-3705739D01*
G01X4664403Y-3722757D01*
G01X4680162Y-3737124D01*
G01X4698293Y-3748350D01*
G01X4718178Y-3756053D01*
G01X4739140Y-3759972D01*
G01X4760465Y-3759972D01*
G01X4781427Y-3756053D01*
G01X4801312Y-3748350D01*
G01X4819443Y-3737124D01*
G01X4835202Y-3722757D01*
G01X4848053Y-3705739D01*
G01X4857559Y-3686650D01*
G01X4863395Y-3666139D01*
G01X4865362Y-3644905D01*
G01X4865362Y-3644905D01*
G01X4863395Y-3623671D01*
G01X4857559Y-3603160D01*
G01X4848053Y-3584071D01*
G01X4835202Y-3567053D01*
G01X4819443Y-3552686D01*
G01X4801312Y-3541460D01*
G01X4781427Y-3533757D01*
G01X4760465Y-3529838D01*
G01X4739140Y-3529838D01*
G01X4718178Y-3533757D01*
G01X4698293Y-3541460D01*
G01X4680162Y-3552686D01*
G01X4664403Y-3567053D01*
G01X4651552Y-3584071D01*
G01X4642046Y-3603160D01*
G01X4636210Y-3623671D01*
G01X4634243Y-3644905D01*
G01X3894894Y-3644905D01*
G01X3894993Y-3631541D01*
G01X3891734Y-3616911D01*
G01X3885274Y-3603387D01*
G01X3875941Y-3591659D01*
G01X3864213Y-3582326D01*
G01X3850689Y-3575866D01*
G01X3836059Y-3572607D01*
G01X3821071Y-3572718D01*
G01X3806491Y-3576191D01*
G01X3793063Y-3582850D01*
G01X3781474Y-3592354D01*
G01X3772315Y-3604218D01*
G01X3766054Y-3617836D01*
G01X3763011Y-3632513D01*
G01X3762608Y-3635159D01*
G01X3762109Y-3636882D01*
G01X3548600Y-3850391D01*
G01X3338017Y-3850391D01*
G01X3336333Y-3849146D01*
G01X3334387Y-3847482D01*
G01X3328577Y-3841678D01*
G01X3322621Y-3834898D01*
G01X3320953Y-3832880D01*
G01X3307507Y-3816825D01*
G01X3291390Y-3803453D01*
G01X3273129Y-3793202D01*
G01X3253320Y-3786408D01*
G01X3232612Y-3783292D01*
G01X3211680Y-3783955D01*
G01X3191211Y-3788378D01*
G01X3171873Y-3796414D01*
G01X3154298Y-3807801D01*
G01X3139060Y-3822168D01*
G01X3126660Y-3839043D01*
G01X3117500Y-3857875D01*
G01X3111882Y-3878049D01*
G01X3109989Y-3898905D01*
G01X2969514Y-3898905D01*
G01X2969514Y-3648522D01*
G01X3110056Y-3648522D01*
G01X3112489Y-3668768D01*
G01X3118434Y-3688274D01*
G01X3127709Y-3706434D01*
G01X3140024Y-3722687D01*
G01X3154998Y-3736528D01*
G01X3172168Y-3747528D01*
G01X3191001Y-3755348D01*
G01X3210913Y-3759743D01*
G01X3231287Y-3760579D01*
G01X3251492Y-3757828D01*
G01X3270902Y-3751577D01*
G01X3287277Y-3743056D01*
G01X3302091Y-3732042D01*
G01X3314967Y-3718814D01*
G01X3378200Y-3718814D01*
G01X3390756Y-3717161D01*
G01X3402457Y-3712314D01*
G01X3412505Y-3704605D01*
G01X3526805Y-3590305D01*
G01X3534514Y-3580257D01*
G01X3539361Y-3568556D01*
G01X3541014Y-3556000D01*
G01X3541014Y-3487195D01*
G01X3637304Y-3390905D01*
G01X4634243Y-3390905D01*
G01X4636210Y-3412139D01*
G01X4642046Y-3432650D01*
G01X4651552Y-3451739D01*
G01X4664403Y-3468757D01*
G01X4680162Y-3483124D01*
G01X4698293Y-3494350D01*
G01X4718178Y-3502053D01*
G01X4739140Y-3505972D01*
G01X4760465Y-3505972D01*
G01X4781427Y-3502053D01*
G01X4801312Y-3494350D01*
G01X4819443Y-3483124D01*
G01X4835202Y-3468757D01*
G01X4848053Y-3451739D01*
G01X4857559Y-3432650D01*
G01X4863395Y-3412139D01*
G01X4865362Y-3390905D01*
G01X4865362Y-3390905D01*
G01X4863395Y-3369671D01*
G01X4857559Y-3349160D01*
G01X4848053Y-3330071D01*
G01X4835202Y-3313053D01*
G01X4819443Y-3298686D01*
G01X4801312Y-3287460D01*
G01X4781427Y-3279757D01*
G01X4760465Y-3275838D01*
G01X4739140Y-3275838D01*
G01X4718178Y-3279757D01*
G01X4698293Y-3287460D01*
G01X4680162Y-3298686D01*
G01X4664403Y-3313053D01*
G01X4651552Y-3330071D01*
G01X4642046Y-3349160D01*
G01X4636210Y-3369671D01*
G01X4634243Y-3390905D01*
G01X3637304Y-3390905D01*
G01X3760868Y-3267341D01*
G01X3762591Y-3266842D01*
G01X3765237Y-3266439D01*
G01X3779914Y-3263396D01*
G01X3793532Y-3257135D01*
G01X3805396Y-3247976D01*
G01X3814900Y-3236387D01*
G01X3821559Y-3222959D01*
G01X3825032Y-3208379D01*
G01X3825143Y-3193391D01*
G01X3821884Y-3178761D01*
G01X3815424Y-3165237D01*
G01X3806091Y-3153509D01*
G01X3794363Y-3144176D01*
G01X3780839Y-3137716D01*
G01X3766209Y-3134457D01*
G01X3751221Y-3134568D01*
G01X3736641Y-3138041D01*
G01X3723213Y-3144700D01*
G01X3711624Y-3154204D01*
G01X3702465Y-3166068D01*
G01X3696204Y-3179686D01*
G01X3693161Y-3194363D01*
G01X3692758Y-3197009D01*
G01X3692259Y-3198732D01*
G01X3458195Y-3432795D01*
G01X3450486Y-3442843D01*
G01X3445639Y-3454544D01*
G01X3443986Y-3467100D01*
G01X3443986Y-3535905D01*
G01X3358105Y-3621786D01*
G01X3354433Y-3621786D01*
G01X3354101Y-3621598D01*
G01X3354101Y-3621598D01*
G01X3352206Y-3620176D01*
G01X3350144Y-3618380D01*
G01X3344217Y-3612281D01*
G01X3338525Y-3605383D01*
G01X3333284Y-3598208D01*
G01X3328971Y-3591700D01*
G01X3325808Y-3586495D01*
G01X3314015Y-3569863D01*
G01X3299488Y-3555556D01*
G01X3282678Y-3544019D01*
G01X3264104Y-3535608D01*
G01X3244344Y-3530585D01*
G01X3224009Y-3529105D01*
G01X3203729Y-3531214D01*
G01X3184134Y-3536847D01*
G01X3165830Y-3545829D01*
G01X3149385Y-3557881D01*
G01X3135308Y-3572630D01*
G01X3124036Y-3589620D01*
G01X3115918Y-3608323D01*
G01X3111211Y-3628164D01*
G01X3110056Y-3648522D01*
G01X2969514Y-3648522D01*
G01X2969514Y-3387132D01*
G01X3110069Y-3387132D01*
G01X3111262Y-3407792D01*
G01X3116112Y-3427911D01*
G01X3124464Y-3446846D01*
G01X3136051Y-3463993D01*
G01X3150504Y-3478805D01*
G01X3167362Y-3490810D01*
G01X3186086Y-3499624D01*
G01X3206080Y-3504966D01*
G01X3226705Y-3506666D01*
G01X3247303Y-3504670D01*
G01X3267218Y-3499040D01*
G01X3285814Y-3489958D01*
G01X3298693Y-3480904D01*
G01X3310225Y-3470187D01*
G01X3320198Y-3458005D01*
G01X3321436Y-3456881D01*
G01X3321436Y-3456881D01*
G01X3325848Y-3453660D01*
G01X3363954Y-3453660D01*
G01X3376510Y-3452007D01*
G01X3388211Y-3447161D01*
G01X3398258Y-3439451D01*
G01X3539505Y-3298205D01*
G01X3547214Y-3288157D01*
G01X3552061Y-3276456D01*
G01X3553714Y-3263900D01*
G01X3553714Y-2967156D01*
G01X3554580Y-2965583D01*
G01X3556166Y-2963427D01*
G01X3564392Y-2950898D01*
G01X3569594Y-2936842D01*
G01X3571507Y-2921976D01*
G01X3570032Y-2907061D01*
G01X3565246Y-2892857D01*
G01X3557392Y-2880091D01*
G01X3546872Y-2869415D01*
G01X3534224Y-2861375D01*
G01X3520092Y-2856380D01*
G01X3505200Y-2854686D01*
G01X3490308Y-2856380D01*
G01X3476176Y-2861375D01*
G01X3463528Y-2869415D01*
G01X3453008Y-2880091D01*
G01X3445154Y-2892857D01*
G01X3440368Y-2907061D01*
G01X3438893Y-2921976D01*
G01X3440806Y-2936842D01*
G01X3446008Y-2950898D01*
G01X3454234Y-2963427D01*
G01X3455820Y-2965583D01*
G01X3456686Y-2967156D01*
G01X3456686Y-3243805D01*
G01X3345709Y-3354782D01*
G01X3344236Y-3353483D01*
G01X3338363Y-3347400D01*
G01X3332541Y-3340407D01*
G01X3326815Y-3332862D01*
G01X3321066Y-3325044D01*
G01X3307829Y-3309147D01*
G01X3291975Y-3295858D01*
G01X3274010Y-3285601D01*
G01X3254507Y-3278705D01*
G01X3234088Y-3275388D01*
G01X3213405Y-3275757D01*
G01X3193117Y-3279799D01*
G01X3173872Y-3287387D01*
G01X3156284Y-3298277D01*
G01X3140914Y-3312122D01*
G01X3128252Y-3328481D01*
G01X3118703Y-3346832D01*
G01X3112570Y-3366588D01*
G01X3110069Y-3387132D01*
G01X2969514Y-3387132D01*
G01X2969514Y-2281356D01*
G01X2970380Y-2279783D01*
G01X2971966Y-2277627D01*
G01X2980192Y-2265098D01*
G01X2985394Y-2251042D01*
G01X2987307Y-2236176D01*
G01X2985832Y-2221261D01*
G01X2981046Y-2207057D01*
G01X2973192Y-2194291D01*
G01X2962672Y-2183615D01*
G01X2950024Y-2175575D01*
G01X2935892Y-2170580D01*
G01X2921000Y-2168886D01*
G01X2906108Y-2170580D01*
G01X2891976Y-2175575D01*
G01X2879328Y-2183615D01*
G01X2868808Y-2194291D01*
G01X2860954Y-2207057D01*
G01X2856168Y-2221261D01*
G01X2854693Y-2236176D01*
G01X2856606Y-2251042D01*
G01X2861808Y-2265098D01*
G01X2870034Y-2277627D01*
G01X2871620Y-2279783D01*
G01X2872486Y-2281356D01*
G01X2872486Y-2399201D01*
G01X2858840Y-2397499D01*
G01X2845136Y-2398649D01*
G01X2831964Y-2402600D01*
G01X2819890Y-2409183D01*
G01X2809434Y-2418114D01*
G01X2801044Y-2429011D01*
G01X2795083Y-2441403D01*
G01X2791805Y-2454759D01*
G01X2791353Y-2468503D01*
G01X2793745Y-2482045D01*
G01X2798879Y-2494803D01*
G01X2806534Y-2506227D01*
G01X2808120Y-2508383D01*
G01X2808986Y-2509956D01*
G01X2808986Y-2564301D01*
G01X2798194Y-2562719D01*
G01X2787289Y-2562926D01*
G01X2776566Y-2564919D01*
G01X2766314Y-2568642D01*
G01X2766314Y-2509956D01*
G01X2767180Y-2508383D01*
G01X2768766Y-2506227D01*
G01X2776992Y-2493698D01*
G01X2782194Y-2479642D01*
G01X2784107Y-2464776D01*
G01X2782632Y-2449861D01*
G01X2777846Y-2435657D01*
G01X2769992Y-2422891D01*
G01X2759472Y-2412215D01*
G01X2746824Y-2404175D01*
G01X2732692Y-2399180D01*
G01X2717800Y-2397486D01*
G01X2702908Y-2399180D01*
G01X2688776Y-2404175D01*
G01X2676128Y-2412215D01*
G01X2665608Y-2422891D01*
G01X2657754Y-2435657D01*
G01X2652968Y-2449861D01*
G01X2651493Y-2464776D01*
G01X2279269Y-2464776D01*
G01X2279269Y-2233314D01*
G01X2360314Y-2152269D01*
G01X4985131Y-2152269D01*
G01X4985131Y-3583293D01*
G01X4787988Y-3780436D01*
G01X4787562Y-3780775D01*
G01X4786886Y-3781012D01*
G01X4781473Y-3782221D01*
G01X4774886Y-3782951D01*
G01X4767190Y-3783254D01*
G01X4758798Y-3783242D01*
G01X4755731Y-3783243D01*
G01X4742623Y-3783314D01*
G01X4722448Y-3786381D01*
G01X4703125Y-3792940D01*
G01X4685252Y-3802787D01*
G01X4669385Y-3815619D01*
G01X4656015Y-3831035D01*
G01X4645557Y-3848558D01*
G01X4638336Y-3867644D01*
G01X4634577Y-3887700D01*
G01X4634394Y-3908106D01*
G01X4637795Y-3928227D01*
G01X4644674Y-3947439D01*
G01X4654817Y-3965145D01*
G01X4667910Y-3980798D01*
G01X4683562Y-3993890D01*
G01X4701269Y-4004033D01*
G01X4720481Y-4010912D01*
G01X4740602Y-4014313D01*
G01X4761007Y-4014131D01*
G01X4781064Y-4010371D01*
G01X4800150Y-4003151D01*
G01X4817673Y-3992693D01*
G01X4833089Y-3979323D01*
G01X4845920Y-3963456D01*
G01X4855768Y-3945583D01*
G01X4862327Y-3926259D01*
G01X4865394Y-3906085D01*
G01X4865465Y-3892976D01*
G01X4865466Y-3889837D01*
G01X4865453Y-3881517D01*
G01X4865757Y-3873821D01*
G01X4866486Y-3867234D01*
G01X4867696Y-3861822D01*
G01X4868010Y-3860981D01*
G01X5074031Y-3654960D01*
G01X5074031Y-7429500D01*
G01X5075965Y-7444193D01*
G01X5081637Y-7457884D01*
G01X5090658Y-7469642D01*
G01X5573258Y-7952242D01*
G01X5585016Y-7961263D01*
G01X5598707Y-7966935D01*
G01X5613400Y-7968869D01*
G01X5626331Y-7968869D01*
G01X5637149Y-7989854D01*
G01X5645022Y-8012111D01*
G01X5649805Y-8035231D01*
G01X5651409Y-8058785D01*
G01X5651409Y-8632008D01*
G01X5551786Y-8731631D01*
G01X2881014Y-8731631D01*
G01X2799969Y-8650586D01*
G01X2799969Y-8382000D01*
G01X5136286Y-8382000D01*
G01X5138303Y-8412780D01*
G01X5144321Y-8443033D01*
G01X5154236Y-8472242D01*
G01X5167879Y-8499907D01*
G01X5185016Y-8525554D01*
G01X5205354Y-8548746D01*
G01X5228546Y-8569084D01*
G01X5254193Y-8586221D01*
G01X5281858Y-8599864D01*
G01X5311067Y-8609779D01*
G01X5341320Y-8615797D01*
G01X5372100Y-8617814D01*
G01X5402880Y-8615797D01*
G01X5433133Y-8609779D01*
G01X5462342Y-8599864D01*
G01X5490007Y-8586221D01*
G01X5515654Y-8569084D01*
G01X5538846Y-8548746D01*
G01X5559184Y-8525554D01*
G01X5576321Y-8499907D01*
G01X5589964Y-8472242D01*
G01X5599879Y-8443033D01*
G01X5605897Y-8412780D01*
G01X5607914Y-8382000D01*
G01X5605897Y-8351220D01*
G01X5599879Y-8320967D01*
G01X5589964Y-8291758D01*
G01X5576321Y-8264093D01*
G01X5559184Y-8238446D01*
G01X5538846Y-8215254D01*
G01X5515654Y-8194916D01*
G01X5490007Y-8177779D01*
G01X5462342Y-8164136D01*
G01X5433133Y-8154221D01*
G01X5402880Y-8148203D01*
G01X5372100Y-8146186D01*
G01X5341320Y-8148203D01*
G01X5311067Y-8154221D01*
G01X5281858Y-8164136D01*
G01X5254193Y-8177779D01*
G01X5228546Y-8194916D01*
G01X5205354Y-8215254D01*
G01X5185016Y-8238446D01*
G01X5167879Y-8264093D01*
G01X5154236Y-8291758D01*
G01X5144321Y-8320967D01*
G01X5138303Y-8351220D01*
G01X5136286Y-8382000D01*
G01X5136286Y-8382000D01*
G01X2799969Y-8382000D01*
G01X2799969Y-8337574D01*
G01X2863869Y-8273674D01*
G01X3115032Y-8273674D01*
G01X3115572Y-8273735D01*
G01X3116217Y-8274046D01*
G01X3120900Y-8277018D01*
G01X3126073Y-8281160D01*
G01X3131730Y-8286387D01*
G01X3137655Y-8292330D01*
G01X3139824Y-8294497D01*
G01X3155581Y-8309002D01*
G01X3173740Y-8320357D01*
G01X3193678Y-8328174D01*
G01X3214716Y-8332187D01*
G01X3236132Y-8332257D01*
G01X3257195Y-8328383D01*
G01X3277185Y-8320697D01*
G01X3295417Y-8309461D01*
G01X3311270Y-8295060D01*
G01X3324199Y-8277987D01*
G01X3333764Y-8258825D01*
G01X3339636Y-8238229D01*
G01X3341616Y-8216905D01*
G01X4633989Y-8216905D01*
G01X4635961Y-8238186D01*
G01X4641809Y-8258742D01*
G01X4651336Y-8277873D01*
G01X4664215Y-8294928D01*
G01X4680009Y-8309327D01*
G01X4698180Y-8320577D01*
G01X4718109Y-8328298D01*
G01X4739117Y-8332225D01*
G01X4760488Y-8332225D01*
G01X4781497Y-8328298D01*
G01X4801425Y-8320577D01*
G01X4819596Y-8309327D01*
G01X4835390Y-8294928D01*
G01X4848269Y-8277873D01*
G01X4857796Y-8258742D01*
G01X4863644Y-8238186D01*
G01X4865616Y-8216905D01*
G01X4865616Y-8216905D01*
G01X4863644Y-8195624D01*
G01X4857796Y-8175068D01*
G01X4848269Y-8155937D01*
G01X4835390Y-8138882D01*
G01X4819596Y-8124484D01*
G01X4801425Y-8113233D01*
G01X4781497Y-8105512D01*
G01X4760488Y-8101585D01*
G01X4739117Y-8101585D01*
G01X4718109Y-8105512D01*
G01X4698180Y-8113233D01*
G01X4680009Y-8124484D01*
G01X4664215Y-8138882D01*
G01X4651336Y-8155937D01*
G01X4641809Y-8175068D01*
G01X4635961Y-8195624D01*
G01X4633989Y-8216905D01*
G01X3341616Y-8216905D01*
G01X3341616Y-8216905D01*
G01X3339636Y-8195580D01*
G01X3333763Y-8174984D01*
G01X3324198Y-8155822D01*
G01X3311269Y-8138749D01*
G01X3295417Y-8124348D01*
G01X3277184Y-8113113D01*
G01X3257194Y-8105427D01*
G01X3236131Y-8101553D01*
G01X3214715Y-8101623D01*
G01X3193677Y-8105636D01*
G01X3173739Y-8113454D01*
G01X3155580Y-8124809D01*
G01X3139823Y-8139314D01*
G01X3137605Y-8141530D01*
G01X3131730Y-8147423D01*
G01X3126073Y-8152650D01*
G01X3120900Y-8156792D01*
G01X3116217Y-8159764D01*
G01X3115401Y-8160136D01*
G01X2840354Y-8160136D01*
G01X2825661Y-8162070D01*
G01X2811970Y-8167742D01*
G01X2800212Y-8176763D01*
G01X2708209Y-8268767D01*
G01X2690505Y-8258245D01*
G01X2673935Y-8246013D01*
G01X2658665Y-8232194D01*
G01X2514329Y-8087858D01*
G01X2502572Y-8078837D01*
G01X2488880Y-8073165D01*
G01X2474188Y-8071231D01*
G01X2234816Y-8071231D01*
G01X2234506Y-8071123D01*
G01X2233758Y-8070756D01*
G01X2228831Y-8067568D01*
G01X2223406Y-8063142D01*
G01X2217502Y-8057589D01*
G01X2211284Y-8051255D01*
G01X2209580Y-8049536D01*
G01X2194788Y-8035492D01*
G01X2177803Y-8024198D01*
G01X2159131Y-8015989D01*
G01X2139326Y-8011109D01*
G01X2118978Y-8009703D01*
G01X2098690Y-8011813D01*
G01X2079066Y-8017376D01*
G01X2060690Y-8026227D01*
G01X2044106Y-8038103D01*
G01X2029809Y-8052650D01*
G01X2018223Y-8069437D01*
G01X2009692Y-8087965D01*
G01X2004470Y-8107682D01*
G01X2002713Y-8128003D01*
G01X2004471Y-8148324D01*
G01X2009694Y-8168041D01*
G01X2018226Y-8186568D01*
G01X2029813Y-8203355D01*
G01X2044111Y-8217901D01*
G01X2060695Y-8229776D01*
G01X2079072Y-8238626D01*
G01X2098696Y-8244188D01*
G01X2118984Y-8246297D01*
G01X2139333Y-8244890D01*
G01X2159137Y-8240009D01*
G01X2177809Y-8231798D01*
G01X2194793Y-8220503D01*
G01X2209585Y-8206459D01*
G01X2211411Y-8204617D01*
G01X2217502Y-8198411D01*
G01X2223406Y-8192858D01*
G01X2228831Y-8188432D01*
G01X2233758Y-8185244D01*
G01X2234506Y-8184877D01*
G01X2234816Y-8184769D01*
G01X2450673Y-8184769D01*
G01X2608223Y-8342319D01*
G01X2631486Y-8367799D01*
G01X2652383Y-8395252D01*
G01X2670747Y-8424461D01*
G01X2686431Y-8455191D01*
G01X2686431Y-8674100D01*
G01X2688365Y-8688793D01*
G01X2694037Y-8702484D01*
G01X2703058Y-8714242D01*
G01X2817358Y-8828542D01*
G01X2829116Y-8837563D01*
G01X2842807Y-8843235D01*
G01X2857500Y-8845169D01*
G01X5575300Y-8845169D01*
G01X5589993Y-8843235D01*
G01X5603685Y-8837563D01*
G01X5615442Y-8828542D01*
G01X5748320Y-8695664D01*
G01X5757341Y-8683907D01*
G01X5763012Y-8670215D01*
G01X5764947Y-8655522D01*
G01X5764947Y-8420100D01*
G01X5839998Y-8420100D01*
G01X5841945Y-8441103D01*
G01X5847717Y-8461390D01*
G01X5857119Y-8480271D01*
G01X5869830Y-8497103D01*
G01X5885417Y-8511313D01*
G01X5903351Y-8522417D01*
G01X5923019Y-8530037D01*
G01X5943752Y-8533912D01*
G01X5964845Y-8533912D01*
G01X5985578Y-8530037D01*
G01X6005246Y-8522417D01*
G01X6023180Y-8511313D01*
G01X6038767Y-8497103D01*
G01X6051478Y-8480271D01*
G01X6060880Y-8461390D01*
G01X6066652Y-8441103D01*
G01X6068598Y-8420100D01*
G01X6068598Y-8420100D01*
G01X6066652Y-8399097D01*
G01X6060880Y-8378810D01*
G01X6051478Y-8359929D01*
G01X6038767Y-8343097D01*
G01X6023180Y-8328887D01*
G01X6005246Y-8317783D01*
G01X5985578Y-8310163D01*
G01X5964845Y-8306288D01*
G01X5943752Y-8306288D01*
G01X5923019Y-8310163D01*
G01X5903351Y-8317783D01*
G01X5885417Y-8328887D01*
G01X5869830Y-8343097D01*
G01X5857119Y-8359929D01*
G01X5847717Y-8378810D01*
G01X5841945Y-8399097D01*
G01X5839998Y-8420100D01*
G01X5764947Y-8420100D01*
G01X5764947Y-8166100D01*
G01X5839744Y-8166100D01*
G01X5841695Y-8187149D01*
G01X5847480Y-8207482D01*
G01X5856903Y-8226405D01*
G01X5869642Y-8243275D01*
G01X5885264Y-8257516D01*
G01X5903237Y-8268645D01*
G01X5922949Y-8276281D01*
G01X5943729Y-8280165D01*
G01X5964868Y-8280165D01*
G01X5985648Y-8276281D01*
G01X6005360Y-8268645D01*
G01X6023333Y-8257516D01*
G01X6038955Y-8243275D01*
G01X6051694Y-8226405D01*
G01X6061117Y-8207482D01*
G01X6066902Y-8187149D01*
G01X6068852Y-8166100D01*
G01X6068852Y-8166100D01*
G01X6066902Y-8145051D01*
G01X6061117Y-8124718D01*
G01X6051694Y-8105795D01*
G01X6038955Y-8088925D01*
G01X6023333Y-8074684D01*
G01X6005360Y-8063555D01*
G01X5985648Y-8055919D01*
G01X5964868Y-8052035D01*
G01X5943729Y-8052035D01*
G01X5922949Y-8055919D01*
G01X5903237Y-8063555D01*
G01X5885264Y-8074684D01*
G01X5869642Y-8088925D01*
G01X5856903Y-8105795D01*
G01X5847480Y-8124718D01*
G01X5841695Y-8145051D01*
G01X5839744Y-8166100D01*
G01X5764947Y-8166100D01*
G01X5764947Y-8058785D01*
G01X5766551Y-8035231D01*
G01X5771334Y-8012111D01*
G01X5779207Y-7989854D01*
G01X5790024Y-7968869D01*
G01X5812693Y-7968869D01*
G01X5822371Y-7969978D01*
G01X5831547Y-7973249D01*
G01X5839744Y-7978511D01*
G01X5839744Y-7990840D01*
G01X5841497Y-8001907D01*
G01X5846584Y-8011891D01*
G01X5854508Y-8019814D01*
G01X5864491Y-8024901D01*
G01X5875558Y-8026654D01*
G01X6033038Y-8026654D01*
G01X6044106Y-8024901D01*
G01X6054089Y-8019814D01*
G01X6062013Y-8011891D01*
G01X6067100Y-8001907D01*
G01X6068852Y-7990840D01*
G01X6068852Y-7833360D01*
G01X6067100Y-7822293D01*
G01X6062013Y-7812309D01*
G01X6054089Y-7804386D01*
G01X6044106Y-7799299D01*
G01X6033038Y-7797546D01*
G01X5875558Y-7797546D01*
G01X5864491Y-7799299D01*
G01X5854508Y-7804386D01*
G01X5846584Y-7812309D01*
G01X5841497Y-7822293D01*
G01X5839744Y-7833360D01*
G01X5839744Y-7845689D01*
G01X5831547Y-7850951D01*
G01X5822371Y-7854222D01*
G01X5812693Y-7855331D01*
G01X5636914Y-7855331D01*
G01X5187569Y-7405986D01*
G01X5187569Y-6430551D01*
G01X5839744Y-6430551D01*
G01X5841695Y-6451600D01*
G01X5847480Y-6471933D01*
G01X5856903Y-6490856D01*
G01X5869642Y-6507726D01*
G01X5885264Y-6521967D01*
G01X5903237Y-6533096D01*
G01X5922949Y-6540732D01*
G01X5943729Y-6544616D01*
G01X5964868Y-6544616D01*
G01X5985648Y-6540732D01*
G01X6005360Y-6533096D01*
G01X6023333Y-6521967D01*
G01X6038955Y-6507726D01*
G01X6051694Y-6490856D01*
G01X6061117Y-6471933D01*
G01X6066902Y-6451600D01*
G01X6068852Y-6430551D01*
G01X6068852Y-6430551D01*
G01X6066902Y-6409502D01*
G01X6061117Y-6389169D01*
G01X6051694Y-6370246D01*
G01X6038955Y-6353376D01*
G01X6023333Y-6339135D01*
G01X6005360Y-6328006D01*
G01X5985648Y-6320370D01*
G01X5964868Y-6316486D01*
G01X5943729Y-6316486D01*
G01X5922949Y-6320370D01*
G01X5903237Y-6328006D01*
G01X5885264Y-6339135D01*
G01X5869642Y-6353376D01*
G01X5856903Y-6370246D01*
G01X5847480Y-6389169D01*
G01X5841695Y-6409502D01*
G01X5839744Y-6430551D01*
G01X5187569Y-6430551D01*
G01X5187569Y-6176551D01*
G01X5839998Y-6176551D01*
G01X5841945Y-6197554D01*
G01X5847717Y-6217841D01*
G01X5857119Y-6236722D01*
G01X5869830Y-6253554D01*
G01X5885417Y-6267764D01*
G01X5903351Y-6278868D01*
G01X5923019Y-6286488D01*
G01X5943752Y-6290363D01*
G01X5964845Y-6290363D01*
G01X5985578Y-6286488D01*
G01X6005246Y-6278868D01*
G01X6023180Y-6267764D01*
G01X6038767Y-6253554D01*
G01X6051478Y-6236722D01*
G01X6060880Y-6217841D01*
G01X6066652Y-6197554D01*
G01X6068598Y-6176551D01*
G01X6068598Y-6176551D01*
G01X6066652Y-6155548D01*
G01X6060880Y-6135261D01*
G01X6051478Y-6116380D01*
G01X6038767Y-6099548D01*
G01X6023180Y-6085338D01*
G01X6005246Y-6074234D01*
G01X5985578Y-6066614D01*
G01X5964845Y-6062739D01*
G01X5943752Y-6062739D01*
G01X5923019Y-6066614D01*
G01X5903351Y-6074234D01*
G01X5885417Y-6085338D01*
G01X5869830Y-6099548D01*
G01X5857119Y-6116380D01*
G01X5847717Y-6135261D01*
G01X5841945Y-6155548D01*
G01X5839998Y-6176551D01*
G01X5187569Y-6176551D01*
G01X5187569Y-6004398D01*
G01X5208554Y-5993580D01*
G01X5230811Y-5985707D01*
G01X5253931Y-5980924D01*
G01X5277485Y-5979320D01*
G01X5812693Y-5979320D01*
G01X5822371Y-5980429D01*
G01X5831547Y-5983700D01*
G01X5839744Y-5988962D01*
G01X5839744Y-6001291D01*
G01X5841497Y-6012358D01*
G01X5846584Y-6022342D01*
G01X5854508Y-6030265D01*
G01X5864491Y-6035352D01*
G01X5875558Y-6037105D01*
G01X6033038Y-6037105D01*
G01X6044106Y-6035352D01*
G01X6054089Y-6030265D01*
G01X6062013Y-6022342D01*
G01X6067100Y-6012358D01*
G01X6068852Y-6001291D01*
G01X6068852Y-5843811D01*
G01X6067100Y-5832744D01*
G01X6062013Y-5822760D01*
G01X6054089Y-5814837D01*
G01X6044106Y-5809750D01*
G01X6033038Y-5807997D01*
G01X5875558Y-5807997D01*
G01X5864491Y-5809750D01*
G01X5854508Y-5814837D01*
G01X5846584Y-5822760D01*
G01X5841497Y-5832744D01*
G01X5839744Y-5843811D01*
G01X5839744Y-5856140D01*
G01X5831547Y-5861402D01*
G01X5822371Y-5864673D01*
G01X5812693Y-5865782D01*
G01X5277515Y-5865782D01*
G01X5253953Y-5864181D01*
G01X5230826Y-5859399D01*
G01X5208561Y-5851525D01*
G01X5187569Y-5840704D01*
G01X5187569Y-4445000D01*
G01X5835486Y-4445000D01*
G01X5837322Y-4465979D01*
G01X5842772Y-4486321D01*
G01X5851672Y-4505407D01*
G01X5863751Y-4522658D01*
G01X5878642Y-4537549D01*
G01X5895893Y-4549628D01*
G01X5914979Y-4558528D01*
G01X5935321Y-4563978D01*
G01X5956300Y-4565814D01*
G01X5977279Y-4563978D01*
G01X5997621Y-4558528D01*
G01X6016707Y-4549628D01*
G01X6033958Y-4537549D01*
G01X6048849Y-4522658D01*
G01X6060928Y-4505407D01*
G01X6069828Y-4486321D01*
G01X6075278Y-4465979D01*
G01X6077114Y-4445000D01*
G01X6077114Y-4445000D01*
G01X6075278Y-4424021D01*
G01X6069828Y-4403679D01*
G01X6060928Y-4384593D01*
G01X6048849Y-4367342D01*
G01X6033958Y-4352451D01*
G01X6016707Y-4340372D01*
G01X5997621Y-4331472D01*
G01X5977279Y-4326022D01*
G01X5956300Y-4324186D01*
G01X5935321Y-4326022D01*
G01X5914979Y-4331472D01*
G01X5895893Y-4340372D01*
G01X5878642Y-4352451D01*
G01X5863751Y-4367342D01*
G01X5851672Y-4384593D01*
G01X5842772Y-4403679D01*
G01X5837322Y-4424021D01*
G01X5835486Y-4445000D01*
G01X5187569Y-4445000D01*
G01X5187569Y-4191000D01*
G01X5835486Y-4191000D01*
G01X5837322Y-4211979D01*
G01X5842772Y-4232321D01*
G01X5851672Y-4251407D01*
G01X5863751Y-4268658D01*
G01X5878642Y-4283549D01*
G01X5895893Y-4295628D01*
G01X5914979Y-4304528D01*
G01X5935321Y-4309978D01*
G01X5956300Y-4311814D01*
G01X5977279Y-4309978D01*
G01X5997621Y-4304528D01*
G01X6016707Y-4295628D01*
G01X6033958Y-4283549D01*
G01X6048849Y-4268658D01*
G01X6060928Y-4251407D01*
G01X6069828Y-4232321D01*
G01X6075278Y-4211979D01*
G01X6077114Y-4191000D01*
G01X6077114Y-4191000D01*
G01X6075278Y-4170021D01*
G01X6069828Y-4149679D01*
G01X6060928Y-4130593D01*
G01X6048849Y-4113342D01*
G01X6033958Y-4098451D01*
G01X6016707Y-4086372D01*
G01X5997621Y-4077472D01*
G01X5977279Y-4072022D01*
G01X5956300Y-4070186D01*
G01X5935321Y-4072022D01*
G01X5914979Y-4077472D01*
G01X5895893Y-4086372D01*
G01X5878642Y-4098451D01*
G01X5863751Y-4113342D01*
G01X5851672Y-4130593D01*
G01X5842772Y-4149679D01*
G01X5837322Y-4170021D01*
G01X5835486Y-4191000D01*
G01X5187569Y-4191000D01*
G01X5187569Y-3937000D01*
G01X5835740Y-3937000D01*
G01X5837572Y-3957935D01*
G01X5843011Y-3978234D01*
G01X5851892Y-3997280D01*
G01X5863946Y-4014494D01*
G01X5878806Y-4029354D01*
G01X5896020Y-4041408D01*
G01X5915066Y-4050289D01*
G01X5935365Y-4055728D01*
G01X5956300Y-4057560D01*
G01X5977235Y-4055728D01*
G01X5997534Y-4050289D01*
G01X6016580Y-4041408D01*
G01X6033794Y-4029354D01*
G01X6048654Y-4014494D01*
G01X6060708Y-3997280D01*
G01X6069589Y-3978234D01*
G01X6075028Y-3957935D01*
G01X6076860Y-3937000D01*
G01X6076860Y-3937000D01*
G01X6075028Y-3916065D01*
G01X6069589Y-3895766D01*
G01X6060708Y-3876720D01*
G01X6048654Y-3859506D01*
G01X6033794Y-3844646D01*
G01X6016580Y-3832592D01*
G01X5997534Y-3823711D01*
G01X5977235Y-3818272D01*
G01X5956300Y-3816440D01*
G01X5935365Y-3818272D01*
G01X5915066Y-3823711D01*
G01X5896020Y-3832592D01*
G01X5878806Y-3844646D01*
G01X5863946Y-3859506D01*
G01X5851892Y-3876720D01*
G01X5843011Y-3895766D01*
G01X5837572Y-3916065D01*
G01X5835740Y-3937000D01*
G01X5187569Y-3937000D01*
G01X5187569Y-3411392D01*
G01X5185635Y-3396699D01*
G01X5179963Y-3383007D01*
G01X5170942Y-3371250D01*
G01X5170747Y-3371055D01*
G01X5149032Y-3347147D01*
G01X5129670Y-3321297D01*
G01X5112832Y-3293735D01*
G01X5098669Y-3264708D01*
G01X5098669Y-2107010D01*
G01X5099779Y-2092697D01*
G01X5097263Y-2078563D01*
G01X5091281Y-2065512D01*
G01X5082217Y-2054379D01*
G01X5070650Y-2045876D01*
G01X5057320Y-2040546D01*
G01X5043079Y-2038731D01*
G01X4907847Y-2038731D01*
G01X4897029Y-2017746D01*
G01X4889156Y-1995489D01*
G01X4884373Y-1972369D01*
G01X4882769Y-1948815D01*
G01X4882769Y-1921685D01*
G01X4883027Y-1913445D01*
G01X4889321Y-1899296D01*
G01X4892163Y-1884074D01*
G01X4891397Y-1868608D01*
G01X4887065Y-1853741D01*
G01X4879403Y-1840285D01*
G01X4868829Y-1828972D01*
G01X4855920Y-1820419D01*
G01X4841379Y-1815094D01*
G01X4826000Y-1813286D01*
G01X4810621Y-1815094D01*
G01X4796080Y-1820419D01*
G01X4783171Y-1828972D01*
G01X4772597Y-1840285D01*
G01X4764935Y-1853741D01*
G01X4760603Y-1868608D01*
G01X4759837Y-1884074D01*
G01X4762679Y-1899296D01*
G01X4768973Y-1913445D01*
G01X4769231Y-1921685D01*
G01X4769231Y-1948785D01*
G01X4767630Y-1972347D01*
G01X4762848Y-1995474D01*
G01X4754974Y-2017739D01*
G01X4744153Y-2038731D01*
G01X2336800Y-2038731D01*
G01X2322107Y-2040665D01*
G01X2308416Y-2046337D01*
G01X2296658Y-2055358D01*
G01X2296658Y-2055358D01*
G01X2182358Y-2169658D01*
G01X2173337Y-2181415D01*
G01X2167665Y-2195107D01*
G01X2165731Y-2209800D01*
G01X2165731Y-3721481D01*
G01X730250Y-3721481D01*
G01X715557Y-3723415D01*
G01X701866Y-3729087D01*
G01X690108Y-3738108D01*
G01X594858Y-3833358D01*
G01X585837Y-3845115D01*
G01X580165Y-3858807D01*
G01X578231Y-3873500D01*
G01X578231Y-4101702D01*
G01X565109Y-4092895D01*
G01X553225Y-4082478D01*
G01X541439Y-4073408D01*
G01X527708Y-4067697D01*
G01X512966Y-4065734D01*
G01X507903Y-4065734D01*
G01X498226Y-4064625D01*
G01X489050Y-4061354D01*
G01X480852Y-4056092D01*
G01X480852Y-4043763D01*
G01X479100Y-4032696D01*
G01X474013Y-4022712D01*
G01X466089Y-4014789D01*
G01X456106Y-4009702D01*
G01X445038Y-4007949D01*
G01X287558Y-4007949D01*
G01X276491Y-4009702D01*
G01X266508Y-4014789D01*
G01X258584Y-4022712D01*
G01X253497Y-4032696D01*
G01X251744Y-4043763D01*
G01X221869Y-4043763D01*
G01X221869Y-3950350D01*
G01X243487Y-3939259D01*
G01X266441Y-3931294D01*
G01X267912Y-3932460D01*
G01X273444Y-3937523D01*
G01X279218Y-3943267D01*
G01X281629Y-3945663D01*
G01X290476Y-3954373D01*
G01X306731Y-3966338D01*
G01X324834Y-3975266D01*
G01X344222Y-3980878D01*
G01X364294Y-3983002D01*
G01X384428Y-3981571D01*
G01X403998Y-3976629D01*
G01X422397Y-3968330D01*
G01X439054Y-3956931D01*
G01X453453Y-3942787D01*
G01X465147Y-3926335D01*
G01X473773Y-3908087D01*
G01X479063Y-3888608D01*
G01X480852Y-3868503D01*
G01X479063Y-3848398D01*
G01X473773Y-3828920D01*
G01X465147Y-3810671D01*
G01X453453Y-3794219D01*
G01X439054Y-3780075D01*
G01X422397Y-3768676D01*
G01X403998Y-3760377D01*
G01X384428Y-3755435D01*
G01X364294Y-3754004D01*
G01X344222Y-3756128D01*
G01X324834Y-3761740D01*
G01X306731Y-3770668D01*
G01X290476Y-3782633D01*
G01X281629Y-3791343D01*
G01X279208Y-3793749D01*
G01X273444Y-3799483D01*
G01X267912Y-3804546D01*
G01X266441Y-3805712D01*
G01X243487Y-3797747D01*
G01X221869Y-3786656D01*
G01X221869Y-3614503D01*
G01X251998Y-3614503D01*
G01X253945Y-3635506D01*
G01X259717Y-3655793D01*
G01X269119Y-3674674D01*
G01X281830Y-3691506D01*
G01X297417Y-3705716D01*
G01X315351Y-3716820D01*
G01X335019Y-3724440D01*
G01X355752Y-3728315D01*
G01X376845Y-3728315D01*
G01X397578Y-3724440D01*
G01X417246Y-3716820D01*
G01X435180Y-3705716D01*
G01X450767Y-3691506D01*
G01X463478Y-3674674D01*
G01X472880Y-3655793D01*
G01X478652Y-3635506D01*
G01X480598Y-3614503D01*
G01X480598Y-3614503D01*
G01X478652Y-3593500D01*
G01X472880Y-3573213D01*
G01X463478Y-3554332D01*
G01X450767Y-3537500D01*
G01X435180Y-3523290D01*
G01X417246Y-3512186D01*
G01X397578Y-3504566D01*
G01X376845Y-3500691D01*
G01X355752Y-3500691D01*
G01X335019Y-3504566D01*
G01X315351Y-3512186D01*
G01X297417Y-3523290D01*
G01X281830Y-3537500D01*
G01X269119Y-3554332D01*
G01X259717Y-3573213D01*
G01X253945Y-3593500D01*
G01X251998Y-3614503D01*
G01X221869Y-3614503D01*
G01X221869Y-3258209D01*
G01X1026257Y-3258209D01*
G01X1029516Y-3272839D01*
G01X1035976Y-3286363D01*
G01X1045309Y-3298091D01*
G01X1057037Y-3307424D01*
G01X1070561Y-3313884D01*
G01X1085191Y-3317143D01*
G01X1100179Y-3317032D01*
G01X1114759Y-3313559D01*
G01X1128187Y-3306900D01*
G01X1139776Y-3297396D01*
G01X1148935Y-3285532D01*
G01X1155196Y-3271914D01*
G01X1158239Y-3257237D01*
G01X1158642Y-3254591D01*
G01X1159141Y-3252868D01*
G01X1226595Y-3185414D01*
G01X1973144Y-3185414D01*
G01X1974717Y-3186280D01*
G01X1976873Y-3187866D01*
G01X1989402Y-3196092D01*
G01X2003458Y-3201294D01*
G01X2018324Y-3203207D01*
G01X2033239Y-3201732D01*
G01X2047443Y-3196946D01*
G01X2060209Y-3189092D01*
G01X2070885Y-3178572D01*
G01X2078925Y-3165924D01*
G01X2083920Y-3151792D01*
G01X2085614Y-3136900D01*
G01X2083920Y-3122008D01*
G01X2078925Y-3107876D01*
G01X2070885Y-3095228D01*
G01X2060209Y-3084708D01*
G01X2047443Y-3076854D01*
G01X2033239Y-3072068D01*
G01X2018324Y-3070593D01*
G01X2003458Y-3072506D01*
G01X1989402Y-3077708D01*
G01X1976873Y-3085934D01*
G01X1974717Y-3087520D01*
G01X1973144Y-3088386D01*
G01X1206500Y-3088386D01*
G01X1193944Y-3090039D01*
G01X1182243Y-3094886D01*
G01X1172195Y-3102595D01*
G01X1090532Y-3184259D01*
G01X1088809Y-3184758D01*
G01X1086163Y-3185161D01*
G01X1086163Y-3185161D01*
G01X1071486Y-3188204D01*
G01X1057868Y-3194465D01*
G01X1046004Y-3203624D01*
G01X1036500Y-3215213D01*
G01X1029841Y-3228641D01*
G01X1026368Y-3243221D01*
G01X1026257Y-3258209D01*
G01X221869Y-3258209D01*
G01X221869Y-2923662D01*
G01X253746Y-2923662D01*
G01X253746Y-3081142D01*
G01X255499Y-3092209D01*
G01X260586Y-3102193D01*
G01X268509Y-3110116D01*
G01X278493Y-3115203D01*
G01X289560Y-3116956D01*
G01X447040Y-3116956D01*
G01X458107Y-3115203D01*
G01X468091Y-3110116D01*
G01X476014Y-3102193D01*
G01X481101Y-3092209D01*
G01X482854Y-3081142D01*
G01X482854Y-2923662D01*
G01X481101Y-2912595D01*
G01X476014Y-2902611D01*
G01X468091Y-2894688D01*
G01X458107Y-2889601D01*
G01X447040Y-2887848D01*
G01X289560Y-2887848D01*
G01X278493Y-2889601D01*
G01X268509Y-2894688D01*
G01X260586Y-2902611D01*
G01X255499Y-2912595D01*
G01X253746Y-2923662D01*
G01X253746Y-2923662D01*
G01X221869Y-2923662D01*
G01X221869Y-2748402D01*
G01X253746Y-2748402D01*
G01X255696Y-2769451D01*
G01X261482Y-2789784D01*
G01X270904Y-2808707D01*
G01X283644Y-2825577D01*
G01X299266Y-2839818D01*
G01X317239Y-2850947D01*
G01X336951Y-2858583D01*
G01X357730Y-2862468D01*
G01X378870Y-2862468D01*
G01X399649Y-2858583D01*
G01X419361Y-2850947D01*
G01X437334Y-2839818D01*
G01X452956Y-2825577D01*
G01X465696Y-2808707D01*
G01X475118Y-2789784D01*
G01X480904Y-2769451D01*
G01X482854Y-2748402D01*
G01X482854Y-2748402D01*
G01X480904Y-2727353D01*
G01X475118Y-2707020D01*
G01X465696Y-2688097D01*
G01X452956Y-2671228D01*
G01X437334Y-2656986D01*
G01X419361Y-2645858D01*
G01X399649Y-2638221D01*
G01X378870Y-2634337D01*
G01X357730Y-2634337D01*
G01X336951Y-2638221D01*
G01X317239Y-2645858D01*
G01X299266Y-2656986D01*
G01X283644Y-2671228D01*
G01X270904Y-2688097D01*
G01X261482Y-2707020D01*
G01X255696Y-2727353D01*
G01X253746Y-2748402D01*
G01X221869Y-2748402D01*
G01X221869Y-2494402D01*
G01X253746Y-2494402D01*
G01X255696Y-2515451D01*
G01X261482Y-2535784D01*
G01X270904Y-2554707D01*
G01X283644Y-2571577D01*
G01X299266Y-2585818D01*
G01X317239Y-2596947D01*
G01X336951Y-2604583D01*
G01X357730Y-2608468D01*
G01X378870Y-2608468D01*
G01X399649Y-2604583D01*
G01X419361Y-2596947D01*
G01X437334Y-2585818D01*
G01X452956Y-2571577D01*
G01X465696Y-2554707D01*
G01X475118Y-2535784D01*
G01X480904Y-2515451D01*
G01X482854Y-2494402D01*
G01X482854Y-2494402D01*
G01X480904Y-2473353D01*
G01X475118Y-2453020D01*
G01X465696Y-2434097D01*
G01X452956Y-2417228D01*
G01X437334Y-2402986D01*
G01X419361Y-2391858D01*
G01X399649Y-2384221D01*
G01X378870Y-2380337D01*
G01X357730Y-2380337D01*
G01X336951Y-2384221D01*
G01X317239Y-2391858D01*
G01X299266Y-2402986D01*
G01X283644Y-2417228D01*
G01X270904Y-2434097D01*
G01X261482Y-2453020D01*
G01X255696Y-2473353D01*
G01X253746Y-2494402D01*
G01X221869Y-2494402D01*
G01X221869Y-2240402D01*
G01X253746Y-2240402D01*
G01X255696Y-2261451D01*
G01X261482Y-2281784D01*
G01X270904Y-2300707D01*
G01X283644Y-2317577D01*
G01X299266Y-2331818D01*
G01X317239Y-2342947D01*
G01X336951Y-2350583D01*
G01X357730Y-2354468D01*
G01X378870Y-2354468D01*
G01X399649Y-2350583D01*
G01X419361Y-2342947D01*
G01X437334Y-2331818D01*
G01X452956Y-2317577D01*
G01X465696Y-2300707D01*
G01X475118Y-2281784D01*
G01X480904Y-2261451D01*
G01X482854Y-2240402D01*
G01X482854Y-2240402D01*
G01X480904Y-2219353D01*
G01X475118Y-2199020D01*
G01X465696Y-2180097D01*
G01X452956Y-2163228D01*
G01X437334Y-2148986D01*
G01X419361Y-2137858D01*
G01X399649Y-2130221D01*
G01X378870Y-2126337D01*
G01X357730Y-2126337D01*
G01X336951Y-2130221D01*
G01X317239Y-2137858D01*
G01X299266Y-2148986D01*
G01X283644Y-2163228D01*
G01X270904Y-2180097D01*
G01X261482Y-2199020D01*
G01X255696Y-2219353D01*
G01X253746Y-2240402D01*
G01X221869Y-2240402D01*
G01X221869Y-1986402D01*
G01X253746Y-1986402D01*
G01X255696Y-2007451D01*
G01X261482Y-2027784D01*
G01X270904Y-2046707D01*
G01X283644Y-2063577D01*
G01X299266Y-2077818D01*
G01X317239Y-2088947D01*
G01X336951Y-2096583D01*
G01X357730Y-2100468D01*
G01X378870Y-2100468D01*
G01X399649Y-2096583D01*
G01X419361Y-2088947D01*
G01X437334Y-2077818D01*
G01X452956Y-2063577D01*
G01X465696Y-2046707D01*
G01X475118Y-2027784D01*
G01X480904Y-2007451D01*
G01X482854Y-1986402D01*
G01X482854Y-1986402D01*
G01X480904Y-1965353D01*
G01X475118Y-1945020D01*
G01X465696Y-1926097D01*
G01X452956Y-1909228D01*
G01X437334Y-1894986D01*
G01X419361Y-1883858D01*
G01X399649Y-1876221D01*
G01X378870Y-1872337D01*
G01X357730Y-1872337D01*
G01X336951Y-1876221D01*
G01X317239Y-1883858D01*
G01X299266Y-1894986D01*
G01X283644Y-1909228D01*
G01X270904Y-1926097D01*
G01X261482Y-1945020D01*
G01X255696Y-1965353D01*
G01X253746Y-1986402D01*
G01X221869Y-1986402D01*
G01X221869Y-1756500D01*
G01X1352640Y-1756500D01*
G01X1352640Y-1756500D01*
G01X1352640Y-1926500D01*
G01X1354381Y-1937488D01*
G01X1359432Y-1947401D01*
G01X1367299Y-1955268D01*
G01X1377212Y-1960319D01*
G01X1388200Y-1962060D01*
G01X1558200Y-1962060D01*
G01X1569188Y-1960319D01*
G01X1579101Y-1955268D01*
G01X1586968Y-1947401D01*
G01X1592019Y-1937488D01*
G01X1593760Y-1926500D01*
G01X1593760Y-1841500D01*
G01X1695286Y-1841500D01*
G01X1697122Y-1862479D01*
G01X1702572Y-1882821D01*
G01X1711472Y-1901907D01*
G01X1723551Y-1919158D01*
G01X1738442Y-1934049D01*
G01X1755693Y-1946128D01*
G01X1774779Y-1955028D01*
G01X1795121Y-1960478D01*
G01X1816100Y-1962314D01*
G01X1837079Y-1960478D01*
G01X1857421Y-1955028D01*
G01X1876507Y-1946128D01*
G01X1893758Y-1934049D01*
G01X1908649Y-1919158D01*
G01X1920728Y-1901907D01*
G01X1929628Y-1882821D01*
G01X1935078Y-1862479D01*
G01X1936914Y-1841500D01*
G01X1936914Y-1841500D01*
G01X1935078Y-1820521D01*
G01X1929628Y-1800179D01*
G01X1920728Y-1781093D01*
G01X1908649Y-1763842D01*
G01X1893758Y-1748951D01*
G01X1876507Y-1736872D01*
G01X1857421Y-1727972D01*
G01X1837079Y-1722522D01*
G01X1816100Y-1720686D01*
G01X1795121Y-1722522D01*
G01X1774779Y-1727972D01*
G01X1755693Y-1736872D01*
G01X1738442Y-1748951D01*
G01X1723551Y-1763842D01*
G01X1711472Y-1781093D01*
G01X1702572Y-1800179D01*
G01X1697122Y-1820521D01*
G01X1695286Y-1841500D01*
G01X1593760Y-1841500D01*
G01X1593760Y-1756500D01*
G01X1592019Y-1745512D01*
G01X1586968Y-1735599D01*
G01X1579101Y-1727732D01*
G01X1569188Y-1722681D01*
G01X1558200Y-1720940D01*
G01X1388200Y-1720940D01*
G01X1377212Y-1722681D01*
G01X1367299Y-1727732D01*
G01X1359432Y-1735599D01*
G01X1354381Y-1745512D01*
G01X1352640Y-1756500D01*
G01X221869Y-1756500D01*
G01X221869Y-1587500D01*
G01X1352640Y-1587500D01*
G01X1354472Y-1608435D01*
G01X1359911Y-1628734D01*
G01X1368792Y-1647780D01*
G01X1380846Y-1664994D01*
G01X1395706Y-1679854D01*
G01X1412920Y-1691908D01*
G01X1431966Y-1700789D01*
G01X1452265Y-1706228D01*
G01X1473200Y-1708060D01*
G01X1494135Y-1706228D01*
G01X1514434Y-1700789D01*
G01X1533480Y-1691908D01*
G01X1550694Y-1679854D01*
G01X1565554Y-1664994D01*
G01X1577608Y-1647780D01*
G01X1586489Y-1628734D01*
G01X1591928Y-1608435D01*
G01X1593760Y-1587500D01*
G01X1593760Y-1587500D01*
G01X1695286Y-1587500D01*
G01X1697122Y-1608479D01*
G01X1702572Y-1628821D01*
G01X1711472Y-1647907D01*
G01X1723551Y-1665158D01*
G01X1738442Y-1680049D01*
G01X1755693Y-1692128D01*
G01X1774779Y-1701028D01*
G01X1795121Y-1706478D01*
G01X1816100Y-1708314D01*
G01X1837079Y-1706478D01*
G01X1857421Y-1701028D01*
G01X1876507Y-1692128D01*
G01X1893758Y-1680049D01*
G01X1908649Y-1665158D01*
G01X1920728Y-1647907D01*
G01X1929628Y-1628821D01*
G01X1935078Y-1608479D01*
G01X1936914Y-1587500D01*
G01X1936914Y-1587500D01*
G01X1935078Y-1566521D01*
G01X1929628Y-1546179D01*
G01X1920728Y-1527093D01*
G01X1908649Y-1509842D01*
G01X1893758Y-1494951D01*
G01X1876507Y-1482872D01*
G01X1857421Y-1473972D01*
G01X1837079Y-1468522D01*
G01X1816100Y-1466686D01*
G01X1795121Y-1468522D01*
G01X1774779Y-1473972D01*
G01X1755693Y-1482872D01*
G01X1738442Y-1494951D01*
G01X1723551Y-1509842D01*
G01X1711472Y-1527093D01*
G01X1702572Y-1546179D01*
G01X1697122Y-1566521D01*
G01X1695286Y-1587500D01*
G01X1593760Y-1587500D01*
G01X1591928Y-1566565D01*
G01X1586489Y-1546266D01*
G01X1577608Y-1527220D01*
G01X1565554Y-1510006D01*
G01X1550694Y-1495146D01*
G01X1533480Y-1483092D01*
G01X1514434Y-1474211D01*
G01X1494135Y-1468772D01*
G01X1473200Y-1466940D01*
G01X1452265Y-1468772D01*
G01X1431966Y-1474211D01*
G01X1412920Y-1483092D01*
G01X1395706Y-1495146D01*
G01X1380846Y-1510006D01*
G01X1368792Y-1527220D01*
G01X1359911Y-1546266D01*
G01X1354472Y-1566565D01*
G01X1352640Y-1587500D01*
G01X221869Y-1587500D01*
G01X221869Y-1295558D01*
G01X253746Y-1295558D01*
G01X253746Y-1453038D01*
G01X255499Y-1464106D01*
G01X260586Y-1474089D01*
G01X268509Y-1482013D01*
G01X278493Y-1487100D01*
G01X289560Y-1488852D01*
G01X447040Y-1488852D01*
G01X458107Y-1487100D01*
G01X468091Y-1482013D01*
G01X476014Y-1474089D01*
G01X481101Y-1464106D01*
G01X482854Y-1453038D01*
G01X482854Y-1333500D01*
G01X1352640Y-1333500D01*
G01X1354472Y-1354435D01*
G01X1359911Y-1374734D01*
G01X1368792Y-1393780D01*
G01X1380846Y-1410994D01*
G01X1395706Y-1425854D01*
G01X1412920Y-1437908D01*
G01X1431966Y-1446789D01*
G01X1452265Y-1452228D01*
G01X1473200Y-1454060D01*
G01X1494135Y-1452228D01*
G01X1514434Y-1446789D01*
G01X1533480Y-1437908D01*
G01X1550694Y-1425854D01*
G01X1565554Y-1410994D01*
G01X1577608Y-1393780D01*
G01X1586489Y-1374734D01*
G01X1591928Y-1354435D01*
G01X1593760Y-1333500D01*
G01X1593760Y-1333500D01*
G01X1695286Y-1333500D01*
G01X1697122Y-1354479D01*
G01X1702572Y-1374821D01*
G01X1711472Y-1393907D01*
G01X1723551Y-1411158D01*
G01X1738442Y-1426049D01*
G01X1755693Y-1438128D01*
G01X1774779Y-1447028D01*
G01X1795121Y-1452478D01*
G01X1816100Y-1454314D01*
G01X1837079Y-1452478D01*
G01X1857421Y-1447028D01*
G01X1876507Y-1438128D01*
G01X1893758Y-1426049D01*
G01X1908649Y-1411158D01*
G01X1920728Y-1393907D01*
G01X1929628Y-1374821D01*
G01X1935078Y-1354479D01*
G01X1936914Y-1333500D01*
G01X1936914Y-1333500D01*
G01X1935078Y-1312521D01*
G01X1929628Y-1292179D01*
G01X1920728Y-1273093D01*
G01X1908649Y-1255842D01*
G01X1893758Y-1240951D01*
G01X1876507Y-1228872D01*
G01X1857421Y-1219972D01*
G01X1837079Y-1214522D01*
G01X1816100Y-1212686D01*
G01X1795121Y-1214522D01*
G01X1774779Y-1219972D01*
G01X1755693Y-1228872D01*
G01X1738442Y-1240951D01*
G01X1723551Y-1255842D01*
G01X1711472Y-1273093D01*
G01X1702572Y-1292179D01*
G01X1697122Y-1312521D01*
G01X1695286Y-1333500D01*
G01X1593760Y-1333500D01*
G01X1591928Y-1312565D01*
G01X1586489Y-1292266D01*
G01X1577608Y-1273220D01*
G01X1565554Y-1256006D01*
G01X1550694Y-1241146D01*
G01X1533480Y-1229092D01*
G01X1514434Y-1220211D01*
G01X1494135Y-1214772D01*
G01X1473200Y-1212940D01*
G01X1452265Y-1214772D01*
G01X1431966Y-1220211D01*
G01X1412920Y-1229092D01*
G01X1395706Y-1241146D01*
G01X1380846Y-1256006D01*
G01X1368792Y-1273220D01*
G01X1359911Y-1292266D01*
G01X1354472Y-1312565D01*
G01X1352640Y-1333500D01*
G01X482854Y-1333500D01*
G01X482854Y-1295558D01*
G01X481101Y-1284491D01*
G01X476014Y-1274508D01*
G01X468091Y-1266584D01*
G01X458107Y-1261497D01*
G01X447040Y-1259744D01*
G01X289560Y-1259744D01*
G01X278493Y-1261497D01*
G01X268509Y-1266584D01*
G01X260586Y-1274508D01*
G01X255499Y-1284491D01*
G01X253746Y-1295558D01*
G01X253746Y-1295558D01*
G01X221869Y-1295558D01*
G01X221869Y-1120298D01*
G01X253746Y-1120298D01*
G01X255696Y-1141348D01*
G01X261482Y-1161680D01*
G01X270904Y-1180603D01*
G01X283644Y-1197473D01*
G01X299266Y-1211715D01*
G01X317239Y-1222843D01*
G01X336951Y-1230479D01*
G01X357730Y-1234364D01*
G01X378870Y-1234364D01*
G01X399649Y-1230479D01*
G01X419361Y-1222843D01*
G01X437334Y-1211715D01*
G01X452956Y-1197473D01*
G01X465696Y-1180603D01*
G01X475118Y-1161680D01*
G01X480904Y-1141348D01*
G01X482854Y-1120298D01*
G01X482854Y-1120298D01*
G01X480904Y-1099249D01*
G01X475284Y-1079500D01*
G01X1352640Y-1079500D01*
G01X1354472Y-1100435D01*
G01X1359911Y-1120734D01*
G01X1368792Y-1139780D01*
G01X1380846Y-1156994D01*
G01X1395706Y-1171854D01*
G01X1412920Y-1183908D01*
G01X1431966Y-1192789D01*
G01X1452265Y-1198228D01*
G01X1473200Y-1200060D01*
G01X1494135Y-1198228D01*
G01X1514434Y-1192789D01*
G01X1533480Y-1183908D01*
G01X1550694Y-1171854D01*
G01X1565554Y-1156994D01*
G01X1577608Y-1139780D01*
G01X1586489Y-1120734D01*
G01X1591928Y-1100435D01*
G01X1593760Y-1079500D01*
G01X1593760Y-1079500D01*
G01X1591928Y-1058565D01*
G01X1586489Y-1038266D01*
G01X1577608Y-1019220D01*
G01X1565554Y-1002006D01*
G01X1558049Y-994500D01*
G01X1695286Y-994500D01*
G01X1695286Y-1164500D01*
G01X1697039Y-1175567D01*
G01X1702126Y-1185551D01*
G01X1710049Y-1193474D01*
G01X1720033Y-1198561D01*
G01X1731100Y-1200314D01*
G01X1901100Y-1200314D01*
G01X1912167Y-1198561D01*
G01X1921511Y-1193800D01*
G01X5861140Y-1193800D01*
G01X5862972Y-1214735D01*
G01X5868411Y-1235034D01*
G01X5877292Y-1254080D01*
G01X5889346Y-1271294D01*
G01X5904206Y-1286154D01*
G01X5921420Y-1298208D01*
G01X5940466Y-1307089D01*
G01X5960765Y-1312528D01*
G01X5981700Y-1314360D01*
G01X6002635Y-1312528D01*
G01X6022934Y-1307089D01*
G01X6041980Y-1298208D01*
G01X6059194Y-1286154D01*
G01X6074054Y-1271294D01*
G01X6086108Y-1254080D01*
G01X6094989Y-1235034D01*
G01X6100428Y-1214735D01*
G01X6102260Y-1193800D01*
G01X6102260Y-1193800D01*
G01X6100428Y-1172865D01*
G01X6094989Y-1152566D01*
G01X6086108Y-1133520D01*
G01X6074054Y-1116306D01*
G01X6059194Y-1101446D01*
G01X6041980Y-1089392D01*
G01X6022934Y-1080511D01*
G01X6002635Y-1075072D01*
G01X5981700Y-1073240D01*
G01X5960765Y-1075072D01*
G01X5940466Y-1080511D01*
G01X5921420Y-1089392D01*
G01X5904206Y-1101446D01*
G01X5889346Y-1116306D01*
G01X5877292Y-1133520D01*
G01X5868411Y-1152566D01*
G01X5862972Y-1172865D01*
G01X5861140Y-1193800D01*
G01X1921511Y-1193800D01*
G01X1922151Y-1193474D01*
G01X1930074Y-1185551D01*
G01X1935161Y-1175567D01*
G01X1936914Y-1164500D01*
G01X1936914Y-1164500D01*
G01X1936914Y-994500D01*
G01X1935161Y-983433D01*
G01X1930074Y-973449D01*
G01X1922151Y-965526D01*
G01X1912167Y-960439D01*
G01X1901100Y-958686D01*
G01X1731100Y-958686D01*
G01X1720033Y-960439D01*
G01X1710049Y-965526D01*
G01X1702126Y-973449D01*
G01X1697039Y-983433D01*
G01X1695286Y-994500D01*
G01X1558049Y-994500D01*
G01X1550694Y-987146D01*
G01X1533480Y-975092D01*
G01X1514434Y-966211D01*
G01X1494135Y-960772D01*
G01X1473200Y-958940D01*
G01X1452265Y-960772D01*
G01X1431966Y-966211D01*
G01X1412920Y-975092D01*
G01X1395706Y-987146D01*
G01X1380846Y-1002006D01*
G01X1368792Y-1019220D01*
G01X1359911Y-1038266D01*
G01X1354472Y-1058565D01*
G01X1352640Y-1079500D01*
G01X475284Y-1079500D01*
G01X475118Y-1078917D01*
G01X465696Y-1059994D01*
G01X452956Y-1043124D01*
G01X437334Y-1028882D01*
G01X419361Y-1017754D01*
G01X399649Y-1010118D01*
G01X378870Y-1006233D01*
G01X357730Y-1006233D01*
G01X336951Y-1010118D01*
G01X317239Y-1017754D01*
G01X299266Y-1028882D01*
G01X283644Y-1043124D01*
G01X270904Y-1059994D01*
G01X261482Y-1078917D01*
G01X255696Y-1099249D01*
G01X253746Y-1120298D01*
G01X221869Y-1120298D01*
G01X221869Y-866298D01*
G01X253746Y-866298D01*
G01X255696Y-887348D01*
G01X261482Y-907680D01*
G01X270904Y-926603D01*
G01X283644Y-943473D01*
G01X299266Y-957715D01*
G01X317239Y-968843D01*
G01X336951Y-976479D01*
G01X357730Y-980364D01*
G01X378870Y-980364D01*
G01X399649Y-976479D01*
G01X419361Y-968843D01*
G01X437334Y-957715D01*
G01X452956Y-943473D01*
G01X465696Y-926603D01*
G01X475118Y-907680D01*
G01X480904Y-887348D01*
G01X482854Y-866298D01*
G01X482854Y-866298D01*
G01X480904Y-845249D01*
G01X475118Y-824917D01*
G01X465696Y-805994D01*
G01X452956Y-789124D01*
G01X437334Y-774882D01*
G01X419361Y-763754D01*
G01X399649Y-756118D01*
G01X378870Y-752233D01*
G01X357730Y-752233D01*
G01X336951Y-756118D01*
G01X317239Y-763754D01*
G01X299266Y-774882D01*
G01X283644Y-789124D01*
G01X270904Y-805994D01*
G01X261482Y-824917D01*
G01X255696Y-845249D01*
G01X253746Y-866298D01*
G01X221869Y-866298D01*
G01X221869Y-612298D01*
G01X253746Y-612298D01*
G01X255696Y-633348D01*
G01X261482Y-653680D01*
G01X270904Y-672603D01*
G01X283644Y-689473D01*
G01X299266Y-703715D01*
G01X317239Y-714843D01*
G01X336951Y-722479D01*
G01X357730Y-726364D01*
G01X378870Y-726364D01*
G01X399649Y-722479D01*
G01X419361Y-714843D01*
G01X437334Y-703715D01*
G01X452956Y-689473D01*
G01X465696Y-672603D01*
G01X475118Y-653680D01*
G01X480904Y-633348D01*
G01X482854Y-612298D01*
G01X482854Y-612298D01*
G01X480904Y-591249D01*
G01X475118Y-570917D01*
G01X465696Y-551994D01*
G01X452956Y-535124D01*
G01X437334Y-520882D01*
G01X419361Y-509754D01*
G01X399649Y-502118D01*
G01X378870Y-498233D01*
G01X357730Y-498233D01*
G01X336951Y-502118D01*
G01X317239Y-509754D01*
G01X299266Y-520882D01*
G01X283644Y-535124D01*
G01X270904Y-551994D01*
G01X261482Y-570917D01*
G01X255696Y-591249D01*
G01X253746Y-612298D01*
G01X221869Y-612298D01*
G01X221869Y-358298D01*
G01X253746Y-358298D01*
G01X255696Y-379348D01*
G01X261482Y-399680D01*
G01X270904Y-418603D01*
G01X283644Y-435473D01*
G01X299266Y-449715D01*
G01X317239Y-460843D01*
G01X336951Y-468479D01*
G01X357730Y-472364D01*
G01X378870Y-472364D01*
G01X399649Y-468479D01*
G01X419361Y-460843D01*
G01X437334Y-449715D01*
G01X452956Y-435473D01*
G01X465696Y-418603D01*
G01X471772Y-406400D01*
G01X665886Y-406400D01*
G01X667903Y-437180D01*
G01X673921Y-467433D01*
G01X683836Y-496642D01*
G01X697479Y-524307D01*
G01X714616Y-549954D01*
G01X734954Y-573146D01*
G01X758146Y-593484D01*
G01X783793Y-610621D01*
G01X811458Y-624264D01*
G01X840667Y-634179D01*
G01X870920Y-640197D01*
G01X901700Y-642214D01*
G01X932480Y-640197D01*
G01X962733Y-634179D01*
G01X991942Y-624264D01*
G01X1019607Y-610621D01*
G01X1045254Y-593484D01*
G01X1068446Y-573146D01*
G01X1088784Y-549954D01*
G01X1105921Y-524307D01*
G01X1119564Y-496642D01*
G01X1129479Y-467433D01*
G01X1135497Y-437180D01*
G01X1137514Y-406400D01*
G01X1137514Y-406400D01*
G01X1135497Y-375620D01*
G01X1129479Y-345367D01*
G01X1119564Y-316158D01*
G01X1105921Y-288493D01*
G01X1088784Y-262846D01*
G01X1068446Y-239654D01*
G01X1045254Y-219316D01*
G01X1019607Y-202179D01*
G01X991942Y-188536D01*
G01X962733Y-178621D01*
G01X932480Y-172603D01*
G01X901700Y-170586D01*
G01X870920Y-172603D01*
G01X840667Y-178621D01*
G01X811458Y-188536D01*
G01X783793Y-202179D01*
G01X758146Y-219316D01*
G01X734954Y-239654D01*
G01X714616Y-262846D01*
G01X697479Y-288493D01*
G01X683836Y-316158D01*
G01X673921Y-345367D01*
G01X667903Y-375620D01*
G01X665886Y-406400D01*
G01X471772Y-406400D01*
G01X475118Y-399680D01*
G01X480904Y-379348D01*
G01X482854Y-358298D01*
G01X482854Y-358298D01*
G01X480904Y-337249D01*
G01X475118Y-316917D01*
G01X465696Y-297994D01*
G01X452956Y-281124D01*
G01X437334Y-266882D01*
G01X419361Y-255754D01*
G01X399649Y-248118D01*
G01X378870Y-244233D01*
G01X357730Y-244233D01*
G01X336951Y-248118D01*
G01X317239Y-255754D01*
G01X299266Y-266882D01*
G01X283644Y-281124D01*
G01X270904Y-297994D01*
G01X261482Y-316917D01*
G01X255696Y-337249D01*
G01X253746Y-358298D01*
G01X221869Y-358298D01*
G01X221869Y-188614D01*
G01X264814Y-145669D01*
G01X1404635Y-145669D01*
G01X1415294Y-166286D01*
G01X1423109Y-188140D01*
G01X1427942Y-210841D01*
G01X1429705Y-233984D01*
G01X1429704Y-268093D01*
G01X1429552Y-268495D01*
G01X1429127Y-269344D01*
G01X1425721Y-274515D01*
G01X1421008Y-280193D01*
G01X1415130Y-286343D01*
G01X1408721Y-292542D01*
G01X1406485Y-294667D01*
G01X1395927Y-305228D01*
G01X1383029Y-322826D01*
G01X1373500Y-342454D01*
G01X1367650Y-363474D01*
G01X1365668Y-385202D01*
G01X1367650Y-406931D01*
G01X1373500Y-427951D01*
G01X1383029Y-447578D01*
G01X1395927Y-465177D01*
G01X1406485Y-475737D01*
G01X1408721Y-477862D01*
G01X1415130Y-484061D01*
G01X1421008Y-490211D01*
G01X1425721Y-495889D01*
G01X1428729Y-500456D01*
G01X1425458Y-509933D01*
G01X1420071Y-518388D01*
G01X1401482Y-518388D01*
G01X1390415Y-520141D01*
G01X1380431Y-525228D01*
G01X1372508Y-533151D01*
G01X1367421Y-543135D01*
G01X1365668Y-554202D01*
G01X1365668Y-724202D01*
G01X1367421Y-735269D01*
G01X1372508Y-745253D01*
G01X1380431Y-753176D01*
G01X1390415Y-758263D01*
G01X1401482Y-760016D01*
G01X1571481Y-760016D01*
G01X1582549Y-758263D01*
G01X1592532Y-753176D01*
G01X1600456Y-745253D01*
G01X1605543Y-735269D01*
G01X1607295Y-724202D01*
G01X1607295Y-554202D01*
G01X1606630Y-550000D01*
G01X1809586Y-550000D01*
G01X1809586Y-720000D01*
G01X1811339Y-731067D01*
G01X1816426Y-741051D01*
G01X1824349Y-748974D01*
G01X1834333Y-754061D01*
G01X1845400Y-755814D01*
G01X2015400Y-755814D01*
G01X2026467Y-754061D01*
G01X2036451Y-748974D01*
G01X2044374Y-741051D01*
G01X2049461Y-731067D01*
G01X2051214Y-720000D01*
G01X2051214Y-550000D01*
G01X2049461Y-538933D01*
G01X2044374Y-528949D01*
G01X2036451Y-521026D01*
G01X2026467Y-515939D01*
G01X2015400Y-514186D01*
G01X1996811Y-514186D01*
G01X1991424Y-505731D01*
G01X1988153Y-496254D01*
G01X1991161Y-491687D01*
G01X1995873Y-486009D01*
G01X2001752Y-479859D01*
G01X2008161Y-473660D01*
G01X2010396Y-471535D01*
G01X2020954Y-460974D01*
G01X2033574Y-443831D01*
G01X2042989Y-424739D01*
G01X2048909Y-404292D01*
G01X2051149Y-383123D01*
G01X2049640Y-361889D01*
G01X2044429Y-341249D01*
G01X2035678Y-321844D01*
G01X2023657Y-304276D01*
G01X2008741Y-289089D01*
G01X1991391Y-276755D01*
G01X1972146Y-267657D01*
G01X1951603Y-262076D01*
G01X1930400Y-260186D01*
G01X1909197Y-262076D01*
G01X1888654Y-267657D01*
G01X1869409Y-276755D01*
G01X1852059Y-289089D01*
G01X1837143Y-304276D01*
G01X1825122Y-321844D01*
G01X1816371Y-341249D01*
G01X1811160Y-361889D01*
G01X1809651Y-383123D01*
G01X1811891Y-404292D01*
G01X1817811Y-424739D01*
G01X1827226Y-443831D01*
G01X1839846Y-460974D01*
G01X1850404Y-471535D01*
G01X1852639Y-473660D01*
G01X1859048Y-479859D01*
G01X1864927Y-486009D01*
G01X1869639Y-491687D01*
G01X1872647Y-496254D01*
G01X1869376Y-505731D01*
G01X1863989Y-514186D01*
G01X1845400Y-514186D01*
G01X1845400Y-514186D01*
G01X1834333Y-515939D01*
G01X1824349Y-521026D01*
G01X1816426Y-528949D01*
G01X1811339Y-538933D01*
G01X1809586Y-550000D01*
G01X1606630Y-550000D01*
G01X1605543Y-543135D01*
G01X1600456Y-533151D01*
G01X1592532Y-525228D01*
G01X1582549Y-520141D01*
G01X1571481Y-518388D01*
G01X1552893Y-518388D01*
G01X1547505Y-509933D01*
G01X1544234Y-500456D01*
G01X1547242Y-495889D01*
G01X1551955Y-490211D01*
G01X1557834Y-484061D01*
G01X1564243Y-477862D01*
G01X1566478Y-475737D01*
G01X1577036Y-465177D01*
G01X1589934Y-447578D01*
G01X1599463Y-427951D01*
G01X1605314Y-406931D01*
G01X1607295Y-385202D01*
G01X1605314Y-363474D01*
G01X1599463Y-342454D01*
G01X1589934Y-322826D01*
G01X1577036Y-305228D01*
G01X1566478Y-294667D01*
G01X1564243Y-292542D01*
G01X1557834Y-286343D01*
G01X1551955Y-280193D01*
G01X1547242Y-274515D01*
G01X1543837Y-269344D01*
G01X1543411Y-268495D01*
G01X1543251Y-267984D01*
G01X1543251Y-235637D01*
G01X1544850Y-212069D01*
G01X1549631Y-188936D01*
G01X1557505Y-166666D01*
G01X1568328Y-145669D01*
G01X2211686Y-145669D01*
G01X2280031Y-214014D01*
G01X2280031Y-406400D01*
G01X2281965Y-421093D01*
G01X2287637Y-434784D01*
G01X2296658Y-446542D01*
G01X2361077Y-510961D01*
G01X2372834Y-519982D01*
G01X2386526Y-525654D01*
G01X2401219Y-527588D01*
G01X2413121Y-529462D01*
G01X2423872Y-534902D01*
G01X2432431Y-543382D01*
G01X2432431Y-639535D01*
G01X2431322Y-649213D01*
G01X2428051Y-658389D01*
G01X2422789Y-666586D01*
G01X2410460Y-666586D01*
G01X2399393Y-668339D01*
G01X2389409Y-673426D01*
G01X2381486Y-681349D01*
G01X2376399Y-691333D01*
G01X2374646Y-702400D01*
G01X2374646Y-872400D01*
G01X2376399Y-883467D01*
G01X2381486Y-893451D01*
G01X2389409Y-901374D01*
G01X2399393Y-906461D01*
G01X2410460Y-908214D01*
G01X2567940Y-908214D01*
G01X2579007Y-906461D01*
G01X2588991Y-901374D01*
G01X2596914Y-893451D01*
G01X2602001Y-883467D01*
G01X2603754Y-872400D01*
G01X2603754Y-787400D01*
G01X2622640Y-787400D01*
G01X2624472Y-808335D01*
G01X2629911Y-828634D01*
G01X2638792Y-847680D01*
G01X2650846Y-864894D01*
G01X2665706Y-879754D01*
G01X2682920Y-891808D01*
G01X2701966Y-900689D01*
G01X2722265Y-906128D01*
G01X2743200Y-907960D01*
G01X2764135Y-906128D01*
G01X2784434Y-900689D01*
G01X2803480Y-891808D01*
G01X2820694Y-879754D01*
G01X2835554Y-864894D01*
G01X2847608Y-847680D01*
G01X2856489Y-828634D01*
G01X2861928Y-808335D01*
G01X2863760Y-787400D01*
G01X2863760Y-787400D01*
G01X2876386Y-787400D01*
G01X2878222Y-808379D01*
G01X2883672Y-828721D01*
G01X2892572Y-847807D01*
G01X2904651Y-865058D01*
G01X2919542Y-879949D01*
G01X2936793Y-892028D01*
G01X2955879Y-900928D01*
G01X2976221Y-906378D01*
G01X2997200Y-908214D01*
G01X3018179Y-906378D01*
G01X3038521Y-900928D01*
G01X3057607Y-892028D01*
G01X3074858Y-879949D01*
G01X3089749Y-865058D01*
G01X3101828Y-847807D01*
G01X3110728Y-828721D01*
G01X3116178Y-808379D01*
G01X3118014Y-787400D01*
G01X3118014Y-787400D01*
G01X3130386Y-787400D01*
G01X3132222Y-808379D01*
G01X3137672Y-828721D01*
G01X3146572Y-847807D01*
G01X3158651Y-865058D01*
G01X3173542Y-879949D01*
G01X3190793Y-892028D01*
G01X3209879Y-900928D01*
G01X3230221Y-906378D01*
G01X3251200Y-908214D01*
G01X3272179Y-906378D01*
G01X3292521Y-900928D01*
G01X3311607Y-892028D01*
G01X3328858Y-879949D01*
G01X3343749Y-865058D01*
G01X3355828Y-847807D01*
G01X3364728Y-828721D01*
G01X3370178Y-808379D01*
G01X3372014Y-787400D01*
G01X3372014Y-787400D01*
G01X3384386Y-787400D01*
G01X3386222Y-808379D01*
G01X3391672Y-828721D01*
G01X3400572Y-847807D01*
G01X3412651Y-865058D01*
G01X3427542Y-879949D01*
G01X3444793Y-892028D01*
G01X3463879Y-900928D01*
G01X3484221Y-906378D01*
G01X3505200Y-908214D01*
G01X3526179Y-906378D01*
G01X3546521Y-900928D01*
G01X3565607Y-892028D01*
G01X3582858Y-879949D01*
G01X3597749Y-865058D01*
G01X3609828Y-847807D01*
G01X3618728Y-828721D01*
G01X3624178Y-808379D01*
G01X3626014Y-787400D01*
G01X3626014Y-787400D01*
G01X3638386Y-787400D01*
G01X3640222Y-808379D01*
G01X3645672Y-828721D01*
G01X3654572Y-847807D01*
G01X3666651Y-865058D01*
G01X3681542Y-879949D01*
G01X3698793Y-892028D01*
G01X3717879Y-900928D01*
G01X3738221Y-906378D01*
G01X3759200Y-908214D01*
G01X3780179Y-906378D01*
G01X3800521Y-900928D01*
G01X3819607Y-892028D01*
G01X3836858Y-879949D01*
G01X3851749Y-865058D01*
G01X3863828Y-847807D01*
G01X3872728Y-828721D01*
G01X3878178Y-808379D01*
G01X3880014Y-787400D01*
G01X3880014Y-787400D01*
G01X3892386Y-787400D01*
G01X3894222Y-808379D01*
G01X3899672Y-828721D01*
G01X3908572Y-847807D01*
G01X3920651Y-865058D01*
G01X3935542Y-879949D01*
G01X3952793Y-892028D01*
G01X3971879Y-900928D01*
G01X3992221Y-906378D01*
G01X4013200Y-908214D01*
G01X4034179Y-906378D01*
G01X4054521Y-900928D01*
G01X4073607Y-892028D01*
G01X4090858Y-879949D01*
G01X4105749Y-865058D01*
G01X4117828Y-847807D01*
G01X4126728Y-828721D01*
G01X4132178Y-808379D01*
G01X4134014Y-787400D01*
G01X4134014Y-787400D01*
G01X4132178Y-766421D01*
G01X4126728Y-746079D01*
G01X4117828Y-726993D01*
G01X4105749Y-709742D01*
G01X4090858Y-694851D01*
G01X4073607Y-682772D01*
G01X4054521Y-673872D01*
G01X4034179Y-668422D01*
G01X4013200Y-666586D01*
G01X3992221Y-668422D01*
G01X3971879Y-673872D01*
G01X3952793Y-682772D01*
G01X3935542Y-694851D01*
G01X3920651Y-709742D01*
G01X3908572Y-726993D01*
G01X3899672Y-746079D01*
G01X3894222Y-766421D01*
G01X3892386Y-787400D01*
G01X3880014Y-787400D01*
G01X3878178Y-766421D01*
G01X3872728Y-746079D01*
G01X3863828Y-726993D01*
G01X3851749Y-709742D01*
G01X3836858Y-694851D01*
G01X3819607Y-682772D01*
G01X3800521Y-673872D01*
G01X3780179Y-668422D01*
G01X3759200Y-666586D01*
G01X3738221Y-668422D01*
G01X3717879Y-673872D01*
G01X3698793Y-682772D01*
G01X3681542Y-694851D01*
G01X3666651Y-709742D01*
G01X3654572Y-726993D01*
G01X3645672Y-746079D01*
G01X3640222Y-766421D01*
G01X3638386Y-787400D01*
G01X3626014Y-787400D01*
G01X3624178Y-766421D01*
G01X3618728Y-746079D01*
G01X3609828Y-726993D01*
G01X3597749Y-709742D01*
G01X3582858Y-694851D01*
G01X3565607Y-682772D01*
G01X3546521Y-673872D01*
G01X3526179Y-668422D01*
G01X3505200Y-666586D01*
G01X3484221Y-668422D01*
G01X3463879Y-673872D01*
G01X3444793Y-682772D01*
G01X3427542Y-694851D01*
G01X3412651Y-709742D01*
G01X3400572Y-726993D01*
G01X3391672Y-746079D01*
G01X3386222Y-766421D01*
G01X3384386Y-787400D01*
G01X3372014Y-787400D01*
G01X3370178Y-766421D01*
G01X3364728Y-746079D01*
G01X3355828Y-726993D01*
G01X3343749Y-709742D01*
G01X3328858Y-694851D01*
G01X3311607Y-682772D01*
G01X3292521Y-673872D01*
G01X3272179Y-668422D01*
G01X3251200Y-666586D01*
G01X3230221Y-668422D01*
G01X3209879Y-673872D01*
G01X3190793Y-682772D01*
G01X3173542Y-694851D01*
G01X3158651Y-709742D01*
G01X3146572Y-726993D01*
G01X3137672Y-746079D01*
G01X3132222Y-766421D01*
G01X3130386Y-787400D01*
G01X3118014Y-787400D01*
G01X3116178Y-766421D01*
G01X3110728Y-746079D01*
G01X3101828Y-726993D01*
G01X3089749Y-709742D01*
G01X3074858Y-694851D01*
G01X3057607Y-682772D01*
G01X3038521Y-673872D01*
G01X3018179Y-668422D01*
G01X2997200Y-666586D01*
G01X2976221Y-668422D01*
G01X2955879Y-673872D01*
G01X2936793Y-682772D01*
G01X2919542Y-694851D01*
G01X2904651Y-709742D01*
G01X2892572Y-726993D01*
G01X2883672Y-746079D01*
G01X2878222Y-766421D01*
G01X2876386Y-787400D01*
G01X2863760Y-787400D01*
G01X2861928Y-766465D01*
G01X2856489Y-746166D01*
G01X2847608Y-727120D01*
G01X2835554Y-709906D01*
G01X2820694Y-695046D01*
G01X2803480Y-682992D01*
G01X2784434Y-674111D01*
G01X2764135Y-668672D01*
G01X2743200Y-666840D01*
G01X2722265Y-668672D01*
G01X2701966Y-674111D01*
G01X2682920Y-682992D01*
G01X2665706Y-695046D01*
G01X2650846Y-709906D01*
G01X2638792Y-727120D01*
G01X2629911Y-746166D01*
G01X2624472Y-766465D01*
G01X2622640Y-787400D01*
G01X2603754Y-787400D01*
G01X2603754Y-702400D01*
G01X2602001Y-691333D01*
G01X2596914Y-681349D01*
G01X2588991Y-673426D01*
G01X2579007Y-668339D01*
G01X2567940Y-666586D01*
G01X2555611Y-666586D01*
G01X2550349Y-658389D01*
G01X2547078Y-649213D01*
G01X2545969Y-639535D01*
G01X2545969Y-341014D01*
G01X2666950Y-220033D01*
G01X4864150Y-220033D01*
G01X5035931Y-391814D01*
G01X5035931Y-736600D01*
G01X5037865Y-751293D01*
G01X5043537Y-764984D01*
G01X5052558Y-776742D01*
G01X5255758Y-979942D01*
G01X5267516Y-988963D01*
G01X5281207Y-994635D01*
G01X5295900Y-996569D01*
G01X5833835Y-996569D01*
G01X5843513Y-997678D01*
G01X5852689Y-1000949D01*
G01X5860886Y-1006211D01*
G01X5860886Y-1024800D01*
G01X5862639Y-1035867D01*
G01X5867726Y-1045851D01*
G01X5875649Y-1053774D01*
G01X5885633Y-1058861D01*
G01X5896700Y-1060614D01*
G01X6066700Y-1060614D01*
G01X6077767Y-1058861D01*
G01X6087751Y-1053774D01*
G01X6095674Y-1045851D01*
G01X6100761Y-1035867D01*
G01X6102514Y-1024800D01*
G01X6102514Y-854800D01*
G01X6100761Y-843733D01*
G01X6095674Y-833749D01*
G01X6087751Y-825826D01*
G01X6077767Y-820739D01*
G01X6066700Y-818986D01*
G01X5896700Y-818986D01*
G01X5885633Y-820739D01*
G01X5875649Y-825826D01*
G01X5867726Y-833749D01*
G01X5862639Y-843733D01*
G01X5860886Y-854800D01*
G01X5860886Y-873389D01*
G01X5852689Y-878651D01*
G01X5843513Y-881922D01*
G01X5833835Y-883031D01*
G01X5466969Y-883031D01*
G01X5466969Y-823614D01*
G01X5675014Y-615569D01*
G01X5958186Y-615569D01*
G01X6166231Y-823614D01*
G01X6166231Y-1436986D01*
G01X5916158Y-1687058D01*
G01X5907137Y-1698815D01*
G01X5901465Y-1712507D01*
G01X5899531Y-1727200D01*
G01X5899531Y-3535135D01*
G01X5898422Y-3544813D01*
G01X5895151Y-3553989D01*
G01X5889889Y-3562186D01*
G01X5871300Y-3562186D01*
G01X5860233Y-3563939D01*
G01X5850249Y-3569026D01*
G01X5842326Y-3576949D01*
G01X5837239Y-3586933D01*
G01X5835486Y-3598000D01*
G01X5835486Y-3768000D01*
G01X5837239Y-3779067D01*
G01X5842326Y-3789051D01*
G01X5850249Y-3796974D01*
G01X5860233Y-3802061D01*
G01X5871300Y-3803814D01*
G01X6041300Y-3803814D01*
G01X6052367Y-3802061D01*
G01X6062351Y-3796974D01*
G01X6070274Y-3789051D01*
G01X6075361Y-3779067D01*
G01X6077114Y-3768000D01*
G01X6077114Y-3598000D01*
G01X6075361Y-3586933D01*
G01X6070274Y-3576949D01*
G01X6062351Y-3569026D01*
G01X6052367Y-3563939D01*
G01X6041300Y-3562186D01*
G01X6022711Y-3562186D01*
G01X6017449Y-3553989D01*
G01X6014178Y-3544813D01*
G01X6013069Y-3535135D01*
G01X6013069Y-1750714D01*
G01X6263142Y-1500642D01*
G01X6272163Y-1488884D01*
G01X6277835Y-1475193D01*
G01X6279769Y-1460500D01*
G01X6279769Y-800100D01*
G01X6277835Y-785407D01*
G01X6272163Y-771715D01*
G01X6263142Y-759958D01*
G01X6021842Y-518658D01*
G01X6010085Y-509637D01*
G01X5996393Y-503965D01*
G01X5981700Y-502031D01*
G01X5651500Y-502031D01*
G01X5636807Y-503965D01*
G01X5623116Y-509637D01*
G01X5611358Y-518658D01*
G01X5370058Y-759958D01*
G01X5361037Y-771715D01*
G01X5355365Y-785407D01*
G01X5353431Y-800100D01*
G01X5351869Y-821931D01*
G01X5347216Y-843317D01*
G01X5339566Y-863823D01*
G01X5329074Y-883031D01*
G01X5319414Y-883031D01*
G01X5149469Y-713086D01*
G01X5149469Y-381000D01*
G01X5174386Y-381000D01*
G01X5176403Y-411780D01*
G01X5182421Y-442033D01*
G01X5192336Y-471242D01*
G01X5205979Y-498907D01*
G01X5223116Y-524554D01*
G01X5243454Y-547746D01*
G01X5266646Y-568084D01*
G01X5292293Y-585221D01*
G01X5319958Y-598864D01*
G01X5349167Y-608779D01*
G01X5379420Y-614797D01*
G01X5410200Y-616814D01*
G01X5440980Y-614797D01*
G01X5471233Y-608779D01*
G01X5500442Y-598864D01*
G01X5528107Y-585221D01*
G01X5553754Y-568084D01*
G01X5576946Y-547746D01*
G01X5597284Y-524554D01*
G01X5614421Y-498907D01*
G01X5628064Y-471242D01*
G01X5637979Y-442033D01*
G01X5643997Y-411780D01*
G01X5646014Y-381000D01*
G01X5646014Y-381000D01*
G01X5643997Y-350220D01*
G01X5637979Y-319967D01*
G01X5628064Y-290758D01*
G01X5614421Y-263093D01*
G01X5597284Y-237446D01*
G01X5576946Y-214254D01*
G01X5553754Y-193916D01*
G01X5528107Y-176779D01*
G01X5500442Y-163136D01*
G01X5471233Y-153221D01*
G01X5440980Y-147203D01*
G01X5410200Y-145186D01*
G01X5379420Y-147203D01*
G01X5349167Y-153221D01*
G01X5319958Y-163136D01*
G01X5292293Y-176779D01*
G01X5266646Y-193916D01*
G01X5243454Y-214254D01*
G01X5223116Y-237446D01*
G01X5205979Y-263093D01*
G01X5192336Y-290758D01*
G01X5182421Y-319967D01*
G01X5176403Y-350220D01*
G01X5174386Y-381000D01*
G01X5149469Y-381000D01*
G01X5149469Y-368300D01*
G01X5147535Y-353607D01*
G01X5141863Y-339915D01*
G01X5132842Y-328158D01*
G01X4927806Y-123123D01*
G01X4916049Y-114101D01*
G01X4902357Y-108430D01*
G01X4887664Y-106495D01*
G01X2643436Y-106495D01*
G01X2628743Y-108430D01*
G01X2615051Y-114101D01*
G01X2603294Y-123123D01*
G01X2449058Y-277358D01*
G01X2440037Y-289115D01*
G01X2434365Y-302807D01*
G01X2432431Y-317500D01*
G01X2432431Y-398256D01*
G01X2426772Y-404426D01*
G01X2419920Y-409237D01*
G01X2393569Y-382886D01*
G01X2393569Y-190500D01*
G01X2391635Y-175807D01*
G01X2385963Y-162115D01*
G01X2376942Y-150358D01*
G01X2276113Y-49530D01*
G01X6313170Y-49530D01*
G01X6313170Y-9132570D01*
G01X36830Y-9132570D01*
G01X36830Y-8407400D01*
G01X627786Y-8407400D01*
G01X629803Y-8438180D01*
G01X635821Y-8468433D01*
G01X645736Y-8497642D01*
G01X659379Y-8525307D01*
G01X676516Y-8550954D01*
G01X696854Y-8574146D01*
G01X720046Y-8594484D01*
G01X745693Y-8611621D01*
G01X773358Y-8625264D01*
G01X802567Y-8635179D01*
G01X832820Y-8641197D01*
G01X863600Y-8643214D01*
G01X894380Y-8641197D01*
G01X920505Y-8636000D01*
G01X2002713Y-8636000D01*
G01X2004727Y-8657740D01*
G01X2010702Y-8678740D01*
G01X2020434Y-8698285D01*
G01X2033592Y-8715708D01*
G01X2049727Y-8730417D01*
G01X2068290Y-8741911D01*
G01X2088649Y-8749798D01*
G01X2110110Y-8753810D01*
G01X2131944Y-8753810D01*
G01X2153405Y-8749798D01*
G01X2173764Y-8741911D01*
G01X2192327Y-8730417D01*
G01X2208462Y-8715708D01*
G01X2221620Y-8698285D01*
G01X2231352Y-8678740D01*
G01X2237327Y-8657740D01*
G01X2239341Y-8636000D01*
G01X2239341Y-8636000D01*
G01X2237327Y-8614260D01*
G01X2231352Y-8593260D01*
G01X2221620Y-8573715D01*
G01X2208462Y-8556292D01*
G01X2192327Y-8541583D01*
G01X2173764Y-8530089D01*
G01X2153405Y-8522202D01*
G01X2131944Y-8518190D01*
G01X2110110Y-8518190D01*
G01X2088649Y-8522202D01*
G01X2068290Y-8530089D01*
G01X2049727Y-8541583D01*
G01X2033592Y-8556292D01*
G01X2020434Y-8573715D01*
G01X2010702Y-8593260D01*
G01X2004727Y-8614260D01*
G01X2002713Y-8636000D01*
G01X920505Y-8636000D01*
G01X924633Y-8635179D01*
G01X953842Y-8625264D01*
G01X981507Y-8611621D01*
G01X1007154Y-8594484D01*
G01X1030346Y-8574146D01*
G01X1050684Y-8550954D01*
G01X1067821Y-8525307D01*
G01X1081464Y-8497642D01*
G01X1091379Y-8468433D01*
G01X1097397Y-8438180D01*
G01X1099414Y-8407400D01*
G01X1099414Y-8407400D01*
G01X1097749Y-8382000D01*
G01X2002713Y-8382000D01*
G01X2004727Y-8403740D01*
G01X2010702Y-8424740D01*
G01X2020434Y-8444285D01*
G01X2033592Y-8461708D01*
G01X2049727Y-8476417D01*
G01X2068290Y-8487911D01*
G01X2088649Y-8495798D01*
G01X2110110Y-8499810D01*
G01X2131944Y-8499810D01*
G01X2153405Y-8495798D01*
G01X2173764Y-8487911D01*
G01X2192327Y-8476417D01*
G01X2208462Y-8461708D01*
G01X2221620Y-8444285D01*
G01X2231352Y-8424740D01*
G01X2237327Y-8403740D01*
G01X2239341Y-8382000D01*
G01X2239341Y-8382000D01*
G01X2237327Y-8360260D01*
G01X2231352Y-8339260D01*
G01X2221620Y-8319715D01*
G01X2208462Y-8302292D01*
G01X2192327Y-8287583D01*
G01X2173764Y-8276089D01*
G01X2153405Y-8268202D01*
G01X2131944Y-8264190D01*
G01X2110110Y-8264190D01*
G01X2088649Y-8268202D01*
G01X2068290Y-8276089D01*
G01X2049727Y-8287583D01*
G01X2033592Y-8302292D01*
G01X2020434Y-8319715D01*
G01X2010702Y-8339260D01*
G01X2004727Y-8360260D01*
G01X2002713Y-8382000D01*
G01X1097749Y-8382000D01*
G01X1097397Y-8376620D01*
G01X1091379Y-8346367D01*
G01X1081464Y-8317158D01*
G01X1067821Y-8289493D01*
G01X1050684Y-8263846D01*
G01X1030346Y-8240654D01*
G01X1007154Y-8220316D01*
G01X981507Y-8203179D01*
G01X953842Y-8189536D01*
G01X924633Y-8179621D01*
G01X894380Y-8173603D01*
G01X863600Y-8171586D01*
G01X832820Y-8173603D01*
G01X802567Y-8179621D01*
G01X773358Y-8189536D01*
G01X745693Y-8203179D01*
G01X720046Y-8220316D01*
G01X696854Y-8240654D01*
G01X676516Y-8263846D01*
G01X659379Y-8289493D01*
G01X645736Y-8317158D01*
G01X635821Y-8346367D01*
G01X629803Y-8376620D01*
G01X627786Y-8407400D01*
G01X36830Y-8407400D01*
G01X36830Y-7874000D01*
G01X2002713Y-7874000D01*
G01X2004723Y-7895694D01*
G01X2010685Y-7916648D01*
G01X2020396Y-7936151D01*
G01X2033525Y-7953537D01*
G01X2049626Y-7968214D01*
G01X2068149Y-7979683D01*
G01X2088464Y-7987554D01*
G01X2109880Y-7991557D01*
G01X2131666Y-7991557D01*
G01X2153082Y-7987554D01*
G01X2173397Y-7979683D01*
G01X2191920Y-7968214D01*
G01X2197744Y-7962905D01*
G01X3110243Y-7962905D01*
G01X3112210Y-7984139D01*
G01X3118046Y-8004650D01*
G01X3127552Y-8023739D01*
G01X3140403Y-8040757D01*
G01X3156162Y-8055124D01*
G01X3174293Y-8066350D01*
G01X3194178Y-8074053D01*
G01X3215140Y-8077972D01*
G01X3236465Y-8077972D01*
G01X3257427Y-8074053D01*
G01X3277312Y-8066350D01*
G01X3295443Y-8055124D01*
G01X3311202Y-8040757D01*
G01X3324053Y-8023739D01*
G01X3333559Y-8004650D01*
G01X3339395Y-7984139D01*
G01X3341362Y-7962905D01*
G01X3341362Y-7962905D01*
G01X4633989Y-7962905D01*
G01X4635961Y-7984186D01*
G01X4641809Y-8004742D01*
G01X4651336Y-8023873D01*
G01X4664215Y-8040928D01*
G01X4680009Y-8055327D01*
G01X4698180Y-8066577D01*
G01X4718109Y-8074298D01*
G01X4739117Y-8078225D01*
G01X4760488Y-8078225D01*
G01X4781497Y-8074298D01*
G01X4801425Y-8066577D01*
G01X4819596Y-8055327D01*
G01X4835390Y-8040928D01*
G01X4848269Y-8023873D01*
G01X4857796Y-8004742D01*
G01X4863644Y-7984186D01*
G01X4865616Y-7962905D01*
G01X4865616Y-7962905D01*
G01X4863644Y-7941624D01*
G01X4857796Y-7921068D01*
G01X4848269Y-7901937D01*
G01X4835390Y-7884882D01*
G01X4819596Y-7870484D01*
G01X4801425Y-7859233D01*
G01X4781497Y-7851512D01*
G01X4760488Y-7847585D01*
G01X4739117Y-7847585D01*
G01X4718109Y-7851512D01*
G01X4698180Y-7859233D01*
G01X4680009Y-7870484D01*
G01X4664215Y-7884882D01*
G01X4651336Y-7901937D01*
G01X4641809Y-7921068D01*
G01X4635961Y-7941624D01*
G01X4633989Y-7962905D01*
G01X3341362Y-7962905D01*
G01X3339395Y-7941671D01*
G01X3333559Y-7921160D01*
G01X3324053Y-7902071D01*
G01X3311202Y-7885053D01*
G01X3295443Y-7870686D01*
G01X3277312Y-7859460D01*
G01X3257427Y-7851757D01*
G01X3236465Y-7847838D01*
G01X3215140Y-7847838D01*
G01X3194178Y-7851757D01*
G01X3174293Y-7859460D01*
G01X3156162Y-7870686D01*
G01X3140403Y-7885053D01*
G01X3127552Y-7902071D01*
G01X3118046Y-7921160D01*
G01X3112210Y-7941671D01*
G01X3110243Y-7962905D01*
G01X2197744Y-7962905D01*
G01X2208021Y-7953537D01*
G01X2221150Y-7936151D01*
G01X2230861Y-7916648D01*
G01X2236823Y-7895694D01*
G01X2238833Y-7874000D01*
G01X2238833Y-7874000D01*
G01X2236823Y-7852306D01*
G01X2230861Y-7831352D01*
G01X2221150Y-7811849D01*
G01X2208021Y-7794463D01*
G01X2191920Y-7779786D01*
G01X2173397Y-7768317D01*
G01X2153082Y-7760446D01*
G01X2131666Y-7756443D01*
G01X2109880Y-7756443D01*
G01X2088464Y-7760446D01*
G01X2068149Y-7768317D01*
G01X2049626Y-7779786D01*
G01X2033525Y-7794463D01*
G01X2020396Y-7811849D01*
G01X2010685Y-7831352D01*
G01X2004723Y-7852306D01*
G01X2002713Y-7874000D01*
G01X36830Y-7874000D01*
G01X36830Y-7708905D01*
G01X3109989Y-7708905D01*
G01X3111961Y-7730186D01*
G01X3117809Y-7750742D01*
G01X3127336Y-7769873D01*
G01X3140215Y-7786928D01*
G01X3156009Y-7801327D01*
G01X3174180Y-7812577D01*
G01X3194109Y-7820298D01*
G01X3215117Y-7824225D01*
G01X3236488Y-7824225D01*
G01X3257497Y-7820298D01*
G01X3277425Y-7812577D01*
G01X3295596Y-7801327D01*
G01X3311390Y-7786928D01*
G01X3324269Y-7769873D01*
G01X3333796Y-7750742D01*
G01X3339644Y-7730186D01*
G01X3341616Y-7708905D01*
G01X3341616Y-7708905D01*
G01X4633989Y-7708905D01*
G01X4635961Y-7730186D01*
G01X4641809Y-7750742D01*
G01X4651336Y-7769873D01*
G01X4664215Y-7786928D01*
G01X4680009Y-7801327D01*
G01X4698180Y-7812577D01*
G01X4718109Y-7820298D01*
G01X4739117Y-7824225D01*
G01X4760488Y-7824225D01*
G01X4781497Y-7820298D01*
G01X4801425Y-7812577D01*
G01X4819596Y-7801327D01*
G01X4835390Y-7786928D01*
G01X4848269Y-7769873D01*
G01X4857796Y-7750742D01*
G01X4863644Y-7730186D01*
G01X4865616Y-7708905D01*
G01X4865616Y-7708905D01*
G01X4863644Y-7687624D01*
G01X4857796Y-7667068D01*
G01X4848269Y-7647937D01*
G01X4835390Y-7630882D01*
G01X4819596Y-7616484D01*
G01X4801425Y-7605233D01*
G01X4781497Y-7597512D01*
G01X4760488Y-7593585D01*
G01X4739117Y-7593585D01*
G01X4718109Y-7597512D01*
G01X4698180Y-7605233D01*
G01X4680009Y-7616484D01*
G01X4664215Y-7630882D01*
G01X4651336Y-7647937D01*
G01X4641809Y-7667068D01*
G01X4635961Y-7687624D01*
G01X4633989Y-7708905D01*
G01X3341616Y-7708905D01*
G01X3339644Y-7687624D01*
G01X3333796Y-7667068D01*
G01X3324269Y-7647937D01*
G01X3311390Y-7630882D01*
G01X3295596Y-7616484D01*
G01X3277425Y-7605233D01*
G01X3257497Y-7597512D01*
G01X3236488Y-7593585D01*
G01X3215117Y-7593585D01*
G01X3194109Y-7597512D01*
G01X3174180Y-7605233D01*
G01X3156009Y-7616484D01*
G01X3140215Y-7630882D01*
G01X3127336Y-7647937D01*
G01X3117809Y-7667068D01*
G01X3111961Y-7687624D01*
G01X3109989Y-7708905D01*
G01X36830Y-7708905D01*
G01X36830Y-7454905D01*
G01X3109989Y-7454905D01*
G01X3111961Y-7476186D01*
G01X3117809Y-7496742D01*
G01X3127336Y-7515873D01*
G01X3140215Y-7532928D01*
G01X3156009Y-7547327D01*
G01X3174180Y-7558577D01*
G01X3194109Y-7566298D01*
G01X3215117Y-7570225D01*
G01X3236488Y-7570225D01*
G01X3257497Y-7566298D01*
G01X3277425Y-7558577D01*
G01X3295596Y-7547327D01*
G01X3311390Y-7532928D01*
G01X3324269Y-7515873D01*
G01X3333796Y-7496742D01*
G01X3339644Y-7476186D01*
G01X3341616Y-7454905D01*
G01X3341616Y-7454905D01*
G01X4633989Y-7454905D01*
G01X4635961Y-7476186D01*
G01X4641809Y-7496742D01*
G01X4651336Y-7515873D01*
G01X4664215Y-7532928D01*
G01X4680009Y-7547327D01*
G01X4698180Y-7558577D01*
G01X4718109Y-7566298D01*
G01X4739117Y-7570225D01*
G01X4760488Y-7570225D01*
G01X4781497Y-7566298D01*
G01X4801425Y-7558577D01*
G01X4819596Y-7547327D01*
G01X4835390Y-7532928D01*
G01X4848269Y-7515873D01*
G01X4857796Y-7496742D01*
G01X4863644Y-7476186D01*
G01X4865616Y-7454905D01*
G01X4865616Y-7454905D01*
G01X4863644Y-7433624D01*
G01X4857796Y-7413068D01*
G01X4848269Y-7393937D01*
G01X4835390Y-7376882D01*
G01X4819596Y-7362484D01*
G01X4801425Y-7351233D01*
G01X4781497Y-7343512D01*
G01X4760488Y-7339585D01*
G01X4739117Y-7339585D01*
G01X4718109Y-7343512D01*
G01X4698180Y-7351233D01*
G01X4680009Y-7362484D01*
G01X4664215Y-7376882D01*
G01X4651336Y-7393937D01*
G01X4641809Y-7413068D01*
G01X4635961Y-7433624D01*
G01X4633989Y-7454905D01*
G01X3341616Y-7454905D01*
G01X3339644Y-7433624D01*
G01X3333796Y-7413068D01*
G01X3324269Y-7393937D01*
G01X3311390Y-7376882D01*
G01X3295596Y-7362484D01*
G01X3277425Y-7351233D01*
G01X3257497Y-7343512D01*
G01X3236488Y-7339585D01*
G01X3215117Y-7339585D01*
G01X3194109Y-7343512D01*
G01X3174180Y-7351233D01*
G01X3156009Y-7362484D01*
G01X3140215Y-7376882D01*
G01X3127336Y-7393937D01*
G01X3117809Y-7413068D01*
G01X3111961Y-7433624D01*
G01X3109989Y-7454905D01*
G01X36830Y-7454905D01*
G01X36830Y-7200905D01*
G01X3109989Y-7200905D01*
G01X3111961Y-7222186D01*
G01X3117809Y-7242742D01*
G01X3127336Y-7261873D01*
G01X3140215Y-7278928D01*
G01X3156009Y-7293327D01*
G01X3174180Y-7304577D01*
G01X3194109Y-7312298D01*
G01X3215117Y-7316225D01*
G01X3236488Y-7316225D01*
G01X3257497Y-7312298D01*
G01X3277425Y-7304577D01*
G01X3295596Y-7293327D01*
G01X3311390Y-7278928D01*
G01X3324269Y-7261873D01*
G01X3333796Y-7242742D01*
G01X3339644Y-7222186D01*
G01X3341616Y-7200905D01*
G01X3341616Y-7200905D01*
G01X4633989Y-7200905D01*
G01X4635961Y-7222186D01*
G01X4641809Y-7242742D01*
G01X4651336Y-7261873D01*
G01X4664215Y-7278928D01*
G01X4680009Y-7293327D01*
G01X4698180Y-7304577D01*
G01X4718109Y-7312298D01*
G01X4739117Y-7316225D01*
G01X4760488Y-7316225D01*
G01X4781497Y-7312298D01*
G01X4801425Y-7304577D01*
G01X4819596Y-7293327D01*
G01X4835390Y-7278928D01*
G01X4848269Y-7261873D01*
G01X4857796Y-7242742D01*
G01X4863644Y-7222186D01*
G01X4865616Y-7200905D01*
G01X4865616Y-7200905D01*
G01X4863644Y-7179624D01*
G01X4857796Y-7159068D01*
G01X4848269Y-7139937D01*
G01X4835390Y-7122882D01*
G01X4819596Y-7108484D01*
G01X4801425Y-7097233D01*
G01X4781497Y-7089512D01*
G01X4760488Y-7085585D01*
G01X4739117Y-7085585D01*
G01X4718109Y-7089512D01*
G01X4698180Y-7097233D01*
G01X4680009Y-7108484D01*
G01X4664215Y-7122882D01*
G01X4651336Y-7139937D01*
G01X4641809Y-7159068D01*
G01X4635961Y-7179624D01*
G01X4633989Y-7200905D01*
G01X3341616Y-7200905D01*
G01X3339644Y-7179624D01*
G01X3333796Y-7159068D01*
G01X3324269Y-7139937D01*
G01X3311390Y-7122882D01*
G01X3295596Y-7108484D01*
G01X3277425Y-7097233D01*
G01X3257497Y-7089512D01*
G01X3236488Y-7085585D01*
G01X3215117Y-7085585D01*
G01X3194109Y-7089512D01*
G01X3174180Y-7097233D01*
G01X3156009Y-7108484D01*
G01X3140215Y-7122882D01*
G01X3127336Y-7139937D01*
G01X3117809Y-7159068D01*
G01X3111961Y-7179624D01*
G01X3109989Y-7200905D01*
G01X36830Y-7200905D01*
G01X36830Y-6946905D01*
G01X3109989Y-6946905D01*
G01X3111961Y-6968186D01*
G01X3117809Y-6988742D01*
G01X3127336Y-7007873D01*
G01X3140215Y-7024928D01*
G01X3156009Y-7039327D01*
G01X3174180Y-7050577D01*
G01X3194109Y-7058298D01*
G01X3215117Y-7062225D01*
G01X3236488Y-7062225D01*
G01X3257497Y-7058298D01*
G01X3277425Y-7050577D01*
G01X3295596Y-7039327D01*
G01X3311390Y-7024928D01*
G01X3324269Y-7007873D01*
G01X3333796Y-6988742D01*
G01X3339644Y-6968186D01*
G01X3341616Y-6946905D01*
G01X3341616Y-6946905D01*
G01X4633989Y-6946905D01*
G01X4635961Y-6968186D01*
G01X4641809Y-6988742D01*
G01X4651336Y-7007873D01*
G01X4664215Y-7024928D01*
G01X4680009Y-7039327D01*
G01X4698180Y-7050577D01*
G01X4718109Y-7058298D01*
G01X4739117Y-7062225D01*
G01X4760488Y-7062225D01*
G01X4781497Y-7058298D01*
G01X4801425Y-7050577D01*
G01X4819596Y-7039327D01*
G01X4835390Y-7024928D01*
G01X4848269Y-7007873D01*
G01X4857796Y-6988742D01*
G01X4863644Y-6968186D01*
G01X4865616Y-6946905D01*
G01X4865616Y-6946905D01*
G01X4863644Y-6925624D01*
G01X4857796Y-6905068D01*
G01X4848269Y-6885937D01*
G01X4835390Y-6868882D01*
G01X4819596Y-6854484D01*
G01X4801425Y-6843233D01*
G01X4781497Y-6835512D01*
G01X4760488Y-6831585D01*
G01X4739117Y-6831585D01*
G01X4718109Y-6835512D01*
G01X4698180Y-6843233D01*
G01X4680009Y-6854484D01*
G01X4664215Y-6868882D01*
G01X4651336Y-6885937D01*
G01X4641809Y-6905068D01*
G01X4635961Y-6925624D01*
G01X4633989Y-6946905D01*
G01X3341616Y-6946905D01*
G01X3339644Y-6925624D01*
G01X3333796Y-6905068D01*
G01X3324269Y-6885937D01*
G01X3311390Y-6868882D01*
G01X3295596Y-6854484D01*
G01X3277425Y-6843233D01*
G01X3257497Y-6835512D01*
G01X3236488Y-6831585D01*
G01X3215117Y-6831585D01*
G01X3194109Y-6835512D01*
G01X3174180Y-6843233D01*
G01X3156009Y-6854484D01*
G01X3140215Y-6868882D01*
G01X3127336Y-6885937D01*
G01X3117809Y-6905068D01*
G01X3111961Y-6925624D01*
G01X3109989Y-6946905D01*
G01X36830Y-6946905D01*
G01X36830Y-6692905D01*
G01X3109989Y-6692905D01*
G01X3111961Y-6714186D01*
G01X3117809Y-6734742D01*
G01X3127336Y-6753873D01*
G01X3140215Y-6770928D01*
G01X3156009Y-6785327D01*
G01X3174180Y-6796577D01*
G01X3194109Y-6804298D01*
G01X3215117Y-6808225D01*
G01X3236488Y-6808225D01*
G01X3257497Y-6804298D01*
G01X3277425Y-6796577D01*
G01X3295596Y-6785327D01*
G01X3311390Y-6770928D01*
G01X3324269Y-6753873D01*
G01X3333796Y-6734742D01*
G01X3339644Y-6714186D01*
G01X3341616Y-6692905D01*
G01X3341616Y-6692905D01*
G01X4633989Y-6692905D01*
G01X4635961Y-6714186D01*
G01X4641809Y-6734742D01*
G01X4651336Y-6753873D01*
G01X4664215Y-6770928D01*
G01X4680009Y-6785327D01*
G01X4698180Y-6796577D01*
G01X4718109Y-6804298D01*
G01X4739117Y-6808225D01*
G01X4760488Y-6808225D01*
G01X4781497Y-6804298D01*
G01X4801425Y-6796577D01*
G01X4819596Y-6785327D01*
G01X4835390Y-6770928D01*
G01X4848269Y-6753873D01*
G01X4857796Y-6734742D01*
G01X4863644Y-6714186D01*
G01X4865616Y-6692905D01*
G01X4865616Y-6692905D01*
G01X4863644Y-6671624D01*
G01X4857796Y-6651068D01*
G01X4848269Y-6631937D01*
G01X4835390Y-6614882D01*
G01X4819596Y-6600484D01*
G01X4801425Y-6589233D01*
G01X4781497Y-6581512D01*
G01X4760488Y-6577585D01*
G01X4739117Y-6577585D01*
G01X4718109Y-6581512D01*
G01X4698180Y-6589233D01*
G01X4680009Y-6600484D01*
G01X4664215Y-6614882D01*
G01X4651336Y-6631937D01*
G01X4641809Y-6651068D01*
G01X4635961Y-6671624D01*
G01X4633989Y-6692905D01*
G01X3341616Y-6692905D01*
G01X3339644Y-6671624D01*
G01X3333796Y-6651068D01*
G01X3324269Y-6631937D01*
G01X3311390Y-6614882D01*
G01X3295596Y-6600484D01*
G01X3277425Y-6589233D01*
G01X3257497Y-6581512D01*
G01X3236488Y-6577585D01*
G01X3215117Y-6577585D01*
G01X3194109Y-6581512D01*
G01X3174180Y-6589233D01*
G01X3156009Y-6600484D01*
G01X3140215Y-6614882D01*
G01X3127336Y-6631937D01*
G01X3117809Y-6651068D01*
G01X3111961Y-6671624D01*
G01X3109989Y-6692905D01*
G01X36830Y-6692905D01*
G01X36830Y-6350000D01*
G01X241046Y-6350000D01*
G01X242996Y-6371049D01*
G01X248782Y-6391382D01*
G01X258204Y-6410305D01*
G01X270944Y-6427175D01*
G01X286566Y-6441416D01*
G01X304539Y-6452545D01*
G01X324251Y-6460181D01*
G01X345030Y-6464065D01*
G01X366170Y-6464065D01*
G01X386949Y-6460181D01*
G01X406661Y-6452545D01*
G01X424634Y-6441416D01*
G01X440256Y-6427175D01*
G01X452996Y-6410305D01*
G01X462418Y-6391382D01*
G01X468204Y-6371049D01*
G01X470154Y-6350000D01*
G01X470154Y-6350000D01*
G01X468204Y-6328951D01*
G01X462418Y-6308618D01*
G01X452996Y-6289695D01*
G01X440256Y-6272825D01*
G01X424634Y-6258584D01*
G01X406661Y-6247455D01*
G01X386949Y-6239819D01*
G01X366170Y-6235935D01*
G01X345030Y-6235935D01*
G01X324251Y-6239819D01*
G01X304539Y-6247455D01*
G01X286566Y-6258584D01*
G01X270944Y-6272825D01*
G01X258204Y-6289695D01*
G01X248782Y-6308618D01*
G01X242996Y-6328951D01*
G01X241046Y-6350000D01*
G01X36830Y-6350000D01*
G01X36830Y-6096000D01*
G01X241300Y-6096000D01*
G01X243246Y-6117003D01*
G01X249018Y-6137290D01*
G01X258420Y-6156171D01*
G01X271131Y-6173003D01*
G01X286719Y-6187213D01*
G01X304652Y-6198317D01*
G01X324320Y-6205937D01*
G01X345054Y-6209812D01*
G01X366146Y-6209812D01*
G01X386880Y-6205937D01*
G01X406548Y-6198317D01*
G01X424481Y-6187213D01*
G01X427019Y-6184900D01*
G01X2020486Y-6184900D01*
G01X2022398Y-6206747D01*
G01X2028074Y-6227931D01*
G01X2037342Y-6247807D01*
G01X2049921Y-6265772D01*
G01X2065428Y-6281279D01*
G01X2083393Y-6293858D01*
G01X2103269Y-6303126D01*
G01X2124453Y-6308802D01*
G01X2146300Y-6310714D01*
G01X2168147Y-6308802D01*
G01X2189331Y-6303126D01*
G01X2209207Y-6293858D01*
G01X2227172Y-6281279D01*
G01X2242679Y-6265772D01*
G01X2255258Y-6247807D01*
G01X2264526Y-6227931D01*
G01X2270202Y-6206747D01*
G01X2272114Y-6184900D01*
G01X2272114Y-6184900D01*
G01X2270202Y-6163053D01*
G01X2264526Y-6141869D01*
G01X2255258Y-6121993D01*
G01X2242679Y-6104028D01*
G01X2227172Y-6088521D01*
G01X2209207Y-6075942D01*
G01X2189331Y-6066674D01*
G01X2168147Y-6060998D01*
G01X2146300Y-6059086D01*
G01X2124453Y-6060998D01*
G01X2103269Y-6066674D01*
G01X2083393Y-6075942D01*
G01X2065428Y-6088521D01*
G01X2049921Y-6104028D01*
G01X2037342Y-6121993D01*
G01X2028074Y-6141869D01*
G01X2022398Y-6163053D01*
G01X2020486Y-6184900D01*
G01X427019Y-6184900D01*
G01X440069Y-6173003D01*
G01X452780Y-6156171D01*
G01X462182Y-6137290D01*
G01X467954Y-6117003D01*
G01X469900Y-6096000D01*
G01X469900Y-6096000D01*
G01X467954Y-6074997D01*
G01X462182Y-6054710D01*
G01X452780Y-6035829D01*
G01X440069Y-6018997D01*
G01X424481Y-6004787D01*
G01X406548Y-5993683D01*
G01X386880Y-5986063D01*
G01X366146Y-5982188D01*
G01X345054Y-5982188D01*
G01X324320Y-5986063D01*
G01X304652Y-5993683D01*
G01X286719Y-6004787D01*
G01X271131Y-6018997D01*
G01X258420Y-6035829D01*
G01X249018Y-6054710D01*
G01X243246Y-6074997D01*
G01X241300Y-6096000D01*
G01X36830Y-6096000D01*
G01X36830Y-49530D01*
G37*
G54D10*
G01X36830Y-49530D02*
G01X200387Y-49530D01*
G01X124958Y-124958D01*
G03X108331Y-165100I40142J-40142D01*
G01X108331Y-5674976D01*
G01X74158Y-5709148D01*
G03X57531Y-5749290I40142J-40142D01*
G01X57531Y-5791200D01*
G03X74158Y-5831342I56769J0D01*
G01X137658Y-5894842D01*
G03X177800Y-5911469I40142J40142D01*
G01X213995Y-5911469D01*
G02X241048Y-5921113I0J-42767D01*
G03X276860Y-5956554I35812J373D01*
G01X434340Y-5956554D01*
G03X470154Y-5920740I0J35814D01*
G01X470154Y-5763260D01*
G03X434340Y-5727446I-35814J0D01*
G01X276860Y-5727446D01*
G03X241046Y-5763260I0J-35814D01*
G01X241046Y-5788289D01*
G02X213995Y-5797931I-27051J33125D01*
G01X201314Y-5797931D01*
G01X173628Y-5770245D01*
G01X205242Y-5738632D01*
G03X221869Y-5698490I-40142J40142D01*
G01X221869Y-3950350D01*
G02X266441Y-3931294I89916J-148658D01*
G01X267912Y-3932460D01*
G01X273444Y-3937523D01*
G01X279218Y-3943267D01*
G01X281629Y-3945663D01*
G03X290476Y-3954373I84670J77160D01*
G03X480852Y-3868503I75791J85939D01*
G03X290476Y-3782633I-114585J-69D01*
G03X281629Y-3791343I75822J-85870D01*
G01X279208Y-3793749D01*
G01X273444Y-3799483D01*
G01X267912Y-3804546D01*
G01X266441Y-3805712D01*
G02X221869Y-3786656I45344J167714D01*
G01X221869Y-188614D01*
G01X264814Y-145669D01*
G01X1404635Y-145669D01*
G02X1429705Y-233984I-148658J-89916D01*
G01X1429704Y-268093D01*
G01X1429552Y-268495D01*
G01X1429127Y-269344D01*
G01X1425721Y-274515D01*
G01X1421008Y-280193D01*
G01X1415130Y-286343D01*
G01X1408721Y-292542D01*
G01X1406485Y-294667D01*
G03X1395927Y-305228I79996J-90535D01*
G03X1365668Y-385202I90779J-80060D01*
G03X1395927Y-465177I121039J85D01*
G03X1406485Y-475737I90554J79974D01*
G01X1408721Y-477862D01*
G01X1415130Y-484061D01*
G01X1421008Y-490211D01*
G01X1425721Y-495889D01*
G01X1428729Y-500456D01*
G02X1420071Y-518388I-41784J9119D01*
G01X1401482Y-518388D01*
G03X1365668Y-554202I0J-35814D01*
G01X1365668Y-724202D01*
G03X1401482Y-760016I35814J0D01*
G01X1571481Y-760016D01*
G03X1607295Y-724202I0J35814D01*
G01X1607295Y-554202D01*
G03X1571481Y-518388I-35814J0D01*
G01X1552893Y-518388D01*
G02X1544234Y-500456I33125J27051D01*
G01X1547242Y-495889D01*
G01X1551955Y-490211D01*
G01X1557834Y-484061D01*
G01X1564243Y-477862D01*
G01X1566478Y-475737D01*
G03X1577036Y-465177I-79996J90535D01*
G03X1607295Y-385202I-90779J80060D01*
G03X1577036Y-305228I-121039J-85D01*
G03X1566478Y-294667I-90554J-79974D01*
G01X1564243Y-292542D01*
G01X1557834Y-286343D01*
G01X1551955Y-280193D01*
G01X1547242Y-274515D01*
G01X1543837Y-269344D01*
G01X1543411Y-268495D01*
G01X1543251Y-267984D01*
G01X1543251Y-235637D01*
G02X1568328Y-145669I173736J52D01*
G01X2211686Y-145669D01*
G01X2280031Y-214014D01*
G01X2280031Y-406400D01*
G03X2296658Y-446542I56769J0D01*
G01X2361077Y-510961D01*
G03X2401219Y-527588I40142J40142D01*
G02X2432431Y-543382I0J-38738D01*
G01X2432431Y-639535D01*
G02X2422789Y-666586I-42767J0D01*
G01X2410460Y-666586D01*
G03X2374646Y-702400I0J-35814D01*
G01X2374646Y-872400D01*
G03X2410460Y-908214I35814J0D01*
G01X2567940Y-908214D01*
G03X2603754Y-872400I0J35814D01*
G01X2603754Y-702400D01*
G03X2567940Y-666586I-35814J0D01*
G01X2555611Y-666586D01*
G02X2545969Y-639535I33125J27051D01*
G01X2545969Y-341014D01*
G01X2666950Y-220033D01*
G01X4864150Y-220033D01*
G01X5035931Y-391814D01*
G01X5035931Y-736600D01*
G03X5052558Y-776742I56769J0D01*
G01X5255758Y-979942D01*
G03X5295900Y-996569I40142J40142D01*
G01X5833835Y-996569D01*
G02X5860886Y-1006211I0J-42767D01*
G01X5860886Y-1024800D01*
G03X5896700Y-1060614I35814J0D01*
G01X6066700Y-1060614D01*
G03X6102514Y-1024800I0J35814D01*
G01X6102514Y-854800D01*
G03X6066700Y-818986I-35814J0D01*
G01X5896700Y-818986D01*
G03X5860886Y-854800I0J-35814D01*
G01X5860886Y-873389D01*
G02X5833835Y-883031I-27051J33125D01*
G01X5466969Y-883031D01*
G01X5466969Y-823614D01*
G01X5675014Y-615569D01*
G01X5958186Y-615569D01*
G01X6166231Y-823614D01*
G01X6166231Y-1436986D01*
G01X5916158Y-1687058D01*
G03X5899531Y-1727200I40142J-40142D01*
G01X5899531Y-3535135D01*
G02X5889889Y-3562186I-42767J0D01*
G01X5871300Y-3562186D01*
G03X5835486Y-3598000I0J-35814D01*
G01X5835486Y-3768000D01*
G03X5871300Y-3803814I35814J0D01*
G01X6041300Y-3803814D01*
G03X6077114Y-3768000I0J35814D01*
G01X6077114Y-3598000D01*
G03X6041300Y-3562186I-35814J0D01*
G01X6022711Y-3562186D01*
G02X6013069Y-3535135I33125J27051D01*
G01X6013069Y-1750714D01*
G01X6263142Y-1500642D01*
G03X6279769Y-1460500I-40142J40142D01*
G01X6279769Y-800100D01*
G03X6263142Y-759958I-56769J0D01*
G01X6021842Y-518658D01*
G03X5981700Y-502031I-40142J-40142D01*
G01X5651500Y-502031D01*
G03X5611358Y-518658I0J-56769D01*
G01X5370058Y-759958D01*
G03X5353431Y-800100I40142J-40142D01*
G02X5329074Y-883031I-153363J0D01*
G01X5319414Y-883031D01*
G01X5149469Y-713086D01*
G01X5149469Y-368300D01*
G03X5132842Y-328158I-56769J0D01*
G01X4927806Y-123123D01*
G03X4887664Y-106495I-40142J-40142D01*
G01X2643436Y-106495D01*
G03X2603294Y-123123I0J-56769D01*
G01X2449058Y-277358D01*
G03X2432431Y-317500I40142J-40142D01*
G01X2432431Y-398256D01*
G02X2419920Y-409237I-31212J22944D01*
G01X2393569Y-382886D01*
G01X2393569Y-190500D01*
G03X2376942Y-150358I-56769J0D01*
G01X2276113Y-49530D01*
G01X6313170Y-49530D01*
G01X6313170Y-9132570D01*
G01X36830Y-9132570D01*
G01X36830Y-49530D01*
G01X470154Y-6350000D02*
G03X241046Y-6350000I-114554J0D01*
G03X470154Y-6350000I114554J0D01*
G01X469900Y-6096000D02*
G03X241300Y-6096000I-114300J0D01*
G03X469900Y-6096000I114300J0D01*
G01X480852Y-4988601D02*
G03X251744Y-4988601I-114554J0D01*
G03X480852Y-4988601I114554J0D01*
G01X2296658Y-2055358D02*
G01X2182358Y-2169658D01*
G03X2165731Y-2209800I40142J-40142D01*
G01X2165731Y-3721481D01*
G01X730250Y-3721481D01*
G03X690108Y-3738108I0J-56769D01*
G01X594858Y-3833358D01*
G03X578231Y-3873500I40142J-40142D01*
G01X578231Y-4101702D01*
G02X553225Y-4082478I61794J106258D01*
G03X512966Y-4065734I-40341J-40224D01*
G01X507903Y-4065734D01*
G02X480852Y-4056092I0J42767D01*
G01X480852Y-4043763D01*
G03X445038Y-4007949I-35814J0D01*
G01X287558Y-4007949D01*
G03X251744Y-4043763I0J-35814D01*
G01X251744Y-4201243D01*
G03X287558Y-4237057I35814J0D01*
G01X445038Y-4237057D01*
G03X480852Y-4201243I0J35814D01*
G01X480852Y-4188914D01*
G02X492372Y-4182192I27051J-33125D01*
G01X499768Y-4189589D01*
G02X578231Y-4302716I-273082J-273178D01*
G01X578231Y-4662786D01*
G01X563184Y-4677832D01*
G01X507903Y-4677832D01*
G02X480852Y-4668190I0J42767D01*
G01X480852Y-4655861D01*
G03X445038Y-4620047I-35814J0D01*
G01X287558Y-4620047D01*
G03X251744Y-4655861I0J-35814D01*
G01X251744Y-4813341D01*
G03X287558Y-4849155I35814J0D01*
G01X445038Y-4849155D01*
G03X480852Y-4813341I0J35814D01*
G01X480852Y-4801012D01*
G02X507903Y-4791370I27051J-33125D01*
G01X586699Y-4791370D01*
G03X626840Y-4774743I0J56769D01*
G01X675142Y-4726442D01*
G03X691769Y-4686300I-40142J40142D01*
G01X691769Y-4099831D01*
G02X781685Y-4074754I89916J-148658D01*
G01X1733870Y-4074754D01*
G01X2006775Y-4347658D01*
G02X2020486Y-4390987I-61606J-43329D01*
G01X2020486Y-4496900D01*
G03X2056300Y-4532714I35814J0D01*
G01X2236300Y-4532714D01*
G03X2272114Y-4496900I0J35814D01*
G01X2272114Y-4316900D01*
G03X2236300Y-4281086I-35814J0D01*
G01X2130387Y-4281086D01*
G02X2087058Y-4267375I-0J75317D01*
G01X1797526Y-3977843D01*
G03X1757385Y-3961216I-40142J-40142D01*
G01X781685Y-3961216D01*
G02X691769Y-3936138I0J173736D01*
G01X691769Y-3897014D01*
G01X753764Y-3835019D01*
G01X2196918Y-3835019D01*
G03X2279269Y-3784341I25582J50678D01*
G01X2279269Y-2233314D01*
G01X2360314Y-2152269D01*
G01X4985131Y-2152269D01*
G01X4985131Y-3583293D01*
G01X4787988Y-3780436D01*
G01X4787562Y-3780775D01*
G01X4786886Y-3781012D01*
G01X4781473Y-3782221D01*
G01X4774886Y-3782951D01*
G01X4767190Y-3783254D01*
G01X4758798Y-3783242D01*
G01X4755731Y-3783243D01*
G03X4742623Y-3783314I-5928J-115662D01*
G03X4667910Y-3980798I7255J-115619D01*
G03X4865394Y-3906085I81864J81968D01*
G03X4865465Y-3892976I-115591J7180D01*
G01X4865466Y-3889837D01*
G01X4865453Y-3881517D01*
G01X4865757Y-3873821D01*
G01X4866486Y-3867234D01*
G01X4867696Y-3861822D01*
G01X4868010Y-3860981D01*
G01X5074031Y-3654960D01*
G01X5074031Y-7429500D01*
G03X5090658Y-7469642I56769J0D01*
G01X5573258Y-7952242D01*
G03X5613400Y-7968869I40142J40142D01*
G01X5626331Y-7968869D01*
G02X5651409Y-8058785I-148658J-89916D01*
G01X5651409Y-8632008D01*
G01X5551786Y-8731631D01*
G01X2881014Y-8731631D01*
G01X2799969Y-8650586D01*
G01X2799969Y-8337574D01*
G01X2863869Y-8273674D01*
G01X3115032Y-8273674D01*
G01X3115572Y-8273735D01*
G01X3116217Y-8274046D01*
G01X3120900Y-8277018D01*
G01X3126073Y-8281160D01*
G01X3131730Y-8286387D01*
G01X3137655Y-8292330D01*
G01X3139824Y-8294497D01*
G03X3341616Y-8216905I85978J77592D01*
G03X3139823Y-8139314I-115814J-1D01*
G01X3137605Y-8141530D01*
G01X3131730Y-8147423D01*
G01X3126073Y-8152650D01*
G01X3120900Y-8156792D01*
G01X3116217Y-8159764D01*
G01X3115401Y-8160136D01*
G01X2840354Y-8160136D01*
G03X2800212Y-8176763I0J-56769D01*
G01X2708209Y-8268767D01*
G02X2658665Y-8232194I96638J182756D01*
G01X2514329Y-8087858D01*
G03X2474188Y-8071231I-40142J-40142D01*
G01X2234816Y-8071231D01*
G01X2234506Y-8071123D01*
G01X2233758Y-8070756D01*
G01X2228831Y-8067568D01*
G01X2223406Y-8063142D01*
G01X2217502Y-8057589D01*
G01X2211284Y-8051255D01*
G01X2209580Y-8049536D01*
G03X2002713Y-8128003I-88553J-78464D01*
G03X2209585Y-8206459I118314J3D01*
G01X2211411Y-8204617D01*
G01X2217502Y-8198411D01*
G01X2223406Y-8192858D01*
G01X2228831Y-8188432D01*
G01X2233758Y-8185244D01*
G01X2234506Y-8184877D01*
G01X2234816Y-8184769D01*
G01X2450673Y-8184769D01*
G01X2608223Y-8342319D01*
G02X2686431Y-8455191I-273337J-272922D01*
G01X2686431Y-8674100D01*
G03X2703058Y-8714242I56769J0D01*
G01X2817358Y-8828542D01*
G03X2857500Y-8845169I40142J40142D01*
G01X5575300Y-8845169D01*
G03X5615442Y-8828542I0J56769D01*
G01X5748320Y-8695664D01*
G03X5764947Y-8655522I-40142J40142D01*
G01X5764947Y-8058785D01*
G02X5790024Y-7968869I173736J0D01*
G01X5812693Y-7968869D01*
G02X5839744Y-7978511I0J-42767D01*
G01X5839744Y-7990840D01*
G03X5875558Y-8026654I35814J0D01*
G01X6033038Y-8026654D01*
G03X6068852Y-7990840I0J35814D01*
G01X6068852Y-7833360D01*
G03X6033038Y-7797546I-35814J0D01*
G01X5875558Y-7797546D01*
G03X5839744Y-7833360I0J-35814D01*
G01X5839744Y-7845689D01*
G02X5812693Y-7855331I-27051J33125D01*
G01X5636914Y-7855331D01*
G01X5187569Y-7405986D01*
G01X5187569Y-6004398D01*
G02X5277485Y-5979320I89916J-148658D01*
G01X5812693Y-5979320D01*
G02X5839744Y-5988962I0J-42767D01*
G01X5839744Y-6001291D01*
G03X5875558Y-6037105I35814J0D01*
G01X6033038Y-6037105D01*
G03X6068852Y-6001291I0J35814D01*
G01X6068852Y-5843811D01*
G03X6033038Y-5807997I-35814J0D01*
G01X5875558Y-5807997D01*
G03X5839744Y-5843811I0J-35814D01*
G01X5839744Y-5856140D01*
G02X5812693Y-5865782I-27051J33125D01*
G01X5277515Y-5865782D01*
G02X5187569Y-5840704I-30J173736D01*
G01X5187569Y-3411392D01*
G03X5170942Y-3371250I-56769J0D01*
G01X5170747Y-3371055D01*
G02X5098669Y-3264708I242024J241634D01*
G01X5098669Y-2107010D01*
G03X5043079Y-2038731I-55590J11510D01*
G01X4907847Y-2038731D01*
G02X4882769Y-1948815I148658J89916D01*
G01X4882769Y-1921685D01*
G01X4883027Y-1913445D01*
G03X4826000Y-1813286I-57027J33845D01*
G03X4768973Y-1913445I0J-66314D01*
G01X4769231Y-1921685D01*
G01X4769231Y-1948785D01*
G02X4744153Y-2038731I-173736J-30D01*
G01X2336800Y-2038731D01*
G03X2296658Y-2055358I0J-56769D01*
G01X480598Y-5242601D02*
G03X251998Y-5242601I-114300J0D01*
G03X480598Y-5242601I114300J0D01*
G01X480598Y-3614503D02*
G03X251998Y-3614503I-114300J0D01*
G03X480598Y-3614503I114300J0D01*
G01X253746Y-1295558D02*
G01X253746Y-1453038D01*
G03X289560Y-1488852I35814J0D01*
G01X447040Y-1488852D01*
G03X482854Y-1453038I0J35814D01*
G01X482854Y-1295558D01*
G03X447040Y-1259744I-35814J0D01*
G01X289560Y-1259744D01*
G03X253746Y-1295558I0J-35814D01*
G01X482854Y-612298D02*
G03X253746Y-612298I-114554J0D01*
G03X482854Y-612298I114554J0D01*
G01X482854Y-1120298D02*
G03X253746Y-1120298I-114554J0D01*
G03X482854Y-1120298I114554J0D01*
G01X482854Y-866298D02*
G03X253746Y-866298I-114554J0D01*
G03X482854Y-866298I114554J0D01*
G01X482854Y-2748402D02*
G03X253746Y-2748402I-114554J0D01*
G03X482854Y-2748402I114554J0D01*
G01X482854Y-2494402D02*
G03X253746Y-2494402I-114554J0D01*
G03X482854Y-2494402I114554J0D01*
G01X482854Y-2240402D02*
G03X253746Y-2240402I-114554J0D01*
G03X482854Y-2240402I114554J0D01*
G01X482854Y-358298D02*
G03X253746Y-358298I-114554J0D01*
G03X482854Y-358298I114554J0D01*
G01X482854Y-1986402D02*
G03X253746Y-1986402I-114554J0D01*
G03X482854Y-1986402I114554J0D01*
G01X253746Y-2923662D02*
G01X253746Y-3081142D01*
G03X289560Y-3116956I35814J0D01*
G01X447040Y-3116956D01*
G03X482854Y-3081142I0J35814D01*
G01X482854Y-2923662D01*
G03X447040Y-2887848I-35814J0D01*
G01X289560Y-2887848D01*
G03X253746Y-2923662I0J-35814D01*
G01X1099414Y-8407400D02*
G03X627786Y-8407400I-235814J0D01*
G03X1099414Y-8407400I235814J0D01*
G01X1137514Y-406400D02*
G03X665886Y-406400I-235814J0D01*
G03X1137514Y-406400I235814J0D01*
G01X1086163Y-3185161D02*
G03X1045309Y-3298091I6037J-66039D01*
G03X1158239Y-3257237I46891J46891D01*
G01X1158642Y-3254591D01*
G01X1159141Y-3252868D01*
G01X1226595Y-3185414D01*
G01X1973144Y-3185414D01*
G01X1974717Y-3186280D01*
G01X1976873Y-3187866D01*
G03X2085614Y-3136900I42427J50966D01*
G03X1976873Y-3085934I-66314J0D01*
G01X1974717Y-3087520D01*
G01X1973144Y-3088386D01*
G01X1206500Y-3088386D01*
G03X1172195Y-3102595I0J-48514D01*
G01X1090532Y-3184259D01*
G01X1088809Y-3184758D01*
G01X1086163Y-3185161D01*
G01X1352640Y-1756500D02*
G01X1352640Y-1926500D01*
G03X1388200Y-1962060I35560J0D01*
G01X1558200Y-1962060D01*
G03X1593760Y-1926500I0J35560D01*
G01X1593760Y-1756500D01*
G03X1558200Y-1720940I-35560J0D01*
G01X1388200Y-1720940D01*
G03X1352640Y-1756500I0J-35560D01*
G01X1593760Y-1079500D02*
G03X1352640Y-1079500I-120560J0D01*
G03X1593760Y-1079500I120560J0D01*
G01X1593760Y-1333500D02*
G03X1352640Y-1333500I-120560J0D01*
G03X1593760Y-1333500I120560J0D01*
G01X1593760Y-1587500D02*
G03X1352640Y-1587500I-120560J0D01*
G03X1593760Y-1587500I120560J0D01*
G01X1936914Y-1333500D02*
G03X1695286Y-1333500I-120814J0D01*
G03X1936914Y-1333500I120814J0D01*
G01X1936914Y-1587500D02*
G03X1695286Y-1587500I-120814J0D01*
G03X1936914Y-1587500I120814J0D01*
G01X1936914Y-1841500D02*
G03X1695286Y-1841500I-120814J0D01*
G03X1936914Y-1841500I120814J0D01*
G01X1936914Y-1164500D02*
G01X1936914Y-994500D01*
G03X1901100Y-958686I-35814J0D01*
G01X1731100Y-958686D01*
G03X1695286Y-994500I0J-35814D01*
G01X1695286Y-1164500D01*
G03X1731100Y-1200314I35814J0D01*
G01X1901100Y-1200314D01*
G03X1936914Y-1164500I0J35814D01*
G01X1845400Y-514186D02*
G03X1809586Y-550000I0J-35814D01*
G01X1809586Y-720000D01*
G03X1845400Y-755814I35814J0D01*
G01X2015400Y-755814D01*
G03X2051214Y-720000I0J35814D01*
G01X2051214Y-550000D01*
G03X2015400Y-514186I-35814J0D01*
G01X1996811Y-514186D01*
G02X1988153Y-496254I33125J27051D01*
G01X1991161Y-491687D01*
G01X1995873Y-486009D01*
G01X2001752Y-479859D01*
G01X2008161Y-473660D01*
G01X2010396Y-471535D01*
G03X2020954Y-460974I-79996J90535D01*
G03X1930400Y-260186I-90639J79936D01*
G03X1839846Y-460974I85J-120852D01*
G03X1850404Y-471535I90554J79974D01*
G01X1852639Y-473660D01*
G01X1859048Y-479859D01*
G01X1864927Y-486009D01*
G01X1869639Y-491687D01*
G01X1872647Y-496254D01*
G02X1863989Y-514186I-41784J9119D01*
G01X1845400Y-514186D01*
G01X2239341Y-8382000D02*
G03X2002713Y-8382000I-118314J0D01*
G03X2239341Y-8382000I118314J0D01*
G01X2239341Y-8636000D02*
G03X2002713Y-8636000I-118314J0D01*
G03X2239341Y-8636000I118314J0D01*
G01X2238833Y-7874000D02*
G03X2002713Y-7874000I-118060J0D01*
G03X2238833Y-7874000I118060J0D01*
G01X2272114Y-4914900D02*
G03X2020486Y-4914900I-125814J0D01*
G03X2272114Y-4914900I125814J0D01*
G01X2272114Y-5168900D02*
G03X2020486Y-5168900I-125814J0D01*
G03X2272114Y-5168900I125814J0D01*
G01X2272114Y-5930900D02*
G03X2020486Y-5930900I-125814J0D01*
G03X2272114Y-5930900I125814J0D01*
G01X2272114Y-5676900D02*
G03X2020486Y-5676900I-125814J0D01*
G03X2272114Y-5676900I125814J0D01*
G01X2272114Y-5422900D02*
G03X2020486Y-5422900I-125814J0D01*
G03X2272114Y-5422900I125814J0D01*
G01X2272114Y-6184900D02*
G03X2020486Y-6184900I-125814J0D01*
G03X2272114Y-6184900I125814J0D01*
G01X2271860Y-4660900D02*
G03X2020740Y-4660900I-125560J0D01*
G03X2271860Y-4660900I125560J0D01*
G01X2863760Y-787400D02*
G03X2622640Y-787400I-120560J0D01*
G03X2863760Y-787400I120560J0D01*
G01X3112461Y-6395933D02*
G01X3112660Y-6398486D01*
G01X3112664Y-6406698D01*
G01X3112081Y-6415704D01*
G01X3111835Y-6418310D01*
G03X3110211Y-6446085I113968J-20595D01*
G03X3307695Y-6520798I115619J7255D01*
G03X3232982Y-6323314I-81968J81864D01*
G03X3205207Y-6324937I-7180J-115591D01*
G01X3202602Y-6325184D01*
G01X3193596Y-6325767D01*
G01X3185383Y-6325762D01*
G01X3182831Y-6325564D01*
G01X3180760Y-6325253D01*
G01X2766314Y-5910807D01*
G01X2766314Y-5794026D01*
G01X3112150Y-6139862D01*
G01X3112461Y-6141933D01*
G01X3112660Y-6144486D01*
G01X3112664Y-6152698D01*
G01X3112081Y-6161704D01*
G01X3111835Y-6164310D01*
G03X3110186Y-6178148I113968J-20595D01*
G03X3110211Y-6192085I115617J-6757D01*
G03X3307695Y-6266798I115619J7255D01*
G03X3232982Y-6069314I-81968J81864D01*
G03X3205207Y-6070937I-7180J-115591D01*
G01X3202602Y-6071184D01*
G01X3193596Y-6071767D01*
G01X3185383Y-6071762D01*
G01X3182831Y-6071564D01*
G01X3180760Y-6071253D01*
G01X2842514Y-5733007D01*
G01X2842514Y-5616226D01*
G01X3112150Y-5885862D01*
G01X3112461Y-5887933D01*
G01X3112660Y-5890486D01*
G01X3112664Y-5898698D01*
G01X3112081Y-5907704D01*
G01X3111835Y-5910310D01*
G03X3110211Y-5938085I113968J-20595D01*
G03X3307695Y-6012798I115619J7255D01*
G03X3232982Y-5815314I-81968J81864D01*
G03X3205207Y-5816937I-7180J-115591D01*
G01X3202602Y-5817184D01*
G01X3193596Y-5817767D01*
G01X3185383Y-5817762D01*
G01X3182831Y-5817564D01*
G01X3180760Y-5817253D01*
G01X2906014Y-5542507D01*
G01X2906014Y-5425726D01*
G01X3112150Y-5631862D01*
G01X3112461Y-5633933D01*
G01X3112660Y-5636486D01*
G01X3112664Y-5644698D01*
G01X3112081Y-5653704D01*
G01X3111835Y-5656310D01*
G03X3110186Y-5670148I113968J-20595D01*
G03X3110211Y-5684085I115617J-6757D01*
G03X3307695Y-5758798I115619J7255D01*
G03X3232982Y-5561314I-81968J81864D01*
G03X3205207Y-5562937I-7180J-115591D01*
G01X3202602Y-5563184D01*
G01X3193596Y-5563767D01*
G01X3185383Y-5563762D01*
G01X3182831Y-5563564D01*
G01X3180760Y-5563253D01*
G01X2969514Y-5352007D01*
G01X2969514Y-2281356D01*
G01X2970380Y-2279783D01*
G01X2971966Y-2277627D01*
G03X2921000Y-2168886I-50966J42427D01*
G03X2870034Y-2277627I0J-66314D01*
G01X2871620Y-2279783D01*
G01X2872486Y-2281356D01*
G01X2872486Y-2399201D01*
G03X2801044Y-2429011I-14986J-64599D01*
G03X2806534Y-2506227I56456J-34789D01*
G01X2808120Y-2508383D01*
G01X2808986Y-2509956D01*
G01X2808986Y-2564301D01*
G03X2787289Y-2562926I-14986J-64599D01*
G03X2766314Y-2568642I6711J-65974D01*
G01X2766314Y-2509956D01*
G01X2767180Y-2508383D01*
G01X2768766Y-2506227D01*
G03X2717800Y-2397486I-50966J42427D01*
G03X2666834Y-2506227I0J-66314D01*
G01X2668420Y-2508383D01*
G01X2669286Y-2509956D01*
G01X2669286Y-5930903D01*
G03X2683495Y-5965207I48514J0D01*
G01X3112150Y-6393862D01*
G01X3112461Y-6395933D01*
G01X3118014Y-787400D02*
G03X2876386Y-787400I-120814J0D01*
G03X3118014Y-787400I120814J0D01*
G01X3341616Y-4406905D02*
G03X3109989Y-4406905I-115814J0D01*
G03X3341616Y-4406905I115814J0D01*
G01X3341616Y-4152905D02*
G03X3109989Y-4152905I-115814J0D01*
G03X3341616Y-4152905I115814J0D01*
G01X3328577Y-3956132D02*
G01X3334387Y-3950329D01*
G01X3336333Y-3948664D01*
G01X3338017Y-3947419D01*
G01X3568695Y-3947419D01*
G03X3602999Y-3933210I0J48514D01*
G01X3830718Y-3705491D01*
G01X3832441Y-3704992D01*
G01X3835087Y-3704589D01*
G03X3875941Y-3591659I-6037J66039D01*
G03X3763011Y-3632513I-46891J-46891D01*
G01X3762608Y-3635159D01*
G01X3762109Y-3636882D01*
G01X3548600Y-3850391D01*
G01X3338017Y-3850391D01*
G01X3336333Y-3849146D01*
G01X3334387Y-3847482D01*
G01X3328577Y-3841678D01*
G01X3322621Y-3834898D01*
G01X3320953Y-3832880D01*
G03X3109989Y-3898905I-95150J-66025D01*
G03X3320953Y-3964930I115814J0D01*
G01X3322621Y-3962913D01*
G01X3328577Y-3956132D01*
G01X3341616Y-4660905D02*
G03X3109989Y-4660905I-115814J0D01*
G03X3341616Y-4660905I115814J0D01*
G01X3341616Y-5168905D02*
G03X3109989Y-5168905I-115814J0D01*
G03X3341616Y-5168905I115814J0D01*
G01X3341616Y-4914905D02*
G03X3109989Y-4914905I-115814J0D01*
G03X3341616Y-4914905I115814J0D01*
G01X3109989Y-5422905D02*
G03X3341616Y-5422905I115814J0D01*
G03X3109989Y-5422905I-115814J0D01*
G01X3341616Y-6692905D02*
G03X3109989Y-6692905I-115814J0D01*
G03X3341616Y-6692905I115814J0D01*
G01X3341616Y-7708905D02*
G03X3109989Y-7708905I-115814J0D01*
G03X3341616Y-7708905I115814J0D01*
G01X3341616Y-6946905D02*
G03X3109989Y-6946905I-115814J0D01*
G03X3341616Y-6946905I115814J0D01*
G01X3341616Y-7454905D02*
G03X3109989Y-7454905I-115814J0D01*
G03X3341616Y-7454905I115814J0D01*
G01X3341616Y-7200905D02*
G03X3109989Y-7200905I-115814J0D01*
G03X3341616Y-7200905I115814J0D01*
G01X3354101Y-3621598D02*
G01X3352206Y-3620176D01*
G01X3350144Y-3618380D01*
G01X3344217Y-3612281D01*
G01X3338525Y-3605383D01*
G01X3333284Y-3598208D01*
G01X3328971Y-3591700D01*
G01X3325808Y-3586495D01*
G03X3115918Y-3608323I-100005J-58410D01*
G03X3270902Y-3751577I109909J-36556D01*
G03X3314967Y-3718814I-45099J106672D01*
G01X3378200Y-3718814D01*
G03X3412505Y-3704605I0J48514D01*
G01X3526805Y-3590305D01*
G03X3541014Y-3556000I-34305J34305D01*
G01X3541014Y-3487195D01*
G01X3760868Y-3267341D01*
G01X3762591Y-3266842D01*
G01X3765237Y-3266439D01*
G03X3806091Y-3153509I-6037J66039D01*
G03X3693161Y-3194363I-46891J-46891D01*
G01X3692758Y-3197009D01*
G01X3692259Y-3198732D01*
G01X3458195Y-3432795D01*
G03X3443986Y-3467100I34305J-34305D01*
G01X3443986Y-3535905D01*
G01X3358105Y-3621786D01*
G01X3354433Y-3621786D01*
G01X3354101Y-3621598D01*
G01X3321436Y-3456881D02*
G01X3325848Y-3453660D01*
G01X3363954Y-3453660D01*
G03X3398258Y-3439451I0J48514D01*
G01X3539505Y-3298205D01*
G03X3553714Y-3263900I-34305J34305D01*
G01X3553714Y-2967156D01*
G01X3554580Y-2965583D01*
G01X3556166Y-2963427D01*
G03X3505200Y-2854686I-50966J42427D01*
G03X3454234Y-2963427I0J-66314D01*
G01X3455820Y-2965583D01*
G01X3456686Y-2967156D01*
G01X3456686Y-3243805D01*
G01X3345709Y-3354782D01*
G01X3344236Y-3353483D01*
G01X3338363Y-3347400D01*
G01X3332541Y-3340407D01*
G01X3326815Y-3332862D01*
G01X3321066Y-3325044D01*
G03X3112570Y-3366588I-95264J-65861D01*
G03X3285814Y-3489958I113301J-24220D01*
G03X3320198Y-3458005I-60011J99053D01*
G01X3321436Y-3456881D01*
G01X3341362Y-7962905D02*
G03X3110243Y-7962905I-115560J0D01*
G03X3341362Y-7962905I115560J0D01*
G01X3372014Y-787400D02*
G03X3130386Y-787400I-120814J0D01*
G03X3372014Y-787400I120814J0D01*
G01X3626014Y-787400D02*
G03X3384386Y-787400I-120814J0D01*
G03X3626014Y-787400I120814J0D01*
G01X3880014Y-787400D02*
G03X3638386Y-787400I-120814J0D01*
G03X3880014Y-787400I120814J0D01*
G01X4134014Y-787400D02*
G03X3892386Y-787400I-120814J0D01*
G03X4134014Y-787400I120814J0D01*
G01X4865616Y-6692905D02*
G03X4633989Y-6692905I-115814J0D01*
G03X4865616Y-6692905I115814J0D01*
G01X4865616Y-7200905D02*
G03X4633989Y-7200905I-115814J0D01*
G03X4865616Y-7200905I115814J0D01*
G01X4865616Y-6946905D02*
G03X4633989Y-6946905I-115814J0D01*
G03X4865616Y-6946905I115814J0D01*
G01X4865616Y-5676905D02*
G03X4633989Y-5676905I-115814J0D01*
G03X4865616Y-5676905I115814J0D01*
G01X4865616Y-5422905D02*
G03X4633989Y-5422905I-115814J0D01*
G03X4865616Y-5422905I115814J0D01*
G01X4865616Y-5168905D02*
G03X4633989Y-5168905I-115814J0D01*
G03X4865616Y-5168905I115814J0D01*
G01X4865616Y-4914905D02*
G03X4633989Y-4914905I-115814J0D01*
G03X4865616Y-4914905I115814J0D01*
G01X4865616Y-4660905D02*
G03X4633989Y-4660905I-115814J0D01*
G03X4865616Y-4660905I115814J0D01*
G01X4865616Y-4406905D02*
G03X4633989Y-4406905I-115814J0D01*
G03X4865616Y-4406905I115814J0D01*
G01X4865616Y-4152905D02*
G03X4633989Y-4152905I-115814J0D01*
G03X4865616Y-4152905I115814J0D01*
G01X4865616Y-8216905D02*
G03X4633989Y-8216905I-115814J0D01*
G03X4865616Y-8216905I115814J0D01*
G01X4865616Y-7962905D02*
G03X4633989Y-7962905I-115814J0D01*
G03X4865616Y-7962905I115814J0D01*
G01X4865616Y-7708905D02*
G03X4633989Y-7708905I-115814J0D01*
G03X4865616Y-7708905I115814J0D01*
G01X4865616Y-7454905D02*
G03X4633989Y-7454905I-115814J0D01*
G03X4865616Y-7454905I115814J0D01*
G01X4865616Y-6438905D02*
G03X4633989Y-6438905I-115814J0D01*
G03X4865616Y-6438905I115814J0D01*
G01X4865616Y-6184905D02*
G03X4633989Y-6184905I-115814J0D01*
G03X4865616Y-6184905I115814J0D01*
G01X4865616Y-5930905D02*
G03X4633989Y-5930905I-115814J0D01*
G03X4865616Y-5930905I115814J0D01*
G01X4865362Y-3644905D02*
G03X4634243Y-3644905I-115560J0D01*
G03X4865362Y-3644905I115560J0D01*
G01X4865362Y-3390905D02*
G03X4634243Y-3390905I-115560J0D01*
G03X4865362Y-3390905I115560J0D01*
G01X5136286Y-8382000D02*
G03X5607914Y-8382000I235814J0D01*
G03X5136286Y-8382000I-235814J0D01*
G01X5646014Y-381000D02*
G03X5174386Y-381000I-235814J0D01*
G03X5646014Y-381000I235814J0D01*
G01X6077114Y-4191000D02*
G03X5835486Y-4191000I-120814J0D01*
G03X6077114Y-4191000I120814J0D01*
G01X6077114Y-4445000D02*
G03X5835486Y-4445000I-120814J0D01*
G03X6077114Y-4445000I120814J0D01*
G01X6076860Y-3937000D02*
G03X5835740Y-3937000I-120560J0D01*
G03X6076860Y-3937000I120560J0D01*
G01X6068852Y-8166100D02*
G03X5839744Y-8166100I-114554J0D01*
G03X6068852Y-8166100I114554J0D01*
G01X6068852Y-6430551D02*
G03X5839744Y-6430551I-114554J0D01*
G03X6068852Y-6430551I114554J0D01*
G01X6068598Y-8420100D02*
G03X5839998Y-8420100I-114300J0D01*
G03X6068598Y-8420100I114300J0D01*
G01X6068598Y-6176551D02*
G03X5839998Y-6176551I-114300J0D01*
G03X6068598Y-6176551I114300J0D01*
G01X6102260Y-1193800D02*
G03X5861140Y-1193800I-120560J0D01*
G03X6102260Y-1193800I120560J0D01*
G54D11*
G01X366298Y-5242601D02*
G01X470438Y-5242601D01*
G01X366298Y-5242601D02*
G01X262158Y-5242601D01*
G01X366298Y-5242601D02*
G01X366298Y-5138461D01*
G01X366298Y-5242601D02*
G01X366298Y-5346741D01*
G01X2146300Y-4660900D02*
G01X2261700Y-4660900D01*
G01X2146300Y-4660900D02*
G01X2030900Y-4660900D01*
G01X1473200Y-1079500D02*
G01X1362800Y-1079500D01*
G01X1473200Y-1079500D02*
G01X1583600Y-1079500D01*
G01X1473200Y-1079500D02*
G01X1473200Y-1189900D01*
G01X1473200Y-1079500D02*
G01X1473200Y-969100D01*
G01X2120773Y-7874000D02*
G01X2228673Y-7874000D01*
G01X2120773Y-7874000D02*
G01X2012873Y-7874000D01*
G01X2120773Y-7874000D02*
G01X2120773Y-7766100D01*
G01X2120773Y-7874000D02*
G01X2120773Y-7981900D01*
G01X355600Y-6096000D02*
G01X459740Y-6096000D01*
G01X355600Y-6096000D02*
G01X251460Y-6096000D01*
G01X355600Y-6096000D02*
G01X355600Y-5991860D01*
G01X355600Y-6096000D02*
G01X355600Y-6200140D01*
G01X366298Y-3614503D02*
G01X262158Y-3614503D01*
G01X366298Y-3614503D02*
G01X470438Y-3614503D01*
G01X366298Y-3614503D02*
G01X366298Y-3718643D01*
G01X366298Y-3614503D02*
G01X366298Y-3510363D01*
G01X1473200Y-1333500D02*
G01X1362800Y-1333500D01*
G01X1473200Y-1333500D02*
G01X1583600Y-1333500D01*
G01X1473200Y-1333500D02*
G01X1473200Y-1443900D01*
G01X1473200Y-1333500D02*
G01X1473200Y-1223100D01*
G01X1473200Y-1841500D02*
G01X1362800Y-1841500D01*
G01X1473200Y-1841500D02*
G01X1583600Y-1841500D01*
G01X1473200Y-1841500D02*
G01X1473200Y-1951900D01*
G01X1473200Y-1841500D02*
G01X1473200Y-1731100D01*
G01X1473200Y-1587500D02*
G01X1362800Y-1587500D01*
G01X1473200Y-1587500D02*
G01X1583600Y-1587500D01*
G01X1473200Y-1587500D02*
G01X1473200Y-1697900D01*
G01X1473200Y-1587500D02*
G01X1473200Y-1477100D01*
G01X2743200Y-787400D02*
G01X2743200Y-677000D01*
G01X2743200Y-787400D02*
G01X2743200Y-897800D01*
G01X2743200Y-787400D02*
G01X2632800Y-787400D01*
G01X5981700Y-1193800D02*
G01X6092100Y-1193800D01*
G01X5981700Y-1193800D02*
G01X5871300Y-1193800D01*
G01X5981700Y-1193800D02*
G01X5981700Y-1304200D01*
G01X5954298Y-8420100D02*
G01X6058438Y-8420100D01*
G01X5954298Y-8420100D02*
G01X5850158Y-8420100D01*
G01X5954298Y-8420100D02*
G01X5954298Y-8315960D01*
G01X5954298Y-8420100D02*
G01X5954298Y-8524240D01*
G01X5954298Y-6176551D02*
G01X6058438Y-6176551D01*
G01X5954298Y-6176551D02*
G01X5850158Y-6176551D01*
G01X5954298Y-6176551D02*
G01X5954298Y-6072411D01*
G01X5954298Y-6176551D02*
G01X5954298Y-6280691D01*
G01X5956300Y-3937000D02*
G01X6066700Y-3937000D01*
G01X5956300Y-3937000D02*
G01X5845900Y-3937000D01*
G01X3225803Y-7962905D02*
G01X3331202Y-7962905D01*
G01X3225803Y-7962905D02*
G01X3120403Y-7962905D01*
G01X3225803Y-7962905D02*
G01X3225803Y-7857505D01*
G01X3225803Y-7962905D02*
G01X3225803Y-8068305D01*
G01X4749803Y-3644905D02*
G01X4855202Y-3644905D01*
G01X4749803Y-3644905D02*
G01X4644403Y-3644905D01*
G01X4749803Y-3644905D02*
G01X4749803Y-3539505D01*
G01X4749803Y-3644905D02*
G01X4749803Y-3750305D01*
G01X4749803Y-3390905D02*
G01X4855202Y-3390905D01*
G01X4749803Y-3390905D02*
G01X4644403Y-3390905D01*
G01X4749803Y-3390905D02*
G01X4749803Y-3285505D01*
G01X4749803Y-3390905D02*
G01X4749803Y-3496305D01*
G04 Copper End*

G04 TearDrop Start*
G36*
G01X2401219Y-449864D02*
G03X2468245Y-407954I0J74552D01*
G01X2489200Y-470819D01*
G01X2468245Y-533684D01*
G03X2401219Y-491774I-67026J-32642D01*
G01X2401219Y-449864D01*
G37*
G36*
G01X2468245Y-639535D02*
G01X2510155Y-639535D01*
G03X2541588Y-702400I78581J0D01*
G01X2436813Y-702400D01*
G03X2468245Y-639535I-47149J62865D01*
G37*
G36*
G01X259099Y-3889458D02*
G01X259099Y-3847548D01*
G01X263241Y-3847218D01*
G01X267385Y-3846275D01*
G01X271511Y-3844792D01*
G01X275599Y-3842841D01*
G01X283577Y-3837830D01*
G01X291157Y-3831822D01*
G01X298174Y-3825398D01*
G01X304465Y-3819141D01*
G01X314217Y-3809448D01*
G01X314217Y-3927558D01*
G01X304465Y-3917865D01*
G01X298174Y-3911608D01*
G01X291157Y-3905184D01*
G01X283577Y-3899176D01*
G01X275599Y-3894165D01*
G01X271511Y-3892214D01*
G01X267385Y-3890732D01*
G01X263241Y-3889789D01*
G01X259099Y-3889458D01*
G37*
G36*
G01X311785Y-3889458D02*
G03X186055Y-3931368I0J-209550D01*
G01X165100Y-3865558D01*
G01X186055Y-3805638D01*
G03X311785Y-3847548I125730J167640D01*
G01X311785Y-3889458D01*
G37*
G36*
G01X507903Y-4713646D02*
G01X507903Y-4755556D01*
G03X445038Y-4786989I0J-78581D01*
G01X445038Y-4682214D01*
G03X507903Y-4713646I62865J47149D01*
G37*
G36*
G01X507903Y-4101548D02*
G01X507903Y-4143458D01*
G03X445038Y-4174891I0J-78581D01*
G01X445038Y-4070116D01*
G03X507903Y-4101548I62865J47149D01*
G37*
G36*
G01X4812000Y-3807073D02*
G01X4841634Y-3836708D01*
G01X4838899Y-3839923D01*
G01X4836607Y-3843585D01*
G01X4834720Y-3847624D01*
G01X4833199Y-3851975D01*
G01X4831106Y-3861340D01*
G01X4830021Y-3871141D01*
G01X4829638Y-3880838D01*
G01X4829652Y-3889892D01*
G01X4829645Y-3903915D01*
G01X4744793Y-3819062D01*
G01X4758815Y-3819056D01*
G01X4767869Y-3819070D01*
G01X4777567Y-3818687D01*
G01X4787367Y-3817602D01*
G01X4796733Y-3815508D01*
G01X4801083Y-3813988D01*
G01X4805123Y-3812101D01*
G01X4808784Y-3809809D01*
G01X4812000Y-3807073D01*
G37*
G36*
G01X5145617Y-3396574D02*
G01X5115983Y-3426209D01*
G03X5062855Y-3414992I-35175J-35175D01*
G01X5041900Y-3322492D01*
G01X5062855Y-3271902D01*
G03X5145617Y-3396574I349916J142481D01*
G37*
G36*
G01X5389245Y-800100D02*
G02X5347335Y-918845I-189177J0D01*
G01X5410200Y-939800D01*
G01X5389245Y-800100D01*
G37*
G36*
G01X5833835Y-960755D02*
G01X5833835Y-918845D01*
G03X5896700Y-887412I0J78581D01*
G01X5896700Y-992187D01*
G03X5833835Y-960755I-62865J-47149D01*
G37*
G36*
G01X465408Y-5211445D02*
G01X480710Y-5253355D01*
G01X476557Y-5253702D01*
G01X472383Y-5254695D01*
G01X468212Y-5256257D01*
G01X464069Y-5258314D01*
G01X455967Y-5263616D01*
G01X448275Y-5270001D01*
G01X441193Y-5276872D01*
G01X434920Y-5283629D01*
G01X425592Y-5294411D01*
G01X410290Y-5177296D01*
G01X414842Y-5180844D01*
G01X420339Y-5185689D01*
G01X426643Y-5191285D01*
G01X433615Y-5197088D01*
G01X441115Y-5202550D01*
G01X449007Y-5207128D01*
G01X453056Y-5208914D01*
G01X457151Y-5210275D01*
G01X461274Y-5211141D01*
G01X465408Y-5211445D01*
G37*
G36*
G01X5876134Y-1227455D02*
G01X5857084Y-1185545D01*
G01X5861568Y-1185151D01*
G01X5866076Y-1184026D01*
G01X5870582Y-1182255D01*
G01X5875058Y-1179924D01*
G01X5879477Y-1177116D01*
G01X5883812Y-1173918D01*
G01X5892122Y-1166690D01*
G01X5899772Y-1158920D01*
G01X5906543Y-1151289D01*
G01X5916584Y-1139166D01*
G01X5935634Y-1265234D01*
G01X5930652Y-1261418D01*
G01X5924686Y-1256108D01*
G01X5917877Y-1249924D01*
G01X5910367Y-1243480D01*
G01X5902296Y-1237394D01*
G01X5893806Y-1232284D01*
G01X5889448Y-1230287D01*
G01X5885038Y-1228765D01*
G01X5880594Y-1227795D01*
G01X5876134Y-1227455D01*
G37*
G36*
G01X4640888Y-3665860D02*
G01X4640888Y-3623950D01*
G01X4645096Y-3623611D01*
G01X4649305Y-3622643D01*
G01X4653496Y-3621121D01*
G01X4657648Y-3619119D01*
G01X4665750Y-3613977D01*
G01X4673448Y-3607814D01*
G01X4680575Y-3601228D01*
G01X4686968Y-3594816D01*
G01X4696888Y-3584905D01*
G01X4696888Y-3704905D01*
G01X4686968Y-3694994D01*
G01X4680575Y-3688582D01*
G01X4673448Y-3681996D01*
G01X4665750Y-3675833D01*
G01X4657648Y-3670691D01*
G01X4653496Y-3668689D01*
G01X4649305Y-3667167D01*
G01X4645096Y-3666199D01*
G01X4640888Y-3665860D01*
G37*
G36*
G01X5914690Y-1290445D02*
G01X5885055Y-1260810D01*
G01X5887951Y-1257385D01*
G01X5890356Y-1253471D01*
G01X5892315Y-1249139D01*
G01X5893871Y-1244466D01*
G01X5895946Y-1234385D01*
G01X5896928Y-1223819D01*
G01X5897164Y-1213355D01*
G01X5897001Y-1203584D01*
G01X5896786Y-1195095D01*
G01X5896867Y-1188477D01*
G01X5987023Y-1278633D01*
G01X5980405Y-1278714D01*
G01X5971916Y-1278499D01*
G01X5962145Y-1278336D01*
G01X5951681Y-1278572D01*
G01X5941115Y-1279554D01*
G01X5931034Y-1281629D01*
G01X5926361Y-1283185D01*
G01X5922029Y-1285144D01*
G01X5918115Y-1287549D01*
G01X5914690Y-1290445D01*
G37*
G36*
G01X4620290Y-3377600D02*
G01X4671681Y-3335690D01*
G01X4675874Y-3335483D01*
G01X4680045Y-3334895D01*
G01X4688258Y-3332772D01*
G01X4696200Y-3329710D01*
G01X4703753Y-3326102D01*
G01X4717212Y-3318811D01*
G01X4722880Y-3315909D01*
G01X4727681Y-3314025D01*
G01X4676290Y-3422463D01*
G01X4673177Y-3416749D01*
G01X4668302Y-3409890D01*
G01X4661990Y-3402473D01*
G01X4654567Y-3395086D01*
G01X4646360Y-3388318D01*
G01X4637694Y-3382755D01*
G01X4633291Y-3380610D01*
G01X4628896Y-3378987D01*
G01X4624549Y-3377959D01*
G01X4620290Y-3377600D01*
G37*
G36*
G01X4553585Y-3377600D02*
G03X4427855Y-3419510I0J-209550D01*
G01X4406900Y-3356645D01*
G01X4427855Y-3293780D01*
G03X4553585Y-3335690I125730J167640D01*
G01X4553585Y-3377600D01*
G37*
G36*
G01X4427855Y-2251324D02*
G01X4385945Y-2251324D01*
G01X4385517Y-2237657D01*
G01X4384923Y-2232640D01*
G01X4384025Y-2229974D01*
G01X4429775Y-2229974D01*
G01X4428877Y-2232640D01*
G01X4428283Y-2237657D01*
G01X4427855Y-2251324D01*
G37*
G36*
G01X5686355Y-1532260D02*
G03X5555541Y-1443355I-298455J-298455D01*
G01X5606131Y-1422400D01*
G01X5698630Y-1443355D01*
G03X5745625Y-1532260I167640J31741D01*
G01X5686355Y-1532260D01*
G37*
G36*
G01X5812693Y-5943506D02*
G01X5812693Y-5901596D01*
G03X5875558Y-5870164I0J78581D01*
G01X5875558Y-5974939D01*
G03X5812693Y-5943506I-62865J-47149D01*
G37*
G36*
G01X5277485Y-5901596D02*
G02X5151755Y-5859686I0J209550D01*
G01X5130800Y-5918549D01*
G01X5151755Y-5985416D01*
G02X5277485Y-5943506I125730J-167640D01*
G01X5277485Y-5901596D01*
G37*
G36*
G01X6035324Y-6125845D02*
G01X6079951Y-6167755D01*
G01X6075767Y-6168108D01*
G01X6071509Y-6169120D01*
G01X6067213Y-6170716D01*
G01X6062917Y-6172824D01*
G01X6054472Y-6178286D01*
G01X6046471Y-6184923D01*
G01X6039209Y-6192150D01*
G01X6032985Y-6199386D01*
G01X6028094Y-6206047D01*
G01X6024833Y-6211550D01*
G01X5980206Y-6102195D01*
G01X5984922Y-6104345D01*
G01X5990497Y-6107556D01*
G01X6003745Y-6115500D01*
G01X6011182Y-6119403D01*
G01X6019004Y-6122705D01*
G01X6027090Y-6124991D01*
G01X6031196Y-6125623D01*
G01X6035324Y-6125845D01*
G37*
G36*
G01X5687223Y-8058785D02*
G03X5645313Y-7933055I-209550J0D01*
G01X5708178Y-7912100D01*
G01X5771043Y-7933055D01*
G03X5729133Y-8058785I167640J-125730D01*
G01X5687223Y-8058785D01*
G37*
G36*
G01X5812693Y-7933055D02*
G01X5812693Y-7891145D01*
G03X5875558Y-7859712I0J78581D01*
G01X5875558Y-7964487D01*
G03X5812693Y-7933055I-62865J-47149D01*
G37*
G36*
G01X3116888Y-8237860D02*
G01X3116888Y-8195950D01*
G01X3121096Y-8195611D01*
G01X3125305Y-8194643D01*
G01X3129496Y-8193121D01*
G01X3133648Y-8191119D01*
G01X3141750Y-8185977D01*
G01X3149448Y-8179814D01*
G01X3156575Y-8173228D01*
G01X3162968Y-8166816D01*
G01X3172888Y-8156905D01*
G01X3172888Y-8276905D01*
G01X3162968Y-8266994D01*
G01X3156575Y-8260582D01*
G01X3149448Y-8253996D01*
G01X3141750Y-8247833D01*
G01X3133648Y-8242691D01*
G01X3129496Y-8240689D01*
G01X3125305Y-8239167D01*
G01X3121096Y-8238199D01*
G01X3116888Y-8237860D01*
G37*
G36*
G01X6131983Y-6131983D02*
G03X6208395Y-6013660I-236686J236686D01*
G01X6229350Y-6064250D01*
G01X6208395Y-6156750D01*
G03X6161617Y-6161617I-20390J-31255D01*
G01X6131983Y-6131983D01*
G37*
G36*
G01X6047901Y-8336965D02*
G01X6047459Y-8396676D01*
G01X6044703Y-8399757D01*
G01X6042261Y-8403122D01*
G01X6038213Y-8410512D01*
G01X6035096Y-8418458D01*
G01X6032692Y-8426573D01*
G01X6029149Y-8441767D01*
G01X6027573Y-8448072D01*
G01X6025836Y-8453000D01*
G01X5977999Y-8345012D01*
G01X5984216Y-8346521D01*
G01X5992390Y-8347733D01*
G01X6001903Y-8348437D01*
G01X6012136Y-8348423D01*
G01X6022471Y-8347479D01*
G01X6032289Y-8345395D01*
G01X6036811Y-8343859D01*
G01X6040971Y-8341960D01*
G01X6044694Y-8339671D01*
G01X6047901Y-8336965D01*
G37*
G36*
G01X3116888Y-7983860D02*
G01X3116888Y-7941950D01*
G01X3121096Y-7941611D01*
G01X3125305Y-7940643D01*
G01X3129496Y-7939121D01*
G01X3133648Y-7937119D01*
G01X3141750Y-7931977D01*
G01X3149448Y-7925814D01*
G01X3156575Y-7919228D01*
G01X3162968Y-7912816D01*
G01X3172888Y-7902905D01*
G01X3172888Y-8022905D01*
G01X3162968Y-8012994D01*
G01X3156575Y-8006582D01*
G01X3149448Y-7999996D01*
G01X3141750Y-7993833D01*
G01X3133648Y-7988691D01*
G01X3129496Y-7986689D01*
G01X3125305Y-7985167D01*
G01X3121096Y-7984199D01*
G01X3116888Y-7983860D01*
G37*
G36*
G01X3334717Y-7941950D02*
G01X3334717Y-7983860D01*
G01X3330510Y-7984199D01*
G01X3326300Y-7985167D01*
G01X3322109Y-7986689D01*
G01X3317957Y-7988691D01*
G01X3309855Y-7993833D01*
G01X3302157Y-7999996D01*
G01X3295030Y-8006582D01*
G01X3288638Y-8012994D01*
G01X3278717Y-8022905D01*
G01X3278717Y-7902905D01*
G01X3288638Y-7912816D01*
G01X3295030Y-7919228D01*
G01X3302157Y-7925814D01*
G01X3309855Y-7931977D01*
G01X3317957Y-7937119D01*
G01X3322109Y-7939121D01*
G01X3326300Y-7940643D01*
G01X3330510Y-7941611D01*
G01X3334717Y-7941950D01*
G37*
G36*
G01X4263355Y-3377600D02*
G02X4385945Y-3503330I-3181J-125730D01*
G01X4427855Y-3503330D01*
G02X4553585Y-3377600I125730J0D01*
G01X4553585Y-3335690D01*
G02X4427855Y-3209960I0J125730D01*
G01X4385945Y-3209960D01*
G02X4263355Y-3335690I-125770J0D01*
G01X4263355Y-3377600D01*
G37*
G36*
G01X6072022Y-3916045D02*
G01X6072022Y-3957955D01*
G01X6067552Y-3958329D01*
G01X6063083Y-3959396D01*
G01X6058635Y-3961073D01*
G01X6054231Y-3963278D01*
G01X6045636Y-3968939D01*
G01X6037470Y-3975717D01*
G01X6029904Y-3982949D01*
G01X6023110Y-3989973D01*
G01X6017259Y-3996127D01*
G01X6012522Y-4000750D01*
G01X6012522Y-3873250D01*
G01X6017259Y-3877873D01*
G01X6023110Y-3884027D01*
G01X6029904Y-3891051D01*
G01X6037470Y-3898283D01*
G01X6045636Y-3905061D01*
G01X6054231Y-3910722D01*
G01X6058635Y-3912927D01*
G01X6063083Y-3914604D01*
G01X6067552Y-3915671D01*
G01X6072022Y-3916045D01*
G37*
G36*
G01X5859138Y-3945673D02*
G01X5831347Y-3858612D01*
G01X5834812Y-3861608D01*
G01X5838840Y-3864286D01*
G01X5843340Y-3866650D01*
G01X5848225Y-3868700D01*
G01X5858791Y-3871868D01*
G01X5869829Y-3873809D01*
G01X5880627Y-3874537D01*
G01X5890476Y-3874071D01*
G01X5894822Y-3873395D01*
G01X5898664Y-3872427D01*
G01X5901915Y-3871168D01*
G01X5904483Y-3869620D01*
G01X5894063Y-3994893D01*
G01X5890892Y-3990930D01*
G01X5887504Y-3985840D01*
G01X5879828Y-3973279D01*
G01X5875416Y-3966311D01*
G01X5870539Y-3959220D01*
G01X5865133Y-3952257D01*
G01X5859138Y-3945673D01*
G37*
G36*
G01X473498Y-3593548D02*
G01X473498Y-3635458D01*
G01X469356Y-3635789D01*
G01X465212Y-3636732D01*
G01X461086Y-3638215D01*
G01X456998Y-3640165D01*
G01X449020Y-3645176D01*
G01X441440Y-3651184D01*
G01X434423Y-3657608D01*
G01X428132Y-3663865D01*
G01X418380Y-3673558D01*
G01X418380Y-3555448D01*
G01X428132Y-3565141D01*
G01X434423Y-3571398D01*
G01X441440Y-3577822D01*
G01X449020Y-3583830D01*
G01X456998Y-3588841D01*
G01X461086Y-3590792D01*
G01X465212Y-3592275D01*
G01X469356Y-3593218D01*
G01X473498Y-3593548D01*
G37*
G36*
G01X4260215Y-1849755D02*
G02X4385945Y-1891665I0J-209550D01*
G01X4406900Y-1828800D01*
G01X4260215Y-1849755D01*
G37*
G36*
G01X4385945Y-1939676D02*
G01X4427855Y-1939676D01*
G01X4428283Y-1953343D01*
G01X4428877Y-1958360D01*
G01X4429775Y-1961026D01*
G01X4384025Y-1961026D01*
G01X4384923Y-1958360D01*
G01X4385517Y-1953343D01*
G01X4385945Y-1939676D01*
G37*
G36*
G01X3808668Y-3676892D02*
G01X3790708Y-3658932D01*
G01X3793338Y-3655064D01*
G01X3795779Y-3649364D01*
G01X3797660Y-3642874D01*
G01X3798610Y-3636640D01*
G01X3830960Y-3668990D01*
G01X3824726Y-3669940D01*
G01X3818236Y-3671821D01*
G01X3812536Y-3674262D01*
G01X3808668Y-3676892D01*
G37*
G36*
G01X3334717Y-3886205D02*
G01X3334717Y-3911605D01*
G01X3330518Y-3912030D01*
G01X3326331Y-3913240D01*
G01X3322174Y-3915139D01*
G01X3318064Y-3917632D01*
G01X3314018Y-3920622D01*
G01X3310054Y-3924014D01*
G01X3302441Y-3931619D01*
G01X3295362Y-3939678D01*
G01X3288956Y-3947423D01*
G01X3283362Y-3954088D01*
G01X3278717Y-3958905D01*
G01X3278717Y-3838905D01*
G01X3283362Y-3843722D01*
G01X3288956Y-3850387D01*
G01X3295362Y-3858133D01*
G01X3302441Y-3866192D01*
G01X3310054Y-3873796D01*
G01X3314018Y-3877188D01*
G01X3318064Y-3880178D01*
G01X3322174Y-3882671D01*
G01X3326331Y-3884570D01*
G01X3330518Y-3885780D01*
G01X3334717Y-3886205D01*
G37*
G36*
G01X3738818Y-3238742D02*
G01X3720858Y-3220782D01*
G01X3723488Y-3216914D01*
G01X3725929Y-3211214D01*
G01X3727810Y-3204724D01*
G01X3728760Y-3198490D01*
G01X3761110Y-3230840D01*
G01X3754876Y-3231790D01*
G01X3748386Y-3233671D01*
G01X3742686Y-3236112D01*
G01X3738818Y-3238742D01*
G37*
G36*
G01X3351027Y-3657600D02*
G01X3312934Y-3683000D01*
G01X3308748Y-3683343D01*
G01X3304598Y-3684318D01*
G01X3300496Y-3685843D01*
G01X3296454Y-3687836D01*
G01X3288595Y-3692902D01*
G01X3281119Y-3698863D01*
G01X3267692Y-3710858D01*
G01X3261932Y-3715586D01*
G01X3256934Y-3718599D01*
G01X3295027Y-3604806D01*
G01X3298730Y-3610898D01*
G01X3303882Y-3618674D01*
G01X3310230Y-3627363D01*
G01X3317520Y-3636198D01*
G01X3325499Y-3644407D01*
G01X3329667Y-3648038D01*
G01X3333912Y-3651224D01*
G01X3338202Y-3653869D01*
G01X3342506Y-3655878D01*
G01X3346791Y-3657153D01*
G01X3351027Y-3657600D01*
G37*
G36*
G01X3517900Y-2962524D02*
G01X3492500Y-2962524D01*
G01X3491626Y-2957929D01*
G01X3489320Y-2952172D01*
G01X3486061Y-2946254D01*
G01X3482325Y-2941174D01*
G01X3528075Y-2941174D01*
G01X3524339Y-2946254D01*
G01X3521080Y-2952172D01*
G01X3518774Y-2957929D01*
G01X3517900Y-2962524D01*
G37*
G36*
G01X3344553Y-3392446D02*
G01X3323191Y-3417846D01*
G01X3319002Y-3418234D01*
G01X3314843Y-3419335D01*
G01X3310728Y-3421060D01*
G01X3306669Y-3423320D01*
G01X3298775Y-3429082D01*
G01X3291266Y-3435901D01*
G01X3277825Y-3449836D01*
G01X3272104Y-3455511D01*
G01X3267191Y-3459366D01*
G01X3288553Y-3341283D01*
G01X3298123Y-3354298D01*
G01X3304501Y-3362701D01*
G01X3311682Y-3371327D01*
G01X3319472Y-3379396D01*
G01X3323534Y-3382977D01*
G01X3327676Y-3386126D01*
G01X3331874Y-3388745D01*
G01X3336102Y-3390736D01*
G01X3340336Y-3392003D01*
G01X3344553Y-3392446D01*
G37*
G36*
G01X1112582Y-3212858D02*
G01X1130542Y-3230818D01*
G01X1127912Y-3234686D01*
G01X1125471Y-3240386D01*
G01X1123590Y-3246876D01*
G01X1122640Y-3253110D01*
G01X1090290Y-3220760D01*
G01X1096524Y-3219810D01*
G01X1103014Y-3217929D01*
G01X1108714Y-3215488D01*
G01X1112582Y-3212858D01*
G37*
G36*
G01X1977776Y-3149600D02*
G01X1977776Y-3124200D01*
G01X1982371Y-3123326D01*
G01X1988128Y-3121020D01*
G01X1994046Y-3117761D01*
G01X1999126Y-3114025D01*
G01X1999126Y-3159775D01*
G01X1994046Y-3156039D01*
G01X1988128Y-3152780D01*
G01X1982371Y-3150474D01*
G01X1977776Y-3149600D01*
G37*
G36*
G01X5935345Y-3535135D02*
G01X5977255Y-3535135D01*
G03X6008688Y-3598000I78581J0D01*
G01X5903913Y-3598000D01*
G03X5935345Y-3535135I-47149J62865D01*
G37*
G36*
G01X3139808Y-5608871D02*
G01X3157768Y-5590910D01*
G01X3161038Y-5593580D01*
G01X3164854Y-5595685D01*
G01X3169137Y-5597281D01*
G01X3173806Y-5598425D01*
G01X3178781Y-5599171D01*
G01X3183983Y-5599575D01*
G01X3194743Y-5599582D01*
G01X3205447Y-5598889D01*
G01X3215454Y-5597941D01*
G01X3224122Y-5597184D01*
G01X3230812Y-5597062D01*
G01X3145960Y-5681915D01*
G01X3146081Y-5675225D01*
G01X3146839Y-5666556D01*
G01X3147786Y-5656550D01*
G01X3148479Y-5645846D01*
G01X3148473Y-5635085D01*
G01X3148068Y-5629884D01*
G01X3147322Y-5624909D01*
G01X3146179Y-5620240D01*
G01X3144582Y-5615957D01*
G01X3142477Y-5612141D01*
G01X3139808Y-5608871D01*
G37*
G36*
G01X2933700Y-2276724D02*
G01X2908300Y-2276724D01*
G01X2907426Y-2272129D01*
G01X2905120Y-2266372D01*
G01X2901861Y-2260454D01*
G01X2898125Y-2255374D01*
G01X2943875Y-2255374D01*
G01X2940139Y-2260454D01*
G01X2936880Y-2266372D01*
G01X2934574Y-2272129D01*
G01X2933700Y-2276724D01*
G37*
G36*
G01X3139808Y-5862871D02*
G01X3157768Y-5844910D01*
G01X3161038Y-5847580D01*
G01X3164854Y-5849685D01*
G01X3169137Y-5851281D01*
G01X3173806Y-5852425D01*
G01X3178781Y-5853171D01*
G01X3183983Y-5853575D01*
G01X3194743Y-5853582D01*
G01X3205447Y-5852889D01*
G01X3215454Y-5851941D01*
G01X3224122Y-5851184D01*
G01X3230812Y-5851062D01*
G01X3145960Y-5935915D01*
G01X3146081Y-5929225D01*
G01X3146839Y-5920556D01*
G01X3147786Y-5910550D01*
G01X3148479Y-5899846D01*
G01X3148473Y-5889085D01*
G01X3148068Y-5883884D01*
G01X3147322Y-5878909D01*
G01X3146179Y-5874240D01*
G01X3144582Y-5869957D01*
G01X3142477Y-5866141D01*
G01X3139808Y-5862871D01*
G37*
G36*
G01X2870200Y-2505324D02*
G01X2844800Y-2505324D01*
G01X2843926Y-2500729D01*
G01X2841620Y-2494972D01*
G01X2838361Y-2489054D01*
G01X2834625Y-2483974D01*
G01X2880375Y-2483974D01*
G01X2876639Y-2489054D01*
G01X2873380Y-2494972D01*
G01X2871074Y-2500729D01*
G01X2870200Y-2505324D01*
G37*
G36*
G01X3139808Y-6116871D02*
G01X3157768Y-6098910D01*
G01X3161038Y-6101580D01*
G01X3164854Y-6103685D01*
G01X3169137Y-6105281D01*
G01X3173806Y-6106425D01*
G01X3178781Y-6107171D01*
G01X3183983Y-6107575D01*
G01X3194743Y-6107582D01*
G01X3205447Y-6106889D01*
G01X3215454Y-6105941D01*
G01X3224122Y-6105184D01*
G01X3230812Y-6105062D01*
G01X3145960Y-6189915D01*
G01X3146081Y-6183225D01*
G01X3146839Y-6174556D01*
G01X3147786Y-6164550D01*
G01X3148479Y-6153846D01*
G01X3148473Y-6143085D01*
G01X3148068Y-6137884D01*
G01X3147322Y-6132909D01*
G01X3146179Y-6128240D01*
G01X3144582Y-6123957D01*
G01X3142477Y-6120141D01*
G01X3139808Y-6116871D01*
G37*
G36*
G01X2806700Y-2670424D02*
G01X2781300Y-2670424D01*
G01X2780426Y-2665829D01*
G01X2778120Y-2660072D01*
G01X2774861Y-2654154D01*
G01X2771125Y-2649074D01*
G01X2816875Y-2649074D01*
G01X2813139Y-2654154D01*
G01X2809880Y-2660072D01*
G01X2807574Y-2665829D01*
G01X2806700Y-2670424D01*
G37*
G36*
G01X3139808Y-6370871D02*
G01X3157768Y-6352910D01*
G01X3161038Y-6355580D01*
G01X3164854Y-6357685D01*
G01X3169137Y-6359281D01*
G01X3173806Y-6360425D01*
G01X3178781Y-6361171D01*
G01X3183983Y-6361575D01*
G01X3194743Y-6361582D01*
G01X3205447Y-6360889D01*
G01X3215454Y-6359941D01*
G01X3224122Y-6359184D01*
G01X3230812Y-6359062D01*
G01X3145960Y-6443915D01*
G01X3146081Y-6437225D01*
G01X3146839Y-6428556D01*
G01X3147786Y-6418550D01*
G01X3148479Y-6407846D01*
G01X3148473Y-6397085D01*
G01X3148068Y-6391884D01*
G01X3147322Y-6386909D01*
G01X3146179Y-6382240D01*
G01X3144582Y-6377957D01*
G01X3142477Y-6374141D01*
G01X3139808Y-6370871D01*
G37*
G36*
G01X2730500Y-2505324D02*
G01X2705100Y-2505324D01*
G01X2704226Y-2500729D01*
G01X2701920Y-2494972D01*
G01X2698661Y-2489054D01*
G01X2694925Y-2483974D01*
G01X2740675Y-2483974D01*
G01X2736939Y-2489054D01*
G01X2733680Y-2494972D01*
G01X2731374Y-2500729D01*
G01X2730500Y-2505324D01*
G37*
G36*
G01X1494155Y-1195222D02*
G01X1452245Y-1195222D01*
G01X1451871Y-1190752D01*
G01X1450804Y-1186283D01*
G01X1449127Y-1181835D01*
G01X1446922Y-1177431D01*
G01X1441261Y-1168836D01*
G01X1434483Y-1160670D01*
G01X1427251Y-1153104D01*
G01X1420227Y-1146310D01*
G01X1414073Y-1140459D01*
G01X1409450Y-1135722D01*
G01X1536950Y-1135722D01*
G01X1532327Y-1140459D01*
G01X1526173Y-1146310D01*
G01X1519149Y-1153104D01*
G01X1511917Y-1160670D01*
G01X1505139Y-1168836D01*
G01X1499478Y-1177431D01*
G01X1497273Y-1181835D01*
G01X1495596Y-1186283D01*
G01X1494529Y-1190752D01*
G01X1494155Y-1195222D01*
G37*
G36*
G01X1452245Y-1217778D02*
G01X1494155Y-1217778D01*
G01X1494529Y-1222248D01*
G01X1495596Y-1226717D01*
G01X1497273Y-1231165D01*
G01X1499478Y-1235569D01*
G01X1505139Y-1244164D01*
G01X1511917Y-1252330D01*
G01X1519149Y-1259896D01*
G01X1526173Y-1266690D01*
G01X1532327Y-1272541D01*
G01X1536950Y-1277278D01*
G01X1409450Y-1277278D01*
G01X1414073Y-1272541D01*
G01X1420227Y-1266690D01*
G01X1427251Y-1259896D01*
G01X1434483Y-1252330D01*
G01X1441261Y-1244164D01*
G01X1446922Y-1235569D01*
G01X1449127Y-1231165D01*
G01X1450804Y-1226717D01*
G01X1451871Y-1222248D01*
G01X1452245Y-1217778D01*
G37*
G36*
G01X1494155Y-1449222D02*
G01X1452245Y-1449222D01*
G01X1451871Y-1444752D01*
G01X1450804Y-1440283D01*
G01X1449127Y-1435835D01*
G01X1446922Y-1431431D01*
G01X1441261Y-1422836D01*
G01X1434483Y-1414670D01*
G01X1427251Y-1407104D01*
G01X1420227Y-1400310D01*
G01X1414073Y-1394459D01*
G01X1409450Y-1389722D01*
G01X1536950Y-1389722D01*
G01X1532327Y-1394459D01*
G01X1526173Y-1400310D01*
G01X1519149Y-1407104D01*
G01X1511917Y-1414670D01*
G01X1505139Y-1422836D01*
G01X1499478Y-1431431D01*
G01X1497273Y-1435835D01*
G01X1495596Y-1440283D01*
G01X1494529Y-1444752D01*
G01X1494155Y-1449222D01*
G37*
G36*
G01X1452245Y-1471778D02*
G01X1494155Y-1471778D01*
G01X1494529Y-1476248D01*
G01X1495596Y-1480717D01*
G01X1497273Y-1485165D01*
G01X1499478Y-1489569D01*
G01X1505139Y-1498164D01*
G01X1511917Y-1506330D01*
G01X1519149Y-1513896D01*
G01X1526173Y-1520690D01*
G01X1532327Y-1526541D01*
G01X1536950Y-1531278D01*
G01X1409450Y-1531278D01*
G01X1414073Y-1526541D01*
G01X1420227Y-1520690D01*
G01X1427251Y-1513896D01*
G01X1434483Y-1506330D01*
G01X1441261Y-1498164D01*
G01X1446922Y-1489569D01*
G01X1449127Y-1485165D01*
G01X1450804Y-1480717D01*
G01X1451871Y-1476248D01*
G01X1452245Y-1471778D01*
G37*
G36*
G01X1494155Y-1703222D02*
G01X1452245Y-1703222D01*
G01X1451871Y-1698752D01*
G01X1450804Y-1694283D01*
G01X1449127Y-1689835D01*
G01X1446922Y-1685431D01*
G01X1441261Y-1676836D01*
G01X1434483Y-1668670D01*
G01X1427251Y-1661104D01*
G01X1420227Y-1654310D01*
G01X1414073Y-1648459D01*
G01X1409450Y-1643722D01*
G01X1536950Y-1643722D01*
G01X1532327Y-1648459D01*
G01X1526173Y-1654310D01*
G01X1519149Y-1661104D01*
G01X1511917Y-1668670D01*
G01X1505139Y-1676836D01*
G01X1499478Y-1685431D01*
G01X1497273Y-1689835D01*
G01X1495596Y-1694283D01*
G01X1494529Y-1698752D01*
G01X1494155Y-1703222D01*
G37*
G36*
G01X1452245Y-1693635D02*
G01X1494155Y-1693635D01*
G03X1525588Y-1756500I78581J0D01*
G01X1420813Y-1756500D01*
G03X1452245Y-1693635I-47149J62865D01*
G37*
G36*
G01X2764155Y-903122D02*
G01X2722245Y-903122D01*
G01X2721871Y-898652D01*
G01X2720804Y-894183D01*
G01X2719127Y-889735D01*
G01X2716922Y-885331D01*
G01X2711261Y-876736D01*
G01X2704483Y-868570D01*
G01X2697251Y-861004D01*
G01X2690227Y-854210D01*
G01X2684073Y-848359D01*
G01X2679450Y-843622D01*
G01X2806950Y-843622D01*
G01X2802327Y-848359D01*
G01X2796173Y-854210D01*
G01X2789149Y-861004D01*
G01X2781917Y-868570D01*
G01X2775139Y-876736D01*
G01X2769478Y-885331D01*
G01X2767273Y-889735D01*
G01X2765596Y-894183D01*
G01X2764529Y-898652D01*
G01X2764155Y-903122D01*
G37*
G36*
G01X1507437Y-500924D02*
G01X1465527Y-500924D01*
G01X1465153Y-496455D01*
G01X1464085Y-491985D01*
G01X1462408Y-487537D01*
G01X1460203Y-483133D01*
G01X1454543Y-474538D01*
G01X1447765Y-466372D01*
G01X1440533Y-458806D01*
G01X1433509Y-452012D01*
G01X1427354Y-446161D01*
G01X1422732Y-441424D01*
G01X1550232Y-441424D01*
G01X1545609Y-446161D01*
G01X1539455Y-452012D01*
G01X1532430Y-458806D01*
G01X1525198Y-466372D01*
G01X1518421Y-474538D01*
G01X1512760Y-483133D01*
G01X1510555Y-487537D01*
G01X1508878Y-491985D01*
G01X1507811Y-496455D01*
G01X1507437Y-500924D01*
G37*
G36*
G01X1465527Y-491337D02*
G01X1507437Y-491337D01*
G03X1538869Y-554202I78581J0D01*
G01X1434094Y-554202D01*
G03X1465527Y-491337I-47149J62865D01*
G37*
G36*
G01X1465527Y-269480D02*
G01X1507437Y-269480D01*
G01X1507811Y-273950D01*
G01X1508878Y-278419D01*
G01X1510555Y-282867D01*
G01X1512760Y-287272D01*
G01X1518421Y-295867D01*
G01X1525198Y-304032D01*
G01X1532430Y-311598D01*
G01X1539455Y-318392D01*
G01X1545609Y-324243D01*
G01X1550232Y-328980D01*
G01X1422732Y-328980D01*
G01X1427354Y-324243D01*
G01X1433509Y-318392D01*
G01X1440533Y-311598D01*
G01X1447765Y-304032D01*
G01X1454543Y-295867D01*
G01X1460203Y-287272D01*
G01X1462408Y-282867D01*
G01X1464085Y-278419D01*
G01X1465153Y-273950D01*
G01X1465527Y-269480D01*
G37*
G36*
G01X1507437Y-235585D02*
G02X1549347Y-109855I209550J0D01*
G01X1485331Y-88900D01*
G01X1423617Y-109855D01*
G02X1465527Y-235585I-167640J-125730D01*
G01X1507437Y-235585D01*
G37*
G36*
G01X1540210Y-982855D02*
G01X1569845Y-1012490D01*
G01X1566949Y-1015915D01*
G01X1564544Y-1019829D01*
G01X1562585Y-1024161D01*
G01X1561029Y-1028834D01*
G01X1558954Y-1038915D01*
G01X1557972Y-1049481D01*
G01X1557736Y-1059945D01*
G01X1557899Y-1069716D01*
G01X1558114Y-1078205D01*
G01X1558033Y-1084823D01*
G01X1467877Y-994667D01*
G01X1474495Y-994586D01*
G01X1482984Y-994801D01*
G01X1492755Y-994964D01*
G01X1503219Y-994728D01*
G01X1513785Y-993746D01*
G01X1523866Y-991671D01*
G01X1528539Y-990115D01*
G01X1532871Y-988156D01*
G01X1536785Y-985751D01*
G01X1540210Y-982855D01*
G37*
G36*
G01X1951355Y-496722D02*
G01X1909445Y-496722D01*
G01X1909071Y-492252D01*
G01X1908004Y-487783D01*
G01X1906327Y-483335D01*
G01X1904122Y-478931D01*
G01X1898461Y-470336D01*
G01X1891683Y-462170D01*
G01X1884451Y-454604D01*
G01X1877427Y-447810D01*
G01X1871273Y-441959D01*
G01X1866650Y-437222D01*
G01X1994150Y-437222D01*
G01X1989527Y-441959D01*
G01X1983373Y-447810D01*
G01X1976349Y-454604D01*
G01X1969117Y-462170D01*
G01X1962339Y-470336D01*
G01X1956678Y-478931D01*
G01X1954473Y-483335D01*
G01X1952796Y-487783D01*
G01X1951729Y-492252D01*
G01X1951355Y-496722D01*
G37*
G36*
G01X1909445Y-487135D02*
G01X1951355Y-487135D01*
G03X1982788Y-550000I78581J0D01*
G01X1878013Y-550000D01*
G03X1909445Y-487135I-47149J62865D01*
G37*
G36*
G01X4846955Y-1921124D02*
G01X4805045Y-1921124D01*
G01X4804617Y-1907457D01*
G01X4804023Y-1902440D01*
G01X4803125Y-1899774D01*
G01X4848875Y-1899774D01*
G01X4847977Y-1902440D01*
G01X4847383Y-1907457D01*
G01X4846955Y-1921124D01*
G37*
G36*
G01X4805045Y-1948815D02*
G02X4763135Y-2074545I-209550J0D01*
G01X4831895Y-2095500D01*
G01X4888865Y-2074545D01*
G02X4846955Y-1948815I167640J125730D01*
G01X4805045Y-1948815D01*
G37*
G36*
G01X213995Y-5875655D02*
G01X213995Y-5833745D01*
G03X276860Y-5802312I0J78581D01*
G01X276860Y-5907087D01*
G03X213995Y-5875655I-62865J-47149D01*
G37*
G36*
G01X471643Y-6087745D02*
G01X452593Y-6129655D01*
G01X448460Y-6129951D01*
G01X444341Y-6130794D01*
G01X440252Y-6132117D01*
G01X436210Y-6133854D01*
G01X428334Y-6138303D01*
G01X420847Y-6143606D01*
G01X407578Y-6154638D01*
G01X402063Y-6159301D01*
G01X397475Y-6162682D01*
G01X416525Y-6046118D01*
G01X425728Y-6057132D01*
G01X431997Y-6063987D01*
G01X439098Y-6070940D01*
G01X446822Y-6077392D01*
G01X454960Y-6082744D01*
G01X459119Y-6084819D01*
G01X463303Y-6086395D01*
G01X467487Y-6087395D01*
G01X471643Y-6087745D01*
G37*
G36*
G01X2233346Y-8107045D02*
G01X2233346Y-8148955D01*
G01X2229008Y-8149312D01*
G01X2224668Y-8150329D01*
G01X2220349Y-8151929D01*
G01X2216070Y-8154032D01*
G01X2207722Y-8159434D01*
G01X2199790Y-8165904D01*
G01X2192443Y-8172813D01*
G01X2185850Y-8179531D01*
G01X2175596Y-8189875D01*
G01X2175596Y-8066125D01*
G01X2185850Y-8076469D01*
G01X2192443Y-8083187D01*
G01X2199790Y-8090096D01*
G01X2207722Y-8096566D01*
G01X2216070Y-8101968D01*
G01X2220349Y-8104071D01*
G01X2224668Y-8105671D01*
G01X2229008Y-8106688D01*
G01X2233346Y-8107045D01*
G37*
G36*
G01X2633340Y-8316788D02*
G02X2722245Y-8447602I-298455J-298455D01*
G01X2743200Y-8397012D01*
G01X2722245Y-8314059D01*
G02X2633340Y-8257518I82602J228049D01*
G01X2633340Y-8316788D01*
G37*
G36*
G01X2233092Y-7853045D02*
G01X2233092Y-7894955D01*
G01X2228754Y-7895312D01*
G01X2224414Y-7896329D01*
G01X2220095Y-7897929D01*
G01X2215816Y-7900032D01*
G01X2207468Y-7905434D01*
G01X2199536Y-7911904D01*
G01X2192189Y-7918813D01*
G01X2185596Y-7925531D01*
G01X2175342Y-7935875D01*
G01X2175342Y-7812125D01*
G01X2185596Y-7822469D01*
G01X2192189Y-7829187D01*
G01X2199536Y-7836096D01*
G01X2207468Y-7842566D01*
G01X2215816Y-7847968D01*
G01X2220095Y-7850071D01*
G01X2224414Y-7851671D01*
G01X2228754Y-7852688D01*
G01X2233092Y-7853045D01*
G37*
G36*
G01X2074476Y-4762359D02*
G01X2044841Y-4732724D01*
G01X2047898Y-4729089D01*
G01X2050417Y-4724921D01*
G01X2052448Y-4720298D01*
G01X2054039Y-4715302D01*
G01X2055238Y-4710011D01*
G01X2056095Y-4704507D01*
G01X2056973Y-4693175D01*
G01X2057063Y-4681945D01*
G01X2056751Y-4671457D01*
G01X2056426Y-4662350D01*
G01X2056477Y-4655264D01*
G01X2151936Y-4750723D01*
G01X2144850Y-4750774D01*
G01X2135743Y-4750449D01*
G01X2125255Y-4750137D01*
G01X2114025Y-4750227D01*
G01X2102693Y-4751105D01*
G01X2097189Y-4751962D01*
G01X2091898Y-4753161D01*
G01X2086902Y-4754752D01*
G01X2082279Y-4756783D01*
G01X2078111Y-4759302D01*
G01X2074476Y-4762359D01*
G37*
G36*
G01X1061085Y-5760730D02*
G03X935355Y-5802640I0J-209550D01*
G01X914400Y-5739775D01*
G01X935355Y-5676910D01*
G03X1061085Y-5718820I125730J167640D01*
G01X1061085Y-5760730D01*
G37*
G36*
G01X2034074Y-4324309D02*
G01X2063709Y-4294674D01*
G03X2130387Y-4316900I66678J88905D01*
G01X2056300Y-4390987D01*
G03X2034074Y-4324309I-111131J0D01*
G37*
G36*
G01X781685Y-4038940D02*
G03X655955Y-4080850I0J-209550D01*
G01X635000Y-4017985D01*
G01X655955Y-3955120D01*
G03X781685Y-3997030I125730J167640D01*
G01X781685Y-4038940D01*
G37*
G36*
G01X525140Y-4164312D02*
G02X614045Y-4295127I-298455J-298455D01*
G01X635000Y-4244537D01*
G01X614045Y-4152037D01*
G02X527784Y-4107686I25980J156593D01*
G01X525140Y-4164312D01*
G37*
G04 TearDrop End*

G04 Pad Start*
G54D12*
G01X5981700Y-939800D03*
G54D13*
G01X5981700Y-1193800D03*
G54D12*
G01X5956300Y-3683000D03*
G54D13*
G01X5956300Y-3937000D03*
G01X5956300Y-4191000D03*
G01X5956300Y-4445000D03*
G54D14*
G01X2121027Y-8636000D03*
G01X2121027Y-8382000D03*
G01X2121027Y-8128000D03*
G01X2120773Y-7874000D03*
G54D15*
G01X3225803Y-3390905D03*
G01X3225803Y-3644905D03*
G01X3225803Y-3898905D03*
G01X3225803Y-4152905D03*
G01X3225803Y-4406905D03*
G01X3225803Y-4660905D03*
G01X3225803Y-4914905D03*
G01X3225803Y-5168905D03*
G01X3225803Y-5422905D03*
G01X3225803Y-5676905D03*
G01X3225803Y-5930905D03*
G01X3225803Y-6184905D03*
G01X3225803Y-6438905D03*
G01X3225803Y-6692905D03*
G01X3225803Y-6946905D03*
G01X3225803Y-7200905D03*
G01X3225803Y-7454905D03*
G01X3225803Y-7708905D03*
G01X3225803Y-7962905D03*
G01X3225803Y-8216905D03*
G01X4749803Y-8216905D03*
G01X4749803Y-7962905D03*
G01X4749803Y-7708905D03*
G01X4749803Y-7454905D03*
G01X4749803Y-7200905D03*
G01X4749803Y-6946905D03*
G01X4749803Y-6692905D03*
G01X4749803Y-6438905D03*
G01X4749803Y-6184905D03*
G01X4749803Y-5930905D03*
G01X4749803Y-5676905D03*
G01X4749803Y-5422905D03*
G01X4749803Y-5168905D03*
G01X4749803Y-4914905D03*
G01X4749803Y-4660905D03*
G01X4749803Y-4406905D03*
G01X4749803Y-4152905D03*
G01X4749803Y-3898905D03*
G01X4749803Y-3644905D03*
G01X4749803Y-3390905D03*
G54D13*
G01X4013200Y-787400D03*
G01X3759200Y-787400D03*
G01X3505200Y-787400D03*
G01X3251200Y-787400D03*
G01X2997200Y-787400D03*
G01X2743200Y-787400D03*
G54D16*
G01X2489200Y-787400D03*
G54D18*
G01X5954298Y-6430551D03*
G01X5954298Y-6176551D03*
G54D19*
G01X5954298Y-5922551D03*
G54D18*
G01X368300Y-358298D03*
G01X368300Y-612298D03*
G01X368300Y-866298D03*
G01X368300Y-1120298D03*
G54D19*
G01X368300Y-1374298D03*
G54D18*
G01X368300Y-1986402D03*
G01X368300Y-2240402D03*
G01X368300Y-2494402D03*
G01X368300Y-2748402D03*
G54D19*
G01X368300Y-3002402D03*
G54D18*
G01X366298Y-3614503D03*
G01X366298Y-3868503D03*
G54D19*
G01X366298Y-4122503D03*
G54D18*
G01X355600Y-6350000D03*
G01X355600Y-6096000D03*
G54D19*
G01X355600Y-5842000D03*
G54D18*
G01X366298Y-5242601D03*
G01X366298Y-4988601D03*
G54D19*
G01X366298Y-4734601D03*
G54D18*
G01X5954298Y-8420100D03*
G01X5954298Y-8166100D03*
G54D19*
G01X5954298Y-7912100D03*
G54D20*
G01X2146300Y-4406900D03*
G54D21*
G01X2146300Y-4660900D03*
G01X2146300Y-4914900D03*
G01X2146300Y-5168900D03*
G01X2146300Y-5422900D03*
G01X2146300Y-5676900D03*
G01X2146300Y-5930900D03*
G01X2146300Y-6184900D03*
G54D12*
G01X1816100Y-1079500D03*
G54D13*
G01X1816100Y-1333500D03*
G01X1816100Y-1587500D03*
G01X1816100Y-1841500D03*
G54D12*
G01X1473200Y-1841500D03*
G54D13*
G01X1473200Y-1587500D03*
G01X1473200Y-1333500D03*
G01X1473200Y-1079500D03*
G54D12*
G01X1930400Y-635000D03*
G54D13*
G01X1930400Y-381000D03*
G54D12*
G01X1486482Y-639202D03*
G54D13*
G01X1486482Y-385202D03*
G04 Pad End*

G04 Via Start*
G54D22*
G01X901700Y-406400D03*
G01X5410200Y-381000D03*
G01X863600Y-8407400D03*
G01X5372100Y-8382000D03*
G54D23*
G01X4406900Y-2209800D03*
G01X4406900Y-1981200D03*
G01X3829050Y-3638550D03*
G01X3759200Y-3200400D03*
G01X3505200Y-2921000D03*
G01X1092200Y-3251200D03*
G01X2019300Y-3136900D03*
G01X2921000Y-2235200D03*
G01X2857500Y-2463800D03*
G01X2794000Y-2628900D03*
G01X2717800Y-2463800D03*
G01X4826000Y-1879600D03*
G04 Via End*

G04 Track Start*
G54D24*
G01X2222500Y-2209800D02*
G01X2336800Y-2095500D01*
G01X5092700Y-736600D02*
G01X5092700Y-368300D01*
G01X4887664Y-163264D01*
G01X2643436Y-163264D01*
G01X2489200Y-317500D01*
G01X5295900Y-939800D02*
G01X5092700Y-736600D01*
G01X366298Y-5854700D02*
G01X177800Y-5854700D01*
G01X114300Y-5791200D01*
G01X114300Y-5749290D01*
G01X165100Y-5698490D01*
G01X165100Y-165100D02*
G01X241300Y-88900D01*
G01X2235200Y-88900D02*
G01X2336800Y-190500D01*
G01X2336800Y-406400D01*
G01X2401219Y-470819D01*
G01X2489200Y-470819D01*
G01X2489200Y-317500D02*
G01X2489200Y-470819D01*
G01X2489200Y-787400D01*
G01X366298Y-3868503D02*
G01X168045Y-3868503D01*
G01X165100Y-3865558D01*
G01X165100Y-5698490D02*
G01X165100Y-3865558D01*
G01X165100Y-165100D01*
G01X366298Y-4734601D02*
G01X586699Y-4734601D01*
G01X635000Y-4686300D01*
G01X635000Y-3873500D02*
G01X730250Y-3778250D01*
G01X2216409Y-3778250D01*
G01X2222500Y-3784341D01*
G01X2222500Y-2209800D01*
G01X366298Y-4122503D02*
G01X512966Y-4122503D01*
G01X635000Y-4244537D01*
G01X635000Y-4686300D02*
G01X635000Y-4244537D01*
G01X4749803Y-3898905D02*
G01X5041900Y-3606808D01*
G01X5041900Y-2096679D02*
G01X5043079Y-2095500D01*
G01X5130800Y-3411392D02*
G01X5041900Y-3322492D01*
G01X5041900Y-3606808D02*
G01X5041900Y-3322492D01*
G01X5041900Y-2096679D01*
G01X5613400Y-7912100D02*
G01X5130800Y-7429500D01*
G01X6223000Y-1460500D02*
G01X6223000Y-800100D01*
G01X5981700Y-558800D01*
G01X5651500Y-558800D01*
G01X5410200Y-800100D01*
G01X5410200Y-922862D01*
G01X5427138Y-939800D01*
G01X5981700Y-939800D02*
G01X5427138Y-939800D01*
G01X5295900Y-939800D01*
G01X376500Y-5232400D02*
G01X366298Y-5242601D01*
G01X366298Y-6108700D02*
G01X812800Y-6108700D01*
G01X914400Y-6007100D01*
G01X723055Y-5358555D02*
G01X723055Y-5232400D01*
G01X376500Y-5232400D01*
G01X914400Y-5549900D02*
G01X723055Y-5358555D01*
G01X2743200Y-1016000D02*
G01X2819400Y-1092200D01*
G01X5689600Y-1092200D01*
G01X5803900Y-1206500D02*
G01X5969000Y-1206500D01*
G01X5981700Y-1193800D01*
G01X5689600Y-1092200D02*
G01X5803900Y-1206500D01*
G01X4749803Y-3644905D02*
G01X4495805Y-3644905D01*
G01X4406900Y-3556000D01*
G01X4483100Y-1422400D02*
G01X4406900Y-1498600D01*
G01X5969000Y-1206500D02*
G01X5753100Y-1422400D01*
G01X4749803Y-3390905D02*
G01X4715542Y-3356645D01*
G01X4406900Y-3356645D01*
G01X4406900Y-3556000D02*
G01X4406900Y-3356645D01*
G01X4406900Y-2209800D01*
G01X5956300Y-3937000D02*
G01X5880100Y-3937000D01*
G01X5753100Y-3810000D01*
G01X5753100Y-1569369D01*
G01X5606131Y-1422400D01*
G01X5753100Y-1422400D02*
G01X5606131Y-1422400D01*
G01X4483100Y-1422400D01*
G01X5954298Y-5922551D02*
G01X5134802Y-5922551D01*
G01X5130800Y-5918549D01*
G01X5130800Y-7429500D02*
G01X5130800Y-5918549D01*
G01X5130800Y-3411392D01*
G01X5954298Y-6176551D02*
G01X5984050Y-6146800D01*
G01X6146800Y-6146800D01*
G01X6229350Y-6064250D01*
G01X6229350Y-4032250D02*
G01X6134100Y-3937000D01*
G01X5956300Y-3937000D01*
G01X2743200Y-8674100D02*
G01X2857500Y-8788400D01*
G01X5575300Y-8788400D01*
G01X5708178Y-8655522D02*
G01X5708178Y-7912100D01*
G01X5954298Y-7912100D02*
G01X5708178Y-7912100D01*
G01X5613400Y-7912100D01*
G01X5575300Y-8788400D02*
G01X5708178Y-8655522D01*
G01X3225803Y-8216905D02*
G01X2840354Y-8216905D01*
G01X2743200Y-8314059D01*
G01X5954298Y-8420100D02*
G01X5994400Y-8420100D01*
G01X6229350Y-8185150D02*
G01X6229350Y-6064250D01*
G01X5994400Y-8420100D02*
G01X6229350Y-8185150D01*
G01X6229350Y-6064250D02*
G01X6229350Y-4032250D01*
G01X3225803Y-7962905D02*
G01X2908305Y-7962905D01*
G01X2819400Y-7874000D01*
G01X3225803Y-7962905D02*
G01X3606795Y-7962905D01*
G01X3721100Y-7848600D01*
G01X3721100Y-3898900D01*
G01X4263355Y-3356645D02*
G01X4406900Y-3356645D01*
G01X3721100Y-3898900D02*
G01X4263355Y-3356645D01*
G01X366298Y-3614503D02*
G01X1846497Y-3614503D01*
G01X2315215Y-2043390D02*
G01X2338110Y-2043390D01*
G01X2552700Y-1828800D01*
G01X2120900Y-2237706D02*
G01X2315215Y-2043390D01*
G01X2552700Y-1828800D02*
G01X4388936Y-1828800D01*
G01X4406900Y-1810836D01*
G01X4406900Y-1498600D02*
G01X4406900Y-1810836D01*
G01X4406900Y-1981200D01*
G01X1846497Y-3614503D02*
G01X2120900Y-3340100D01*
G01X2120900Y-2237706D01*
G54D11*
G01X3829050Y-3638550D02*
G01X3568695Y-3898905D01*
G01X3225803Y-3898905D01*
G01X3759200Y-3200400D02*
G01X3492500Y-3467100D01*
G01X3492500Y-3556000D01*
G01X3378200Y-3670300D01*
G01X3251197Y-3670300D01*
G01X3225803Y-3644905D01*
G01X3505200Y-2921000D02*
G01X3505200Y-3263900D01*
G01X3363954Y-3405146D01*
G01X3240044Y-3405146D01*
G01X3225803Y-3390905D01*
G01X1092200Y-3251200D02*
G01X1206500Y-3136900D01*
G01X2019300Y-3136900D01*
G54D24*
G01X5956300Y-1727200D02*
G01X6223000Y-1460500D01*
G01X5956300Y-3683000D02*
G01X5956300Y-1727200D01*
G54D11*
G01X3225803Y-5676905D02*
G01X2921000Y-5372103D01*
G01X2921000Y-2235200D01*
G01X3225803Y-5930905D02*
G01X2857500Y-5562603D01*
G01X2857500Y-2463800D01*
G01X3225803Y-6184905D02*
G01X2794000Y-5753103D01*
G01X2794000Y-2628900D01*
G01X3225803Y-6438905D02*
G01X2717800Y-5930903D01*
G01X2717800Y-2463800D01*
G54D24*
G01X1473200Y-1079500D02*
G01X1473200Y-1333500D01*
G01X1473200Y-1587500D01*
G01X1473200Y-1841500D01*
G01X2273300Y-977900D02*
G01X2735480Y-977900D01*
G01X2743200Y-985620D01*
G01X2743200Y-787400D02*
G01X2743200Y-985620D01*
G01X2743200Y-1016000D01*
G01X1486482Y-385202D02*
G01X1486482Y-639202D01*
G01X1486482Y-385202D02*
G01X1486482Y-90050D01*
G01X1485331Y-88900D01*
G01X241300Y-88900D02*
G01X1485331Y-88900D01*
G01X2235200Y-88900D01*
G01X1473200Y-1079500D02*
G01X1701800Y-850900D01*
G01X2146300Y-850900D01*
G01X2273300Y-977900D01*
G01X1930400Y-381000D02*
G01X1930400Y-635000D01*
G01X4826000Y-1879600D02*
G01X4826000Y-2089605D01*
G01X4831895Y-2095500D01*
G01X5043079Y-2095500D02*
G01X4831895Y-2095500D01*
G01X2336800Y-2095500D02*
G01X4831895Y-2095500D01*
G01X2121027Y-8128000D02*
G01X2474188Y-8128000D01*
G01X2743200Y-8397012D01*
G01X2743200Y-8314059D02*
G01X2743200Y-8397012D01*
G01X2743200Y-8674100D01*
G01X2501900Y-7874000D02*
G01X2120773Y-7874000D01*
G01X2819400Y-7697783D02*
G01X2678117Y-7697783D01*
G01X2819400Y-7874000D02*
G01X2819400Y-7697783D01*
G01X2678117Y-7697783D02*
G01X2501900Y-7874000D01*
G01X2146300Y-4660900D02*
G01X1067425Y-5739775D01*
G01X914400Y-5739775D01*
G01X914400Y-6007100D02*
G01X914400Y-5739775D01*
G01X914400Y-5549900D01*
G01X2146300Y-4406900D02*
G01X1757385Y-4017985D01*
G01X635000Y-4017985D01*
G01X635000Y-4244537D02*
G01X635000Y-4017985D01*
G01X635000Y-3873500D01*
G04 Track End*

M02*

