G04 Layer: BottomLayer*
G04 EasyEDA Pro v3.2.77, 2026-07-23 02:52:35*
G04 Gerber Generator version 0.3*
G04 Scale: 100 percent, Rotated: No, Reflected: No*
G04 Dimensions in millimeters*
G04 Leading zeros omitted, absolute positions, 4 integers and 5 decimals*
G04 Generated by one-click*
%FSLAX45Y45*%
%MOMM*%
%ADD10C,0.2032*%
%ADD11C,0.254*%
%ADD12R,1.7X1.7*%
%ADD13C,1.7*%
%ADD14C,1.65001*%
%ADD15C,1.6*%
%ADD16R,1.5748X1.7*%
%ADD17C,1.5700*%
%ADD18C,1.5748*%
%ADD19R,1.5748X1.5748*%
%ADD20R,1.8X1.8*%
%ADD21C,1.8*%
%ADD22C,4.0*%
%ADD23C,0.61*%
%ADD24C,0.4191*%
G75*


G04 Copper Start*
G36*
G01X6313170Y-9132570D02*
G01X36830Y-9132570D01*
G01X36830Y-8407400D01*
G01X627786Y-8407400D01*
G01X629803Y-8438180D01*
G01X635821Y-8468433D01*
G01X645736Y-8497642D01*
G01X659379Y-8525307D01*
G01X676516Y-8550954D01*
G01X696854Y-8574146D01*
G01X720046Y-8594484D01*
G01X745693Y-8611621D01*
G01X773358Y-8625264D01*
G01X802567Y-8635179D01*
G01X832820Y-8641197D01*
G01X863600Y-8643214D01*
G01X894380Y-8641197D01*
G01X924633Y-8635179D01*
G01X953842Y-8625264D01*
G01X981507Y-8611621D01*
G01X1007154Y-8594484D01*
G01X1030346Y-8574146D01*
G01X1050684Y-8550954D01*
G01X1067821Y-8525307D01*
G01X1081464Y-8497642D01*
G01X1091379Y-8468433D01*
G01X1097397Y-8438180D01*
G01X1099414Y-8407400D01*
G01X1099414Y-8407400D01*
G01X1097397Y-8376620D01*
G01X1091379Y-8346367D01*
G01X1081464Y-8317158D01*
G01X1067821Y-8289493D01*
G01X1050684Y-8263846D01*
G01X1030346Y-8240654D01*
G01X1007154Y-8220316D01*
G01X981507Y-8203179D01*
G01X953842Y-8189536D01*
G01X924633Y-8179621D01*
G01X894380Y-8173603D01*
G01X863600Y-8171586D01*
G01X832820Y-8173603D01*
G01X802567Y-8179621D01*
G01X773358Y-8189536D01*
G01X745693Y-8203179D01*
G01X720046Y-8220316D01*
G01X696854Y-8240654D01*
G01X676516Y-8263846D01*
G01X659379Y-8289493D01*
G01X645736Y-8317158D01*
G01X635821Y-8346367D01*
G01X629803Y-8376620D01*
G01X627786Y-8407400D01*
G01X36830Y-8407400D01*
G01X36830Y-8128000D01*
G01X2002713Y-8128000D01*
G01X2004727Y-8149740D01*
G01X2010702Y-8170740D01*
G01X2020434Y-8190285D01*
G01X2033592Y-8207708D01*
G01X2049727Y-8222417D01*
G01X2068290Y-8233911D01*
G01X2088649Y-8241798D01*
G01X2110110Y-8245810D01*
G01X2131944Y-8245810D01*
G01X2153405Y-8241798D01*
G01X2173764Y-8233911D01*
G01X2192327Y-8222417D01*
G01X2208462Y-8207708D01*
G01X2221620Y-8190285D01*
G01X2231352Y-8170740D01*
G01X2237327Y-8149740D01*
G01X2239341Y-8128000D01*
G01X2239341Y-8128000D01*
G01X2237327Y-8106260D01*
G01X2231352Y-8085260D01*
G01X2221620Y-8065715D01*
G01X2208462Y-8048292D01*
G01X2192327Y-8033583D01*
G01X2173764Y-8022089D01*
G01X2153405Y-8014202D01*
G01X2131944Y-8010190D01*
G01X2110110Y-8010190D01*
G01X2088649Y-8014202D01*
G01X2068290Y-8022089D01*
G01X2049727Y-8033583D01*
G01X2033592Y-8048292D01*
G01X2020434Y-8065715D01*
G01X2010702Y-8085260D01*
G01X2004727Y-8106260D01*
G01X2002713Y-8128000D01*
G01X36830Y-8128000D01*
G01X36830Y-7874000D01*
G01X2002713Y-7874000D01*
G01X2004723Y-7895694D01*
G01X2010685Y-7916648D01*
G01X2020396Y-7936151D01*
G01X2033525Y-7953537D01*
G01X2049626Y-7968214D01*
G01X2068149Y-7979683D01*
G01X2088464Y-7987554D01*
G01X2109880Y-7991557D01*
G01X2131666Y-7991557D01*
G01X2153082Y-7987554D01*
G01X2173397Y-7979683D01*
G01X2191920Y-7968214D01*
G01X2208021Y-7953537D01*
G01X2221150Y-7936151D01*
G01X2230861Y-7916648D01*
G01X2236823Y-7895694D01*
G01X2238833Y-7874000D01*
G01X2238833Y-7874000D01*
G01X2236823Y-7852306D01*
G01X2230861Y-7831352D01*
G01X2221150Y-7811849D01*
G01X2208021Y-7794463D01*
G01X2191920Y-7779786D01*
G01X2173397Y-7768317D01*
G01X2153082Y-7760446D01*
G01X2131666Y-7756443D01*
G01X2109880Y-7756443D01*
G01X2088464Y-7760446D01*
G01X2068149Y-7768317D01*
G01X2049626Y-7779786D01*
G01X2033525Y-7794463D01*
G01X2020396Y-7811849D01*
G01X2010685Y-7831352D01*
G01X2004723Y-7852306D01*
G01X2002713Y-7874000D01*
G01X36830Y-7874000D01*
G01X36830Y-3231002D01*
G01X91186Y-3231002D01*
G01X91186Y-6604000D01*
G01X92839Y-6616556D01*
G01X97686Y-6628257D01*
G01X105395Y-6638305D01*
G01X575295Y-7108205D01*
G01X585343Y-7115914D01*
G01X597044Y-7120761D01*
G01X609600Y-7122414D01*
G01X3140644Y-7122414D01*
G01X3130233Y-7135489D01*
G01X3121812Y-7149926D01*
G01X3115557Y-7165426D01*
G01X3111598Y-7181664D01*
G01X3111598Y-7181664D01*
G01X3110311Y-7183875D01*
G01X3106624Y-7188656D01*
G01X3101531Y-7194003D01*
G01X3095525Y-7199128D01*
G01X3093298Y-7200713D01*
G01X3091017Y-7202108D01*
G01X3089317Y-7202967D01*
G01X3088747Y-7203186D01*
G01X2984500Y-7203186D01*
G01X2971944Y-7204839D01*
G01X2960243Y-7209686D01*
G01X2950195Y-7217395D01*
G01X2835895Y-7331695D01*
G01X2828186Y-7341743D01*
G01X2823339Y-7353444D01*
G01X2821686Y-7366000D01*
G01X2821686Y-8158705D01*
G01X2646905Y-8333486D01*
G01X2236587Y-8333486D01*
G01X2236281Y-8333343D01*
G01X2234452Y-8331978D01*
G01X2232379Y-8330187D01*
G01X2226322Y-8324080D01*
G01X2220132Y-8316971D01*
G01X2218684Y-8315206D01*
G01X2205019Y-8298671D01*
G01X2188593Y-8284876D01*
G01X2169946Y-8274273D01*
G01X2149692Y-8267210D01*
G01X2128495Y-8263921D01*
G01X2107052Y-8264514D01*
G01X2086069Y-8268968D01*
G01X2066235Y-8277137D01*
G01X2048202Y-8288754D01*
G01X2032563Y-8303435D01*
G01X2019832Y-8320699D01*
G01X2010427Y-8339978D01*
G01X2004657Y-8360638D01*
G01X2002713Y-8382000D01*
G01X2004657Y-8403362D01*
G01X2010427Y-8424022D01*
G01X2019832Y-8443301D01*
G01X2032563Y-8460565D01*
G01X2048202Y-8475246D01*
G01X2066235Y-8486863D01*
G01X2086069Y-8495032D01*
G01X2107052Y-8499486D01*
G01X2128495Y-8500079D01*
G01X2149692Y-8496790D01*
G01X2169946Y-8489727D01*
G01X2188593Y-8479124D01*
G01X2205019Y-8465329D01*
G01X2218684Y-8448794D01*
G01X2220132Y-8447029D01*
G01X2226322Y-8439920D01*
G01X2232379Y-8433813D01*
G01X2234452Y-8432022D01*
G01X2236281Y-8430657D01*
G01X2236587Y-8430514D01*
G01X2664177Y-8430514D01*
G01X2507205Y-8587486D01*
G01X2236587Y-8587486D01*
G01X2236281Y-8587343D01*
G01X2234452Y-8585978D01*
G01X2232379Y-8584187D01*
G01X2226322Y-8578080D01*
G01X2220132Y-8570971D01*
G01X2218684Y-8569206D01*
G01X2205019Y-8552671D01*
G01X2188593Y-8538876D01*
G01X2169946Y-8528273D01*
G01X2149692Y-8521210D01*
G01X2128495Y-8517921D01*
G01X2107052Y-8518514D01*
G01X2086069Y-8522968D01*
G01X2066235Y-8531137D01*
G01X2048202Y-8542754D01*
G01X2032563Y-8557435D01*
G01X2019832Y-8574699D01*
G01X2010427Y-8593978D01*
G01X2004657Y-8614638D01*
G01X2002713Y-8636000D01*
G01X2004657Y-8657362D01*
G01X2010427Y-8678022D01*
G01X2019832Y-8697301D01*
G01X2032563Y-8714565D01*
G01X2048202Y-8729246D01*
G01X2066235Y-8740863D01*
G01X2086069Y-8749032D01*
G01X2107052Y-8753486D01*
G01X2128495Y-8754079D01*
G01X2149692Y-8750790D01*
G01X2169946Y-8743727D01*
G01X2188593Y-8733124D01*
G01X2205019Y-8719329D01*
G01X2218684Y-8702794D01*
G01X2220132Y-8701029D01*
G01X2226322Y-8693920D01*
G01X2232379Y-8687813D01*
G01X2234452Y-8686022D01*
G01X2236281Y-8684657D01*
G01X2236587Y-8684514D01*
G01X2527300Y-8684514D01*
G01X2539856Y-8682861D01*
G01X2551557Y-8678014D01*
G01X2561605Y-8670305D01*
G01X2849909Y-8382000D01*
G01X5136286Y-8382000D01*
G01X5138303Y-8412780D01*
G01X5144321Y-8443033D01*
G01X5154236Y-8472242D01*
G01X5167879Y-8499907D01*
G01X5185016Y-8525554D01*
G01X5205354Y-8548746D01*
G01X5228546Y-8569084D01*
G01X5254193Y-8586221D01*
G01X5281858Y-8599864D01*
G01X5311067Y-8609779D01*
G01X5341320Y-8615797D01*
G01X5372100Y-8617814D01*
G01X5402880Y-8615797D01*
G01X5433133Y-8609779D01*
G01X5462342Y-8599864D01*
G01X5490007Y-8586221D01*
G01X5515654Y-8569084D01*
G01X5538846Y-8548746D01*
G01X5559184Y-8525554D01*
G01X5576321Y-8499907D01*
G01X5589964Y-8472242D01*
G01X5599879Y-8443033D01*
G01X5604441Y-8420100D01*
G01X5839998Y-8420100D01*
G01X5841945Y-8441103D01*
G01X5847717Y-8461390D01*
G01X5857119Y-8480271D01*
G01X5869830Y-8497103D01*
G01X5885417Y-8511313D01*
G01X5903351Y-8522417D01*
G01X5923019Y-8530037D01*
G01X5943752Y-8533912D01*
G01X5964845Y-8533912D01*
G01X5985578Y-8530037D01*
G01X6005246Y-8522417D01*
G01X6023180Y-8511313D01*
G01X6038767Y-8497103D01*
G01X6051478Y-8480271D01*
G01X6060880Y-8461390D01*
G01X6066652Y-8441103D01*
G01X6068598Y-8420100D01*
G01X6068598Y-8420100D01*
G01X6066652Y-8399097D01*
G01X6060880Y-8378810D01*
G01X6051478Y-8359929D01*
G01X6038767Y-8343097D01*
G01X6023180Y-8328887D01*
G01X6005246Y-8317783D01*
G01X5985578Y-8310163D01*
G01X5964845Y-8306288D01*
G01X5943752Y-8306288D01*
G01X5923019Y-8310163D01*
G01X5903351Y-8317783D01*
G01X5885417Y-8328887D01*
G01X5869830Y-8343097D01*
G01X5857119Y-8359929D01*
G01X5847717Y-8378810D01*
G01X5841945Y-8399097D01*
G01X5839998Y-8420100D01*
G01X5604441Y-8420100D01*
G01X5605897Y-8412780D01*
G01X5607914Y-8382000D01*
G01X5605897Y-8351220D01*
G01X5599879Y-8320967D01*
G01X5589964Y-8291758D01*
G01X5576321Y-8264093D01*
G01X5559184Y-8238446D01*
G01X5538846Y-8215254D01*
G01X5515654Y-8194916D01*
G01X5490007Y-8177779D01*
G01X5462342Y-8164136D01*
G01X5433133Y-8154221D01*
G01X5402880Y-8148203D01*
G01X5372100Y-8146186D01*
G01X5341320Y-8148203D01*
G01X5311067Y-8154221D01*
G01X5281858Y-8164136D01*
G01X5254193Y-8177779D01*
G01X5228546Y-8194916D01*
G01X5205354Y-8215254D01*
G01X5185016Y-8238446D01*
G01X5167879Y-8264093D01*
G01X5154236Y-8291758D01*
G01X5144321Y-8320967D01*
G01X5138303Y-8351220D01*
G01X5136286Y-8382000D01*
G01X5136286Y-8382000D01*
G01X2849909Y-8382000D01*
G01X2993405Y-8238505D01*
G01X3001114Y-8228457D01*
G01X3005899Y-8216905D01*
G01X3109989Y-8216905D01*
G01X3111961Y-8238186D01*
G01X3117809Y-8258742D01*
G01X3127336Y-8277873D01*
G01X3140215Y-8294928D01*
G01X3156009Y-8309327D01*
G01X3174180Y-8320577D01*
G01X3194109Y-8328298D01*
G01X3215117Y-8332225D01*
G01X3236488Y-8332225D01*
G01X3257497Y-8328298D01*
G01X3277425Y-8320577D01*
G01X3295596Y-8309327D01*
G01X3311390Y-8294928D01*
G01X3324269Y-8277873D01*
G01X3333796Y-8258742D01*
G01X3339644Y-8238186D01*
G01X3341616Y-8216905D01*
G01X3341616Y-8216905D01*
G01X4633989Y-8216905D01*
G01X4635961Y-8238186D01*
G01X4641809Y-8258742D01*
G01X4651336Y-8277873D01*
G01X4664215Y-8294928D01*
G01X4680009Y-8309327D01*
G01X4698180Y-8320577D01*
G01X4718109Y-8328298D01*
G01X4739117Y-8332225D01*
G01X4760488Y-8332225D01*
G01X4781497Y-8328298D01*
G01X4801425Y-8320577D01*
G01X4819596Y-8309327D01*
G01X4835390Y-8294928D01*
G01X4848269Y-8277873D01*
G01X4857796Y-8258742D01*
G01X4863644Y-8238186D01*
G01X4865616Y-8216905D01*
G01X4865616Y-8216905D01*
G01X4863644Y-8195624D01*
G01X4857796Y-8175068D01*
G01X4848269Y-8155937D01*
G01X4835390Y-8138882D01*
G01X4819596Y-8124484D01*
G01X4801425Y-8113233D01*
G01X4781497Y-8105512D01*
G01X4760488Y-8101585D01*
G01X4739117Y-8101585D01*
G01X4718109Y-8105512D01*
G01X4698180Y-8113233D01*
G01X4680009Y-8124484D01*
G01X4664215Y-8138882D01*
G01X4651336Y-8155937D01*
G01X4641809Y-8175068D01*
G01X4635961Y-8195624D01*
G01X4633989Y-8216905D01*
G01X3341616Y-8216905D01*
G01X3339644Y-8195624D01*
G01X3333796Y-8175068D01*
G01X3324269Y-8155937D01*
G01X3311390Y-8138882D01*
G01X3295596Y-8124484D01*
G01X3277425Y-8113233D01*
G01X3257497Y-8105512D01*
G01X3236488Y-8101585D01*
G01X3215117Y-8101585D01*
G01X3194109Y-8105512D01*
G01X3174180Y-8113233D01*
G01X3156009Y-8124484D01*
G01X3140215Y-8138882D01*
G01X3127336Y-8155937D01*
G01X3117809Y-8175068D01*
G01X3111961Y-8195624D01*
G01X3109989Y-8216905D01*
G01X3005899Y-8216905D01*
G01X3005961Y-8216756D01*
G01X3007614Y-8204200D01*
G01X3007614Y-7962905D01*
G01X3110243Y-7962905D01*
G01X3112210Y-7984139D01*
G01X3118046Y-8004650D01*
G01X3127552Y-8023739D01*
G01X3140403Y-8040757D01*
G01X3156162Y-8055124D01*
G01X3174293Y-8066350D01*
G01X3194178Y-8074053D01*
G01X3215140Y-8077972D01*
G01X3236465Y-8077972D01*
G01X3257427Y-8074053D01*
G01X3277312Y-8066350D01*
G01X3295443Y-8055124D01*
G01X3311202Y-8040757D01*
G01X3324053Y-8023739D01*
G01X3333559Y-8004650D01*
G01X3339395Y-7984139D01*
G01X3341362Y-7962905D01*
G01X3341362Y-7962905D01*
G01X4633989Y-7962905D01*
G01X4635961Y-7984186D01*
G01X4641809Y-8004742D01*
G01X4651336Y-8023873D01*
G01X4664215Y-8040928D01*
G01X4680009Y-8055327D01*
G01X4698180Y-8066577D01*
G01X4718109Y-8074298D01*
G01X4739117Y-8078225D01*
G01X4760488Y-8078225D01*
G01X4781497Y-8074298D01*
G01X4801425Y-8066577D01*
G01X4819596Y-8055327D01*
G01X4835390Y-8040928D01*
G01X4848269Y-8023873D01*
G01X4857796Y-8004742D01*
G01X4863644Y-7984186D01*
G01X4865616Y-7962905D01*
G01X4865616Y-7962905D01*
G01X4863644Y-7941624D01*
G01X4857796Y-7921068D01*
G01X4848269Y-7901937D01*
G01X4835390Y-7884882D01*
G01X4819596Y-7870484D01*
G01X4801425Y-7859233D01*
G01X4781497Y-7851512D01*
G01X4760488Y-7847585D01*
G01X4739117Y-7847585D01*
G01X4718109Y-7851512D01*
G01X4698180Y-7859233D01*
G01X4680009Y-7870484D01*
G01X4664215Y-7884882D01*
G01X4651336Y-7901937D01*
G01X4641809Y-7921068D01*
G01X4635961Y-7941624D01*
G01X4633989Y-7962905D01*
G01X3341362Y-7962905D01*
G01X3339395Y-7941671D01*
G01X3333559Y-7921160D01*
G01X3324053Y-7902071D01*
G01X3311202Y-7885053D01*
G01X3295443Y-7870686D01*
G01X3277312Y-7859460D01*
G01X3257427Y-7851757D01*
G01X3236465Y-7847838D01*
G01X3215140Y-7847838D01*
G01X3194178Y-7851757D01*
G01X3174293Y-7859460D01*
G01X3156162Y-7870686D01*
G01X3140403Y-7885053D01*
G01X3127552Y-7902071D01*
G01X3118046Y-7921160D01*
G01X3112210Y-7941671D01*
G01X3110243Y-7962905D01*
G01X3007614Y-7962905D01*
G01X3007614Y-7708905D01*
G01X3109989Y-7708905D01*
G01X3111961Y-7730186D01*
G01X3117809Y-7750742D01*
G01X3127336Y-7769873D01*
G01X3140215Y-7786928D01*
G01X3156009Y-7801327D01*
G01X3174180Y-7812577D01*
G01X3194109Y-7820298D01*
G01X3215117Y-7824225D01*
G01X3236488Y-7824225D01*
G01X3257497Y-7820298D01*
G01X3277425Y-7812577D01*
G01X3295596Y-7801327D01*
G01X3311390Y-7786928D01*
G01X3324269Y-7769873D01*
G01X3333796Y-7750742D01*
G01X3339644Y-7730186D01*
G01X3341616Y-7708905D01*
G01X3341616Y-7708905D01*
G01X4633989Y-7708905D01*
G01X4635961Y-7730186D01*
G01X4641809Y-7750742D01*
G01X4651336Y-7769873D01*
G01X4664215Y-7786928D01*
G01X4680009Y-7801327D01*
G01X4698180Y-7812577D01*
G01X4718109Y-7820298D01*
G01X4739117Y-7824225D01*
G01X4760488Y-7824225D01*
G01X4781497Y-7820298D01*
G01X4801425Y-7812577D01*
G01X4819596Y-7801327D01*
G01X4835390Y-7786928D01*
G01X4848269Y-7769873D01*
G01X4857796Y-7750742D01*
G01X4863644Y-7730186D01*
G01X4865616Y-7708905D01*
G01X4865616Y-7708905D01*
G01X4863644Y-7687624D01*
G01X4857796Y-7667068D01*
G01X4848269Y-7647937D01*
G01X4835390Y-7630882D01*
G01X4819596Y-7616484D01*
G01X4801425Y-7605233D01*
G01X4781497Y-7597512D01*
G01X4760488Y-7593585D01*
G01X4739117Y-7593585D01*
G01X4718109Y-7597512D01*
G01X4698180Y-7605233D01*
G01X4680009Y-7616484D01*
G01X4664215Y-7630882D01*
G01X4651336Y-7647937D01*
G01X4641809Y-7667068D01*
G01X4635961Y-7687624D01*
G01X4633989Y-7708905D01*
G01X3341616Y-7708905D01*
G01X3339644Y-7687624D01*
G01X3333796Y-7667068D01*
G01X3324269Y-7647937D01*
G01X3311390Y-7630882D01*
G01X3295596Y-7616484D01*
G01X3277425Y-7605233D01*
G01X3257497Y-7597512D01*
G01X3236488Y-7593585D01*
G01X3215117Y-7593585D01*
G01X3194109Y-7597512D01*
G01X3174180Y-7605233D01*
G01X3156009Y-7616484D01*
G01X3140215Y-7630882D01*
G01X3127336Y-7647937D01*
G01X3117809Y-7667068D01*
G01X3111961Y-7687624D01*
G01X3109989Y-7708905D01*
G01X3007614Y-7708905D01*
G01X3007614Y-7551195D01*
G01X3042695Y-7516114D01*
G01X3124307Y-7516114D01*
G01X3128673Y-7519342D01*
G01X3131112Y-7521588D01*
G01X3140630Y-7533381D01*
G01X3151605Y-7543830D01*
G01X3163852Y-7552757D01*
G01X3182000Y-7562094D01*
G01X3201504Y-7568102D01*
G01X3221761Y-7570595D01*
G01X3242141Y-7569495D01*
G01X3262011Y-7564836D01*
G01X3280756Y-7556764D01*
G01X3297793Y-7545527D01*
G01X3312595Y-7531475D01*
G01X3324702Y-7515045D01*
G01X3333738Y-7496745D01*
G01X3339422Y-7477143D01*
G01X3341580Y-7456848D01*
G01X3341443Y-7454905D01*
G01X4633989Y-7454905D01*
G01X4635961Y-7476186D01*
G01X4641809Y-7496742D01*
G01X4651336Y-7515873D01*
G01X4664215Y-7532928D01*
G01X4680009Y-7547327D01*
G01X4698180Y-7558577D01*
G01X4718109Y-7566298D01*
G01X4739117Y-7570225D01*
G01X4760488Y-7570225D01*
G01X4781497Y-7566298D01*
G01X4801425Y-7558577D01*
G01X4819596Y-7547327D01*
G01X4835390Y-7532928D01*
G01X4848269Y-7515873D01*
G01X4857796Y-7496742D01*
G01X4863644Y-7476186D01*
G01X4865616Y-7454905D01*
G01X4865616Y-7454905D01*
G01X4863644Y-7433624D01*
G01X4857796Y-7413068D01*
G01X4848269Y-7393937D01*
G01X4835390Y-7376882D01*
G01X4819596Y-7362484D01*
G01X4801425Y-7351233D01*
G01X4781497Y-7343512D01*
G01X4760488Y-7339585D01*
G01X4739117Y-7339585D01*
G01X4718109Y-7343512D01*
G01X4698180Y-7351233D01*
G01X4680009Y-7362484D01*
G01X4664215Y-7376882D01*
G01X4651336Y-7393937D01*
G01X4641809Y-7413068D01*
G01X4635961Y-7433624D01*
G01X4633989Y-7454905D01*
G01X3341443Y-7454905D01*
G01X3340143Y-7436490D01*
G01X3335129Y-7416712D01*
G01X3326724Y-7398121D01*
G01X3315186Y-7381293D01*
G01X3300875Y-7366750D01*
G01X3284235Y-7354944D01*
G01X3265781Y-7346241D01*
G01X3246086Y-7340911D01*
G01X3225762Y-7339119D01*
G01X3205438Y-7340920D01*
G01X3185746Y-7346260D01*
G01X3167296Y-7354972D01*
G01X3150661Y-7366786D01*
G01X3136357Y-7381336D01*
G01X3130624Y-7388921D01*
G01X3125831Y-7395310D01*
G01X3120018Y-7402914D01*
G01X3114180Y-7409902D01*
G01X3108315Y-7415968D01*
G01X3106316Y-7417729D01*
G01X3104529Y-7419086D01*
G01X3022600Y-7419086D01*
G01X3010044Y-7420739D01*
G01X2998343Y-7425586D01*
G01X2988295Y-7433295D01*
G01X2924795Y-7496795D01*
G01X2918714Y-7504219D01*
G01X2918714Y-7386095D01*
G01X3004595Y-7300214D01*
G01X3165542Y-7300214D01*
G01X3166323Y-7300279D01*
G01X3184905Y-7309257D01*
G01X3204784Y-7314796D01*
G01X3225331Y-7316718D01*
G01X3245894Y-7314963D01*
G01X3265818Y-7309586D01*
G01X3284471Y-7300759D01*
G01X3301262Y-7288761D01*
G01X3315657Y-7273974D01*
G01X3327199Y-7256866D01*
G01X3335521Y-7237982D01*
G01X3340360Y-7217920D01*
G01X3341561Y-7197319D01*
G01X3339087Y-7176831D01*
G01X3333015Y-7157107D01*
G01X3323540Y-7138774D01*
G01X3310961Y-7122414D01*
G01X4664644Y-7122414D01*
G01X4651831Y-7139144D01*
G01X4642262Y-7157918D01*
G01X4636253Y-7178116D01*
G01X4634003Y-7199068D01*
G01X4635587Y-7220080D01*
G01X4640952Y-7240458D01*
G01X4649921Y-7259527D01*
G01X4662196Y-7276655D01*
G01X4677372Y-7291275D01*
G01X4694946Y-7302903D01*
G01X4714335Y-7311154D01*
G01X4734899Y-7315756D01*
G01X4755956Y-7316555D01*
G01X4776810Y-7313526D01*
G01X4796769Y-7306768D01*
G01X4815174Y-7296506D01*
G01X4831414Y-7283078D01*
G01X4844953Y-7266930D01*
G01X4846621Y-7264913D01*
G01X4852577Y-7258132D01*
G01X4858387Y-7252329D01*
G01X4860333Y-7250664D01*
G01X4862017Y-7249419D01*
G01X5161510Y-7249419D01*
G01X5501386Y-7589295D01*
G01X5501386Y-8039100D01*
G01X5503039Y-8051656D01*
G01X5507886Y-8063357D01*
G01X5515595Y-8073405D01*
G01X5642595Y-8200405D01*
G01X5652643Y-8208114D01*
G01X5664344Y-8212961D01*
G01X5676900Y-8214614D01*
G01X5843573Y-8214614D01*
G01X5847556Y-8217772D01*
G01X5852797Y-8222981D01*
G01X5858634Y-8229596D01*
G01X5860415Y-8231739D01*
G01X5868845Y-8242391D01*
G01X5878476Y-8251970D01*
G01X5894731Y-8263935D01*
G01X5912834Y-8272863D01*
G01X5932222Y-8278475D01*
G01X5952294Y-8280599D01*
G01X5972428Y-8279168D01*
G01X5991998Y-8274226D01*
G01X6010397Y-8265927D01*
G01X6027054Y-8254528D01*
G01X6041453Y-8240384D01*
G01X6053147Y-8223932D01*
G01X6061773Y-8205683D01*
G01X6067063Y-8186205D01*
G01X6068852Y-8166100D01*
G01X6067063Y-8145995D01*
G01X6061773Y-8126517D01*
G01X6053147Y-8108268D01*
G01X6041453Y-8091816D01*
G01X6027054Y-8077672D01*
G01X6010397Y-8066273D01*
G01X5991998Y-8057974D01*
G01X5972428Y-8053032D01*
G01X5952294Y-8051601D01*
G01X5932222Y-8053725D01*
G01X5912834Y-8059337D01*
G01X5894731Y-8068265D01*
G01X5878476Y-8080230D01*
G01X5868846Y-8089808D01*
G01X5860416Y-8100459D01*
G01X5858634Y-8102604D01*
G01X5852797Y-8109219D01*
G01X5847556Y-8114428D01*
G01X5843573Y-8117586D01*
G01X5696995Y-8117586D01*
G01X5598414Y-8019005D01*
G01X5598414Y-7833360D01*
G01X5839744Y-7833360D01*
G01X5839744Y-7990840D01*
G01X5841497Y-8001907D01*
G01X5846584Y-8011891D01*
G01X5854508Y-8019814D01*
G01X5864491Y-8024901D01*
G01X5875558Y-8026654D01*
G01X6033038Y-8026654D01*
G01X6044106Y-8024901D01*
G01X6054089Y-8019814D01*
G01X6062013Y-8011891D01*
G01X6067100Y-8001907D01*
G01X6068852Y-7990840D01*
G01X6068852Y-7990840D01*
G01X6068852Y-7833360D01*
G01X6067100Y-7822293D01*
G01X6062013Y-7812309D01*
G01X6054089Y-7804386D01*
G01X6044106Y-7799299D01*
G01X6033038Y-7797546D01*
G01X5875558Y-7797546D01*
G01X5864491Y-7799299D01*
G01X5854508Y-7804386D01*
G01X5846584Y-7812309D01*
G01X5841497Y-7822293D01*
G01X5839744Y-7833360D01*
G01X5598414Y-7833360D01*
G01X5598414Y-7569200D01*
G01X5596761Y-7556644D01*
G01X5591914Y-7544943D01*
G01X5584205Y-7534895D01*
G01X5215910Y-7166601D01*
G01X5205862Y-7158891D01*
G01X5194161Y-7154044D01*
G01X5181605Y-7152391D01*
G01X4862017Y-7152391D01*
G01X4860333Y-7151146D01*
G01X4858387Y-7149482D01*
G01X4852577Y-7143678D01*
G01X4846621Y-7136898D01*
G01X4844953Y-7134880D01*
G01X4834961Y-7122414D01*
G01X4851400Y-7122414D01*
G01X4863956Y-7120761D01*
G01X4875657Y-7115914D01*
G01X4885705Y-7108205D01*
G01X4936505Y-7057405D01*
G01X4944214Y-7047357D01*
G01X4949061Y-7035656D01*
G01X4950714Y-7023100D01*
G01X4950714Y-6845300D01*
G01X4949061Y-6832744D01*
G01X4944214Y-6821043D01*
G01X4936505Y-6810995D01*
G01X4863455Y-6737946D01*
G01X4863144Y-6735875D01*
G01X4862946Y-6733322D01*
G01X4862941Y-6725110D01*
G01X4863524Y-6716104D01*
G01X4863770Y-6713501D01*
G01X4865616Y-6692640D01*
G01X4863675Y-6671789D01*
G01X4858011Y-6651628D01*
G01X4848808Y-6632816D01*
G01X4836369Y-6615969D01*
G01X4821099Y-6601638D01*
G01X4803498Y-6590291D01*
G01X4784141Y-6582299D01*
G01X4763662Y-6577923D01*
G01X4742729Y-6577307D01*
G01X4722028Y-6580471D01*
G01X4702235Y-6587311D01*
G01X4683997Y-6597603D01*
G01X4667910Y-6611012D01*
G01X4654502Y-6627098D01*
G01X4644209Y-6645336D01*
G01X4637369Y-6665129D01*
G01X4634205Y-6685830D01*
G01X4634821Y-6706763D01*
G01X4639196Y-6727242D01*
G01X4647188Y-6746599D01*
G01X4658535Y-6764200D01*
G01X4672866Y-6779471D01*
G01X4689712Y-6791910D01*
G01X4708524Y-6801113D01*
G01X4728685Y-6806777D01*
G01X4749536Y-6808719D01*
G01X4770397Y-6806873D01*
G01X4773006Y-6806626D01*
G01X4782012Y-6806043D01*
G01X4790224Y-6806048D01*
G01X4792777Y-6806246D01*
G01X4794848Y-6806557D01*
G01X4853686Y-6865395D01*
G01X4853686Y-6895709D01*
G01X4843316Y-6878582D01*
G01X4830152Y-6863497D01*
G01X4814586Y-6850905D01*
G01X4797084Y-6841182D01*
G01X4778169Y-6834619D01*
G01X4758406Y-6831411D01*
G01X4738386Y-6831655D01*
G01X4718708Y-6835344D01*
G01X4699958Y-6842366D01*
G01X4682699Y-6852513D01*
G01X4667444Y-6865481D01*
G01X4654651Y-6880882D01*
G01X4652988Y-6882893D01*
G01X4647032Y-6889673D01*
G01X4641222Y-6895477D01*
G01X4639277Y-6897141D01*
G01X4637592Y-6898386D01*
G01X4414749Y-6898386D01*
G01X3947134Y-6430771D01*
G01X4634275Y-6430771D01*
G01X4634650Y-6451160D01*
G01X4638594Y-6471168D01*
G01X4645987Y-6490174D01*
G01X4656598Y-6507589D01*
G01X4670098Y-6522873D01*
G01X4686069Y-6535553D01*
G01X4704017Y-6545236D01*
G01X4723385Y-6551621D01*
G01X4743572Y-6554511D01*
G01X4763953Y-6553816D01*
G01X4783896Y-6549557D01*
G01X4802784Y-6541867D01*
G01X4820030Y-6530984D01*
G01X4835100Y-6517245D01*
G01X4843780Y-6506589D01*
G01X4843780Y-6506589D01*
G01X4846875Y-6502562D01*
G01X4852749Y-6495053D01*
G01X4858630Y-6488103D01*
G01X4864474Y-6482101D01*
G01X4866454Y-6480366D01*
G01X4868175Y-6479065D01*
G01X5843573Y-6479065D01*
G01X5847556Y-6482223D01*
G01X5852797Y-6487432D01*
G01X5858634Y-6494047D01*
G01X5860415Y-6496190D01*
G01X5868845Y-6506842D01*
G01X5878476Y-6516421D01*
G01X5894731Y-6528386D01*
G01X5912834Y-6537314D01*
G01X5932222Y-6542926D01*
G01X5952294Y-6545050D01*
G01X5972428Y-6543619D01*
G01X5991998Y-6538677D01*
G01X6010397Y-6530378D01*
G01X6027054Y-6518979D01*
G01X6041453Y-6504835D01*
G01X6053147Y-6488383D01*
G01X6061773Y-6470134D01*
G01X6067063Y-6450656D01*
G01X6068852Y-6430551D01*
G01X6067063Y-6410446D01*
G01X6061773Y-6390968D01*
G01X6053147Y-6372719D01*
G01X6041453Y-6356267D01*
G01X6027054Y-6342123D01*
G01X6010397Y-6330724D01*
G01X5991998Y-6322425D01*
G01X5972428Y-6317483D01*
G01X5952294Y-6316052D01*
G01X5932222Y-6318176D01*
G01X5912834Y-6323788D01*
G01X5894731Y-6332716D01*
G01X5878476Y-6344681D01*
G01X5868846Y-6354259D01*
G01X5860416Y-6364910D01*
G01X5858634Y-6367055D01*
G01X5852797Y-6373670D01*
G01X5847556Y-6378879D01*
G01X5843573Y-6382037D01*
G01X4855379Y-6382037D01*
G01X4850946Y-6378779D01*
G01X4845748Y-6373827D01*
G01X4845165Y-6373187D01*
G01X4832162Y-6357482D01*
G01X4816607Y-6344301D01*
G01X4798981Y-6334051D01*
G01X4779831Y-6327052D01*
G01X4759751Y-6323519D01*
G01X4739362Y-6323563D01*
G01X4719296Y-6327181D01*
G01X4700176Y-6334262D01*
G01X4682595Y-6344587D01*
G01X4667096Y-6357835D01*
G01X4654160Y-6373595D01*
G01X4644189Y-6391380D01*
G01X4637492Y-6410637D01*
G01X4634275Y-6430771D01*
G01X3947134Y-6430771D01*
G01X3749782Y-6233419D01*
G01X4637588Y-6233419D01*
G01X4639273Y-6234664D01*
G01X4641218Y-6236329D01*
G01X4647028Y-6242132D01*
G01X4652984Y-6248913D01*
G01X4654652Y-6250930D01*
G01X4668098Y-6266986D01*
G01X4684215Y-6280357D01*
G01X4702476Y-6290608D01*
G01X4722285Y-6297402D01*
G01X4742994Y-6300519D01*
G01X4763925Y-6299855D01*
G01X4784394Y-6295432D01*
G01X4803732Y-6287396D01*
G01X4821308Y-6276009D01*
G01X4836545Y-6261643D01*
G01X4848946Y-6244767D01*
G01X4858105Y-6225935D01*
G01X4863723Y-6205761D01*
G01X4865616Y-6184905D01*
G01X4864858Y-6176551D01*
G01X5839998Y-6176551D01*
G01X5841945Y-6197554D01*
G01X5847717Y-6217841D01*
G01X5857119Y-6236722D01*
G01X5869830Y-6253554D01*
G01X5885417Y-6267764D01*
G01X5903351Y-6278868D01*
G01X5923019Y-6286488D01*
G01X5943752Y-6290363D01*
G01X5964845Y-6290363D01*
G01X5985578Y-6286488D01*
G01X6005246Y-6278868D01*
G01X6023180Y-6267764D01*
G01X6038767Y-6253554D01*
G01X6051478Y-6236722D01*
G01X6060880Y-6217841D01*
G01X6066652Y-6197554D01*
G01X6068598Y-6176551D01*
G01X6068598Y-6176551D01*
G01X6066652Y-6155548D01*
G01X6060880Y-6135261D01*
G01X6051478Y-6116380D01*
G01X6038767Y-6099548D01*
G01X6023180Y-6085338D01*
G01X6005246Y-6074234D01*
G01X5985578Y-6066614D01*
G01X5964845Y-6062739D01*
G01X5943752Y-6062739D01*
G01X5923019Y-6066614D01*
G01X5903351Y-6074234D01*
G01X5885417Y-6085338D01*
G01X5869830Y-6099548D01*
G01X5857119Y-6116380D01*
G01X5847717Y-6135261D01*
G01X5841945Y-6155548D01*
G01X5839998Y-6176551D01*
G01X4864858Y-6176551D01*
G01X4863723Y-6164049D01*
G01X4858105Y-6143875D01*
G01X4848946Y-6125043D01*
G01X4836545Y-6108168D01*
G01X4821308Y-6093801D01*
G01X4803732Y-6082414D01*
G01X4784394Y-6074378D01*
G01X4763925Y-6069955D01*
G01X4742994Y-6069292D01*
G01X4722285Y-6072408D01*
G01X4702476Y-6079202D01*
G01X4684215Y-6089453D01*
G01X4668098Y-6102825D01*
G01X4654652Y-6118880D01*
G01X4652984Y-6120898D01*
G01X4647028Y-6127678D01*
G01X4641218Y-6133482D01*
G01X4639273Y-6135146D01*
G01X4637588Y-6136391D01*
G01X3703100Y-6136391D01*
G01X3452114Y-5885405D01*
G01X3452114Y-5819423D01*
G01X3610595Y-5977905D01*
G01X3620643Y-5985614D01*
G01X3632344Y-5990461D01*
G01X3644900Y-5992114D01*
G01X4648307Y-5992114D01*
G01X4652673Y-5995342D01*
G01X4655112Y-5997588D01*
G01X4664630Y-6009381D01*
G01X4675605Y-6019830D01*
G01X4687852Y-6028757D01*
G01X4706000Y-6038094D01*
G01X4725504Y-6044102D01*
G01X4745761Y-6046595D01*
G01X4766141Y-6045495D01*
G01X4786011Y-6040836D01*
G01X4804756Y-6032764D01*
G01X4821793Y-6021527D01*
G01X4836595Y-6007475D01*
G01X4848702Y-5991045D01*
G01X4857738Y-5972745D01*
G01X4863422Y-5953143D01*
G01X4865580Y-5932848D01*
G01X4864143Y-5912490D01*
G01X4859129Y-5892712D01*
G01X4850724Y-5874121D01*
G01X4839186Y-5857293D01*
G01X4825919Y-5843811D01*
G01X5839744Y-5843811D01*
G01X5839744Y-6001291D01*
G01X5841497Y-6012358D01*
G01X5846584Y-6022342D01*
G01X5854508Y-6030265D01*
G01X5864491Y-6035352D01*
G01X5875558Y-6037105D01*
G01X6033038Y-6037105D01*
G01X6044106Y-6035352D01*
G01X6054089Y-6030265D01*
G01X6062013Y-6022342D01*
G01X6067100Y-6012358D01*
G01X6068852Y-6001291D01*
G01X6068852Y-6001291D01*
G01X6068852Y-5843811D01*
G01X6067100Y-5832744D01*
G01X6062013Y-5822760D01*
G01X6054089Y-5814837D01*
G01X6044106Y-5809750D01*
G01X6033038Y-5807997D01*
G01X5875558Y-5807997D01*
G01X5864491Y-5809750D01*
G01X5854508Y-5814837D01*
G01X5846584Y-5822760D01*
G01X5841497Y-5832744D01*
G01X5839744Y-5843811D01*
G01X4825919Y-5843811D01*
G01X4824875Y-5842750D01*
G01X4808235Y-5830944D01*
G01X4789781Y-5822241D01*
G01X4770086Y-5816911D01*
G01X4749762Y-5815119D01*
G01X4729438Y-5816920D01*
G01X4709746Y-5822260D01*
G01X4691296Y-5830972D01*
G01X4674661Y-5842786D01*
G01X4660357Y-5857336D01*
G01X4654624Y-5864921D01*
G01X4649831Y-5871310D01*
G01X4644018Y-5878914D01*
G01X4638180Y-5885902D01*
G01X4632315Y-5891968D01*
G01X4630316Y-5893729D01*
G01X4628529Y-5895086D01*
G01X3664995Y-5895086D01*
G01X3487714Y-5717805D01*
G01X3487714Y-3299954D01*
G01X3486061Y-3287398D01*
G01X3481214Y-3275697D01*
G01X3473504Y-3265649D01*
G01X3457375Y-3249520D01*
G01X3457375Y-3208484D01*
G01X3494786Y-3245895D01*
G01X3494786Y-5613400D01*
G01X3496439Y-5625956D01*
G01X3501286Y-5637657D01*
G01X3508995Y-5647705D01*
G01X3648695Y-5787405D01*
G01X3658743Y-5795114D01*
G01X3670444Y-5799961D01*
G01X3683000Y-5801614D01*
G01X4673608Y-5801614D01*
G01X4684894Y-5800283D01*
G01X4695561Y-5796363D01*
G01X4705024Y-5790068D01*
G01X4706922Y-5789806D01*
G01X4709413Y-5789643D01*
G01X4717532Y-5789736D01*
G01X4726472Y-5790416D01*
G01X4727204Y-5790493D01*
G01X4742028Y-5792458D01*
G01X4756982Y-5792496D01*
G01X4777157Y-5789429D01*
G01X4796480Y-5782870D01*
G01X4814353Y-5773023D01*
G01X4830220Y-5760192D01*
G01X4843590Y-5744776D01*
G01X4854048Y-5727253D01*
G01X4861269Y-5708167D01*
G01X4865029Y-5688110D01*
G01X4865211Y-5667704D01*
G01X4861810Y-5647583D01*
G01X4854931Y-5628372D01*
G01X4844788Y-5610665D01*
G01X4831695Y-5595012D01*
G01X4816043Y-5581920D01*
G01X4798336Y-5571777D01*
G01X4779124Y-5564898D01*
G01X4759003Y-5561497D01*
G01X4738598Y-5561679D01*
G01X4718541Y-5565439D01*
G01X4699455Y-5572660D01*
G01X4681932Y-5583117D01*
G01X4666516Y-5596487D01*
G01X4653685Y-5612355D01*
G01X4643837Y-5630227D01*
G01X4637278Y-5649551D01*
G01X4634211Y-5669725D01*
G01X4634250Y-5684679D01*
G01X4636215Y-5699504D01*
G01X4636292Y-5700235D01*
G01X4636623Y-5704586D01*
G01X3703095Y-5704586D01*
G01X3591814Y-5593305D01*
G01X3591814Y-3292577D01*
G01X3609086Y-3309849D01*
G01X3609086Y-5181600D01*
G01X3610739Y-5194156D01*
G01X3615586Y-5205857D01*
G01X3623295Y-5215905D01*
G01X3902695Y-5495305D01*
G01X3912743Y-5503014D01*
G01X3924444Y-5507861D01*
G01X3937000Y-5509514D01*
G01X4672915Y-5509514D01*
G01X4688324Y-5521054D01*
G01X4705431Y-5529882D01*
G01X4723765Y-5535754D01*
G01X4743913Y-5538562D01*
G01X4764242Y-5537803D01*
G01X4784124Y-5533498D01*
G01X4802947Y-5525782D01*
G01X4820129Y-5514892D01*
G01X4835141Y-5501163D01*
G01X4847520Y-5485020D01*
G01X4856884Y-5466961D01*
G01X4862944Y-5447541D01*
G01X4865513Y-5427361D01*
G01X4864512Y-5407043D01*
G01X4859972Y-5387213D01*
G01X4852033Y-5368483D01*
G01X4840936Y-5351438D01*
G01X4827027Y-5336597D01*
G01X4810737Y-5324417D01*
G01X4792567Y-5315276D01*
G01X4773079Y-5309454D01*
G01X4752872Y-5307132D01*
G01X4732570Y-5308380D01*
G01X4712801Y-5313161D01*
G01X4694172Y-5321327D01*
G01X4677259Y-5332626D01*
G01X4662584Y-5346709D01*
G01X4650599Y-5363143D01*
G01X4641674Y-5381420D01*
G01X4640076Y-5384831D01*
G01X4636989Y-5389914D01*
G01X4632328Y-5396370D01*
G01X4626833Y-5402858D01*
G01X4620846Y-5408748D01*
G01X4618712Y-5410513D01*
G01X4616669Y-5411968D01*
G01X4615787Y-5412486D01*
G01X3957095Y-5412486D01*
G01X3706114Y-5161505D01*
G01X3706114Y-4981223D01*
G01X3928095Y-5203205D01*
G01X3938143Y-5210914D01*
G01X3949844Y-5215761D01*
G01X3962400Y-5217414D01*
G01X4637584Y-5217414D01*
G01X4639269Y-5218659D01*
G01X4641214Y-5220324D01*
G01X4647024Y-5226127D01*
G01X4652980Y-5232908D01*
G01X4654653Y-5234931D01*
G01X4668098Y-5250986D01*
G01X4684215Y-5264357D01*
G01X4702477Y-5274608D01*
G01X4722286Y-5281402D01*
G01X4742994Y-5284519D01*
G01X4763925Y-5283855D01*
G01X4784395Y-5279432D01*
G01X4803733Y-5271396D01*
G01X4821308Y-5260008D01*
G01X4836545Y-5245642D01*
G01X4848946Y-5228767D01*
G01X4858105Y-5209934D01*
G01X4863723Y-5189760D01*
G01X4865616Y-5168904D01*
G01X4863723Y-5148048D01*
G01X4858104Y-5127874D01*
G01X4848945Y-5109041D01*
G01X4836544Y-5092166D01*
G01X4821306Y-5077800D01*
G01X4803731Y-5066413D01*
G01X4784393Y-5058377D01*
G01X4763923Y-5053955D01*
G01X4742992Y-5053292D01*
G01X4722283Y-5056408D01*
G01X4702474Y-5063203D01*
G01X4684213Y-5073454D01*
G01X4668096Y-5086826D01*
G01X4654651Y-5102882D01*
G01X4652988Y-5104893D01*
G01X4647032Y-5111673D01*
G01X4641222Y-5117477D01*
G01X4639277Y-5119141D01*
G01X4637592Y-5120386D01*
G01X3982495Y-5120386D01*
G01X3756914Y-4894805D01*
G01X3756914Y-4765323D01*
G01X3953495Y-4961905D01*
G01X3963543Y-4969614D01*
G01X3975244Y-4974461D01*
G01X3987800Y-4976114D01*
G01X4648307Y-4976114D01*
G01X4652673Y-4979342D01*
G01X4655112Y-4981588D01*
G01X4664630Y-4993381D01*
G01X4675605Y-5003830D01*
G01X4687852Y-5012757D01*
G01X4706000Y-5022094D01*
G01X4725504Y-5028102D01*
G01X4745761Y-5030595D01*
G01X4766141Y-5029495D01*
G01X4786011Y-5024836D01*
G01X4804756Y-5016764D01*
G01X4821793Y-5005527D01*
G01X4836595Y-4991475D01*
G01X4848702Y-4975045D01*
G01X4857738Y-4956745D01*
G01X4863422Y-4937143D01*
G01X4865580Y-4916848D01*
G01X4864143Y-4896490D01*
G01X4859129Y-4876712D01*
G01X4850724Y-4858121D01*
G01X4839186Y-4841293D01*
G01X4824875Y-4826750D01*
G01X4808235Y-4814944D01*
G01X4789781Y-4806241D01*
G01X4770086Y-4800911D01*
G01X4749762Y-4799119D01*
G01X4729438Y-4800920D01*
G01X4709746Y-4806260D01*
G01X4691296Y-4814972D01*
G01X4674661Y-4826786D01*
G01X4660357Y-4841336D01*
G01X4654624Y-4848921D01*
G01X4649831Y-4855310D01*
G01X4644018Y-4862914D01*
G01X4638180Y-4869902D01*
G01X4632315Y-4875968D01*
G01X4630316Y-4877729D01*
G01X4628529Y-4879086D01*
G01X4007895Y-4879086D01*
G01X3792514Y-4663705D01*
G01X3792514Y-4659002D01*
G01X4634004Y-4659002D01*
G01X4635538Y-4679783D01*
G01X4640769Y-4699952D01*
G01X4649531Y-4718857D01*
G01X4661538Y-4735886D01*
G01X4676402Y-4750489D01*
G01X4693642Y-4762191D01*
G01X4712700Y-4770615D01*
G01X4732959Y-4775488D01*
G01X4753763Y-4776651D01*
G01X4774439Y-4774068D01*
G01X4794318Y-4767822D01*
G01X4812755Y-4758115D01*
G01X4829155Y-4745262D01*
G01X4842986Y-4729678D01*
G01X4846273Y-4727375D01*
G01X6128839Y-4727375D01*
G01X6141396Y-4725722D01*
G01X6153096Y-4720875D01*
G01X6163144Y-4713165D01*
G01X6163144Y-4713165D01*
G01X6181105Y-4695205D01*
G01X6188814Y-4685157D01*
G01X6193661Y-4673456D01*
G01X6195314Y-4660900D01*
G01X6195314Y-4229100D01*
G01X6193661Y-4216544D01*
G01X6188814Y-4204843D01*
G01X6181105Y-4194795D01*
G01X6143005Y-4156695D01*
G01X6132957Y-4148986D01*
G01X6121256Y-4144139D01*
G01X6108700Y-4142486D01*
G01X6075059Y-4142486D01*
G01X6074565Y-4142181D01*
G01X6072610Y-4140709D01*
G01X6070408Y-4138789D01*
G01X6064106Y-4132380D01*
G01X6057684Y-4124943D01*
G01X6056451Y-4123429D01*
G01X6047093Y-4111297D01*
G01X6036274Y-4100446D01*
G01X6019131Y-4087826D01*
G01X6000039Y-4078411D01*
G01X5979592Y-4072491D01*
G01X5958423Y-4070251D01*
G01X5937189Y-4071760D01*
G01X5916549Y-4076971D01*
G01X5897144Y-4085722D01*
G01X5879576Y-4097743D01*
G01X5864389Y-4112659D01*
G01X5852055Y-4130009D01*
G01X5842957Y-4149254D01*
G01X5837376Y-4169797D01*
G01X5835486Y-4191000D01*
G01X5837376Y-4212203D01*
G01X5842957Y-4232746D01*
G01X5852055Y-4251991D01*
G01X5864389Y-4269341D01*
G01X5879576Y-4284257D01*
G01X5897144Y-4296278D01*
G01X5916549Y-4305029D01*
G01X5937189Y-4310240D01*
G01X5958423Y-4311749D01*
G01X5979592Y-4309509D01*
G01X6000039Y-4303589D01*
G01X6019131Y-4294174D01*
G01X6036274Y-4281554D01*
G01X6047093Y-4270703D01*
G01X6056451Y-4258571D01*
G01X6057684Y-4257057D01*
G01X6064106Y-4249620D01*
G01X6070408Y-4243211D01*
G01X6072610Y-4241291D01*
G01X6074565Y-4239819D01*
G01X6075059Y-4239514D01*
G01X6088605Y-4239514D01*
G01X6098286Y-4249195D01*
G01X6098286Y-4630347D01*
G01X4874232Y-4630286D01*
G01X4872407Y-4628900D01*
G01X4870383Y-4627117D01*
G01X4864492Y-4621009D01*
G01X4858711Y-4614021D01*
G01X4853197Y-4606643D01*
G01X4845195Y-4595231D01*
G01X4831884Y-4579201D01*
G01X4815915Y-4565816D01*
G01X4797806Y-4555508D01*
G01X4778144Y-4548612D01*
G01X4757564Y-4545352D01*
G01X4736733Y-4545831D01*
G01X4716324Y-4550036D01*
G01X4697000Y-4557829D01*
G01X4679385Y-4568958D01*
G01X4664049Y-4583065D01*
G01X4651489Y-4599690D01*
G01X4642111Y-4618297D01*
G01X4636219Y-4638284D01*
G01X4634004Y-4659002D01*
G01X3792514Y-4659002D01*
G01X3792514Y-4411361D01*
G01X4634092Y-4411361D01*
G01X4636661Y-4431541D01*
G01X4642721Y-4450961D01*
G01X4652085Y-4469020D01*
G01X4664464Y-4485163D01*
G01X4679476Y-4498892D01*
G01X4696658Y-4509782D01*
G01X4715481Y-4517498D01*
G01X4735363Y-4521803D01*
G01X4755692Y-4522562D01*
G01X4775840Y-4519754D01*
G01X4794174Y-4513882D01*
G01X4811281Y-4505054D01*
G01X4826690Y-4493514D01*
G01X5837541Y-4493514D01*
G01X5838035Y-4493819D01*
G01X5838035Y-4493819D01*
G01X5839990Y-4495291D01*
G01X5842192Y-4497211D01*
G01X5848494Y-4503620D01*
G01X5854916Y-4511057D01*
G01X5856149Y-4512571D01*
G01X5865507Y-4524703D01*
G01X5876326Y-4535554D01*
G01X5893469Y-4548174D01*
G01X5912561Y-4557589D01*
G01X5933008Y-4563509D01*
G01X5954177Y-4565749D01*
G01X5975411Y-4564240D01*
G01X5996051Y-4559029D01*
G01X6015456Y-4550278D01*
G01X6033024Y-4538257D01*
G01X6048211Y-4523341D01*
G01X6060545Y-4505991D01*
G01X6069643Y-4486746D01*
G01X6075224Y-4466203D01*
G01X6077114Y-4445000D01*
G01X6075224Y-4423797D01*
G01X6069643Y-4403254D01*
G01X6060545Y-4384009D01*
G01X6048211Y-4366659D01*
G01X6033024Y-4351743D01*
G01X6015456Y-4339722D01*
G01X5996051Y-4330971D01*
G01X5975411Y-4325760D01*
G01X5954177Y-4324251D01*
G01X5933008Y-4326491D01*
G01X5912561Y-4332411D01*
G01X5893469Y-4341826D01*
G01X5876326Y-4354446D01*
G01X5865507Y-4365297D01*
G01X5856149Y-4377429D01*
G01X5854916Y-4378943D01*
G01X5848494Y-4386380D01*
G01X5842192Y-4392789D01*
G01X5839990Y-4394709D01*
G01X5838035Y-4396181D01*
G01X5837541Y-4396486D01*
G01X4883819Y-4396486D01*
G01X4882936Y-4395968D01*
G01X4880893Y-4394513D01*
G01X4878759Y-4392748D01*
G01X4872772Y-4386858D01*
G01X4867277Y-4380370D01*
G01X4862616Y-4373914D01*
G01X4859529Y-4368831D01*
G01X4857931Y-4365420D01*
G01X4849006Y-4347143D01*
G01X4837021Y-4330709D01*
G01X4822346Y-4316626D01*
G01X4805433Y-4305327D01*
G01X4786804Y-4297161D01*
G01X4767035Y-4292380D01*
G01X4746733Y-4291132D01*
G01X4726526Y-4293454D01*
G01X4707038Y-4299276D01*
G01X4688868Y-4308417D01*
G01X4672578Y-4320597D01*
G01X4658669Y-4335438D01*
G01X4647572Y-4352483D01*
G01X4639633Y-4371213D01*
G01X4635093Y-4391043D01*
G01X4634092Y-4411361D01*
G01X3792514Y-4411361D01*
G01X3792514Y-4152905D01*
G01X4633989Y-4152905D01*
G01X4635961Y-4174186D01*
G01X4641809Y-4194742D01*
G01X4651336Y-4213873D01*
G01X4664215Y-4230928D01*
G01X4680009Y-4245327D01*
G01X4698180Y-4256577D01*
G01X4718109Y-4264298D01*
G01X4739117Y-4268225D01*
G01X4760488Y-4268225D01*
G01X4781497Y-4264298D01*
G01X4801425Y-4256577D01*
G01X4819596Y-4245327D01*
G01X4835390Y-4230928D01*
G01X4848269Y-4213873D01*
G01X4857796Y-4194742D01*
G01X4863644Y-4174186D01*
G01X4865616Y-4152905D01*
G01X4865616Y-4152905D01*
G01X4863644Y-4131624D01*
G01X4857796Y-4111068D01*
G01X4848269Y-4091937D01*
G01X4835390Y-4074882D01*
G01X4819596Y-4060484D01*
G01X4801425Y-4049233D01*
G01X4781497Y-4041512D01*
G01X4760488Y-4037585D01*
G01X4739117Y-4037585D01*
G01X4718109Y-4041512D01*
G01X4698180Y-4049233D01*
G01X4680009Y-4060484D01*
G01X4664215Y-4074882D01*
G01X4651336Y-4091937D01*
G01X4641809Y-4111068D01*
G01X4635961Y-4131624D01*
G01X4633989Y-4152905D01*
G01X3792514Y-4152905D01*
G01X3792514Y-3898905D01*
G01X4633989Y-3898905D01*
G01X4635961Y-3920186D01*
G01X4641809Y-3940742D01*
G01X4651336Y-3959873D01*
G01X4664215Y-3976928D01*
G01X4680009Y-3991327D01*
G01X4698180Y-4002577D01*
G01X4718109Y-4010298D01*
G01X4739117Y-4014225D01*
G01X4760488Y-4014225D01*
G01X4781497Y-4010298D01*
G01X4801425Y-4002577D01*
G01X4819596Y-3991327D01*
G01X4835390Y-3976928D01*
G01X4848269Y-3959873D01*
G01X4857796Y-3940742D01*
G01X4858860Y-3937000D01*
G01X5835740Y-3937000D01*
G01X5837572Y-3957935D01*
G01X5843011Y-3978234D01*
G01X5851892Y-3997280D01*
G01X5863946Y-4014494D01*
G01X5878806Y-4029354D01*
G01X5896020Y-4041408D01*
G01X5915066Y-4050289D01*
G01X5935365Y-4055728D01*
G01X5956300Y-4057560D01*
G01X5977235Y-4055728D01*
G01X5997534Y-4050289D01*
G01X6016580Y-4041408D01*
G01X6033794Y-4029354D01*
G01X6048654Y-4014494D01*
G01X6060708Y-3997280D01*
G01X6069589Y-3978234D01*
G01X6075028Y-3957935D01*
G01X6076860Y-3937000D01*
G01X6076860Y-3937000D01*
G01X6075028Y-3916065D01*
G01X6069589Y-3895766D01*
G01X6060708Y-3876720D01*
G01X6048654Y-3859506D01*
G01X6033794Y-3844646D01*
G01X6016580Y-3832592D01*
G01X5997534Y-3823711D01*
G01X5977235Y-3818272D01*
G01X5956300Y-3816440D01*
G01X5935365Y-3818272D01*
G01X5915066Y-3823711D01*
G01X5896020Y-3832592D01*
G01X5878806Y-3844646D01*
G01X5863946Y-3859506D01*
G01X5851892Y-3876720D01*
G01X5843011Y-3895766D01*
G01X5837572Y-3916065D01*
G01X5835740Y-3937000D01*
G01X4858860Y-3937000D01*
G01X4863644Y-3920186D01*
G01X4865616Y-3898905D01*
G01X4865616Y-3898905D01*
G01X4863644Y-3877624D01*
G01X4857796Y-3857068D01*
G01X4848269Y-3837937D01*
G01X4835390Y-3820882D01*
G01X4819596Y-3806484D01*
G01X4801425Y-3795233D01*
G01X4781497Y-3787512D01*
G01X4760488Y-3783585D01*
G01X4739117Y-3783585D01*
G01X4718109Y-3787512D01*
G01X4698180Y-3795233D01*
G01X4680009Y-3806484D01*
G01X4664215Y-3820882D01*
G01X4651336Y-3837937D01*
G01X4641809Y-3857068D01*
G01X4635961Y-3877624D01*
G01X4633989Y-3898905D01*
G01X3792514Y-3898905D01*
G01X3792514Y-3693891D01*
G01X3806045Y-3700746D01*
G01X3820780Y-3704346D01*
G01X3835948Y-3704504D01*
G01X3850754Y-3701212D01*
G01X3864425Y-3694640D01*
G01X3876246Y-3685135D01*
G01X3885597Y-3673191D01*
G01X3891989Y-3659436D01*
G01X3895022Y-3644905D01*
G01X4634243Y-3644905D01*
G01X4636210Y-3666139D01*
G01X4642046Y-3686650D01*
G01X4651552Y-3705739D01*
G01X4664403Y-3722757D01*
G01X4680162Y-3737124D01*
G01X4698293Y-3748350D01*
G01X4718178Y-3756053D01*
G01X4739140Y-3759972D01*
G01X4760465Y-3759972D01*
G01X4781427Y-3756053D01*
G01X4801312Y-3748350D01*
G01X4819443Y-3737124D01*
G01X4835202Y-3722757D01*
G01X4848053Y-3705739D01*
G01X4857559Y-3686650D01*
G01X4863395Y-3666139D01*
G01X4865362Y-3644905D01*
G01X4865362Y-3644905D01*
G01X4863395Y-3623671D01*
G01X4857559Y-3603160D01*
G01X4854990Y-3598000D01*
G01X5835486Y-3598000D01*
G01X5835486Y-3768000D01*
G01X5837239Y-3779067D01*
G01X5842326Y-3789051D01*
G01X5850249Y-3796974D01*
G01X5860233Y-3802061D01*
G01X5871300Y-3803814D01*
G01X6041300Y-3803814D01*
G01X6052367Y-3802061D01*
G01X6062351Y-3796974D01*
G01X6070274Y-3789051D01*
G01X6075361Y-3779067D01*
G01X6077114Y-3768000D01*
G01X6077114Y-3768000D01*
G01X6077114Y-3598000D01*
G01X6075361Y-3586933D01*
G01X6070274Y-3576949D01*
G01X6062351Y-3569026D01*
G01X6052367Y-3563939D01*
G01X6041300Y-3562186D01*
G01X5871300Y-3562186D01*
G01X5860233Y-3563939D01*
G01X5850249Y-3569026D01*
G01X5842326Y-3576949D01*
G01X5837239Y-3586933D01*
G01X5835486Y-3598000D01*
G01X4854990Y-3598000D01*
G01X4848053Y-3584071D01*
G01X4835202Y-3567053D01*
G01X4819443Y-3552686D01*
G01X4801312Y-3541460D01*
G01X4781427Y-3533757D01*
G01X4760465Y-3529838D01*
G01X4739140Y-3529838D01*
G01X4718178Y-3533757D01*
G01X4698293Y-3541460D01*
G01X4680162Y-3552686D01*
G01X4664403Y-3567053D01*
G01X4651552Y-3584071D01*
G01X4642046Y-3603160D01*
G01X4636210Y-3623671D01*
G01X4634243Y-3644905D01*
G01X3895022Y-3644905D01*
G01X3895089Y-3644587D01*
G01X3895492Y-3641941D01*
G01X3895991Y-3640218D01*
G01X4047505Y-3488705D01*
G01X4055214Y-3478657D01*
G01X4060061Y-3466956D01*
G01X4061714Y-3454400D01*
G01X4061714Y-3390905D01*
G01X4634243Y-3390905D01*
G01X4636210Y-3412139D01*
G01X4642046Y-3432650D01*
G01X4651552Y-3451739D01*
G01X4664403Y-3468757D01*
G01X4680162Y-3483124D01*
G01X4698293Y-3494350D01*
G01X4718178Y-3502053D01*
G01X4739140Y-3505972D01*
G01X4760465Y-3505972D01*
G01X4781427Y-3502053D01*
G01X4801312Y-3494350D01*
G01X4819443Y-3483124D01*
G01X4835202Y-3468757D01*
G01X4848053Y-3451739D01*
G01X4857559Y-3432650D01*
G01X4863395Y-3412139D01*
G01X4865362Y-3390905D01*
G01X4865362Y-3390905D01*
G01X4863395Y-3369671D01*
G01X4857559Y-3349160D01*
G01X4848053Y-3330071D01*
G01X4835202Y-3313053D01*
G01X4819443Y-3298686D01*
G01X4801312Y-3287460D01*
G01X4781427Y-3279757D01*
G01X4760465Y-3275838D01*
G01X4739140Y-3275838D01*
G01X4718178Y-3279757D01*
G01X4698293Y-3287460D01*
G01X4680162Y-3298686D01*
G01X4664403Y-3313053D01*
G01X4651552Y-3330071D01*
G01X4642046Y-3349160D01*
G01X4636210Y-3369671D01*
G01X4634243Y-3390905D01*
G01X4061714Y-3390905D01*
G01X4061714Y-906159D01*
G01X4062019Y-905665D01*
G01X4063491Y-903710D01*
G01X4065411Y-901508D01*
G01X4071820Y-895206D01*
G01X4079257Y-888784D01*
G01X4080771Y-887551D01*
G01X4092903Y-878193D01*
G01X4103754Y-867374D01*
G01X4116374Y-850231D01*
G01X4125789Y-831139D01*
G01X4131709Y-810692D01*
G01X4133949Y-789523D01*
G01X4132440Y-768289D01*
G01X4127229Y-747649D01*
G01X4118478Y-728244D01*
G01X4106457Y-710676D01*
G01X4091541Y-695489D01*
G01X4074191Y-683155D01*
G01X4054946Y-674057D01*
G01X4034403Y-668476D01*
G01X4013200Y-666586D01*
G01X3991997Y-668476D01*
G01X3971454Y-674057D01*
G01X3952209Y-683155D01*
G01X3934859Y-695489D01*
G01X3919943Y-710676D01*
G01X3907922Y-728244D01*
G01X3899171Y-747649D01*
G01X3893960Y-768289D01*
G01X3892451Y-789523D01*
G01X3894691Y-810692D01*
G01X3900611Y-831139D01*
G01X3910026Y-850231D01*
G01X3922646Y-867374D01*
G01X3933497Y-878193D01*
G01X3945629Y-887551D01*
G01X3947143Y-888784D01*
G01X3954580Y-895206D01*
G01X3960989Y-901508D01*
G01X3962909Y-903710D01*
G01X3964381Y-905665D01*
G01X3964686Y-906159D01*
G01X3964686Y-3434305D01*
G01X3827382Y-3571609D01*
G01X3825659Y-3572108D01*
G01X3823013Y-3572511D01*
G01X3807102Y-3575973D01*
G01X3792514Y-3583209D01*
G01X3792514Y-3275008D01*
G01X3791847Y-3266993D01*
G01X3789865Y-3259198D01*
G01X3802111Y-3250959D01*
G01X3812232Y-3240215D01*
G01X3819725Y-3227498D01*
G01X3824219Y-3213439D01*
G01X3825493Y-3198735D01*
G01X3823483Y-3184112D01*
G01X3818288Y-3170297D01*
G01X3810166Y-3157973D01*
G01X3808580Y-3155817D01*
G01X3807714Y-3154244D01*
G01X3807714Y-906159D01*
G01X3808019Y-905665D01*
G01X3809491Y-903710D01*
G01X3811411Y-901508D01*
G01X3817820Y-895206D01*
G01X3825257Y-888784D01*
G01X3826771Y-887551D01*
G01X3838903Y-878193D01*
G01X3849754Y-867374D01*
G01X3862374Y-850231D01*
G01X3871789Y-831139D01*
G01X3877709Y-810692D01*
G01X3879949Y-789523D01*
G01X3878440Y-768289D01*
G01X3873229Y-747649D01*
G01X3864478Y-728244D01*
G01X3852457Y-710676D01*
G01X3837541Y-695489D01*
G01X3820191Y-683155D01*
G01X3800946Y-674057D01*
G01X3780403Y-668476D01*
G01X3759200Y-666586D01*
G01X3737997Y-668476D01*
G01X3717454Y-674057D01*
G01X3698209Y-683155D01*
G01X3680859Y-695489D01*
G01X3665943Y-710676D01*
G01X3653922Y-728244D01*
G01X3645171Y-747649D01*
G01X3639960Y-768289D01*
G01X3638451Y-789523D01*
G01X3640691Y-810692D01*
G01X3646611Y-831139D01*
G01X3656026Y-850231D01*
G01X3668646Y-867374D01*
G01X3679497Y-878193D01*
G01X3691629Y-887551D01*
G01X3693143Y-888784D01*
G01X3700580Y-895206D01*
G01X3706989Y-901508D01*
G01X3708909Y-903710D01*
G01X3710381Y-905665D01*
G01X3710686Y-906159D01*
G01X3710686Y-3154244D01*
G01X3709820Y-3155817D01*
G01X3708234Y-3157973D01*
G01X3702923Y-3165322D01*
G01X3522593Y-2984992D01*
G01X3536267Y-2979587D01*
G01X3548413Y-2971301D01*
G01X3558435Y-2960542D01*
G01X3565840Y-2947839D01*
G01X3570264Y-2933817D01*
G01X3571489Y-2919164D01*
G01X3569455Y-2904602D01*
G01X3564262Y-2890846D01*
G01X3556166Y-2878573D01*
G01X3554580Y-2876417D01*
G01X3553714Y-2874844D01*
G01X3553714Y-906159D01*
G01X3554019Y-905665D01*
G01X3555491Y-903710D01*
G01X3557411Y-901508D01*
G01X3563820Y-895206D01*
G01X3571257Y-888784D01*
G01X3572771Y-887551D01*
G01X3584903Y-878193D01*
G01X3595754Y-867374D01*
G01X3608374Y-850231D01*
G01X3617789Y-831139D01*
G01X3623709Y-810692D01*
G01X3625949Y-789523D01*
G01X3624440Y-768289D01*
G01X3619229Y-747649D01*
G01X3610478Y-728244D01*
G01X3598457Y-710676D01*
G01X3583541Y-695489D01*
G01X3566191Y-683155D01*
G01X3546946Y-674057D01*
G01X3526403Y-668476D01*
G01X3505200Y-666586D01*
G01X3483997Y-668476D01*
G01X3463454Y-674057D01*
G01X3444209Y-683155D01*
G01X3426859Y-695489D01*
G01X3411943Y-710676D01*
G01X3399922Y-728244D01*
G01X3391171Y-747649D01*
G01X3385960Y-768289D01*
G01X3384451Y-789523D01*
G01X3386691Y-810692D01*
G01X3392611Y-831139D01*
G01X3402026Y-850231D01*
G01X3414646Y-867374D01*
G01X3425497Y-878193D01*
G01X3437629Y-887551D01*
G01X3439143Y-888784D01*
G01X3446580Y-895206D01*
G01X3452989Y-901508D01*
G01X3454909Y-903710D01*
G01X3456381Y-905665D01*
G01X3456686Y-906159D01*
G01X3456686Y-2874844D01*
G01X3455820Y-2876417D01*
G01X3454234Y-2878573D01*
G01X3446374Y-2890389D01*
G01X3441208Y-2903607D01*
G01X3299714Y-2762113D01*
G01X3299714Y-906159D01*
G01X3300019Y-905665D01*
G01X3301491Y-903710D01*
G01X3303411Y-901508D01*
G01X3309820Y-895206D01*
G01X3317257Y-888784D01*
G01X3318771Y-887551D01*
G01X3330903Y-878193D01*
G01X3341754Y-867374D01*
G01X3354374Y-850231D01*
G01X3363789Y-831139D01*
G01X3369709Y-810692D01*
G01X3371949Y-789523D01*
G01X3370440Y-768289D01*
G01X3365229Y-747649D01*
G01X3356478Y-728244D01*
G01X3344457Y-710676D01*
G01X3329541Y-695489D01*
G01X3312191Y-683155D01*
G01X3292946Y-674057D01*
G01X3272403Y-668476D01*
G01X3251200Y-666586D01*
G01X3229997Y-668476D01*
G01X3209454Y-674057D01*
G01X3190209Y-683155D01*
G01X3172859Y-695489D01*
G01X3157943Y-710676D01*
G01X3145922Y-728244D01*
G01X3137171Y-747649D01*
G01X3131960Y-768289D01*
G01X3130451Y-789523D01*
G01X3132691Y-810692D01*
G01X3138611Y-831139D01*
G01X3148026Y-850231D01*
G01X3160646Y-867374D01*
G01X3171497Y-878193D01*
G01X3183629Y-887551D01*
G01X3185143Y-888784D01*
G01X3192580Y-895206D01*
G01X3198989Y-901508D01*
G01X3200909Y-903710D01*
G01X3202381Y-905665D01*
G01X3202686Y-906159D01*
G01X3202686Y-2715431D01*
G01X3045714Y-2558459D01*
G01X3045714Y-906159D01*
G01X3046019Y-905665D01*
G01X3047491Y-903710D01*
G01X3049411Y-901508D01*
G01X3055820Y-895206D01*
G01X3063257Y-888784D01*
G01X3064771Y-887551D01*
G01X3076903Y-878193D01*
G01X3087754Y-867374D01*
G01X3100374Y-850231D01*
G01X3109789Y-831139D01*
G01X3115709Y-810692D01*
G01X3117949Y-789523D01*
G01X3116440Y-768289D01*
G01X3111229Y-747649D01*
G01X3102478Y-728244D01*
G01X3090457Y-710676D01*
G01X3075541Y-695489D01*
G01X3058191Y-683155D01*
G01X3038946Y-674057D01*
G01X3018403Y-668476D01*
G01X2997200Y-666586D01*
G01X2975997Y-668476D01*
G01X2955454Y-674057D01*
G01X2936209Y-683155D01*
G01X2918859Y-695489D01*
G01X2903943Y-710676D01*
G01X2891922Y-728244D01*
G01X2883171Y-747649D01*
G01X2877960Y-768289D01*
G01X2876451Y-789523D01*
G01X2878691Y-810692D01*
G01X2884611Y-831139D01*
G01X2894026Y-850231D01*
G01X2906646Y-867374D01*
G01X2917497Y-878193D01*
G01X2929629Y-887551D01*
G01X2931143Y-888784D01*
G01X2938580Y-895206D01*
G01X2944989Y-901508D01*
G01X2946909Y-903710D01*
G01X2948381Y-905665D01*
G01X2948686Y-906159D01*
G01X2948686Y-1597377D01*
G01X2396505Y-1045195D01*
G01X2386457Y-1037486D01*
G01X2374756Y-1032639D01*
G01X2362200Y-1030986D01*
G01X1939200Y-1030986D01*
G01X1936914Y-1030763D01*
G01X1936914Y-994500D01*
G01X1935161Y-983433D01*
G01X1930074Y-973449D01*
G01X1922151Y-965526D01*
G01X1912167Y-960439D01*
G01X1901100Y-958686D01*
G01X1731100Y-958686D01*
G01X1720033Y-960439D01*
G01X1710049Y-965526D01*
G01X1702126Y-973449D01*
G01X1697039Y-983433D01*
G01X1695286Y-994500D01*
G01X1695286Y-1164500D01*
G01X1697039Y-1175567D01*
G01X1702126Y-1185551D01*
G01X1710049Y-1193474D01*
G01X1720033Y-1198561D01*
G01X1731100Y-1200314D01*
G01X1901100Y-1200314D01*
G01X1912167Y-1198561D01*
G01X1922151Y-1193474D01*
G01X1930074Y-1185551D01*
G01X1935161Y-1175567D01*
G01X1936914Y-1164500D01*
G01X1936914Y-1128237D01*
G01X1939200Y-1128014D01*
G01X2342105Y-1128014D01*
G01X2872486Y-1658395D01*
G01X2872486Y-1825977D01*
G01X2333005Y-1286495D01*
G01X2322957Y-1278786D01*
G01X2311256Y-1273939D01*
G01X2298700Y-1272286D01*
G01X1924170Y-1272286D01*
G01X1923431Y-1271858D01*
G01X1921516Y-1270509D01*
G01X1919354Y-1268748D01*
G01X1916036Y-1265612D01*
G01X1902424Y-1248977D01*
G01X1886081Y-1235018D01*
G01X1867522Y-1224176D01*
G01X1847336Y-1216794D01*
G01X1826161Y-1213106D01*
G01X1804668Y-1213228D01*
G01X1783536Y-1217157D01*
G01X1763435Y-1224769D01*
G01X1745002Y-1235822D01*
G01X1728818Y-1249967D01*
G01X1715397Y-1266755D01*
G01X1705163Y-1285656D01*
G01X1698441Y-1306071D01*
G01X1695443Y-1327355D01*
G01X1696272Y-1348835D01*
G01X1700894Y-1369829D01*
G01X1709163Y-1389671D01*
G01X1720818Y-1407734D01*
G01X1735489Y-1423446D01*
G01X1752712Y-1436310D01*
G01X1771941Y-1445918D01*
G01X1792569Y-1451966D01*
G01X1813943Y-1454264D01*
G01X1835385Y-1452737D01*
G01X1856217Y-1447435D01*
G01X1875780Y-1438526D01*
G01X1893455Y-1426291D01*
G01X1908682Y-1411117D01*
G01X1915895Y-1401596D01*
G01X1920148Y-1395932D01*
G01X1926446Y-1387606D01*
G01X1932763Y-1379935D01*
G01X1939128Y-1373247D01*
G01X1941388Y-1371223D01*
G01X1943422Y-1369651D01*
G01X1943954Y-1369314D01*
G01X2278605Y-1369314D01*
G01X2808986Y-1899695D01*
G01X2808986Y-2156177D01*
G01X2218705Y-1565895D01*
G01X2208657Y-1558186D01*
G01X2196956Y-1553339D01*
G01X2184400Y-1551686D01*
G01X1943954Y-1551686D01*
G01X1943422Y-1551349D01*
G01X1941388Y-1549777D01*
G01X1939128Y-1547753D01*
G01X1932763Y-1541065D01*
G01X1926446Y-1533394D01*
G01X1920148Y-1525068D01*
G01X1915895Y-1519404D01*
G01X1908682Y-1509883D01*
G01X1893455Y-1494709D01*
G01X1875780Y-1482474D01*
G01X1856217Y-1473565D01*
G01X1835385Y-1468263D01*
G01X1813943Y-1466736D01*
G01X1792569Y-1469034D01*
G01X1771941Y-1475082D01*
G01X1752712Y-1484690D01*
G01X1735489Y-1497554D01*
G01X1720818Y-1513266D01*
G01X1709163Y-1531329D01*
G01X1700894Y-1551171D01*
G01X1696272Y-1572165D01*
G01X1695443Y-1593645D01*
G01X1698441Y-1614929D01*
G01X1705163Y-1635344D01*
G01X1715397Y-1654245D01*
G01X1728818Y-1671033D01*
G01X1745002Y-1685178D01*
G01X1763435Y-1696231D01*
G01X1783536Y-1703843D01*
G01X1804668Y-1707772D01*
G01X1826161Y-1707894D01*
G01X1847336Y-1704206D01*
G01X1867522Y-1696824D01*
G01X1886081Y-1685982D01*
G01X1902424Y-1672023D01*
G01X1916036Y-1655388D01*
G01X1919354Y-1652252D01*
G01X1921516Y-1650491D01*
G01X1923431Y-1649142D01*
G01X1924170Y-1648714D01*
G01X2164305Y-1648714D01*
G01X2745486Y-2229895D01*
G01X2745486Y-2403542D01*
G01X2734908Y-2399731D01*
G01X2723837Y-2397761D01*
G01X2721191Y-2397358D01*
G01X2719468Y-2396859D01*
G01X2129805Y-1807195D01*
G01X2119757Y-1799486D01*
G01X2108056Y-1794639D01*
G01X2095500Y-1792986D01*
G01X1934859Y-1792986D01*
G01X1934365Y-1792681D01*
G01X1932410Y-1791209D01*
G01X1930208Y-1789289D01*
G01X1923906Y-1782880D01*
G01X1917484Y-1775443D01*
G01X1916251Y-1773929D01*
G01X1906893Y-1761797D01*
G01X1896074Y-1750946D01*
G01X1878931Y-1738326D01*
G01X1859839Y-1728911D01*
G01X1839392Y-1722991D01*
G01X1818223Y-1720751D01*
G01X1796989Y-1722260D01*
G01X1776349Y-1727471D01*
G01X1756944Y-1736222D01*
G01X1739376Y-1748243D01*
G01X1724189Y-1763159D01*
G01X1711855Y-1780509D01*
G01X1702757Y-1799754D01*
G01X1697176Y-1820297D01*
G01X1695286Y-1841500D01*
G01X1697176Y-1862703D01*
G01X1702757Y-1883246D01*
G01X1711855Y-1902491D01*
G01X1724189Y-1919841D01*
G01X1739376Y-1934757D01*
G01X1756944Y-1946778D01*
G01X1776349Y-1955529D01*
G01X1796989Y-1960740D01*
G01X1818223Y-1962249D01*
G01X1839392Y-1960009D01*
G01X1859839Y-1954089D01*
G01X1878931Y-1944674D01*
G01X1896074Y-1932054D01*
G01X1906893Y-1921203D01*
G01X1916251Y-1909071D01*
G01X1917484Y-1907557D01*
G01X1923906Y-1900120D01*
G01X1930208Y-1893711D01*
G01X1932410Y-1891791D01*
G01X1934365Y-1890319D01*
G01X1934859Y-1890014D01*
G01X2075405Y-1890014D01*
G01X2650859Y-2465468D01*
G01X2651358Y-2467191D01*
G01X2651761Y-2469837D01*
G01X2655063Y-2485286D01*
G01X2661925Y-2499515D01*
G01X2671958Y-2511718D01*
G01X2684593Y-2521201D01*
G01X2699112Y-2527426D01*
G01X2714692Y-2530041D01*
G01X2730448Y-2528897D01*
G01X2745486Y-2524058D01*
G01X2745486Y-2582744D01*
G01X2744620Y-2584317D01*
G01X2743034Y-2586473D01*
G01X2734808Y-2599002D01*
G01X2729606Y-2613058D01*
G01X2727693Y-2627924D01*
G01X2729168Y-2642839D01*
G01X2733954Y-2657043D01*
G01X2741808Y-2669809D01*
G01X2752328Y-2680485D01*
G01X2764976Y-2688525D01*
G01X2779108Y-2693520D01*
G01X2794000Y-2695214D01*
G01X2808892Y-2693520D01*
G01X2823024Y-2688525D01*
G01X2835672Y-2680485D01*
G01X2846192Y-2669809D01*
G01X2854046Y-2657043D01*
G01X2858832Y-2642839D01*
G01X2860307Y-2627924D01*
G01X2858394Y-2613058D01*
G01X2853192Y-2599002D01*
G01X2844966Y-2586473D01*
G01X2843380Y-2584317D01*
G01X2842514Y-2582744D01*
G01X2842514Y-2528399D01*
G01X2856160Y-2530101D01*
G01X2869864Y-2528951D01*
G01X2883036Y-2525000D01*
G01X2895110Y-2518417D01*
G01X2905566Y-2509486D01*
G01X2913956Y-2498589D01*
G01X2919917Y-2486197D01*
G01X2923195Y-2472841D01*
G01X2923647Y-2459097D01*
G01X2921255Y-2445555D01*
G01X2916121Y-2432797D01*
G01X2908466Y-2421373D01*
G01X2906880Y-2419217D01*
G01X2906014Y-2417644D01*
G01X2906014Y-2299799D01*
G01X2920443Y-2301512D01*
G01X2934898Y-2300041D01*
G01X2948686Y-2295458D01*
G01X2948686Y-2578554D01*
G01X2950339Y-2591110D01*
G01X2955186Y-2602811D01*
G01X2962895Y-2612859D01*
G01X3136123Y-2786086D01*
G01X2105395Y-2786086D01*
G01X1115314Y-1796005D01*
G01X1115314Y-1756500D01*
G01X1352640Y-1756500D01*
G01X1352640Y-1926500D01*
G01X1354381Y-1937488D01*
G01X1359432Y-1947401D01*
G01X1367299Y-1955268D01*
G01X1377212Y-1960319D01*
G01X1388200Y-1962060D01*
G01X1558200Y-1962060D01*
G01X1558200Y-1962060D01*
G01X1569188Y-1960319D01*
G01X1579101Y-1955268D01*
G01X1586968Y-1947401D01*
G01X1592019Y-1937488D01*
G01X1593760Y-1926500D01*
G01X1593760Y-1756500D01*
G01X1592019Y-1745512D01*
G01X1586968Y-1735599D01*
G01X1579101Y-1727732D01*
G01X1569188Y-1722681D01*
G01X1558200Y-1720940D01*
G01X1388200Y-1720940D01*
G01X1377212Y-1722681D01*
G01X1367299Y-1727732D01*
G01X1359432Y-1735599D01*
G01X1354381Y-1745512D01*
G01X1352640Y-1756500D01*
G01X1115314Y-1756500D01*
G01X1115314Y-1587500D01*
G01X1352640Y-1587500D01*
G01X1354472Y-1608435D01*
G01X1359911Y-1628734D01*
G01X1368792Y-1647780D01*
G01X1380846Y-1664994D01*
G01X1395706Y-1679854D01*
G01X1412920Y-1691908D01*
G01X1431966Y-1700789D01*
G01X1452265Y-1706228D01*
G01X1473200Y-1708060D01*
G01X1494135Y-1706228D01*
G01X1514434Y-1700789D01*
G01X1533480Y-1691908D01*
G01X1550694Y-1679854D01*
G01X1565554Y-1664994D01*
G01X1577608Y-1647780D01*
G01X1586489Y-1628734D01*
G01X1591928Y-1608435D01*
G01X1593760Y-1587500D01*
G01X1593760Y-1587500D01*
G01X1591928Y-1566565D01*
G01X1586489Y-1546266D01*
G01X1577608Y-1527220D01*
G01X1565554Y-1510006D01*
G01X1550694Y-1495146D01*
G01X1533480Y-1483092D01*
G01X1514434Y-1474211D01*
G01X1494135Y-1468772D01*
G01X1473200Y-1466940D01*
G01X1452265Y-1468772D01*
G01X1431966Y-1474211D01*
G01X1412920Y-1483092D01*
G01X1395706Y-1495146D01*
G01X1380846Y-1510006D01*
G01X1368792Y-1527220D01*
G01X1359911Y-1546266D01*
G01X1354472Y-1566565D01*
G01X1352640Y-1587500D01*
G01X1115314Y-1587500D01*
G01X1115314Y-1333500D01*
G01X1352640Y-1333500D01*
G01X1354472Y-1354435D01*
G01X1359911Y-1374734D01*
G01X1368792Y-1393780D01*
G01X1380846Y-1410994D01*
G01X1395706Y-1425854D01*
G01X1412920Y-1437908D01*
G01X1431966Y-1446789D01*
G01X1452265Y-1452228D01*
G01X1473200Y-1454060D01*
G01X1494135Y-1452228D01*
G01X1514434Y-1446789D01*
G01X1533480Y-1437908D01*
G01X1550694Y-1425854D01*
G01X1565554Y-1410994D01*
G01X1577608Y-1393780D01*
G01X1586489Y-1374734D01*
G01X1591928Y-1354435D01*
G01X1593760Y-1333500D01*
G01X1593760Y-1333500D01*
G01X1591928Y-1312565D01*
G01X1586489Y-1292266D01*
G01X1577608Y-1273220D01*
G01X1565554Y-1256006D01*
G01X1550694Y-1241146D01*
G01X1533480Y-1229092D01*
G01X1514434Y-1220211D01*
G01X1494135Y-1214772D01*
G01X1473200Y-1212940D01*
G01X1452265Y-1214772D01*
G01X1431966Y-1220211D01*
G01X1412920Y-1229092D01*
G01X1395706Y-1241146D01*
G01X1380846Y-1256006D01*
G01X1368792Y-1273220D01*
G01X1359911Y-1292266D01*
G01X1354472Y-1312565D01*
G01X1352640Y-1333500D01*
G01X1115314Y-1333500D01*
G01X1115314Y-1079500D01*
G01X1352640Y-1079500D01*
G01X1354472Y-1100435D01*
G01X1359911Y-1120734D01*
G01X1368792Y-1139780D01*
G01X1380846Y-1156994D01*
G01X1395706Y-1171854D01*
G01X1412920Y-1183908D01*
G01X1431966Y-1192789D01*
G01X1452265Y-1198228D01*
G01X1473200Y-1200060D01*
G01X1494135Y-1198228D01*
G01X1514434Y-1192789D01*
G01X1533480Y-1183908D01*
G01X1550694Y-1171854D01*
G01X1565554Y-1156994D01*
G01X1577608Y-1139780D01*
G01X1586489Y-1120734D01*
G01X1591928Y-1100435D01*
G01X1593760Y-1079500D01*
G01X1593760Y-1079500D01*
G01X1591928Y-1058565D01*
G01X1586489Y-1038266D01*
G01X1577608Y-1019220D01*
G01X1565554Y-1002006D01*
G01X1550694Y-987146D01*
G01X1533480Y-975092D01*
G01X1514434Y-966211D01*
G01X1494135Y-960772D01*
G01X1473200Y-958940D01*
G01X1452265Y-960772D01*
G01X1431966Y-966211D01*
G01X1412920Y-975092D01*
G01X1395706Y-987146D01*
G01X1380846Y-1002006D01*
G01X1368792Y-1019220D01*
G01X1359911Y-1038266D01*
G01X1354472Y-1058565D01*
G01X1352640Y-1079500D01*
G01X1115314Y-1079500D01*
G01X1115314Y-1066800D01*
G01X1113661Y-1054244D01*
G01X1108814Y-1042543D01*
G01X1101105Y-1032495D01*
G01X708914Y-640305D01*
G01X708914Y-542201D01*
G01X728197Y-566102D01*
G01X750422Y-587296D01*
G01X775213Y-605421D01*
G01X802149Y-620171D01*
G01X830774Y-631295D01*
G01X860601Y-638605D01*
G01X891126Y-641977D01*
G01X921830Y-641353D01*
G01X952192Y-636745D01*
G01X981698Y-628230D01*
G01X1009848Y-615953D01*
G01X1036163Y-600121D01*
G01X1060198Y-581004D01*
G01X1081544Y-558926D01*
G01X1085048Y-554202D01*
G01X1365668Y-554202D01*
G01X1365668Y-724202D01*
G01X1367421Y-735269D01*
G01X1372508Y-745253D01*
G01X1380431Y-753176D01*
G01X1390415Y-758263D01*
G01X1401482Y-760016D01*
G01X1571481Y-760016D01*
G01X1582549Y-758263D01*
G01X1592532Y-753176D01*
G01X1600456Y-745253D01*
G01X1605543Y-735269D01*
G01X1607295Y-724202D01*
G01X1607295Y-554202D01*
G01X1606630Y-550000D01*
G01X1809586Y-550000D01*
G01X1809586Y-720000D01*
G01X1811339Y-731067D01*
G01X1816426Y-741051D01*
G01X1824349Y-748974D01*
G01X1834333Y-754061D01*
G01X1845400Y-755814D01*
G01X2015400Y-755814D01*
G01X2026467Y-754061D01*
G01X2036451Y-748974D01*
G01X2044374Y-741051D01*
G01X2049461Y-731067D01*
G01X2051214Y-720000D01*
G01X2051214Y-702400D01*
G01X2374646Y-702400D01*
G01X2374646Y-872400D01*
G01X2376399Y-883467D01*
G01X2381486Y-893451D01*
G01X2389409Y-901374D01*
G01X2399393Y-906461D01*
G01X2410460Y-908214D01*
G01X2567940Y-908214D01*
G01X2579007Y-906461D01*
G01X2588991Y-901374D01*
G01X2596914Y-893451D01*
G01X2602001Y-883467D01*
G01X2603754Y-872400D01*
G01X2603754Y-787400D01*
G01X2622640Y-787400D01*
G01X2624472Y-808335D01*
G01X2629911Y-828634D01*
G01X2638792Y-847680D01*
G01X2650846Y-864894D01*
G01X2665706Y-879754D01*
G01X2682920Y-891808D01*
G01X2701966Y-900689D01*
G01X2722265Y-906128D01*
G01X2743200Y-907960D01*
G01X2764135Y-906128D01*
G01X2784434Y-900689D01*
G01X2803480Y-891808D01*
G01X2820694Y-879754D01*
G01X2835554Y-864894D01*
G01X2847608Y-847680D01*
G01X2856489Y-828634D01*
G01X2861928Y-808335D01*
G01X2863760Y-787400D01*
G01X2863760Y-787400D01*
G01X2861928Y-766465D01*
G01X2856489Y-746166D01*
G01X2847608Y-727120D01*
G01X2835554Y-709906D01*
G01X2820694Y-695046D01*
G01X2803480Y-682992D01*
G01X2784434Y-674111D01*
G01X2764135Y-668672D01*
G01X2743200Y-666840D01*
G01X2722265Y-668672D01*
G01X2701966Y-674111D01*
G01X2682920Y-682992D01*
G01X2665706Y-695046D01*
G01X2650846Y-709906D01*
G01X2638792Y-727120D01*
G01X2629911Y-746166D01*
G01X2624472Y-766465D01*
G01X2622640Y-787400D01*
G01X2603754Y-787400D01*
G01X2603754Y-702400D01*
G01X2602001Y-691333D01*
G01X2596914Y-681349D01*
G01X2588991Y-673426D01*
G01X2579007Y-668339D01*
G01X2567940Y-666586D01*
G01X2567940Y-666586D01*
G01X2410460Y-666586D01*
G01X2399393Y-668339D01*
G01X2389409Y-673426D01*
G01X2381486Y-681349D01*
G01X2376399Y-691333D01*
G01X2374646Y-702400D01*
G01X2051214Y-702400D01*
G01X2051214Y-550000D01*
G01X2049461Y-538933D01*
G01X2044374Y-528949D01*
G01X2036451Y-521026D01*
G01X2026467Y-515939D01*
G01X2015400Y-514186D01*
G01X1845400Y-514186D01*
G01X1834333Y-515939D01*
G01X1824349Y-521026D01*
G01X1816426Y-528949D01*
G01X1811339Y-538933D01*
G01X1809586Y-550000D01*
G01X1809586Y-550000D01*
G01X1606630Y-550000D01*
G01X1605543Y-543135D01*
G01X1600456Y-533151D01*
G01X1592532Y-525228D01*
G01X1582549Y-520141D01*
G01X1571481Y-518388D01*
G01X1401482Y-518388D01*
G01X1390415Y-520141D01*
G01X1380431Y-525228D01*
G01X1372508Y-533151D01*
G01X1367421Y-543135D01*
G01X1365668Y-554202D01*
G01X1365668Y-554202D01*
G01X1085048Y-554202D01*
G01X1099841Y-534261D01*
G01X1114777Y-507428D01*
G01X1126099Y-478881D01*
G01X1133615Y-449105D01*
G01X1137198Y-418604D01*
G01X1136787Y-387897D01*
G01X1136397Y-385202D01*
G01X1365668Y-385202D01*
G01X1367503Y-406181D01*
G01X1372954Y-426523D01*
G01X1381854Y-445609D01*
G01X1393933Y-462860D01*
G01X1408824Y-477751D01*
G01X1426075Y-489830D01*
G01X1445161Y-498730D01*
G01X1465503Y-504181D01*
G01X1486482Y-506016D01*
G01X1507461Y-504181D01*
G01X1527802Y-498730D01*
G01X1546889Y-489830D01*
G01X1564139Y-477751D01*
G01X1579030Y-462860D01*
G01X1591110Y-445609D01*
G01X1600010Y-426523D01*
G01X1605460Y-406181D01*
G01X1607295Y-385202D01*
G01X1607295Y-385202D01*
G01X1606928Y-381000D01*
G01X1809586Y-381000D01*
G01X1811476Y-402203D01*
G01X1817057Y-422746D01*
G01X1826155Y-441991D01*
G01X1838489Y-459341D01*
G01X1853676Y-474257D01*
G01X1871244Y-486278D01*
G01X1890649Y-495029D01*
G01X1911289Y-500240D01*
G01X1932523Y-501749D01*
G01X1953692Y-499509D01*
G01X1974139Y-493589D01*
G01X1993231Y-484174D01*
G01X2010374Y-471554D01*
G01X2020935Y-460996D01*
G01X2023060Y-458761D01*
G01X2029259Y-452352D01*
G01X2035409Y-446473D01*
G01X2041087Y-441761D01*
G01X2046258Y-438355D01*
G01X2047108Y-437930D01*
G01X2047618Y-437769D01*
G01X4573886Y-437769D01*
G01X4769231Y-633114D01*
G01X4769231Y-1837515D01*
G01X4769231Y-1837515D01*
G01X4768973Y-1845755D01*
G01X4762679Y-1859904D01*
G01X4759837Y-1875126D01*
G01X4760603Y-1890592D01*
G01X4764935Y-1905459D01*
G01X4772597Y-1918915D01*
G01X4783171Y-1930228D01*
G01X4796080Y-1938781D01*
G01X4810621Y-1944106D01*
G01X4826000Y-1945914D01*
G01X4841379Y-1944106D01*
G01X4855920Y-1938781D01*
G01X4868829Y-1930228D01*
G01X4879403Y-1918915D01*
G01X4887065Y-1905459D01*
G01X4891397Y-1890592D01*
G01X4892163Y-1875126D01*
G01X4889321Y-1859904D01*
G01X4883027Y-1845755D01*
G01X4882769Y-1837515D01*
G01X4882769Y-1193800D01*
G01X5861140Y-1193800D01*
G01X5862972Y-1214735D01*
G01X5868411Y-1235034D01*
G01X5877292Y-1254080D01*
G01X5889346Y-1271294D01*
G01X5904206Y-1286154D01*
G01X5921420Y-1298208D01*
G01X5940466Y-1307089D01*
G01X5960765Y-1312528D01*
G01X5981700Y-1314360D01*
G01X6002635Y-1312528D01*
G01X6022934Y-1307089D01*
G01X6041980Y-1298208D01*
G01X6059194Y-1286154D01*
G01X6074054Y-1271294D01*
G01X6086108Y-1254080D01*
G01X6094989Y-1235034D01*
G01X6100428Y-1214735D01*
G01X6102260Y-1193800D01*
G01X6102260Y-1193800D01*
G01X6100428Y-1172865D01*
G01X6094989Y-1152566D01*
G01X6086108Y-1133520D01*
G01X6074054Y-1116306D01*
G01X6059194Y-1101446D01*
G01X6041980Y-1089392D01*
G01X6022934Y-1080511D01*
G01X6002635Y-1075072D01*
G01X5981700Y-1073240D01*
G01X5960765Y-1075072D01*
G01X5940466Y-1080511D01*
G01X5921420Y-1089392D01*
G01X5904206Y-1101446D01*
G01X5889346Y-1116306D01*
G01X5877292Y-1133520D01*
G01X5868411Y-1152566D01*
G01X5862972Y-1172865D01*
G01X5861140Y-1193800D01*
G01X4882769Y-1193800D01*
G01X4882769Y-854800D01*
G01X5860886Y-854800D01*
G01X5860886Y-1024800D01*
G01X5862639Y-1035867D01*
G01X5867726Y-1045851D01*
G01X5875649Y-1053774D01*
G01X5885633Y-1058861D01*
G01X5896700Y-1060614D01*
G01X6066700Y-1060614D01*
G01X6077767Y-1058861D01*
G01X6087751Y-1053774D01*
G01X6095674Y-1045851D01*
G01X6100761Y-1035867D01*
G01X6102514Y-1024800D01*
G01X6102514Y-1024800D01*
G01X6102514Y-854800D01*
G01X6100761Y-843733D01*
G01X6095674Y-833749D01*
G01X6087751Y-825826D01*
G01X6077767Y-820739D01*
G01X6066700Y-818986D01*
G01X5896700Y-818986D01*
G01X5885633Y-820739D01*
G01X5875649Y-825826D01*
G01X5867726Y-833749D01*
G01X5862639Y-843733D01*
G01X5860886Y-854800D01*
G01X4882769Y-854800D01*
G01X4882769Y-609600D01*
G01X4880835Y-594907D01*
G01X4875163Y-581215D01*
G01X4866142Y-569458D01*
G01X4677683Y-381000D01*
G01X5174386Y-381000D01*
G01X5176403Y-411780D01*
G01X5182421Y-442033D01*
G01X5192336Y-471242D01*
G01X5205979Y-498907D01*
G01X5223116Y-524554D01*
G01X5243454Y-547746D01*
G01X5266646Y-568084D01*
G01X5292293Y-585221D01*
G01X5319958Y-598864D01*
G01X5349167Y-608779D01*
G01X5379420Y-614797D01*
G01X5410200Y-616814D01*
G01X5440980Y-614797D01*
G01X5471233Y-608779D01*
G01X5500442Y-598864D01*
G01X5528107Y-585221D01*
G01X5553754Y-568084D01*
G01X5576946Y-547746D01*
G01X5597284Y-524554D01*
G01X5614421Y-498907D01*
G01X5628064Y-471242D01*
G01X5637979Y-442033D01*
G01X5643997Y-411780D01*
G01X5646014Y-381000D01*
G01X5646014Y-381000D01*
G01X5643997Y-350220D01*
G01X5637979Y-319967D01*
G01X5628064Y-290758D01*
G01X5614421Y-263093D01*
G01X5597284Y-237446D01*
G01X5576946Y-214254D01*
G01X5553754Y-193916D01*
G01X5528107Y-176779D01*
G01X5500442Y-163136D01*
G01X5471233Y-153221D01*
G01X5440980Y-147203D01*
G01X5410200Y-145186D01*
G01X5379420Y-147203D01*
G01X5349167Y-153221D01*
G01X5319958Y-163136D01*
G01X5292293Y-176779D01*
G01X5266646Y-193916D01*
G01X5243454Y-214254D01*
G01X5223116Y-237446D01*
G01X5205979Y-263093D01*
G01X5192336Y-290758D01*
G01X5182421Y-319967D01*
G01X5176403Y-350220D01*
G01X5174386Y-381000D01*
G01X4677683Y-381000D01*
G01X4637542Y-340858D01*
G01X4625785Y-331837D01*
G01X4612093Y-326165D01*
G01X4597400Y-324231D01*
G01X2047509Y-324222D01*
G01X2047108Y-324070D01*
G01X2046258Y-323645D01*
G01X2041087Y-320239D01*
G01X2035409Y-315527D01*
G01X2029259Y-309648D01*
G01X2023060Y-303239D01*
G01X2020935Y-301004D01*
G01X2010374Y-290446D01*
G01X1993231Y-277826D01*
G01X1974139Y-268411D01*
G01X1953692Y-262491D01*
G01X1932523Y-260251D01*
G01X1911289Y-261760D01*
G01X1890649Y-266971D01*
G01X1871244Y-275722D01*
G01X1853676Y-287743D01*
G01X1838489Y-302659D01*
G01X1826155Y-320009D01*
G01X1817057Y-339254D01*
G01X1811476Y-359797D01*
G01X1809586Y-381000D01*
G01X1606928Y-381000D01*
G01X1605460Y-364223D01*
G01X1600010Y-343881D01*
G01X1591110Y-324795D01*
G01X1579030Y-307545D01*
G01X1564139Y-292653D01*
G01X1546889Y-280574D01*
G01X1527802Y-271674D01*
G01X1507461Y-266224D01*
G01X1486482Y-264388D01*
G01X1465503Y-266224D01*
G01X1445161Y-271674D01*
G01X1426075Y-280574D01*
G01X1408824Y-292653D01*
G01X1393933Y-307545D01*
G01X1381854Y-324795D01*
G01X1372954Y-343881D01*
G01X1367503Y-364223D01*
G01X1365668Y-385202D01*
G01X1136397Y-385202D01*
G01X1132389Y-357503D01*
G01X1124078Y-327939D01*
G01X1111996Y-299705D01*
G01X1096347Y-273281D01*
G01X1077397Y-249115D01*
G01X1055467Y-227616D01*
G01X1030930Y-209149D01*
G01X1004200Y-194028D01*
G01X975732Y-182508D01*
G01X946009Y-174786D01*
G01X915534Y-170992D01*
G01X884824Y-171191D01*
G01X854401Y-175378D01*
G01X824780Y-183484D01*
G01X796463Y-195371D01*
G01X769931Y-210836D01*
G01X745634Y-229618D01*
G01X723984Y-251399D01*
G01X705348Y-275808D01*
G01X690042Y-302432D01*
G01X678326Y-330820D01*
G01X670398Y-360489D01*
G01X633903Y-323994D01*
G01X623855Y-316284D01*
G01X612155Y-311438D01*
G01X599598Y-309784D01*
G01X479026Y-309784D01*
G01X475042Y-306626D01*
G01X469802Y-301418D01*
G01X463964Y-294803D01*
G01X462184Y-292660D01*
G01X453754Y-282008D01*
G01X444122Y-272429D01*
G01X427867Y-260463D01*
G01X409765Y-251536D01*
G01X390376Y-245923D01*
G01X370304Y-243799D01*
G01X350171Y-245231D01*
G01X330601Y-250173D01*
G01X312202Y-258472D01*
G01X295544Y-269870D01*
G01X281145Y-284015D01*
G01X269451Y-300467D01*
G01X260826Y-318715D01*
G01X255536Y-338194D01*
G01X253746Y-358298D01*
G01X255536Y-378403D01*
G01X260826Y-397882D01*
G01X269451Y-416130D01*
G01X281145Y-432582D01*
G01X295544Y-446727D01*
G01X312202Y-458125D01*
G01X330601Y-466424D01*
G01X350171Y-471366D01*
G01X370304Y-472798D01*
G01X390376Y-470674D01*
G01X409765Y-465061D01*
G01X427867Y-456134D01*
G01X444122Y-444168D01*
G01X453753Y-434590D01*
G01X462182Y-423940D01*
G01X463964Y-421794D01*
G01X469802Y-415179D01*
G01X475042Y-409971D01*
G01X479026Y-406812D01*
G01X579503Y-406812D01*
G01X611886Y-439195D01*
G01X611886Y-660400D01*
G01X613539Y-672956D01*
G01X618386Y-684657D01*
G01X626095Y-694705D01*
G01X632177Y-700786D01*
G01X525397Y-700786D01*
G01X480899Y-656289D01*
G01X480316Y-651239D01*
G01X480293Y-643850D01*
G01X480843Y-635045D01*
G01X481100Y-632271D01*
G01X482670Y-618797D01*
G01X482636Y-605233D01*
G01X479603Y-585278D01*
G01X473116Y-566164D01*
G01X463376Y-548485D01*
G01X450686Y-532789D01*
G01X435439Y-519563D01*
G01X418108Y-509217D01*
G01X399231Y-502071D01*
G01X379392Y-498349D01*
G01X359209Y-498165D01*
G01X339306Y-501524D01*
G01X320301Y-508323D01*
G01X302784Y-518351D01*
G01X287298Y-531297D01*
G01X274353Y-546783D01*
G01X264325Y-564300D01*
G01X257526Y-583305D01*
G01X254166Y-603207D01*
G01X254350Y-623391D01*
G01X258073Y-643229D01*
G01X265218Y-662106D01*
G01X275564Y-679437D01*
G01X288791Y-694685D01*
G01X304487Y-707375D01*
G01X322166Y-717114D01*
G01X341279Y-723601D01*
G01X361234Y-726634D01*
G01X374797Y-726668D01*
G01X388269Y-725099D01*
G01X391046Y-724841D01*
G01X399852Y-724292D01*
G01X407241Y-724314D01*
G01X412290Y-724898D01*
G01X470997Y-783605D01*
G01X481045Y-791314D01*
G01X492745Y-796161D01*
G01X505302Y-797814D01*
G01X614905Y-797814D01*
G01X929386Y-1112295D01*
G01X929386Y-1128819D01*
G01X923305Y-1121395D01*
G01X669305Y-867395D01*
G01X659257Y-859686D01*
G01X647556Y-854839D01*
G01X635000Y-853186D01*
G01X499575Y-853186D01*
G01X498953Y-852819D01*
G01X497007Y-851422D01*
G01X494955Y-849713D01*
G01X489113Y-843930D01*
G01X483705Y-837525D01*
G01X479048Y-831095D01*
G01X475837Y-825893D01*
G01X474050Y-822259D01*
G01X464712Y-804433D01*
G01X452399Y-788517D01*
G01X437490Y-775001D01*
G01X420447Y-764302D01*
G01X401794Y-756750D01*
G01X382107Y-752580D01*
G01X361995Y-751918D01*
G01X342077Y-754786D01*
G01X322968Y-761096D01*
G01X305258Y-770651D01*
G01X289494Y-783159D01*
G01X276161Y-798232D01*
G01X265672Y-815405D01*
G01X258365Y-834164D01*
G01X254452Y-853913D01*
G01X254056Y-874041D01*
G01X257189Y-893928D01*
G01X263753Y-912960D01*
G01X273546Y-930550D01*
G01X286265Y-946154D01*
G01X301520Y-959292D01*
G01X318838Y-969558D01*
G01X337685Y-976636D01*
G01X357480Y-980306D01*
G01X377611Y-980455D01*
G01X397458Y-977079D01*
G01X415132Y-970842D01*
G01X431552Y-961806D01*
G01X446280Y-950214D01*
G01X614905Y-950214D01*
G01X840486Y-1175795D01*
G01X840486Y-1306619D01*
G01X834405Y-1299195D01*
G01X621203Y-1085994D01*
G01X611155Y-1078284D01*
G01X599455Y-1073438D01*
G01X586898Y-1071784D01*
G01X479026Y-1071784D01*
G01X475042Y-1068626D01*
G01X469802Y-1063418D01*
G01X463964Y-1056803D01*
G01X462184Y-1054660D01*
G01X453754Y-1044008D01*
G01X444122Y-1034429D01*
G01X427867Y-1022463D01*
G01X409765Y-1013536D01*
G01X390376Y-1007923D01*
G01X370304Y-1005799D01*
G01X350171Y-1007231D01*
G01X330601Y-1012173D01*
G01X312202Y-1020472D01*
G01X295544Y-1031870D01*
G01X281145Y-1046015D01*
G01X269451Y-1062467D01*
G01X260826Y-1080715D01*
G01X255536Y-1100194D01*
G01X253746Y-1120298D01*
G01X255536Y-1140403D01*
G01X260826Y-1159882D01*
G01X269451Y-1178130D01*
G01X281145Y-1194582D01*
G01X295544Y-1208727D01*
G01X312202Y-1220125D01*
G01X330601Y-1228424D01*
G01X350171Y-1233366D01*
G01X370304Y-1234798D01*
G01X390376Y-1232674D01*
G01X409765Y-1227061D01*
G01X427867Y-1218134D01*
G01X444122Y-1206168D01*
G01X453753Y-1196590D01*
G01X462182Y-1185940D01*
G01X463964Y-1183794D01*
G01X469802Y-1177179D01*
G01X475042Y-1171971D01*
G01X479026Y-1168812D01*
G01X566803Y-1168812D01*
G01X751586Y-1353595D01*
G01X751586Y-1879600D01*
G01X751728Y-1883309D01*
G01X749514Y-1881095D01*
G01X749514Y-1706999D01*
G01X747861Y-1694442D01*
G01X743014Y-1682742D01*
G01X735305Y-1672694D01*
G01X487974Y-1425364D01*
G01X484161Y-1417123D01*
G01X482854Y-1408137D01*
G01X482854Y-1295558D01*
G01X481101Y-1284491D01*
G01X476014Y-1274508D01*
G01X468091Y-1266584D01*
G01X458107Y-1261497D01*
G01X447040Y-1259744D01*
G01X289560Y-1259744D01*
G01X278493Y-1261497D01*
G01X268509Y-1266584D01*
G01X260586Y-1274508D01*
G01X255499Y-1284491D01*
G01X253746Y-1295558D01*
G01X253746Y-1453038D01*
G01X255499Y-1464106D01*
G01X260586Y-1474089D01*
G01X268509Y-1482013D01*
G01X278493Y-1487100D01*
G01X289560Y-1488852D01*
G01X402139Y-1488852D01*
G01X411124Y-1490160D01*
G01X419365Y-1493973D01*
G01X652486Y-1727094D01*
G01X652486Y-1901191D01*
G01X654139Y-1913747D01*
G01X658986Y-1925448D01*
G01X666696Y-1935495D01*
G01X905322Y-2174121D01*
G01X901700Y-2173986D01*
G01X463118Y-2173986D01*
G01X460095Y-2171873D01*
G01X449207Y-2159305D01*
G01X436614Y-2148446D01*
G01X422581Y-2139525D01*
G01X403182Y-2131294D01*
G01X382604Y-2126753D01*
G01X361542Y-2126057D01*
G01X340709Y-2129229D01*
G01X320808Y-2136162D01*
G01X302514Y-2146621D01*
G01X302514Y-2120797D01*
G01X324310Y-2099002D01*
G01X329359Y-2098418D01*
G01X336748Y-2098395D01*
G01X345554Y-2098945D01*
G01X348328Y-2099202D01*
G01X361801Y-2100772D01*
G01X375366Y-2100738D01*
G01X395321Y-2097705D01*
G01X414434Y-2091218D01*
G01X432113Y-2081478D01*
G01X447809Y-2068788D01*
G01X461036Y-2053541D01*
G01X471382Y-2036210D01*
G01X478527Y-2017333D01*
G01X482250Y-1997495D01*
G01X482434Y-1977311D01*
G01X479074Y-1957408D01*
G01X472275Y-1938404D01*
G01X462247Y-1920886D01*
G01X449302Y-1905400D01*
G01X433816Y-1892455D01*
G01X416299Y-1882427D01*
G01X397294Y-1875628D01*
G01X377391Y-1872268D01*
G01X357208Y-1872453D01*
G01X337369Y-1876175D01*
G01X318492Y-1883320D01*
G01X301161Y-1893666D01*
G01X285914Y-1906893D01*
G01X273224Y-1922589D01*
G01X263484Y-1940268D01*
G01X256997Y-1959381D01*
G01X253964Y-1979337D01*
G01X253930Y-1992900D01*
G01X255500Y-2006371D01*
G01X255757Y-2009148D01*
G01X256307Y-2017954D01*
G01X256284Y-2025343D01*
G01X255701Y-2030393D01*
G01X219695Y-2066398D01*
G01X211986Y-2076445D01*
G01X207139Y-2088146D01*
G01X205486Y-2100702D01*
G01X205486Y-2349500D01*
G01X207139Y-2362056D01*
G01X211986Y-2373757D01*
G01X219695Y-2383805D01*
G01X237656Y-2401765D01*
G01X247704Y-2409475D01*
G01X259404Y-2414322D01*
G01X271961Y-2415975D01*
G01X284803Y-2415975D01*
G01X280782Y-2420488D01*
G01X279620Y-2420488D01*
G01X267064Y-2422141D01*
G01X255363Y-2426988D01*
G01X245316Y-2434698D01*
G01X227355Y-2452658D01*
G01X219646Y-2462706D01*
G01X214799Y-2474406D01*
G01X213146Y-2486963D01*
G01X213146Y-2792574D01*
G01X214799Y-2805130D01*
G01X219646Y-2816831D01*
G01X227355Y-2826879D01*
G01X288345Y-2887869D01*
G01X277573Y-2889914D01*
G01X267924Y-2895122D01*
G01X260303Y-2903006D01*
G01X255425Y-2912826D01*
G01X253746Y-2923662D01*
G01X253746Y-3036241D01*
G01X252439Y-3045227D01*
G01X248626Y-3053467D01*
G01X105395Y-3196698D01*
G01X97686Y-3206745D01*
G01X92839Y-3218446D01*
G01X91186Y-3231002D01*
G01X36830Y-3231002D01*
G01X36830Y-49530D01*
G01X6313170Y-49530D01*
G01X6313170Y-9132570D01*
G37*
G36*
G01X188214Y-3251097D02*
G01X317235Y-3122077D01*
G01X325476Y-3118263D01*
G01X334461Y-3116956D01*
G01X447040Y-3116956D01*
G01X458107Y-3115203D01*
G01X468091Y-3110116D01*
G01X476014Y-3102193D01*
G01X481101Y-3092209D01*
G01X482854Y-3081142D01*
G01X482854Y-2923662D01*
G01X481275Y-2913146D01*
G01X476678Y-2903556D01*
G01X993251Y-2903556D01*
G01X3161967Y-5072272D01*
G01X3146117Y-5084863D01*
G01X3132701Y-5100021D01*
G01X3122130Y-5117283D01*
G01X3114725Y-5136123D01*
G01X3110714Y-5155963D01*
G01X3110219Y-5176199D01*
G01X3113254Y-5196213D01*
G01X3119728Y-5215392D01*
G01X3129442Y-5233151D01*
G01X3142100Y-5248947D01*
G01X3157315Y-5262298D01*
G01X3174622Y-5272796D01*
G01X3193493Y-5280121D01*
G01X3213350Y-5284048D01*
G01X3233588Y-5284457D01*
G01X3253589Y-5281336D01*
G01X3272740Y-5274781D01*
G01X3290457Y-5264991D01*
G01X3306200Y-5252267D01*
G01X3319486Y-5236995D01*
G01X3319486Y-5354815D01*
G01X3306377Y-5339715D01*
G01X3290867Y-5327096D01*
G01X3273417Y-5317332D01*
G01X3254547Y-5310715D01*
G01X3234821Y-5307443D01*
G01X3214825Y-5307613D01*
G01X3195157Y-5311219D01*
G01X3176403Y-5318155D01*
G01X3159121Y-5328214D01*
G01X3143827Y-5341095D01*
G01X3130976Y-5356416D01*
G01X3127994Y-5359178D01*
G01X3123647Y-5362410D01*
G01X2903719Y-5362410D01*
G01X2817114Y-5275805D01*
G01X2817114Y-4809744D01*
G01X2815461Y-4797187D01*
G01X2810614Y-4785487D01*
G01X2802905Y-4775439D01*
G01X2095261Y-4067795D01*
G01X2085213Y-4060086D01*
G01X2073513Y-4055239D01*
G01X2060956Y-4053586D01*
G01X1714500Y-4053586D01*
G01X1701944Y-4055239D01*
G01X1690243Y-4060086D01*
G01X1680195Y-4067795D01*
G01X1578595Y-4169395D01*
G01X1570886Y-4179443D01*
G01X1566039Y-4191144D01*
G01X1564386Y-4203700D01*
G01X1564386Y-6164805D01*
G01X1415005Y-6314186D01*
G01X475238Y-6314186D01*
G01X473623Y-6312964D01*
G01X471689Y-6311269D01*
G01X465951Y-6305360D01*
G01X460236Y-6298544D01*
G01X454547Y-6291125D01*
G01X449611Y-6284544D01*
G01X436423Y-6268819D01*
G01X420640Y-6255700D01*
G01X402769Y-6245608D01*
G01X383385Y-6238867D01*
G01X363109Y-6235692D01*
G01X342592Y-6236187D01*
G01X322492Y-6240335D01*
G01X303455Y-6248002D01*
G01X286092Y-6258944D01*
G01X270959Y-6272808D01*
G01X258544Y-6289150D01*
G01X249244Y-6307445D01*
G01X243357Y-6327106D01*
G01X241084Y-6347508D01*
G01X242489Y-6367988D01*
G01X247525Y-6387889D01*
G01X256031Y-6406572D01*
G01X267734Y-6423437D01*
G01X282260Y-6437943D01*
G01X299140Y-6449625D01*
G01X317834Y-6458107D01*
G01X337741Y-6463117D01*
G01X358223Y-6464494D01*
G01X378622Y-6462195D01*
G01X398284Y-6456293D01*
G01X416576Y-6446977D01*
G01X428670Y-6438223D01*
G01X439523Y-6427971D01*
G01X448951Y-6416395D01*
G01X451282Y-6414264D01*
G01X455437Y-6411214D01*
G01X1435100Y-6411214D01*
G01X1447656Y-6409561D01*
G01X1459357Y-6404714D01*
G01X1469405Y-6397005D01*
G01X1647205Y-6219205D01*
G01X1654914Y-6209157D01*
G01X1659761Y-6197456D01*
G01X1661414Y-6184900D01*
G01X2020486Y-6184900D01*
G01X2022398Y-6206747D01*
G01X2028074Y-6227931D01*
G01X2037342Y-6247807D01*
G01X2049921Y-6265772D01*
G01X2065428Y-6281279D01*
G01X2083393Y-6293858D01*
G01X2103269Y-6303126D01*
G01X2124453Y-6308802D01*
G01X2146300Y-6310714D01*
G01X2168147Y-6308802D01*
G01X2189331Y-6303126D01*
G01X2209207Y-6293858D01*
G01X2227172Y-6281279D01*
G01X2242679Y-6265772D01*
G01X2255258Y-6247807D01*
G01X2264526Y-6227931D01*
G01X2270202Y-6206747D01*
G01X2272114Y-6184900D01*
G01X2272114Y-6184900D01*
G01X2270202Y-6163053D01*
G01X2264526Y-6141869D01*
G01X2255258Y-6121993D01*
G01X2242679Y-6104028D01*
G01X2227172Y-6088521D01*
G01X2209207Y-6075942D01*
G01X2189331Y-6066674D01*
G01X2168147Y-6060998D01*
G01X2146300Y-6059086D01*
G01X2124453Y-6060998D01*
G01X2103269Y-6066674D01*
G01X2083393Y-6075942D01*
G01X2065428Y-6088521D01*
G01X2049921Y-6104028D01*
G01X2037342Y-6121993D01*
G01X2028074Y-6141869D01*
G01X2022398Y-6163053D01*
G01X2020486Y-6184900D01*
G01X1661414Y-6184900D01*
G01X1661414Y-5930900D01*
G01X2020486Y-5930900D01*
G01X2022398Y-5952747D01*
G01X2028074Y-5973931D01*
G01X2037342Y-5993807D01*
G01X2049921Y-6011772D01*
G01X2065428Y-6027279D01*
G01X2083393Y-6039858D01*
G01X2103269Y-6049126D01*
G01X2124453Y-6054802D01*
G01X2146300Y-6056714D01*
G01X2168147Y-6054802D01*
G01X2189331Y-6049126D01*
G01X2209207Y-6039858D01*
G01X2227172Y-6027279D01*
G01X2242679Y-6011772D01*
G01X2255258Y-5993807D01*
G01X2264526Y-5973931D01*
G01X2270202Y-5952747D01*
G01X2272114Y-5930900D01*
G01X2272114Y-5930900D01*
G01X2270202Y-5909053D01*
G01X2264526Y-5887869D01*
G01X2255258Y-5867993D01*
G01X2242679Y-5850028D01*
G01X2227172Y-5834521D01*
G01X2209207Y-5821942D01*
G01X2189331Y-5812674D01*
G01X2168147Y-5806998D01*
G01X2146300Y-5805086D01*
G01X2124453Y-5806998D01*
G01X2103269Y-5812674D01*
G01X2083393Y-5821942D01*
G01X2065428Y-5834521D01*
G01X2049921Y-5850028D01*
G01X2037342Y-5867993D01*
G01X2028074Y-5887869D01*
G01X2022398Y-5909053D01*
G01X2020486Y-5930900D01*
G01X1661414Y-5930900D01*
G01X1661414Y-5676900D01*
G01X2020486Y-5676900D01*
G01X2022398Y-5698747D01*
G01X2028074Y-5719931D01*
G01X2037342Y-5739807D01*
G01X2049921Y-5757772D01*
G01X2065428Y-5773279D01*
G01X2083393Y-5785858D01*
G01X2103269Y-5795126D01*
G01X2124453Y-5800802D01*
G01X2146300Y-5802714D01*
G01X2168147Y-5800802D01*
G01X2189331Y-5795126D01*
G01X2209207Y-5785858D01*
G01X2227172Y-5773279D01*
G01X2242679Y-5757772D01*
G01X2255258Y-5739807D01*
G01X2264526Y-5719931D01*
G01X2270202Y-5698747D01*
G01X2272114Y-5676900D01*
G01X2272114Y-5676900D01*
G01X2270202Y-5655053D01*
G01X2264526Y-5633869D01*
G01X2255258Y-5613993D01*
G01X2242679Y-5596028D01*
G01X2227172Y-5580521D01*
G01X2209207Y-5567942D01*
G01X2189331Y-5558674D01*
G01X2168147Y-5552998D01*
G01X2146300Y-5551086D01*
G01X2124453Y-5552998D01*
G01X2103269Y-5558674D01*
G01X2083393Y-5567942D01*
G01X2065428Y-5580521D01*
G01X2049921Y-5596028D01*
G01X2037342Y-5613993D01*
G01X2028074Y-5633869D01*
G01X2022398Y-5655053D01*
G01X2020486Y-5676900D01*
G01X1661414Y-5676900D01*
G01X1661414Y-5422900D01*
G01X2020486Y-5422900D01*
G01X2022398Y-5444747D01*
G01X2028074Y-5465931D01*
G01X2037342Y-5485807D01*
G01X2049921Y-5503772D01*
G01X2065428Y-5519279D01*
G01X2083393Y-5531858D01*
G01X2103269Y-5541126D01*
G01X2124453Y-5546802D01*
G01X2146300Y-5548714D01*
G01X2168147Y-5546802D01*
G01X2189331Y-5541126D01*
G01X2209207Y-5531858D01*
G01X2227172Y-5519279D01*
G01X2242679Y-5503772D01*
G01X2255258Y-5485807D01*
G01X2264526Y-5465931D01*
G01X2270202Y-5444747D01*
G01X2272114Y-5422900D01*
G01X2272114Y-5422900D01*
G01X2270202Y-5401053D01*
G01X2264526Y-5379869D01*
G01X2255258Y-5359993D01*
G01X2242679Y-5342028D01*
G01X2227172Y-5326521D01*
G01X2209207Y-5313942D01*
G01X2189331Y-5304674D01*
G01X2168147Y-5298998D01*
G01X2146300Y-5297086D01*
G01X2124453Y-5298998D01*
G01X2103269Y-5304674D01*
G01X2083393Y-5313942D01*
G01X2065428Y-5326521D01*
G01X2049921Y-5342028D01*
G01X2037342Y-5359993D01*
G01X2028074Y-5379869D01*
G01X2022398Y-5401053D01*
G01X2020486Y-5422900D01*
G01X1661414Y-5422900D01*
G01X1661414Y-4660900D01*
G01X2020740Y-4660900D01*
G01X2022648Y-4682703D01*
G01X2028312Y-4703844D01*
G01X2037562Y-4723680D01*
G01X2050116Y-4741608D01*
G01X2065592Y-4757084D01*
G01X2083520Y-4769638D01*
G01X2103356Y-4778888D01*
G01X2124497Y-4784552D01*
G01X2146300Y-4786460D01*
G01X2168103Y-4784552D01*
G01X2189244Y-4778888D01*
G01X2209080Y-4769638D01*
G01X2227008Y-4757084D01*
G01X2242484Y-4741608D01*
G01X2255038Y-4723680D01*
G01X2264288Y-4703844D01*
G01X2269952Y-4682703D01*
G01X2271860Y-4660900D01*
G01X2271860Y-4660900D01*
G01X2269952Y-4639097D01*
G01X2264288Y-4617956D01*
G01X2255038Y-4598120D01*
G01X2242484Y-4580192D01*
G01X2227008Y-4564716D01*
G01X2209080Y-4552162D01*
G01X2189244Y-4542912D01*
G01X2168103Y-4537248D01*
G01X2146300Y-4535340D01*
G01X2124497Y-4537248D01*
G01X2103356Y-4542912D01*
G01X2083520Y-4552162D01*
G01X2065592Y-4564716D01*
G01X2050116Y-4580192D01*
G01X2037562Y-4598120D01*
G01X2028312Y-4617956D01*
G01X2022648Y-4639097D01*
G01X2020740Y-4660900D01*
G01X1661414Y-4660900D01*
G01X1661414Y-4223795D01*
G01X1734595Y-4150614D01*
G01X2040861Y-4150614D01*
G01X2171333Y-4281086D01*
G01X2056300Y-4281086D01*
G01X2045233Y-4282839D01*
G01X2035249Y-4287926D01*
G01X2027326Y-4295849D01*
G01X2022239Y-4305833D01*
G01X2020486Y-4316900D01*
G01X2020486Y-4496900D01*
G01X2022239Y-4507967D01*
G01X2027326Y-4517951D01*
G01X2035249Y-4525874D01*
G01X2045233Y-4530961D01*
G01X2056300Y-4532714D01*
G01X2236300Y-4532714D01*
G01X2247367Y-4530961D01*
G01X2257351Y-4525874D01*
G01X2265274Y-4517951D01*
G01X2270361Y-4507967D01*
G01X2272114Y-4496900D01*
G01X2272114Y-4381867D01*
G01X2720086Y-4829839D01*
G01X2720086Y-4962877D01*
G01X2637805Y-4880595D01*
G01X2627757Y-4872886D01*
G01X2616056Y-4868039D01*
G01X2603500Y-4866386D01*
G01X2271590Y-4866386D01*
G01X2270566Y-4865743D01*
G01X2268359Y-4864054D01*
G01X2265900Y-4861876D01*
G01X2259109Y-4854860D01*
G01X2252225Y-4846768D01*
G01X2251405Y-4845748D01*
G01X2241325Y-4832441D01*
G01X2229571Y-4820587D01*
G01X2212049Y-4807647D01*
G01X2192558Y-4797923D01*
G01X2171683Y-4791706D01*
G01X2150048Y-4789181D01*
G01X2128301Y-4790426D01*
G01X2107095Y-4795401D01*
G01X2087065Y-4803959D01*
G01X2068810Y-4815843D01*
G01X2052879Y-4830696D01*
G01X2039747Y-4848075D01*
G01X2029809Y-4867457D01*
G01X2023361Y-4888263D01*
G01X2020599Y-4909869D01*
G01X2021603Y-4931628D01*
G01X2026356Y-4952880D01*
G01X2034702Y-4972994D01*
G01X2046391Y-4991368D01*
G01X2061074Y-5007451D01*
G01X2078311Y-5020761D01*
G01X2097584Y-5030900D01*
G01X2118317Y-5037562D01*
G01X2139889Y-5040550D01*
G01X2161652Y-5039774D01*
G01X2182955Y-5035256D01*
G01X2203161Y-5027132D01*
G01X2221662Y-5015645D01*
G01X2237906Y-5001141D01*
G01X2251405Y-4984052D01*
G01X2252225Y-4983032D01*
G01X2259109Y-4974940D01*
G01X2265900Y-4967924D01*
G01X2268359Y-4965746D01*
G01X2270566Y-4964057D01*
G01X2271590Y-4963414D01*
G01X2583405Y-4963414D01*
G01X2656586Y-5036595D01*
G01X2656586Y-5216877D01*
G01X2561605Y-5121895D01*
G01X2551557Y-5114186D01*
G01X2539856Y-5109339D01*
G01X2527300Y-5107686D01*
G01X2260984Y-5107686D01*
G01X2259755Y-5106959D01*
G01X2257594Y-5105401D01*
G01X2255180Y-5103390D01*
G01X2251393Y-5099729D01*
G01X2238219Y-5082993D01*
G01X2222411Y-5068719D01*
G01X2204421Y-5057316D01*
G01X2184766Y-5049111D01*
G01X2164008Y-5044339D01*
G01X2142743Y-5043136D01*
G01X2121580Y-5045539D01*
G01X2101126Y-5051476D01*
G01X2081966Y-5060779D01*
G01X2064649Y-5073180D01*
G01X2049673Y-5088325D01*
G01X2037466Y-5105778D01*
G01X2028378Y-5125041D01*
G01X2022670Y-5145561D01*
G01X2020505Y-5166750D01*
G01X2021944Y-5188000D01*
G01X2026948Y-5208703D01*
G01X2035372Y-5228265D01*
G01X2046976Y-5246126D01*
G01X2061426Y-5261773D01*
G01X2078308Y-5274759D01*
G01X2097139Y-5284711D01*
G01X2117379Y-5291345D01*
G01X2138447Y-5294469D01*
G01X2159741Y-5293994D01*
G01X2180649Y-5289934D01*
G01X2200573Y-5282406D01*
G01X2218942Y-5271624D01*
G01X2235229Y-5257899D01*
G01X2248967Y-5241623D01*
G01X2254548Y-5233993D01*
G01X2261180Y-5225144D01*
G01X2267973Y-5216795D01*
G01X2274833Y-5209485D01*
G01X2277352Y-5207196D01*
G01X2279639Y-5205402D01*
G01X2280709Y-5204714D01*
G01X2507205Y-5204714D01*
G01X2593086Y-5290595D01*
G01X2593086Y-6705600D01*
G01X2594739Y-6718156D01*
G01X2599586Y-6729857D01*
G01X2607295Y-6739905D01*
G01X2848601Y-6981210D01*
G01X2858648Y-6988919D01*
G01X2870349Y-6993766D01*
G01X2882905Y-6995419D01*
G01X3113588Y-6995419D01*
G01X3115273Y-6996664D01*
G01X3117218Y-6998329D01*
G01X3123028Y-7004132D01*
G01X3128984Y-7010913D01*
G01X3130652Y-7012930D01*
G01X3140635Y-7025386D01*
G01X629695Y-7025386D01*
G01X188214Y-6583905D01*
G01X188214Y-6096000D01*
G01X241300Y-6096000D01*
G01X243246Y-6117003D01*
G01X249018Y-6137290D01*
G01X258420Y-6156171D01*
G01X271131Y-6173003D01*
G01X286719Y-6187213D01*
G01X304652Y-6198317D01*
G01X324320Y-6205937D01*
G01X345054Y-6209812D01*
G01X366146Y-6209812D01*
G01X386880Y-6205937D01*
G01X406548Y-6198317D01*
G01X424481Y-6187213D01*
G01X440069Y-6173003D01*
G01X452780Y-6156171D01*
G01X462182Y-6137290D01*
G01X467954Y-6117003D01*
G01X469900Y-6096000D01*
G01X469900Y-6096000D01*
G01X467954Y-6074997D01*
G01X462182Y-6054710D01*
G01X452780Y-6035829D01*
G01X440069Y-6018997D01*
G01X424481Y-6004787D01*
G01X406548Y-5993683D01*
G01X386880Y-5986063D01*
G01X366146Y-5982188D01*
G01X345054Y-5982188D01*
G01X324320Y-5986063D01*
G01X304652Y-5993683D01*
G01X286719Y-6004787D01*
G01X271131Y-6018997D01*
G01X258420Y-6035829D01*
G01X249018Y-6054710D01*
G01X243246Y-6074997D01*
G01X241300Y-6096000D01*
G01X188214Y-6096000D01*
G01X188214Y-5763260D01*
G01X241046Y-5763260D01*
G01X241046Y-5920740D01*
G01X242799Y-5931807D01*
G01X247886Y-5941791D01*
G01X255809Y-5949714D01*
G01X265793Y-5954801D01*
G01X276860Y-5956554D01*
G01X434340Y-5956554D01*
G01X445407Y-5954801D01*
G01X455391Y-5949714D01*
G01X463314Y-5941791D01*
G01X468401Y-5931807D01*
G01X470154Y-5920740D01*
G01X470154Y-5920740D01*
G01X470154Y-5763260D01*
G01X468401Y-5752193D01*
G01X463314Y-5742209D01*
G01X455391Y-5734286D01*
G01X445407Y-5729199D01*
G01X434340Y-5727446D01*
G01X276860Y-5727446D01*
G01X265793Y-5729199D01*
G01X255809Y-5734286D01*
G01X247886Y-5742209D01*
G01X242799Y-5752193D01*
G01X241046Y-5763260D01*
G01X188214Y-5763260D01*
G01X188214Y-5242601D01*
G01X251998Y-5242601D01*
G01X253945Y-5263604D01*
G01X259717Y-5283891D01*
G01X269119Y-5302773D01*
G01X281830Y-5319605D01*
G01X297417Y-5333815D01*
G01X315351Y-5344919D01*
G01X335019Y-5352538D01*
G01X355752Y-5356414D01*
G01X376845Y-5356414D01*
G01X397578Y-5352538D01*
G01X417246Y-5344919D01*
G01X435180Y-5333815D01*
G01X450767Y-5319605D01*
G01X463478Y-5302773D01*
G01X472880Y-5283891D01*
G01X478652Y-5263604D01*
G01X480598Y-5242601D01*
G01X480598Y-5242601D01*
G01X478652Y-5221599D01*
G01X472880Y-5201311D01*
G01X463478Y-5182430D01*
G01X450767Y-5165598D01*
G01X435180Y-5151388D01*
G01X417246Y-5140284D01*
G01X397578Y-5132665D01*
G01X376845Y-5128789D01*
G01X355752Y-5128789D01*
G01X335019Y-5132665D01*
G01X315351Y-5140284D01*
G01X297417Y-5151388D01*
G01X281830Y-5165598D01*
G01X269119Y-5182430D01*
G01X259717Y-5201311D01*
G01X253945Y-5221599D01*
G01X251998Y-5242601D01*
G01X188214Y-5242601D01*
G01X188214Y-4655861D01*
G01X251744Y-4655861D01*
G01X251744Y-4813341D01*
G01X253497Y-4824409D01*
G01X258584Y-4834392D01*
G01X266508Y-4842316D01*
G01X276491Y-4847403D01*
G01X287558Y-4849155D01*
G01X437135Y-4849155D01*
G01X410289Y-4876002D01*
G01X405239Y-4876586D01*
G01X397850Y-4876608D01*
G01X389045Y-4876058D01*
G01X386271Y-4875802D01*
G01X372797Y-4874232D01*
G01X359233Y-4874266D01*
G01X339278Y-4877299D01*
G01X320164Y-4883786D01*
G01X302485Y-4893525D01*
G01X286789Y-4906215D01*
G01X273563Y-4921462D01*
G01X263217Y-4938793D01*
G01X256071Y-4957671D01*
G01X252349Y-4977509D01*
G01X252164Y-4997692D01*
G01X255524Y-5017595D01*
G01X262323Y-5036600D01*
G01X272351Y-5054117D01*
G01X285297Y-5069603D01*
G01X300783Y-5082549D01*
G01X318300Y-5092577D01*
G01X337305Y-5099376D01*
G01X357207Y-5102735D01*
G01X377391Y-5102551D01*
G01X397229Y-5098829D01*
G01X416106Y-5091683D01*
G01X433437Y-5081337D01*
G01X448685Y-5068111D01*
G01X461375Y-5052415D01*
G01X471114Y-5034736D01*
G01X477601Y-5015622D01*
G01X480634Y-4995667D01*
G01X480668Y-4982104D01*
G01X479099Y-4968632D01*
G01X478841Y-4965855D01*
G01X478292Y-4957049D01*
G01X478314Y-4949661D01*
G01X478898Y-4944611D01*
G01X1126505Y-4297004D01*
G01X1134214Y-4286957D01*
G01X1139061Y-4275256D01*
G01X1140714Y-4262700D01*
G01X1140714Y-3297356D01*
G01X1141580Y-3295783D01*
G01X1143166Y-3293627D01*
G01X1151392Y-3281098D01*
G01X1156594Y-3267042D01*
G01X1158507Y-3252176D01*
G01X1157032Y-3237261D01*
G01X1152246Y-3223057D01*
G01X1144392Y-3210291D01*
G01X1133872Y-3199615D01*
G01X1121224Y-3191575D01*
G01X1107092Y-3186580D01*
G01X1092200Y-3184886D01*
G01X1077308Y-3186580D01*
G01X1063176Y-3191575D01*
G01X1050528Y-3199615D01*
G01X1040008Y-3210291D01*
G01X1032154Y-3223057D01*
G01X1027368Y-3237261D01*
G01X1025893Y-3252176D01*
G01X1027806Y-3267042D01*
G01X1033008Y-3281098D01*
G01X1041234Y-3293627D01*
G01X1042820Y-3295783D01*
G01X1043686Y-3297356D01*
G01X1043686Y-4242605D01*
G01X480852Y-4805438D01*
G01X480852Y-4655861D01*
G01X480852Y-4655861D01*
G01X479100Y-4644794D01*
G01X474013Y-4634810D01*
G01X466089Y-4626887D01*
G01X456106Y-4621800D01*
G01X445038Y-4620047D01*
G01X287558Y-4620047D01*
G01X276491Y-4621800D01*
G01X266508Y-4626887D01*
G01X258584Y-4634810D01*
G01X253497Y-4644794D01*
G01X251744Y-4655861D01*
G01X188214Y-4655861D01*
G01X188214Y-4043763D01*
G01X251744Y-4043763D01*
G01X251744Y-4201243D01*
G01X253497Y-4212310D01*
G01X258584Y-4222294D01*
G01X266508Y-4230217D01*
G01X276491Y-4235304D01*
G01X287558Y-4237057D01*
G01X445038Y-4237057D01*
G01X445038Y-4237057D01*
G01X456106Y-4235304D01*
G01X466089Y-4230217D01*
G01X474013Y-4222294D01*
G01X479100Y-4212310D01*
G01X480852Y-4201243D01*
G01X480852Y-4043763D01*
G01X479100Y-4032696D01*
G01X474013Y-4022712D01*
G01X466089Y-4014789D01*
G01X456106Y-4009702D01*
G01X445038Y-4007949D01*
G01X287558Y-4007949D01*
G01X276491Y-4009702D01*
G01X266508Y-4014789D01*
G01X258584Y-4022712D01*
G01X253497Y-4032696D01*
G01X251744Y-4043763D01*
G01X188214Y-4043763D01*
G01X188214Y-3868503D01*
G01X251744Y-3868503D01*
G01X253695Y-3889552D01*
G01X259480Y-3909885D01*
G01X268903Y-3928808D01*
G01X281642Y-3945678D01*
G01X297264Y-3959919D01*
G01X315237Y-3971048D01*
G01X334949Y-3978684D01*
G01X355729Y-3982568D01*
G01X376868Y-3982568D01*
G01X397648Y-3978684D01*
G01X417360Y-3971048D01*
G01X435333Y-3959919D01*
G01X450955Y-3945678D01*
G01X463694Y-3928808D01*
G01X473117Y-3909885D01*
G01X478902Y-3889552D01*
G01X480852Y-3868503D01*
G01X480852Y-3868503D01*
G01X478902Y-3847454D01*
G01X473117Y-3827121D01*
G01X463694Y-3808198D01*
G01X450955Y-3791329D01*
G01X435333Y-3777087D01*
G01X417360Y-3765959D01*
G01X397648Y-3758322D01*
G01X376868Y-3754438D01*
G01X355729Y-3754438D01*
G01X334949Y-3758322D01*
G01X315237Y-3765959D01*
G01X297264Y-3777087D01*
G01X281642Y-3791329D01*
G01X268903Y-3808198D01*
G01X259480Y-3827121D01*
G01X253695Y-3847454D01*
G01X251744Y-3868503D01*
G01X188214Y-3868503D01*
G01X188214Y-3614503D01*
G01X251998Y-3614503D01*
G01X253945Y-3635506D01*
G01X259717Y-3655793D01*
G01X269119Y-3674674D01*
G01X281830Y-3691506D01*
G01X297417Y-3705716D01*
G01X315351Y-3716820D01*
G01X335019Y-3724440D01*
G01X355752Y-3728315D01*
G01X376845Y-3728315D01*
G01X397578Y-3724440D01*
G01X417246Y-3716820D01*
G01X435180Y-3705716D01*
G01X450767Y-3691506D01*
G01X463478Y-3674674D01*
G01X472880Y-3655793D01*
G01X478652Y-3635506D01*
G01X480598Y-3614503D01*
G01X480598Y-3614503D01*
G01X478652Y-3593500D01*
G01X472880Y-3573213D01*
G01X463478Y-3554332D01*
G01X450767Y-3537500D01*
G01X435180Y-3523290D01*
G01X417246Y-3512186D01*
G01X397578Y-3504566D01*
G01X376845Y-3500691D01*
G01X355752Y-3500691D01*
G01X335019Y-3504566D01*
G01X315351Y-3512186D01*
G01X297417Y-3523290D01*
G01X281830Y-3537500D01*
G01X269119Y-3554332D01*
G01X259717Y-3573213D01*
G01X253945Y-3593500D01*
G01X251998Y-3614503D01*
G01X188214Y-3614503D01*
G01X188214Y-3251097D01*
G37*
G54D10*
G01X6313170Y-9132570D02*
G01X36830Y-9132570D01*
G01X36830Y-49530D01*
G01X6313170Y-49530D01*
G01X6313170Y-9132570D01*
G01X3111598Y-7181664D02*
G01X3110311Y-7183875D01*
G01X3106624Y-7188656D01*
G01X3101531Y-7194003D01*
G01X3095525Y-7199128D01*
G01X3093298Y-7200713D01*
G01X3091017Y-7202108D01*
G01X3089317Y-7202967D01*
G01X3088747Y-7203186D01*
G01X2984500Y-7203186D01*
G03X2950195Y-7217395I0J-48514D01*
G01X2835895Y-7331695D01*
G03X2821686Y-7366000I34305J-34305D01*
G01X2821686Y-8158705D01*
G01X2646905Y-8333486D01*
G01X2236587Y-8333486D01*
G01X2236281Y-8333343D01*
G01X2234452Y-8331978D01*
G01X2232379Y-8330187D01*
G01X2226322Y-8324080D01*
G01X2220132Y-8316971D01*
G01X2218684Y-8315206D01*
G03X2002713Y-8382000I-97657J-66794D01*
G03X2218684Y-8448794I118314J0D01*
G01X2220132Y-8447029D01*
G01X2226322Y-8439920D01*
G01X2232379Y-8433813D01*
G01X2234452Y-8432022D01*
G01X2236281Y-8430657D01*
G01X2236587Y-8430514D01*
G01X2664177Y-8430514D01*
G01X2507205Y-8587486D01*
G01X2236587Y-8587486D01*
G01X2236281Y-8587343D01*
G01X2234452Y-8585978D01*
G01X2232379Y-8584187D01*
G01X2226322Y-8578080D01*
G01X2220132Y-8570971D01*
G01X2218684Y-8569206D01*
G03X2002713Y-8636000I-97657J-66794D01*
G03X2218684Y-8702794I118314J0D01*
G01X2220132Y-8701029D01*
G01X2226322Y-8693920D01*
G01X2232379Y-8687813D01*
G01X2234452Y-8686022D01*
G01X2236281Y-8684657D01*
G01X2236587Y-8684514D01*
G01X2527300Y-8684514D01*
G03X2561605Y-8670305I0J48514D01*
G01X2993405Y-8238505D01*
G03X3007614Y-8204200I-34305J34305D01*
G01X3007614Y-7551195D01*
G01X3042695Y-7516114D01*
G01X3124307Y-7516114D01*
G01X3128673Y-7519342D01*
G01X3131112Y-7521588D01*
G03X3163852Y-7552757I94690J66683D01*
G03X3340143Y-7436490I61878J97962D01*
G03X3136357Y-7381336I-114353J-18463D01*
G03X3130624Y-7388921I89445J-73569D01*
G01X3125831Y-7395310D01*
G01X3120018Y-7402914D01*
G01X3114180Y-7409902D01*
G01X3108315Y-7415968D01*
G01X3106316Y-7417729D01*
G01X3104529Y-7419086D01*
G01X3022600Y-7419086D01*
G03X2988295Y-7433295I0J-48514D01*
G01X2924795Y-7496795D01*
G03X2918714Y-7504219I34305J-34305D01*
G01X2918714Y-7386095D01*
G01X3004595Y-7300214D01*
G01X3165542Y-7300214D01*
G01X3166323Y-7300279D01*
G03X3315657Y-7273974I59479J99373D01*
G03X3310961Y-7122414I-89854J73069D01*
G01X4664644Y-7122414D01*
G03X4677372Y-7291275I85159J-78491D01*
G03X4844953Y-7266930I72431J90370D01*
G01X4846621Y-7264913D01*
G01X4852577Y-7258132D01*
G01X4858387Y-7252329D01*
G01X4860333Y-7250664D01*
G01X4862017Y-7249419D01*
G01X5161510Y-7249419D01*
G01X5501386Y-7589295D01*
G01X5501386Y-8039100D01*
G03X5515595Y-8073405I48514J0D01*
G01X5642595Y-8200405D01*
G03X5676900Y-8214614I34305J34305D01*
G01X5843573Y-8214614D01*
G01X5847556Y-8217772D01*
G01X5852797Y-8222981D01*
G01X5858634Y-8229596D01*
G01X5860415Y-8231739D01*
G03X5878476Y-8251970I93884J65639D01*
G03X6068852Y-8166100I75791J85939D01*
G03X5878476Y-8080230I-114585J-69D01*
G03X5860416Y-8100459I75822J-85870D01*
G01X5858634Y-8102604D01*
G01X5852797Y-8109219D01*
G01X5847556Y-8114428D01*
G01X5843573Y-8117586D01*
G01X5696995Y-8117586D01*
G01X5598414Y-8019005D01*
G01X5598414Y-7569200D01*
G03X5584205Y-7534895I-48514J0D01*
G01X5215910Y-7166601D01*
G03X5181605Y-7152391I-34305J-34305D01*
G01X4862017Y-7152391D01*
G01X4860333Y-7151146D01*
G01X4858387Y-7149482D01*
G01X4852577Y-7143678D01*
G01X4846621Y-7136898D01*
G01X4844953Y-7134880D01*
G03X4834961Y-7122414I-95150J-66025D01*
G01X4851400Y-7122414D01*
G03X4885705Y-7108205I0J48514D01*
G01X4936505Y-7057405D01*
G03X4950714Y-7023100I-34305J34305D01*
G01X4950714Y-6845300D01*
G03X4936505Y-6810995I-48514J0D01*
G01X4863455Y-6737946D01*
G01X4863144Y-6735875D01*
G01X4862946Y-6733322D01*
G01X4862941Y-6725110D01*
G01X4863524Y-6716104D01*
G01X4863770Y-6713501D01*
G03X4667910Y-6611012I-113968J20596D01*
G03X4770397Y-6806873I81892J-81893D01*
G01X4773006Y-6806626D01*
G01X4782012Y-6806043D01*
G01X4790224Y-6806048D01*
G01X4792777Y-6806246D01*
G01X4794848Y-6806557D01*
G01X4853686Y-6865395D01*
G01X4853686Y-6895709D01*
G03X4654651Y-6880882I-103883J-51196D01*
G01X4652988Y-6882893D01*
G01X4647032Y-6889673D01*
G01X4641222Y-6895477D01*
G01X4639277Y-6897141D01*
G01X4637592Y-6898386D01*
G01X4414749Y-6898386D01*
G01X3749782Y-6233419D01*
G01X4637588Y-6233419D01*
G01X4639273Y-6234664D01*
G01X4641218Y-6236329D01*
G01X4647028Y-6242132D01*
G01X4652984Y-6248913D01*
G01X4654652Y-6250930D01*
G03X4865616Y-6184905I95150J66025D01*
G03X4654652Y-6118880I-115814J0D01*
G01X4652984Y-6120898D01*
G01X4647028Y-6127678D01*
G01X4641218Y-6133482D01*
G01X4639273Y-6135146D01*
G01X4637588Y-6136391D01*
G01X3703100Y-6136391D01*
G01X3452114Y-5885405D01*
G01X3452114Y-5819423D01*
G01X3610595Y-5977905D01*
G03X3644900Y-5992114I34305J34305D01*
G01X4648307Y-5992114D01*
G01X4652673Y-5995342D01*
G01X4655112Y-5997588D01*
G03X4687852Y-6028757I94690J66683D01*
G03X4864143Y-5912490I61878J97962D01*
G03X4660357Y-5857336I-114353J-18463D01*
G03X4654624Y-5864921I89445J-73569D01*
G01X4649831Y-5871310D01*
G01X4644018Y-5878914D01*
G01X4638180Y-5885902D01*
G01X4632315Y-5891968D01*
G01X4630316Y-5893729D01*
G01X4628529Y-5895086D01*
G01X3664995Y-5895086D01*
G01X3487714Y-5717805D01*
G01X3487714Y-3299954D01*
G03X3473504Y-3265649I-48514J0D01*
G01X3457375Y-3249520D01*
G01X3457375Y-3208484D01*
G01X3494786Y-3245895D01*
G01X3494786Y-5613400D01*
G03X3508995Y-5647705I48514J0D01*
G01X3648695Y-5787405D01*
G03X3683000Y-5801614I34305J34305D01*
G01X4673608Y-5801614D01*
G03X4705024Y-5790068I0J48514D01*
G01X4706922Y-5789806D01*
G01X4709413Y-5789643D01*
G01X4717532Y-5789736D01*
G01X4726472Y-5790416D01*
G01X4727204Y-5790493D01*
G03X4756982Y-5792496I22599J113588D01*
G03X4831695Y-5595012I-7255J115619D01*
G03X4634211Y-5669725I-81864J-81968D01*
G03X4636215Y-5699504I115591J-7180D01*
G01X4636292Y-5700235D01*
G01X4636623Y-5704586D01*
G01X3703095Y-5704586D01*
G01X3591814Y-5593305D01*
G01X3591814Y-3292577D01*
G01X3609086Y-3309849D01*
G01X3609086Y-5181600D01*
G03X3623295Y-5215905I48514J0D01*
G01X3902695Y-5495305D01*
G03X3937000Y-5509514I34305J34305D01*
G01X4672915Y-5509514D01*
G03X4723765Y-5535754I76888J86609D01*
G03X4852033Y-5368483I26003J112875D01*
G03X4641674Y-5381420I-102231J-54422D01*
G01X4640076Y-5384831D01*
G01X4636989Y-5389914D01*
G01X4632328Y-5396370D01*
G01X4626833Y-5402858D01*
G01X4620846Y-5408748D01*
G01X4618712Y-5410513D01*
G01X4616669Y-5411968D01*
G01X4615787Y-5412486D01*
G01X3957095Y-5412486D01*
G01X3706114Y-5161505D01*
G01X3706114Y-4981223D01*
G01X3928095Y-5203205D01*
G03X3962400Y-5217414I34305J34305D01*
G01X4637584Y-5217414D01*
G01X4639269Y-5218659D01*
G01X4641214Y-5220324D01*
G01X4647024Y-5226127D01*
G01X4652980Y-5232908D01*
G01X4654653Y-5234931D01*
G03X4865616Y-5168904I95150J66025D01*
G03X4654651Y-5102882I-115814J-1D01*
G01X4652988Y-5104893D01*
G01X4647032Y-5111673D01*
G01X4641222Y-5117477D01*
G01X4639277Y-5119141D01*
G01X4637592Y-5120386D01*
G01X3982495Y-5120386D01*
G01X3756914Y-4894805D01*
G01X3756914Y-4765323D01*
G01X3953495Y-4961905D01*
G03X3987800Y-4976114I34305J34305D01*
G01X4648307Y-4976114D01*
G01X4652673Y-4979342D01*
G01X4655112Y-4981588D01*
G03X4687852Y-5012757I94690J66683D01*
G03X4864143Y-4896490I61878J97962D01*
G03X4660357Y-4841336I-114353J-18463D01*
G03X4654624Y-4848921I89445J-73569D01*
G01X4649831Y-4855310D01*
G01X4644018Y-4862914D01*
G01X4638180Y-4869902D01*
G01X4632315Y-4875968D01*
G01X4630316Y-4877729D01*
G01X4628529Y-4879086D01*
G01X4007895Y-4879086D01*
G01X3792514Y-4663705D01*
G01X3792514Y-3693891D01*
G03X3895089Y-3644587I36536J55341D01*
G01X3895492Y-3641941D01*
G01X3895991Y-3640218D01*
G01X4047505Y-3488705D01*
G03X4061714Y-3454400I-34305J34305D01*
G01X4061714Y-906159D01*
G01X4062019Y-905665D01*
G01X4063491Y-903710D01*
G01X4065411Y-901508D01*
G01X4071820Y-895206D01*
G01X4079257Y-888784D01*
G01X4080771Y-887551D01*
G03X4103754Y-867374I-67571J100151D01*
G03X4013200Y-666586I-90639J79936D01*
G03X3922646Y-867374I85J-120852D01*
G03X3945629Y-887551I90554J79974D01*
G01X3947143Y-888784D01*
G01X3954580Y-895206D01*
G01X3960989Y-901508D01*
G01X3962909Y-903710D01*
G01X3964381Y-905665D01*
G01X3964686Y-906159D01*
G01X3964686Y-3434305D01*
G01X3827382Y-3571609D01*
G01X3825659Y-3572108D01*
G01X3823013Y-3572511D01*
G03X3792514Y-3583209I6037J-66039D01*
G01X3792514Y-3275008D01*
G03X3789865Y-3259198I-48514J0D01*
G03X3810166Y-3157973I-30665J58798D01*
G01X3808580Y-3155817D01*
G01X3807714Y-3154244D01*
G01X3807714Y-906159D01*
G01X3808019Y-905665D01*
G01X3809491Y-903710D01*
G01X3811411Y-901508D01*
G01X3817820Y-895206D01*
G01X3825257Y-888784D01*
G01X3826771Y-887551D01*
G03X3849754Y-867374I-67571J100151D01*
G03X3759200Y-666586I-90639J79936D01*
G03X3668646Y-867374I85J-120852D01*
G03X3691629Y-887551I90554J79974D01*
G01X3693143Y-888784D01*
G01X3700580Y-895206D01*
G01X3706989Y-901508D01*
G01X3708909Y-903710D01*
G01X3710381Y-905665D01*
G01X3710686Y-906159D01*
G01X3710686Y-3154244D01*
G01X3709820Y-3155817D01*
G01X3708234Y-3157973D01*
G03X3702923Y-3165322I50966J-42427D01*
G01X3522593Y-2984992D01*
G03X3556166Y-2878573I-17393J63992D01*
G01X3554580Y-2876417D01*
G01X3553714Y-2874844D01*
G01X3553714Y-906159D01*
G01X3554019Y-905665D01*
G01X3555491Y-903710D01*
G01X3557411Y-901508D01*
G01X3563820Y-895206D01*
G01X3571257Y-888784D01*
G01X3572771Y-887551D01*
G03X3595754Y-867374I-67571J100151D01*
G03X3505200Y-666586I-90639J79936D01*
G03X3414646Y-867374I85J-120852D01*
G03X3437629Y-887551I90554J79974D01*
G01X3439143Y-888784D01*
G01X3446580Y-895206D01*
G01X3452989Y-901508D01*
G01X3454909Y-903710D01*
G01X3456381Y-905665D01*
G01X3456686Y-906159D01*
G01X3456686Y-2874844D01*
G01X3455820Y-2876417D01*
G01X3454234Y-2878573D01*
G03X3441208Y-2903607I50966J-42427D01*
G01X3299714Y-2762113D01*
G01X3299714Y-906159D01*
G01X3300019Y-905665D01*
G01X3301491Y-903710D01*
G01X3303411Y-901508D01*
G01X3309820Y-895206D01*
G01X3317257Y-888784D01*
G01X3318771Y-887551D01*
G03X3341754Y-867374I-67571J100151D01*
G03X3251200Y-666586I-90639J79936D01*
G03X3160646Y-867374I85J-120852D01*
G03X3183629Y-887551I90554J79974D01*
G01X3185143Y-888784D01*
G01X3192580Y-895206D01*
G01X3198989Y-901508D01*
G01X3200909Y-903710D01*
G01X3202381Y-905665D01*
G01X3202686Y-906159D01*
G01X3202686Y-2715431D01*
G01X3045714Y-2558459D01*
G01X3045714Y-906159D01*
G01X3046019Y-905665D01*
G01X3047491Y-903710D01*
G01X3049411Y-901508D01*
G01X3055820Y-895206D01*
G01X3063257Y-888784D01*
G01X3064771Y-887551D01*
G03X3087754Y-867374I-67571J100151D01*
G03X2997200Y-666586I-90639J79936D01*
G03X2906646Y-867374I85J-120852D01*
G03X2929629Y-887551I90554J79974D01*
G01X2931143Y-888784D01*
G01X2938580Y-895206D01*
G01X2944989Y-901508D01*
G01X2946909Y-903710D01*
G01X2948381Y-905665D01*
G01X2948686Y-906159D01*
G01X2948686Y-1597377D01*
G01X2396505Y-1045195D01*
G03X2362200Y-1030986I-34305J-34305D01*
G01X1939200Y-1030986D01*
G01X1936914Y-1030763D01*
G01X1936914Y-994500D01*
G03X1901100Y-958686I-35814J0D01*
G01X1731100Y-958686D01*
G03X1695286Y-994500I0J-35814D01*
G01X1695286Y-1164500D01*
G03X1731100Y-1200314I35814J0D01*
G01X1901100Y-1200314D01*
G03X1936914Y-1164500I0J35814D01*
G01X1936914Y-1128237D01*
G01X1939200Y-1128014D01*
G01X2342105Y-1128014D01*
G01X2872486Y-1658395D01*
G01X2872486Y-1825977D01*
G01X2333005Y-1286495D01*
G03X2298700Y-1272286I-34305J-34305D01*
G01X1924170Y-1272286D01*
G01X1923431Y-1271858D01*
G01X1921516Y-1270509D01*
G01X1919354Y-1268748D01*
G01X1916036Y-1265612D01*
G03X1695443Y-1327355I-99936J-67888D01*
G03X1908682Y-1411117I120676J-6099D01*
G03X1915895Y-1401596I-92582J77617D01*
G01X1920148Y-1395932D01*
G01X1926446Y-1387606D01*
G01X1932763Y-1379935D01*
G01X1939128Y-1373247D01*
G01X1941388Y-1371223D01*
G01X1943422Y-1369651D01*
G01X1943954Y-1369314D01*
G01X2278605Y-1369314D01*
G01X2808986Y-1899695D01*
G01X2808986Y-2156177D01*
G01X2218705Y-1565895D01*
G03X2184400Y-1551686I-34305J-34305D01*
G01X1943954Y-1551686D01*
G01X1943422Y-1551349D01*
G01X1941388Y-1549777D01*
G01X1939128Y-1547753D01*
G01X1932763Y-1541065D01*
G01X1926446Y-1533394D01*
G01X1920148Y-1525068D01*
G01X1915895Y-1519404D01*
G03X1908682Y-1509883I-99795J-68096D01*
G03X1695443Y-1593645I-92564J-77664D01*
G03X1916036Y-1655388I120657J6145D01*
G01X1919354Y-1652252D01*
G01X1921516Y-1650491D01*
G01X1923431Y-1649142D01*
G01X1924170Y-1648714D01*
G01X2164305Y-1648714D01*
G01X2745486Y-2229895D01*
G01X2745486Y-2403542D01*
G03X2723837Y-2397761I-27686J-60258D01*
G01X2721191Y-2397358D01*
G01X2719468Y-2396859D01*
G01X2129805Y-1807195D01*
G03X2095500Y-1792986I-34305J-34305D01*
G01X1934859Y-1792986D01*
G01X1934365Y-1792681D01*
G01X1932410Y-1791209D01*
G01X1930208Y-1789289D01*
G01X1923906Y-1782880D01*
G01X1917484Y-1775443D01*
G01X1916251Y-1773929D01*
G03X1896074Y-1750946I-100151J-67571D01*
G03X1695286Y-1841500I-79936J-90639D01*
G03X1896074Y-1932054I120852J85D01*
G03X1916251Y-1909071I-79974J90554D01*
G01X1917484Y-1907557D01*
G01X1923906Y-1900120D01*
G01X1930208Y-1893711D01*
G01X1932410Y-1891791D01*
G01X1934365Y-1890319D01*
G01X1934859Y-1890014D01*
G01X2075405Y-1890014D01*
G01X2650859Y-2465468D01*
G01X2651358Y-2467191D01*
G01X2651761Y-2469837D01*
G03X2745486Y-2524058I66039J6037D01*
G01X2745486Y-2582744D01*
G01X2744620Y-2584317D01*
G01X2743034Y-2586473D01*
G03X2794000Y-2695214I50966J-42427D01*
G03X2844966Y-2586473I0J66314D01*
G01X2843380Y-2584317D01*
G01X2842514Y-2582744D01*
G01X2842514Y-2528399D01*
G03X2913956Y-2498589I14986J64599D01*
G03X2908466Y-2421373I-56456J34789D01*
G01X2906880Y-2419217D01*
G01X2906014Y-2417644D01*
G01X2906014Y-2299799D01*
G03X2948686Y-2295458I14986J64599D01*
G01X2948686Y-2578554D01*
G03X2962895Y-2612859I48514J0D01*
G01X3136123Y-2786086D01*
G01X2105395Y-2786086D01*
G01X1115314Y-1796005D01*
G01X1115314Y-1066800D01*
G03X1101105Y-1032495I-48514J0D01*
G01X708914Y-640305D01*
G01X708914Y-542201D01*
G03X1132389Y-357503I192786J135801D01*
G03X670398Y-360489I-230689J-48897D01*
G01X633903Y-323994D01*
G03X599598Y-309784I-34305J-34305D01*
G01X479026Y-309784D01*
G01X475042Y-306626D01*
G01X469802Y-301418D01*
G01X463964Y-294803D01*
G01X462184Y-292660D01*
G03X444122Y-272429I-93884J-65639D01*
G03X253746Y-358298I-75791J-85939D01*
G03X444122Y-444168I114585J69D01*
G03X462182Y-423940I-75822J85870D01*
G01X463964Y-421794D01*
G01X469802Y-415179D01*
G01X475042Y-409971D01*
G01X479026Y-406812D01*
G01X579503Y-406812D01*
G01X611886Y-439195D01*
G01X611886Y-660400D01*
G03X626095Y-694705I48514J0D01*
G01X632177Y-700786D01*
G01X525397Y-700786D01*
G01X480899Y-656289D01*
G01X480316Y-651239D01*
G01X480293Y-643850D01*
G01X480843Y-635045D01*
G01X481100Y-632271D01*
G03X482670Y-618797I-112800J19972D01*
G03X482636Y-605233I-114370J6499D01*
G03X287298Y-531297I-114378J-7177D01*
G03X361234Y-726634I81113J-80960D01*
G03X388269Y-725099I7066J114336D01*
G01X391046Y-724841D01*
G01X399852Y-724292D01*
G01X407241Y-724314D01*
G01X412290Y-724898D01*
G01X470997Y-783605D01*
G03X505302Y-797814I34305J34305D01*
G01X614905Y-797814D01*
G01X929386Y-1112295D01*
G01X929386Y-1128819D01*
G03X923305Y-1121395I-40386J-26881D01*
G01X669305Y-867395D01*
G03X635000Y-853186I-34305J-34305D01*
G01X499575Y-853186D01*
G01X498953Y-852819D01*
G01X497007Y-851422D01*
G01X494955Y-849713D01*
G01X489113Y-843930D01*
G01X483705Y-837525D01*
G01X479048Y-831095D01*
G01X475837Y-825893D01*
G01X474050Y-822259D01*
G03X265672Y-815405I-105750J-44040D01*
G03X397458Y-977079I102721J-50817D01*
G03X446280Y-950214I-29158J110781D01*
G01X614905Y-950214D01*
G01X840486Y-1175795D01*
G01X840486Y-1306619D01*
G03X834405Y-1299195I-40386J-26881D01*
G01X621203Y-1085994D01*
G03X586898Y-1071784I-34305J-34305D01*
G01X479026Y-1071784D01*
G01X475042Y-1068626D01*
G01X469802Y-1063418D01*
G01X463964Y-1056803D01*
G01X462184Y-1054660D01*
G03X444122Y-1034429I-93884J-65639D01*
G03X253746Y-1120298I-75791J-85939D01*
G03X444122Y-1206168I114585J69D01*
G03X462182Y-1185940I-75822J85870D01*
G01X463964Y-1183794D01*
G01X469802Y-1177179D01*
G01X475042Y-1171971D01*
G01X479026Y-1168812D01*
G01X566803Y-1168812D01*
G01X751586Y-1353595D01*
G01X751586Y-1879600D01*
G03X751728Y-1883309I48514J0D01*
G01X749514Y-1881095D01*
G01X749514Y-1706999D01*
G03X735305Y-1672694I-48514J0D01*
G01X487974Y-1425364D01*
G02X482854Y-1408137I26417J17227D01*
G01X482854Y-1295558D01*
G03X447040Y-1259744I-35814J0D01*
G01X289560Y-1259744D01*
G03X253746Y-1295558I0J-35814D01*
G01X253746Y-1453038D01*
G03X289560Y-1488852I35814J0D01*
G01X402139Y-1488852D01*
G02X419365Y-1493973I0J-31538D01*
G01X652486Y-1727094D01*
G01X652486Y-1901191D01*
G03X666696Y-1935495I48514J0D01*
G01X905322Y-2174121D01*
G03X901700Y-2173986I-3622J-48379D01*
G01X463118Y-2173986D01*
G01X460095Y-2171873D01*
G03X422581Y-2139525I-91795J-68529D01*
G03X302514Y-2146621I-54278J-100939D01*
G01X302514Y-2120797D01*
G01X324310Y-2099002D01*
G01X329359Y-2098418D01*
G01X336748Y-2098395D01*
G01X345554Y-2098945D01*
G01X348328Y-2099202D01*
G03X375366Y-2100738I19972J112800D01*
G03X449302Y-1905400I-7177J114378D01*
G03X253964Y-1979337I-80960J-81113D01*
G03X253930Y-1992900I114336J-7066D01*
G03X255500Y-2006371I114370J6497D01*
G01X255757Y-2009148D01*
G01X256307Y-2017954D01*
G01X256284Y-2025343D01*
G01X255701Y-2030393D01*
G01X219695Y-2066398D01*
G03X205486Y-2100702I34305J-34305D01*
G01X205486Y-2349500D01*
G03X219695Y-2383805I48514J0D01*
G01X237656Y-2401765D01*
G03X271961Y-2415975I34305J34305D01*
G01X284803Y-2415975D01*
G03X280782Y-2420488I83497J-78428D01*
G01X279620Y-2420488D01*
G03X245316Y-2434698I0J-48514D01*
G01X227355Y-2452658D01*
G03X213146Y-2486963I34305J-34305D01*
G01X213146Y-2792574D01*
G03X227355Y-2826879I48514J0D01*
G01X288345Y-2887869D01*
G03X253746Y-2923662I1215J-35793D01*
G01X253746Y-3036241D01*
G02X248626Y-3053467I-31538J0D01*
G01X105395Y-3196698D01*
G03X91186Y-3231002I34305J-34305D01*
G01X91186Y-6604000D01*
G03X105395Y-6638305I48514J0D01*
G01X575295Y-7108205D01*
G03X609600Y-7122414I34305J34305D01*
G01X3140644Y-7122414D01*
G03X3111598Y-7181664I85159J-78491D01*
G01X1099414Y-8407400D02*
G03X627786Y-8407400I-235814J0D01*
G03X1099414Y-8407400I235814J0D01*
G01X1558200Y-1962060D02*
G03X1593760Y-1926500I0J35560D01*
G01X1593760Y-1756500D01*
G03X1558200Y-1720940I-35560J0D01*
G01X1388200Y-1720940D01*
G03X1352640Y-1756500I0J-35560D01*
G01X1352640Y-1926500D01*
G03X1388200Y-1962060I35560J0D01*
G01X1558200Y-1962060D01*
G01X1593760Y-1079500D02*
G03X1352640Y-1079500I-120560J0D01*
G03X1593760Y-1079500I120560J0D01*
G01X1593760Y-1333500D02*
G03X1352640Y-1333500I-120560J0D01*
G03X1593760Y-1333500I120560J0D01*
G01X1593760Y-1587500D02*
G03X1352640Y-1587500I-120560J0D01*
G03X1593760Y-1587500I120560J0D01*
G01X1365668Y-554202D02*
G01X1365668Y-724202D01*
G03X1401482Y-760016I35814J0D01*
G01X1571481Y-760016D01*
G03X1607295Y-724202I0J35814D01*
G01X1607295Y-554202D01*
G03X1571481Y-518388I-35814J0D01*
G01X1401482Y-518388D01*
G03X1365668Y-554202I0J-35814D01*
G01X1607295Y-385202D02*
G03X1365668Y-385202I-120814J0D01*
G03X1607295Y-385202I120814J0D01*
G01X1809586Y-550000D02*
G01X1809586Y-720000D01*
G03X1845400Y-755814I35814J0D01*
G01X2015400Y-755814D01*
G03X2051214Y-720000I0J35814D01*
G01X2051214Y-550000D01*
G03X2015400Y-514186I-35814J0D01*
G01X1845400Y-514186D01*
G03X1809586Y-550000I0J-35814D01*
G01X4769231Y-1837515D02*
G01X4768973Y-1845755D01*
G03X4826000Y-1945914I57027J-33845D01*
G03X4883027Y-1845755I0J66314D01*
G01X4882769Y-1837515D01*
G01X4882769Y-609600D01*
G03X4866142Y-569458I-56769J0D01*
G01X4637542Y-340858D01*
G03X4597400Y-324231I-40142J-40142D01*
G01X2047509Y-324222D01*
G01X2047108Y-324070D01*
G01X2046258Y-323645D01*
G01X2041087Y-320239D01*
G01X2035409Y-315527D01*
G01X2029259Y-309648D01*
G01X2023060Y-303239D01*
G01X2020935Y-301004D01*
G03X2010374Y-290446I-90535J-79996D01*
G03X1809586Y-381000I-79936J-90639D01*
G03X2010374Y-471554I120852J85D01*
G03X2020935Y-460996I-79974J90554D01*
G01X2023060Y-458761D01*
G01X2029259Y-452352D01*
G01X2035409Y-446473D01*
G01X2041087Y-441761D01*
G01X2046258Y-438355D01*
G01X2047108Y-437930D01*
G01X2047618Y-437769D01*
G01X4573886Y-437769D01*
G01X4769231Y-633114D01*
G01X4769231Y-1837515D01*
G01X2239341Y-8128000D02*
G03X2002713Y-8128000I-118314J0D01*
G03X2239341Y-8128000I118314J0D01*
G01X2238833Y-7874000D02*
G03X2002713Y-7874000I-118060J0D01*
G03X2238833Y-7874000I118060J0D01*
G01X2567940Y-666586D02*
G01X2410460Y-666586D01*
G03X2374646Y-702400I0J-35814D01*
G01X2374646Y-872400D01*
G03X2410460Y-908214I35814J0D01*
G01X2567940Y-908214D01*
G03X2603754Y-872400I0J35814D01*
G01X2603754Y-702400D01*
G03X2567940Y-666586I-35814J0D01*
G01X2863760Y-787400D02*
G03X2622640Y-787400I-120560J0D01*
G03X2863760Y-787400I120560J0D01*
G01X3341616Y-7708905D02*
G03X3109989Y-7708905I-115814J0D01*
G03X3341616Y-7708905I115814J0D01*
G01X3341616Y-8216905D02*
G03X3109989Y-8216905I-115814J0D01*
G03X3341616Y-8216905I115814J0D01*
G01X3341362Y-7962905D02*
G03X3110243Y-7962905I-115560J0D01*
G03X3341362Y-7962905I115560J0D01*
G01X4865616Y-3898905D02*
G03X4633989Y-3898905I-115814J0D01*
G03X4865616Y-3898905I115814J0D01*
G01X6163144Y-4713165D02*
G01X6181105Y-4695205D01*
G03X6195314Y-4660900I-34305J34305D01*
G01X6195314Y-4229100D01*
G03X6181105Y-4194795I-48514J0D01*
G01X6143005Y-4156695D01*
G03X6108700Y-4142486I-34305J-34305D01*
G01X6075059Y-4142486D01*
G01X6074565Y-4142181D01*
G01X6072610Y-4140709D01*
G01X6070408Y-4138789D01*
G01X6064106Y-4132380D01*
G01X6057684Y-4124943D01*
G01X6056451Y-4123429D01*
G03X6036274Y-4100446I-100151J-67571D01*
G03X5835486Y-4191000I-79936J-90639D01*
G03X6036274Y-4281554I120852J85D01*
G03X6056451Y-4258571I-79974J90554D01*
G01X6057684Y-4257057D01*
G01X6064106Y-4249620D01*
G01X6070408Y-4243211D01*
G01X6072610Y-4241291D01*
G01X6074565Y-4239819D01*
G01X6075059Y-4239514D01*
G01X6088605Y-4239514D01*
G01X6098286Y-4249195D01*
G01X6098286Y-4630347D01*
G01X4874232Y-4630286D01*
G01X4872407Y-4628900D01*
G01X4870383Y-4627117D01*
G01X4864492Y-4621009D01*
G01X4858711Y-4614021D01*
G01X4853197Y-4606643D01*
G01X4845195Y-4595231D01*
G03X4634004Y-4659002I-95393J-65674D01*
G03X4842986Y-4729678I115798J-1903D01*
G01X4846273Y-4727375D01*
G01X6128839Y-4727375D01*
G03X6163144Y-4713165I0J48514D01*
G01X4865616Y-4152905D02*
G03X4633989Y-4152905I-115814J0D01*
G03X4865616Y-4152905I115814J0D01*
G01X4865616Y-8216905D02*
G03X4633989Y-8216905I-115814J0D01*
G03X4865616Y-8216905I115814J0D01*
G01X4865616Y-7962905D02*
G03X4633989Y-7962905I-115814J0D01*
G03X4865616Y-7962905I115814J0D01*
G01X4865616Y-7708905D02*
G03X4633989Y-7708905I-115814J0D01*
G03X4865616Y-7708905I115814J0D01*
G01X4865616Y-7454905D02*
G03X4633989Y-7454905I-115814J0D01*
G03X4865616Y-7454905I115814J0D01*
G01X4843780Y-6506589D02*
G01X4846875Y-6502562D01*
G01X4852749Y-6495053D01*
G01X4858630Y-6488103D01*
G01X4864474Y-6482101D01*
G01X4866454Y-6480366D01*
G01X4868175Y-6479065D01*
G01X5843573Y-6479065D01*
G01X5847556Y-6482223D01*
G01X5852797Y-6487432D01*
G01X5858634Y-6494047D01*
G01X5860415Y-6496190D01*
G03X5878476Y-6516421I93884J65639D01*
G03X6068852Y-6430551I75791J85939D01*
G03X5878476Y-6344681I-114585J-69D01*
G03X5860416Y-6364910I75822J-85870D01*
G01X5858634Y-6367055D01*
G01X5852797Y-6373670D01*
G01X5847556Y-6378879D01*
G01X5843573Y-6382037D01*
G01X4855379Y-6382037D01*
G01X4850946Y-6378779D01*
G01X4845748Y-6373827D01*
G01X4845165Y-6373187D01*
G03X4634275Y-6430771I-95362J-65718D01*
G03X4835100Y-6517245I115554J-8073D01*
G03X4843780Y-6506589I-85298J78340D01*
G01X5838035Y-4493819D02*
G01X5839990Y-4495291D01*
G01X5842192Y-4497211D01*
G01X5848494Y-4503620D01*
G01X5854916Y-4511057D01*
G01X5856149Y-4512571D01*
G03X5876326Y-4535554I100151J67571D01*
G03X6077114Y-4445000I79936J90639D01*
G03X5876326Y-4354446I-120852J-85D01*
G03X5856149Y-4377429I79974J-90554D01*
G01X5854916Y-4378943D01*
G01X5848494Y-4386380D01*
G01X5842192Y-4392789D01*
G01X5839990Y-4394709D01*
G01X5838035Y-4396181D01*
G01X5837541Y-4396486D01*
G01X4883819Y-4396486D01*
G01X4882936Y-4395968D01*
G01X4880893Y-4394513D01*
G01X4878759Y-4392748D01*
G01X4872772Y-4386858D01*
G01X4867277Y-4380370D01*
G01X4862616Y-4373914D01*
G01X4859529Y-4368831D01*
G01X4857931Y-4365420D01*
G03X4647572Y-4352483I-108129J-41485D01*
G03X4775840Y-4519754I102265J-54395D01*
G03X4826690Y-4493514I-26038J112849D01*
G01X5837541Y-4493514D01*
G01X5838035Y-4493819D01*
G01X4865362Y-3390905D02*
G03X4634243Y-3390905I-115560J0D01*
G03X4865362Y-3390905I115560J0D01*
G01X4865362Y-3644905D02*
G03X4634243Y-3644905I-115560J0D01*
G03X4865362Y-3644905I115560J0D01*
G01X5136286Y-8382000D02*
G03X5607914Y-8382000I235814J0D01*
G03X5136286Y-8382000I-235814J0D01*
G01X5646014Y-381000D02*
G03X5174386Y-381000I-235814J0D01*
G03X5646014Y-381000I235814J0D01*
G01X6077114Y-3768000D02*
G01X6077114Y-3598000D01*
G03X6041300Y-3562186I-35814J0D01*
G01X5871300Y-3562186D01*
G03X5835486Y-3598000I0J-35814D01*
G01X5835486Y-3768000D01*
G03X5871300Y-3803814I35814J0D01*
G01X6041300Y-3803814D01*
G03X6077114Y-3768000I0J35814D01*
G01X6076860Y-3937000D02*
G03X5835740Y-3937000I-120560J0D01*
G03X6076860Y-3937000I120560J0D01*
G01X6068852Y-7990840D02*
G01X6068852Y-7833360D01*
G03X6033038Y-7797546I-35814J0D01*
G01X5875558Y-7797546D01*
G03X5839744Y-7833360I0J-35814D01*
G01X5839744Y-7990840D01*
G03X5875558Y-8026654I35814J0D01*
G01X6033038Y-8026654D01*
G03X6068852Y-7990840I0J35814D01*
G01X6068852Y-6001291D02*
G01X6068852Y-5843811D01*
G03X6033038Y-5807997I-35814J0D01*
G01X5875558Y-5807997D01*
G03X5839744Y-5843811I0J-35814D01*
G01X5839744Y-6001291D01*
G03X5875558Y-6037105I35814J0D01*
G01X6033038Y-6037105D01*
G03X6068852Y-6001291I0J35814D01*
G01X6068598Y-8420100D02*
G03X5839998Y-8420100I-114300J0D01*
G03X6068598Y-8420100I114300J0D01*
G01X6068598Y-6176551D02*
G03X5839998Y-6176551I-114300J0D01*
G03X6068598Y-6176551I114300J0D01*
G01X6102514Y-1024800D02*
G01X6102514Y-854800D01*
G03X6066700Y-818986I-35814J0D01*
G01X5896700Y-818986D01*
G03X5860886Y-854800I0J-35814D01*
G01X5860886Y-1024800D01*
G03X5896700Y-1060614I35814J0D01*
G01X6066700Y-1060614D01*
G03X6102514Y-1024800I0J35814D01*
G01X6102260Y-1193800D02*
G03X5861140Y-1193800I-120560J0D01*
G03X6102260Y-1193800I120560J0D01*
G01X188214Y-3251097D02*
G01X317235Y-3122077D01*
G02X334461Y-3116956I17227J-26417D01*
G01X447040Y-3116956D01*
G03X482854Y-3081142I0J35814D01*
G01X482854Y-2923662D01*
G03X476678Y-2903556I-35814J0D01*
G01X993251Y-2903556D01*
G01X3161967Y-5072272D01*
G03X3142100Y-5248947I63835J-96633D01*
G03X3319486Y-5236995I83703J80042D01*
G01X3319486Y-5354815D01*
G03X3130976Y-5356416I-93684J-68090D01*
G01X3127994Y-5359178D01*
G01X3123647Y-5362410D01*
G01X2903719Y-5362410D01*
G01X2817114Y-5275805D01*
G01X2817114Y-4809744D01*
G03X2802905Y-4775439I-48514J0D01*
G01X2095261Y-4067795D01*
G03X2060956Y-4053586I-34305J-34305D01*
G01X1714500Y-4053586D01*
G03X1680195Y-4067795I0J-48514D01*
G01X1578595Y-4169395D01*
G03X1564386Y-4203700I34305J-34305D01*
G01X1564386Y-6164805D01*
G01X1415005Y-6314186D01*
G01X475238Y-6314186D01*
G01X473623Y-6312964D01*
G01X471689Y-6311269D01*
G01X465951Y-6305360D01*
G01X460236Y-6298544D01*
G01X454547Y-6291125D01*
G01X449611Y-6284544D01*
G03X243357Y-6327106I-94011J-65456D01*
G03X416576Y-6446977I112283J-22836D01*
G03X448951Y-6416395I-60976J96977D01*
G01X451282Y-6414264D01*
G01X455437Y-6411214D01*
G01X1435100Y-6411214D01*
G03X1469405Y-6397005I0J48514D01*
G01X1647205Y-6219205D01*
G03X1661414Y-6184900I-34305J34305D01*
G01X1661414Y-4223795D01*
G01X1734595Y-4150614D01*
G01X2040861Y-4150614D01*
G01X2171333Y-4281086D01*
G01X2056300Y-4281086D01*
G03X2020486Y-4316900I0J-35814D01*
G01X2020486Y-4496900D01*
G03X2056300Y-4532714I35814J0D01*
G01X2236300Y-4532714D01*
G03X2272114Y-4496900I0J35814D01*
G01X2272114Y-4381867D01*
G01X2720086Y-4829839D01*
G01X2720086Y-4962877D01*
G01X2637805Y-4880595D01*
G03X2603500Y-4866386I-34305J-34305D01*
G01X2271590Y-4866386D01*
G01X2270566Y-4865743D01*
G01X2268359Y-4864054D01*
G01X2265900Y-4861876D01*
G01X2259109Y-4854860D01*
G01X2252225Y-4846768D01*
G01X2251405Y-4845748D01*
G03X2229571Y-4820587I-105105J-69152D01*
G03X2021603Y-4931628I-83235J-94380D01*
G03X2251405Y-4984052I124697J16728D01*
G01X2252225Y-4983032D01*
G01X2259109Y-4974940D01*
G01X2265900Y-4967924D01*
G01X2268359Y-4965746D01*
G01X2270566Y-4964057D01*
G01X2271590Y-4963414D01*
G01X2583405Y-4963414D01*
G01X2656586Y-5036595D01*
G01X2656586Y-5216877D01*
G01X2561605Y-5121895D01*
G03X2527300Y-5107686I-34305J-34305D01*
G01X2260984Y-5107686D01*
G01X2259755Y-5106959D01*
G01X2257594Y-5105401D01*
G01X2255180Y-5103390D01*
G01X2251393Y-5099729D01*
G03X2020505Y-5166750I-105093J-69171D01*
G03X2248967Y-5241623I125795J-2150D01*
G01X2254548Y-5233993D01*
G01X2261180Y-5225144D01*
G01X2267973Y-5216795D01*
G01X2274833Y-5209485D01*
G01X2277352Y-5207196D01*
G01X2279639Y-5205402D01*
G01X2280709Y-5204714D01*
G01X2507205Y-5204714D01*
G01X2593086Y-5290595D01*
G01X2593086Y-6705600D01*
G03X2607295Y-6739905I48514J0D01*
G01X2848601Y-6981210D01*
G03X2882905Y-6995419I34305J34305D01*
G01X3113588Y-6995419D01*
G01X3115273Y-6996664D01*
G01X3117218Y-6998329D01*
G01X3123028Y-7004132D01*
G01X3128984Y-7010913D01*
G01X3130652Y-7012930D01*
G03X3140635Y-7025386I95150J66025D01*
G01X629695Y-7025386D01*
G01X188214Y-6583905D01*
G01X188214Y-3251097D01*
G01X470154Y-5920740D02*
G01X470154Y-5763260D01*
G03X434340Y-5727446I-35814J0D01*
G01X276860Y-5727446D01*
G03X241046Y-5763260I0J-35814D01*
G01X241046Y-5920740D01*
G03X276860Y-5956554I35814J0D01*
G01X434340Y-5956554D01*
G03X470154Y-5920740I0J35814D01*
G01X469900Y-6096000D02*
G03X241300Y-6096000I-114300J0D01*
G03X469900Y-6096000I114300J0D01*
G01X480852Y-3868503D02*
G03X251744Y-3868503I-114554J0D01*
G03X480852Y-3868503I114554J0D01*
G01X445038Y-4237057D02*
G03X480852Y-4201243I0J35814D01*
G01X480852Y-4043763D01*
G03X445038Y-4007949I-35814J0D01*
G01X287558Y-4007949D01*
G03X251744Y-4043763I0J-35814D01*
G01X251744Y-4201243D01*
G03X287558Y-4237057I35814J0D01*
G01X445038Y-4237057D01*
G01X480852Y-4655861D02*
G03X445038Y-4620047I-35814J0D01*
G01X287558Y-4620047D01*
G03X251744Y-4655861I0J-35814D01*
G01X251744Y-4813341D01*
G03X287558Y-4849155I35814J0D01*
G01X437135Y-4849155D01*
G01X410289Y-4876002D01*
G01X405239Y-4876586D01*
G01X397850Y-4876608D01*
G01X389045Y-4876058D01*
G01X386271Y-4875802D01*
G03X359233Y-4874266I-19972J-112800D01*
G03X285297Y-5069603I7177J-114378D01*
G03X480634Y-4995667I80960J81113D01*
G03X480668Y-4982104I-114336J7066D01*
G03X479099Y-4968632I-114370J-6497D01*
G01X478841Y-4965855D01*
G01X478292Y-4957049D01*
G01X478314Y-4949661D01*
G01X478898Y-4944611D01*
G01X1126505Y-4297004D01*
G03X1140714Y-4262700I-34305J34305D01*
G01X1140714Y-3297356D01*
G01X1141580Y-3295783D01*
G01X1143166Y-3293627D01*
G03X1092200Y-3184886I-50966J42427D01*
G03X1041234Y-3293627I0J-66314D01*
G01X1042820Y-3295783D01*
G01X1043686Y-3297356D01*
G01X1043686Y-4242605D01*
G01X480852Y-4805438D01*
G01X480852Y-4655861D01*
G01X480598Y-5242601D02*
G03X251998Y-5242601I-114300J0D01*
G03X480598Y-5242601I114300J0D01*
G01X480598Y-3614503D02*
G03X251998Y-3614503I-114300J0D01*
G03X480598Y-3614503I114300J0D01*
G01X2272114Y-5930900D02*
G03X2020486Y-5930900I-125814J0D01*
G03X2272114Y-5930900I125814J0D01*
G01X2272114Y-5676900D02*
G03X2020486Y-5676900I-125814J0D01*
G03X2272114Y-5676900I125814J0D01*
G01X2272114Y-5422900D02*
G03X2020486Y-5422900I-125814J0D01*
G03X2272114Y-5422900I125814J0D01*
G01X2272114Y-6184900D02*
G03X2020486Y-6184900I-125814J0D01*
G03X2272114Y-6184900I125814J0D01*
G01X2271860Y-4660900D02*
G03X2020740Y-4660900I-125560J0D01*
G03X2271860Y-4660900I125560J0D01*
G54D11*
G01X366298Y-5242601D02*
G01X470438Y-5242601D01*
G01X366298Y-5242601D02*
G01X262158Y-5242601D01*
G01X366298Y-5242601D02*
G01X366298Y-5138461D01*
G01X366298Y-5242601D02*
G01X366298Y-5346741D01*
G01X2146300Y-4660900D02*
G01X2261700Y-4660900D01*
G01X2146300Y-4660900D02*
G01X2030900Y-4660900D01*
G01X1473200Y-1079500D02*
G01X1362800Y-1079500D01*
G01X1473200Y-1079500D02*
G01X1583600Y-1079500D01*
G01X1473200Y-1079500D02*
G01X1473200Y-1189900D01*
G01X1473200Y-1079500D02*
G01X1473200Y-969100D01*
G01X2120773Y-7874000D02*
G01X2228673Y-7874000D01*
G01X2120773Y-7874000D02*
G01X2012873Y-7874000D01*
G01X2120773Y-7874000D02*
G01X2120773Y-7766100D01*
G01X2120773Y-7874000D02*
G01X2120773Y-7981900D01*
G01X355600Y-6096000D02*
G01X459740Y-6096000D01*
G01X355600Y-6096000D02*
G01X251460Y-6096000D01*
G01X355600Y-6096000D02*
G01X355600Y-5991860D01*
G01X355600Y-6096000D02*
G01X355600Y-6200140D01*
G01X366298Y-3614503D02*
G01X262158Y-3614503D01*
G01X366298Y-3614503D02*
G01X470438Y-3614503D01*
G01X366298Y-3614503D02*
G01X366298Y-3718643D01*
G01X366298Y-3614503D02*
G01X366298Y-3510363D01*
G01X1473200Y-1333500D02*
G01X1362800Y-1333500D01*
G01X1473200Y-1333500D02*
G01X1583600Y-1333500D01*
G01X1473200Y-1333500D02*
G01X1473200Y-1443900D01*
G01X1473200Y-1333500D02*
G01X1473200Y-1223100D01*
G01X1473200Y-1841500D02*
G01X1362800Y-1841500D01*
G01X1473200Y-1841500D02*
G01X1583600Y-1841500D01*
G01X1473200Y-1841500D02*
G01X1473200Y-1951900D01*
G01X1473200Y-1841500D02*
G01X1473200Y-1731100D01*
G01X1473200Y-1587500D02*
G01X1362800Y-1587500D01*
G01X1473200Y-1587500D02*
G01X1583600Y-1587500D01*
G01X1473200Y-1587500D02*
G01X1473200Y-1697900D01*
G01X1473200Y-1587500D02*
G01X1473200Y-1477100D01*
G01X2743200Y-787400D02*
G01X2743200Y-677000D01*
G01X2743200Y-787400D02*
G01X2743200Y-897800D01*
G01X2743200Y-787400D02*
G01X2632800Y-787400D01*
G01X5981700Y-1193800D02*
G01X6092100Y-1193800D01*
G01X5981700Y-1193800D02*
G01X5871300Y-1193800D01*
G01X5981700Y-1193800D02*
G01X5981700Y-1304200D01*
G01X5954298Y-8420100D02*
G01X6058438Y-8420100D01*
G01X5954298Y-8420100D02*
G01X5850158Y-8420100D01*
G01X5954298Y-8420100D02*
G01X5954298Y-8315960D01*
G01X5954298Y-8420100D02*
G01X5954298Y-8524240D01*
G01X5954298Y-6176551D02*
G01X6058438Y-6176551D01*
G01X5954298Y-6176551D02*
G01X5850158Y-6176551D01*
G01X5954298Y-6176551D02*
G01X5954298Y-6072411D01*
G01X5954298Y-6176551D02*
G01X5954298Y-6280691D01*
G01X5956300Y-3937000D02*
G01X6066700Y-3937000D01*
G01X5956300Y-3937000D02*
G01X5845900Y-3937000D01*
G01X3225803Y-7962905D02*
G01X3331202Y-7962905D01*
G01X3225803Y-7962905D02*
G01X3120403Y-7962905D01*
G01X3225803Y-7962905D02*
G01X3225803Y-7857505D01*
G01X3225803Y-7962905D02*
G01X3225803Y-8068305D01*
G01X4749803Y-3644905D02*
G01X4855202Y-3644905D01*
G01X4749803Y-3644905D02*
G01X4644403Y-3644905D01*
G01X4749803Y-3644905D02*
G01X4749803Y-3539505D01*
G01X4749803Y-3644905D02*
G01X4749803Y-3750305D01*
G01X4749803Y-3390905D02*
G01X4855202Y-3390905D01*
G01X4749803Y-3390905D02*
G01X4644403Y-3390905D01*
G01X4749803Y-3390905D02*
G01X4749803Y-3285505D01*
G01X4749803Y-3390905D02*
G01X4749803Y-3496305D01*
G04 Copper End*

G04 TearDrop Start*
G36*
G01X4385945Y-2168276D02*
G01X4427855Y-2168276D01*
G01X4428283Y-2181943D01*
G01X4428877Y-2186960D01*
G01X4429775Y-2189626D01*
G01X4384025Y-2189626D01*
G01X4384923Y-2186960D01*
G01X4385517Y-2181943D01*
G01X4385945Y-2168276D01*
G37*
G36*
G01X4427855Y-2022724D02*
G01X4385945Y-2022724D01*
G01X4385517Y-2009057D01*
G01X4384923Y-2004040D01*
G01X4384025Y-2001374D01*
G01X4429775Y-2001374D01*
G01X4428877Y-2004040D01*
G01X4428283Y-2009057D01*
G01X4427855Y-2022724D01*
G37*
G36*
G01X6072022Y-4178300D02*
G01X6072022Y-4203700D01*
G01X6067561Y-4204159D01*
G01X6063114Y-4205468D01*
G01X6058701Y-4207522D01*
G01X6054338Y-4210218D01*
G01X6050044Y-4213451D01*
G01X6045838Y-4217118D01*
G01X6037757Y-4225336D01*
G01X6030241Y-4234040D01*
G01X6023433Y-4242398D01*
G01X6017479Y-4249579D01*
G01X6012522Y-4254750D01*
G01X6012522Y-4127250D01*
G01X6017479Y-4132421D01*
G01X6023433Y-4139602D01*
G01X6030241Y-4147960D01*
G01X6037757Y-4156664D01*
G01X6045838Y-4164882D01*
G01X6050044Y-4168549D01*
G01X6054338Y-4171782D01*
G01X6058701Y-4174478D01*
G01X6063114Y-4176532D01*
G01X6067561Y-4177841D01*
G01X6072022Y-4178300D01*
G37*
G36*
G01X4870834Y-4666161D02*
G01X4843901Y-4691561D01*
G01X4839713Y-4691934D01*
G01X4835558Y-4692998D01*
G01X4831449Y-4694663D01*
G01X4827398Y-4696843D01*
G01X4819521Y-4702395D01*
G01X4812028Y-4708954D01*
G01X4798593Y-4722291D01*
G01X4792854Y-4727668D01*
G01X4787901Y-4731251D01*
G01X4814834Y-4614312D01*
G01X4824184Y-4627648D01*
G01X4830553Y-4636170D01*
G01X4837768Y-4644889D01*
G01X4845615Y-4653027D01*
G01X4849710Y-4656634D01*
G01X4853884Y-4659804D01*
G01X4858110Y-4662439D01*
G01X4862361Y-4664442D01*
G01X4866611Y-4665715D01*
G01X4870834Y-4666161D01*
G37*
G36*
G01X5840578Y-4457700D02*
G01X5840578Y-4432300D01*
G01X5845039Y-4431841D01*
G01X5849486Y-4430532D01*
G01X5853899Y-4428478D01*
G01X5858262Y-4425782D01*
G01X5862556Y-4422549D01*
G01X5866762Y-4418882D01*
G01X5874843Y-4410664D01*
G01X5882359Y-4401960D01*
G01X5889167Y-4393602D01*
G01X5895121Y-4386421D01*
G01X5900078Y-4381250D01*
G01X5900078Y-4508750D01*
G01X5895121Y-4503579D01*
G01X5889167Y-4496398D01*
G01X5882359Y-4488040D01*
G01X5874843Y-4479336D01*
G01X5866762Y-4471118D01*
G01X5862556Y-4467451D01*
G01X5858262Y-4464218D01*
G01X5853899Y-4461522D01*
G01X5849486Y-4459468D01*
G01X5845039Y-4458159D01*
G01X5840578Y-4457700D01*
G37*
G36*
G01X4880904Y-4432300D02*
G01X4823762Y-4457700D01*
G01X4819575Y-4457974D01*
G01X4815422Y-4458753D01*
G01X4811315Y-4459967D01*
G01X4807268Y-4461551D01*
G01X4799398Y-4465558D01*
G01X4791911Y-4470234D01*
G01X4778479Y-4479440D01*
G01X4772732Y-4482894D01*
G01X4767762Y-4484863D01*
G01X4824904Y-4379342D01*
G01X4827916Y-4385772D01*
G01X4832745Y-4393722D01*
G01X4839051Y-4402458D01*
G01X4846496Y-4411248D01*
G01X4854742Y-4419359D01*
G01X4859060Y-4422932D01*
G01X4863451Y-4426060D01*
G01X4867873Y-4428653D01*
G01X4872284Y-4430618D01*
G01X4876642Y-4431864D01*
G01X4880904Y-4432300D01*
G37*
G36*
G01X5847099Y-6443251D02*
G01X5847099Y-6417851D01*
G01X5851232Y-6417435D01*
G01X5855354Y-6416250D01*
G01X5859447Y-6414390D01*
G01X5863493Y-6411948D01*
G01X5871379Y-6405696D01*
G01X5878874Y-6398246D01*
G01X5885843Y-6390350D01*
G01X5892148Y-6382758D01*
G01X5897651Y-6376223D01*
G01X5902217Y-6371496D01*
G01X5902217Y-6489606D01*
G01X5897651Y-6484879D01*
G01X5892148Y-6478344D01*
G01X5885843Y-6470752D01*
G01X5878874Y-6462856D01*
G01X5871379Y-6455406D01*
G01X5863493Y-6449154D01*
G01X5859447Y-6446712D01*
G01X5855354Y-6444852D01*
G01X5851232Y-6443667D01*
G01X5847099Y-6443251D01*
G37*
G36*
G01X4852162Y-6417851D02*
G01X4864694Y-6443251D01*
G01X4860485Y-6443689D01*
G01X4856272Y-6444938D01*
G01X4852077Y-6446901D01*
G01X4847920Y-6449481D01*
G01X4843823Y-6452579D01*
G01X4839806Y-6456099D01*
G01X4832098Y-6464014D01*
G01X4824964Y-6472446D01*
G01X4818573Y-6480615D01*
G01X4813094Y-6487744D01*
G01X4808694Y-6493051D01*
G01X4796163Y-6373708D01*
G01X4800987Y-6377977D01*
G01X4806666Y-6384092D01*
G01X4820121Y-6398878D01*
G01X4827665Y-6406063D01*
G01X4835597Y-6412116D01*
G01X4839673Y-6414485D01*
G01X4843802Y-6416293D01*
G01X4847970Y-6417446D01*
G01X4852162Y-6417851D01*
G37*
G36*
G01X4858717Y-7188205D02*
G01X4858717Y-7213605D01*
G01X4854518Y-7214030D01*
G01X4850331Y-7215240D01*
G01X4846174Y-7217139D01*
G01X4842064Y-7219632D01*
G01X4838018Y-7222622D01*
G01X4834054Y-7226014D01*
G01X4826441Y-7233619D01*
G01X4819362Y-7241678D01*
G01X4812956Y-7249423D01*
G01X4807362Y-7256088D01*
G01X4802717Y-7260905D01*
G01X4802717Y-7140905D01*
G01X4807362Y-7145722D01*
G01X4812956Y-7152387D01*
G01X4819362Y-7160133D01*
G01X4826441Y-7168192D01*
G01X4834054Y-7175796D01*
G01X4838018Y-7179188D01*
G01X4842064Y-7182178D01*
G01X4846174Y-7184671D01*
G01X4850331Y-7186570D01*
G01X4854518Y-7187780D01*
G01X4858717Y-7188205D01*
G37*
G36*
G01X5847099Y-8178800D02*
G01X5847099Y-8153400D01*
G01X5851232Y-8152984D01*
G01X5855354Y-8151799D01*
G01X5859447Y-8149939D01*
G01X5863493Y-8147497D01*
G01X5871379Y-8141245D01*
G01X5878874Y-8133795D01*
G01X5885843Y-8125899D01*
G01X5892148Y-8118307D01*
G01X5897651Y-8111772D01*
G01X5902217Y-8107045D01*
G01X5902217Y-8225155D01*
G01X5897651Y-8220428D01*
G01X5892148Y-8213893D01*
G01X5885843Y-8206301D01*
G01X5878874Y-8198405D01*
G01X5871379Y-8190955D01*
G01X5863493Y-8184703D01*
G01X5859447Y-8182261D01*
G01X5855354Y-8180401D01*
G01X5851232Y-8179216D01*
G01X5847099Y-8178800D01*
G37*
G36*
G01X3108499Y-5423624D02*
G01X3126470Y-5398224D01*
G01X3130661Y-5397830D01*
G01X3134823Y-5396708D01*
G01X3138943Y-5394949D01*
G01X3143007Y-5392645D01*
G01X3150915Y-5386765D01*
G01X3158435Y-5379798D01*
G01X3171881Y-5365523D01*
G01X3177587Y-5359674D01*
G01X3182470Y-5355657D01*
G01X3164499Y-5474304D01*
G01X3154804Y-5461502D01*
G01X3148421Y-5453182D01*
G01X3141259Y-5444623D01*
G01X3133502Y-5436607D01*
G01X3129458Y-5433047D01*
G01X3125334Y-5429915D01*
G01X3121153Y-5427309D01*
G01X3116938Y-5425327D01*
G01X3112712Y-5424066D01*
G01X3108499Y-5423624D01*
G37*
G36*
G01X475500Y-1107598D02*
G01X475500Y-1132998D01*
G01X471366Y-1133414D01*
G01X467244Y-1134600D01*
G01X463152Y-1136460D01*
G01X459105Y-1138902D01*
G01X451220Y-1145153D01*
G01X443724Y-1152603D01*
G01X436755Y-1160500D01*
G01X430451Y-1168091D01*
G01X424947Y-1174626D01*
G01X420382Y-1179353D01*
G01X420382Y-1061243D01*
G01X424947Y-1065971D01*
G01X430451Y-1072506D01*
G01X436755Y-1080097D01*
G01X443724Y-1087994D01*
G01X451220Y-1095444D01*
G01X459105Y-1101695D01*
G01X463152Y-1104137D01*
G01X467244Y-1105997D01*
G01X471366Y-1107183D01*
G01X475500Y-1107598D01*
G37*
G36*
G01X4640888Y-6197605D02*
G01X4640888Y-6172205D01*
G01X4645087Y-6171780D01*
G01X4649274Y-6170570D01*
G01X4653431Y-6168671D01*
G01X4657541Y-6166178D01*
G01X4661587Y-6163188D01*
G01X4665551Y-6159796D01*
G01X4673164Y-6152192D01*
G01X4680243Y-6144133D01*
G01X4686649Y-6136387D01*
G01X4692243Y-6129722D01*
G01X4696888Y-6124905D01*
G01X4696888Y-6244905D01*
G01X4692243Y-6240088D01*
G01X4686649Y-6233423D01*
G01X4680243Y-6225678D01*
G01X4673164Y-6217619D01*
G01X4665551Y-6210014D01*
G01X4661587Y-6206622D01*
G01X4657541Y-6203632D01*
G01X4653431Y-6201139D01*
G01X4649274Y-6199240D01*
G01X4645087Y-6198030D01*
G01X4640888Y-6197605D01*
G37*
G36*
G01X496490Y-889000D02*
G01X443388Y-914400D01*
G01X439267Y-914681D01*
G01X435180Y-915477D01*
G01X431140Y-916721D01*
G01X427157Y-918344D01*
G01X419414Y-922452D01*
G01X412048Y-927256D01*
G01X398830Y-936756D01*
G01X393169Y-940357D01*
G01X388270Y-942464D01*
G01X441372Y-836965D01*
G01X444458Y-843240D01*
G01X449266Y-851030D01*
G01X455480Y-859612D01*
G01X462781Y-868258D01*
G01X470851Y-876245D01*
G01X475074Y-879765D01*
G01X479371Y-882848D01*
G01X483700Y-885404D01*
G01X488023Y-887341D01*
G01X492300Y-888570D01*
G01X496490Y-889000D01*
G37*
G36*
G01X4651079Y-5956300D02*
G01X4632037Y-5930900D01*
G01X4636252Y-5930457D01*
G01X4640480Y-5929195D01*
G01X4644699Y-5927209D01*
G01X4648885Y-5924599D01*
G01X4653015Y-5921461D01*
G01X4657065Y-5917894D01*
G01X4664832Y-5909861D01*
G01X4672000Y-5901280D01*
G01X4678381Y-5892933D01*
G01X4688037Y-5880062D01*
G01X4707079Y-5998542D01*
G01X4702186Y-5994575D01*
G01X4696475Y-5988781D01*
G01X4683031Y-5974611D01*
G01X4675514Y-5967690D01*
G01X4667611Y-5961847D01*
G01X4663549Y-5959556D01*
G01X4659430Y-5957808D01*
G01X4655269Y-5956692D01*
G01X4651079Y-5956300D01*
G37*
G36*
G01X4682588Y-5762080D02*
G01X4664627Y-5744120D01*
G01X4667233Y-5740911D01*
G01X4669273Y-5737156D01*
G01X4670802Y-5732933D01*
G01X4671877Y-5728324D01*
G01X4672555Y-5723407D01*
G01X4672892Y-5718263D01*
G01X4672770Y-5707612D01*
G01X4671964Y-5697010D01*
G01X4670925Y-5687098D01*
G01X4670106Y-5678513D01*
G01X4669960Y-5671895D01*
G01X4754812Y-5756748D01*
G01X4748195Y-5756601D01*
G01X4739610Y-5755782D01*
G01X4729697Y-5754744D01*
G01X4719096Y-5753937D01*
G01X4708445Y-5753816D01*
G01X4703301Y-5754153D01*
G01X4698384Y-5754831D01*
G01X4693774Y-5755906D01*
G01X4689552Y-5757435D01*
G01X4685796Y-5759474D01*
G01X4682588Y-5762080D01*
G37*
G36*
G01X475500Y-345598D02*
G01X475500Y-370998D01*
G01X471366Y-371414D01*
G01X467244Y-372600D01*
G01X463152Y-374460D01*
G01X459105Y-376902D01*
G01X451220Y-383153D01*
G01X443724Y-390603D01*
G01X436755Y-398500D01*
G01X430451Y-406091D01*
G01X424947Y-412626D01*
G01X420382Y-417353D01*
G01X420382Y-299243D01*
G01X424947Y-303971D01*
G01X430451Y-310506D01*
G01X436755Y-318097D01*
G01X443724Y-325994D01*
G01X451220Y-333444D01*
G01X459105Y-339695D01*
G01X463152Y-342137D01*
G01X467244Y-343997D01*
G01X471366Y-345183D01*
G01X475500Y-345598D01*
G37*
G36*
G01X4675843Y-5473700D02*
G01X4618701Y-5448300D01*
G01X4622963Y-5447864D01*
G01X4627321Y-5446618D01*
G01X4631732Y-5444653D01*
G01X4636154Y-5442060D01*
G01X4640545Y-5438932D01*
G01X4644863Y-5435359D01*
G01X4653109Y-5427248D01*
G01X4660555Y-5418458D01*
G01X4666860Y-5409722D01*
G01X4671689Y-5401772D01*
G01X4674701Y-5395342D01*
G01X4731843Y-5500863D01*
G01X4726873Y-5498894D01*
G01X4721126Y-5495440D01*
G01X4707695Y-5486234D01*
G01X4700207Y-5481558D01*
G01X4692338Y-5477551D01*
G01X4688290Y-5475967D01*
G01X4684183Y-5474753D01*
G01X4680030Y-5473974D01*
G01X4675843Y-5473700D01*
G37*
G36*
G01X460510Y-1448548D02*
G01X442550Y-1466509D01*
G03X402139Y-1453038I-40411J-53882D01*
G01X447040Y-1408137D01*
G03X460510Y-1448548I67352J0D01*
G37*
G36*
G01X4640884Y-6959600D02*
G01X4640892Y-6934200D01*
G01X4645091Y-6933775D01*
G01X4649278Y-6932565D01*
G01X4653435Y-6930666D01*
G01X4657545Y-6928173D01*
G01X4661591Y-6925183D01*
G01X4665555Y-6921791D01*
G01X4673168Y-6914187D01*
G01X4680247Y-6906128D01*
G01X4686653Y-6898383D01*
G01X4692247Y-6891718D01*
G01X4696891Y-6886902D01*
G01X4696884Y-7006902D01*
G01X4692240Y-7002085D01*
G01X4686645Y-6995419D01*
G01X4680240Y-6987673D01*
G01X4673161Y-6979614D01*
G01X4665547Y-6972009D01*
G01X4661583Y-6968618D01*
G01X4657538Y-6965627D01*
G01X4653428Y-6963134D01*
G01X4649270Y-6961235D01*
G01X4645083Y-6960025D01*
G01X4640884Y-6959600D01*
G37*
G36*
G01X294050Y-3094613D02*
G01X276090Y-3076652D01*
G03X289560Y-3036241I-53882J40411D01*
G01X334461Y-3081142D01*
G03X294050Y-3094613I0J-67352D01*
G37*
G36*
G01X453082Y-679120D02*
G01X435121Y-697080D01*
G01X431904Y-694452D01*
G01X428152Y-692375D01*
G01X423942Y-690797D01*
G01X419355Y-689662D01*
G01X409358Y-688507D01*
G01X398790Y-688474D01*
G01X388279Y-689130D01*
G01X378453Y-690040D01*
G01X369940Y-690770D01*
G01X363369Y-690884D01*
G01X446885Y-607368D01*
G01X446771Y-613939D01*
G01X446042Y-622451D01*
G01X445132Y-632277D01*
G01X444476Y-642788D01*
G01X444508Y-653356D01*
G01X445664Y-663353D01*
G01X446798Y-667941D01*
G01X448377Y-672150D01*
G01X450453Y-675903D01*
G01X453082Y-679120D01*
G37*
G36*
G01X4025900Y-903122D02*
G01X4000500Y-903122D01*
G01X4000041Y-898661D01*
G01X3998732Y-894214D01*
G01X3996678Y-889801D01*
G01X3993982Y-885438D01*
G01X3990749Y-881144D01*
G01X3987082Y-876938D01*
G01X3978864Y-868857D01*
G01X3970160Y-861341D01*
G01X3961802Y-854533D01*
G01X3954621Y-848579D01*
G01X3949450Y-843622D01*
G01X4076950Y-843622D01*
G01X4071779Y-848579D01*
G01X4064598Y-854533D01*
G01X4056240Y-861341D01*
G01X4047536Y-868857D01*
G01X4039318Y-876938D01*
G01X4035651Y-881144D01*
G01X4032418Y-885438D01*
G01X4029722Y-889801D01*
G01X4027668Y-894214D01*
G01X4026359Y-898661D01*
G01X4025900Y-903122D01*
G37*
G36*
G01X3849432Y-3600208D02*
G01X3867392Y-3618168D01*
G01X3864762Y-3622036D01*
G01X3862321Y-3627736D01*
G01X3860440Y-3634226D01*
G01X3859490Y-3640460D01*
G01X3827140Y-3608110D01*
G01X3833374Y-3607160D01*
G01X3839864Y-3605279D01*
G01X3845564Y-3602838D01*
G01X3849432Y-3600208D01*
G37*
G36*
G01X3771900Y-903122D02*
G01X3746500Y-903122D01*
G01X3746041Y-898661D01*
G01X3744732Y-894214D01*
G01X3742678Y-889801D01*
G01X3739982Y-885438D01*
G01X3736749Y-881144D01*
G01X3733082Y-876938D01*
G01X3724864Y-868857D01*
G01X3716160Y-861341D01*
G01X3707802Y-854533D01*
G01X3700621Y-848579D01*
G01X3695450Y-843622D01*
G01X3822950Y-843622D01*
G01X3817779Y-848579D01*
G01X3810598Y-854533D01*
G01X3802240Y-861341D01*
G01X3793536Y-868857D01*
G01X3785318Y-876938D01*
G01X3781651Y-881144D01*
G01X3778418Y-885438D01*
G01X3775722Y-889801D01*
G01X3773668Y-894214D01*
G01X3772359Y-898661D01*
G01X3771900Y-903122D01*
G37*
G36*
G01X3746500Y-3158876D02*
G01X3771900Y-3158876D01*
G01X3772774Y-3163471D01*
G01X3775080Y-3169228D01*
G01X3778339Y-3175146D01*
G01X3782075Y-3180226D01*
G01X3736325Y-3180226D01*
G01X3740061Y-3175146D01*
G01X3743320Y-3169228D01*
G01X3745626Y-3163471D01*
G01X3746500Y-3158876D01*
G37*
G36*
G01X3517900Y-903122D02*
G01X3492500Y-903122D01*
G01X3492041Y-898661D01*
G01X3490732Y-894214D01*
G01X3488678Y-889801D01*
G01X3485982Y-885438D01*
G01X3482749Y-881144D01*
G01X3479082Y-876938D01*
G01X3470864Y-868857D01*
G01X3462160Y-861341D01*
G01X3453802Y-854533D01*
G01X3446621Y-848579D01*
G01X3441450Y-843622D01*
G01X3568950Y-843622D01*
G01X3563779Y-848579D01*
G01X3556598Y-854533D01*
G01X3548240Y-861341D01*
G01X3539536Y-868857D01*
G01X3531318Y-876938D01*
G01X3527651Y-881144D01*
G01X3524418Y-885438D01*
G01X3521722Y-889801D01*
G01X3519668Y-894214D01*
G01X3518359Y-898661D01*
G01X3517900Y-903122D01*
G37*
G36*
G01X3492500Y-2879476D02*
G01X3517900Y-2879476D01*
G01X3518774Y-2884071D01*
G01X3521080Y-2889828D01*
G01X3524339Y-2895746D01*
G01X3528075Y-2900826D01*
G01X3482325Y-2900826D01*
G01X3486061Y-2895746D01*
G01X3489320Y-2889828D01*
G01X3491626Y-2884071D01*
G01X3492500Y-2879476D01*
G37*
G36*
G01X3009900Y-903122D02*
G01X2984500Y-903122D01*
G01X2984041Y-898661D01*
G01X2982732Y-894214D01*
G01X2980678Y-889801D01*
G01X2977982Y-885438D01*
G01X2974749Y-881144D01*
G01X2971082Y-876938D01*
G01X2962864Y-868857D01*
G01X2954160Y-861341D01*
G01X2945802Y-854533D01*
G01X2938621Y-848579D01*
G01X2933450Y-843622D01*
G01X3060950Y-843622D01*
G01X3055779Y-848579D01*
G01X3048598Y-854533D01*
G01X3040240Y-861341D01*
G01X3031536Y-868857D01*
G01X3023318Y-876938D01*
G01X3019651Y-881144D01*
G01X3016418Y-885438D01*
G01X3013722Y-889801D01*
G01X3011668Y-894214D01*
G01X3010359Y-898661D01*
G01X3009900Y-903122D01*
G37*
G36*
G01X4640884Y-5181600D02*
G01X4640892Y-5156200D01*
G01X4645091Y-5155775D01*
G01X4649278Y-5154565D01*
G01X4653435Y-5152666D01*
G01X4657545Y-5150173D01*
G01X4661591Y-5147183D01*
G01X4665555Y-5143791D01*
G01X4673168Y-5136187D01*
G01X4680247Y-5128128D01*
G01X4686653Y-5120383D01*
G01X4692247Y-5113718D01*
G01X4696891Y-5108902D01*
G01X4696884Y-5228902D01*
G01X4692240Y-5224085D01*
G01X4686645Y-5217419D01*
G01X4680240Y-5209673D01*
G01X4673161Y-5201614D01*
G01X4665547Y-5194009D01*
G01X4661583Y-5190618D01*
G01X4657538Y-5187627D01*
G01X4653428Y-5185134D01*
G01X4649270Y-5183235D01*
G01X4645083Y-5182025D01*
G01X4640884Y-5181600D01*
G37*
G36*
G01X3263900Y-903122D02*
G01X3238500Y-903122D01*
G01X3238041Y-898661D01*
G01X3236732Y-894214D01*
G01X3234678Y-889801D01*
G01X3231982Y-885438D01*
G01X3228749Y-881144D01*
G01X3225082Y-876938D01*
G01X3216864Y-868857D01*
G01X3208160Y-861341D01*
G01X3199802Y-854533D01*
G01X3192621Y-848579D01*
G01X3187450Y-843622D01*
G01X3314950Y-843622D01*
G01X3309779Y-848579D01*
G01X3302598Y-854533D01*
G01X3294240Y-861341D01*
G01X3285536Y-868857D01*
G01X3277318Y-876938D01*
G01X3273651Y-881144D01*
G01X3270418Y-885438D01*
G01X3267722Y-889801D01*
G01X3265668Y-894214D01*
G01X3264359Y-898661D01*
G01X3263900Y-903122D01*
G37*
G36*
G01X4651079Y-4940300D02*
G01X4632037Y-4914900D01*
G01X4636252Y-4914457D01*
G01X4640480Y-4913195D01*
G01X4644699Y-4911209D01*
G01X4648885Y-4908599D01*
G01X4653015Y-4905461D01*
G01X4657065Y-4901894D01*
G01X4664832Y-4893861D01*
G01X4672000Y-4885280D01*
G01X4678381Y-4876933D01*
G01X4688037Y-4864062D01*
G01X4707079Y-4982542D01*
G01X4702186Y-4978575D01*
G01X4696475Y-4972781D01*
G01X4683031Y-4958611D01*
G01X4675514Y-4951690D01*
G01X4667611Y-4945847D01*
G01X4663549Y-4943556D01*
G01X4659430Y-4941808D01*
G01X4655269Y-4940692D01*
G01X4651079Y-4940300D01*
G37*
G36*
G01X433120Y-4903820D02*
G01X451080Y-4921780D01*
G01X448452Y-4924997D01*
G01X446375Y-4928750D01*
G01X444797Y-4932959D01*
G01X443662Y-4937547D01*
G01X442507Y-4947543D01*
G01X442474Y-4958112D01*
G01X443130Y-4968623D01*
G01X444040Y-4978449D01*
G01X444770Y-4986961D01*
G01X444884Y-4993532D01*
G01X361368Y-4910016D01*
G01X367939Y-4910130D01*
G01X376451Y-4910860D01*
G01X386277Y-4911770D01*
G01X396788Y-4912426D01*
G01X407356Y-4912393D01*
G01X417353Y-4911238D01*
G01X421941Y-4910103D01*
G01X426150Y-4908525D01*
G01X429903Y-4906448D01*
G01X433120Y-4903820D01*
G37*
G36*
G01X1104900Y-3292724D02*
G01X1079500Y-3292724D01*
G01X1078626Y-3288129D01*
G01X1076320Y-3282372D01*
G01X1073061Y-3276454D01*
G01X1069325Y-3271374D01*
G01X1115075Y-3271374D01*
G01X1111339Y-3276454D01*
G01X1108080Y-3282372D01*
G01X1105774Y-3288129D01*
G01X1104900Y-3292724D01*
G37*
G36*
G01X2057642Y-3157282D02*
G01X2039682Y-3175242D01*
G01X2035814Y-3172612D01*
G01X2030114Y-3170171D01*
G01X2023624Y-3168290D01*
G01X2017390Y-3167340D01*
G01X2049740Y-3134990D01*
G01X2050690Y-3141224D01*
G01X2052571Y-3147714D01*
G01X2055012Y-3153414D01*
G01X2057642Y-3157282D01*
G37*
G36*
G01X3116888Y-4165605D02*
G01X3116888Y-4140205D01*
G01X3121087Y-4139780D01*
G01X3125274Y-4138570D01*
G01X3129431Y-4136671D01*
G01X3133541Y-4134178D01*
G01X3137587Y-4131188D01*
G01X3141551Y-4127796D01*
G01X3149164Y-4120192D01*
G01X3156243Y-4112133D01*
G01X3162649Y-4104387D01*
G01X3168243Y-4097722D01*
G01X3172888Y-4092905D01*
G01X3172888Y-4212905D01*
G01X3168243Y-4208088D01*
G01X3162649Y-4201423D01*
G01X3156243Y-4193678D01*
G01X3149164Y-4185619D01*
G01X3141551Y-4178014D01*
G01X3137587Y-4174622D01*
G01X3133541Y-4171632D01*
G01X3129431Y-4169139D01*
G01X3125274Y-4167240D01*
G01X3121087Y-4166030D01*
G01X3116888Y-4165605D01*
G37*
G36*
G01X4835798Y-6760937D02*
G01X4817839Y-6778899D01*
G01X4814569Y-6776230D01*
G01X4810753Y-6774125D01*
G01X4806470Y-6772529D01*
G01X4801801Y-6771385D01*
G01X4796826Y-6770639D01*
G01X4791625Y-6770234D01*
G01X4780864Y-6770228D01*
G01X4770160Y-6770921D01*
G01X4760153Y-6771869D01*
G01X4751484Y-6772626D01*
G01X4744795Y-6772748D01*
G01X4829645Y-6687893D01*
G01X4829524Y-6694583D01*
G01X4828767Y-6703252D01*
G01X4827819Y-6713258D01*
G01X4827126Y-6723962D01*
G01X4827132Y-6734723D01*
G01X4827537Y-6739924D01*
G01X4828283Y-6744899D01*
G01X4829427Y-6749568D01*
G01X4831023Y-6753851D01*
G01X4833128Y-6757667D01*
G01X4835798Y-6760937D01*
G37*
G36*
G01X2908300Y-2193676D02*
G01X2933700Y-2193676D01*
G01X2934574Y-2198271D01*
G01X2936880Y-2204028D01*
G01X2940139Y-2209946D01*
G01X2943875Y-2215026D01*
G01X2898125Y-2215026D01*
G01X2901861Y-2209946D01*
G01X2905120Y-2204028D01*
G01X2907426Y-2198271D01*
G01X2908300Y-2193676D01*
G37*
G36*
G01X2844800Y-2422276D02*
G01X2870200Y-2422276D01*
G01X2871074Y-2426871D01*
G01X2873380Y-2432628D01*
G01X2876639Y-2438546D01*
G01X2880375Y-2443626D01*
G01X2834625Y-2443626D01*
G01X2838361Y-2438546D01*
G01X2841620Y-2432628D01*
G01X2843926Y-2426871D01*
G01X2844800Y-2422276D01*
G37*
G36*
G01X2781300Y-2587376D02*
G01X2806700Y-2587376D01*
G01X2807574Y-2591971D01*
G01X2809880Y-2597728D01*
G01X2813139Y-2603646D01*
G01X2816875Y-2608726D01*
G01X2771125Y-2608726D01*
G01X2774861Y-2603646D01*
G01X2778120Y-2597728D01*
G01X2780426Y-2591971D01*
G01X2781300Y-2587376D01*
G37*
G36*
G01X2679458Y-2443418D02*
G01X2697418Y-2425458D01*
G01X2701286Y-2428088D01*
G01X2706986Y-2430529D01*
G01X2713476Y-2432410D01*
G01X2719710Y-2433360D01*
G01X2687360Y-2465710D01*
G01X2686410Y-2459476D01*
G01X2684529Y-2452986D01*
G01X2682088Y-2447286D01*
G01X2679458Y-2443418D01*
G37*
G36*
G01X2046122Y-360045D02*
G01X2046122Y-401955D01*
G01X2041652Y-402329D01*
G01X2037183Y-403396D01*
G01X2032735Y-405073D01*
G01X2028331Y-407278D01*
G01X2019736Y-412939D01*
G01X2011570Y-419717D01*
G01X2004004Y-426949D01*
G01X1997210Y-433973D01*
G01X1991359Y-440127D01*
G01X1986622Y-444750D01*
G01X1986622Y-317250D01*
G01X1991359Y-321873D01*
G01X1997210Y-328027D01*
G01X2004004Y-335051D01*
G01X2011570Y-342283D01*
G01X2019736Y-349061D01*
G01X2028331Y-354722D01*
G01X2032735Y-356927D01*
G01X2037183Y-358604D01*
G01X2041652Y-359671D01*
G01X2046122Y-360045D01*
G37*
G36*
G01X4805045Y-1838076D02*
G01X4846955Y-1838076D01*
G01X4847383Y-1851743D01*
G01X4847977Y-1856760D01*
G01X4848875Y-1859426D01*
G01X4803125Y-1859426D01*
G01X4804023Y-1856760D01*
G01X4804617Y-1851743D01*
G01X4805045Y-1838076D01*
G37*
G36*
G01X471643Y-6350000D02*
G01X452593Y-6375400D01*
G01X448469Y-6375783D01*
G01X444373Y-6376873D01*
G01X440319Y-6378582D01*
G01X436320Y-6380820D01*
G01X428540Y-6386531D01*
G01X421140Y-6393294D01*
G01X407907Y-6407142D01*
G01X402288Y-6412805D01*
G01X397475Y-6416682D01*
G01X416525Y-6300118D01*
G01X426010Y-6312766D01*
G01X432290Y-6320957D01*
G01X439348Y-6329373D01*
G01X446998Y-6337250D01*
G01X450987Y-6340748D01*
G01X455054Y-6343824D01*
G01X459176Y-6346382D01*
G01X463331Y-6348328D01*
G01X467494Y-6349566D01*
G01X471643Y-6350000D01*
G37*
G36*
G01X3167019Y-7264400D02*
G01X3090545Y-7239000D01*
G01X3094843Y-7238612D01*
G01X3099299Y-7237501D01*
G01X3103857Y-7235744D01*
G01X3108460Y-7233422D01*
G01X3113052Y-7230612D01*
G01X3117574Y-7227394D01*
G01X3126187Y-7220045D01*
G01X3133844Y-7212005D01*
G01X3140092Y-7203904D01*
G01X3144477Y-7196371D01*
G01X3145829Y-7193014D01*
G01X3146545Y-7190035D01*
G01X3223019Y-7280856D01*
G01X3218182Y-7280033D01*
G01X3212497Y-7278114D01*
G01X3199044Y-7272476D01*
G01X3191505Y-7269500D01*
G01X3183578Y-7266914D01*
G01X3175378Y-7265090D01*
G01X3167019Y-7264400D01*
G37*
G36*
G01X2233346Y-8369300D02*
G01X2233346Y-8394700D01*
G01X2229016Y-8395142D01*
G01X2224699Y-8396401D01*
G01X2220414Y-8398378D01*
G01X2216177Y-8400973D01*
G01X2212008Y-8404084D01*
G01X2207922Y-8407614D01*
G01X2200075Y-8415525D01*
G01X2192778Y-8423906D01*
G01X2186171Y-8431959D01*
G01X2180397Y-8438881D01*
G01X2175596Y-8443875D01*
G01X2175596Y-8320125D01*
G01X2180397Y-8325119D01*
G01X2186171Y-8332041D01*
G01X2192778Y-8340094D01*
G01X2200075Y-8348475D01*
G01X2207922Y-8356386D01*
G01X2212008Y-8359916D01*
G01X2216177Y-8363027D01*
G01X2220414Y-8365622D01*
G01X2224699Y-8367599D01*
G01X2229016Y-8368858D01*
G01X2233346Y-8369300D01*
G37*
G36*
G01X2233346Y-8623300D02*
G01X2233346Y-8648700D01*
G01X2229016Y-8649142D01*
G01X2224699Y-8650401D01*
G01X2220414Y-8652378D01*
G01X2216177Y-8654973D01*
G01X2212008Y-8658084D01*
G01X2207922Y-8661614D01*
G01X2200075Y-8669525D01*
G01X2192778Y-8677906D01*
G01X2186171Y-8685959D01*
G01X2180397Y-8692881D01*
G01X2175596Y-8697875D01*
G01X2175596Y-8574125D01*
G01X2180397Y-8579119D01*
G01X2186171Y-8586041D01*
G01X2192778Y-8594094D01*
G01X2200075Y-8602475D01*
G01X2207922Y-8610386D01*
G01X2212008Y-8613916D01*
G01X2216177Y-8617027D01*
G01X2220414Y-8619622D01*
G01X2224699Y-8621599D01*
G01X2229016Y-8622858D01*
G01X2233346Y-8623300D01*
G37*
G36*
G01X3127079Y-7480300D02*
G01X3108037Y-7454900D01*
G01X3112252Y-7454457D01*
G01X3116480Y-7453195D01*
G01X3120699Y-7451209D01*
G01X3124885Y-7448599D01*
G01X3129015Y-7445461D01*
G01X3133065Y-7441894D01*
G01X3140832Y-7433861D01*
G01X3148000Y-7425280D01*
G01X3154381Y-7416933D01*
G01X3164037Y-7404062D01*
G01X3183079Y-7522542D01*
G01X3178186Y-7518575D01*
G01X3172475Y-7512781D01*
G01X3159031Y-7498611D01*
G01X3151514Y-7491690D01*
G01X3143611Y-7485847D01*
G01X3139549Y-7483556D01*
G01X3135430Y-7481808D01*
G01X3131269Y-7480692D01*
G01X3127079Y-7480300D01*
G37*
G36*
G01X301479Y-2071184D02*
G01X283518Y-2053223D01*
G01X286147Y-2050007D01*
G01X288223Y-2046254D01*
G01X289802Y-2042045D01*
G01X290936Y-2037457D01*
G01X292092Y-2027460D01*
G01X292124Y-2016892D01*
G01X291468Y-2006381D01*
G01X290558Y-1996555D01*
G01X289829Y-1988042D01*
G01X289715Y-1981471D01*
G01X373231Y-2064988D01*
G01X366660Y-2064873D01*
G01X358147Y-2064144D01*
G01X348321Y-2063234D01*
G01X337810Y-2062578D01*
G01X327242Y-2062610D01*
G01X317245Y-2063766D01*
G01X312658Y-2064900D01*
G01X308448Y-2066479D01*
G01X304696Y-2068555D01*
G01X301479Y-2071184D01*
G37*
G36*
G01X3213103Y-5067499D02*
G01X3238503Y-5067499D01*
G01X3238935Y-5071128D01*
G01X3240167Y-5074734D01*
G01X3242100Y-5078306D01*
G01X3244633Y-5081830D01*
G01X3251106Y-5088686D01*
G01X3258792Y-5095208D01*
G01X3274631Y-5106854D01*
G01X3281197Y-5111785D01*
G01X3285802Y-5115990D01*
G01X3165803Y-5115990D01*
G01X3170408Y-5111785D01*
G01X3176974Y-5106854D01*
G01X3192813Y-5095208D01*
G01X3200499Y-5088686D01*
G01X3206972Y-5081830D01*
G01X3209505Y-5078306D01*
G01X3211438Y-5074734D01*
G01X3212670Y-5071128D01*
G01X3213103Y-5067499D01*
G37*
G36*
G01X2268829Y-4902200D02*
G01X2268829Y-4927600D01*
G01X2264106Y-4928094D01*
G01X2259401Y-4929502D01*
G01X2254731Y-4931711D01*
G01X2250115Y-4934609D01*
G01X2245574Y-4938085D01*
G01X2241124Y-4942027D01*
G01X2232576Y-4950858D01*
G01X2224622Y-4960207D01*
G01X2217413Y-4969177D01*
G01X2211099Y-4976874D01*
G01X2205829Y-4982400D01*
G01X2205829Y-4847400D01*
G01X2211099Y-4852926D01*
G01X2217413Y-4860623D01*
G01X2224622Y-4869593D01*
G01X2232576Y-4878942D01*
G01X2241124Y-4887773D01*
G01X2245574Y-4891715D01*
G01X2250115Y-4895191D01*
G01X2254731Y-4898089D01*
G01X2259401Y-4900298D01*
G01X2264106Y-4901706D01*
G01X2268829Y-4902200D01*
G37*
G36*
G01X3127079Y-6718300D02*
G01X3108037Y-6692900D01*
G01X3112252Y-6692457D01*
G01X3116480Y-6691195D01*
G01X3120699Y-6689209D01*
G01X3124885Y-6686599D01*
G01X3129015Y-6683461D01*
G01X3133065Y-6679894D01*
G01X3140832Y-6671861D01*
G01X3148000Y-6663280D01*
G01X3154381Y-6654933D01*
G01X3164037Y-6642062D01*
G01X3183079Y-6760542D01*
G01X3178186Y-6756575D01*
G01X3172475Y-6750781D01*
G01X3159031Y-6736611D01*
G01X3151514Y-6729690D01*
G01X3143611Y-6723847D01*
G01X3139549Y-6721556D01*
G01X3135430Y-6719808D01*
G01X3131269Y-6718692D01*
G01X3127079Y-6718300D01*
G37*
G36*
G01X3116888Y-6959605D02*
G01X3116888Y-6934205D01*
G01X3121087Y-6933780D01*
G01X3125274Y-6932570D01*
G01X3129431Y-6930671D01*
G01X3133541Y-6928178D01*
G01X3137587Y-6925188D01*
G01X3141551Y-6921796D01*
G01X3149164Y-6914192D01*
G01X3156243Y-6906133D01*
G01X3162649Y-6898387D01*
G01X3168243Y-6891722D01*
G01X3172888Y-6886905D01*
G01X3172888Y-7006905D01*
G01X3168243Y-7002088D01*
G01X3162649Y-6995423D01*
G01X3156243Y-6987678D01*
G01X3149164Y-6979619D01*
G01X3141551Y-6972014D01*
G01X3137587Y-6968622D01*
G01X3133541Y-6965632D01*
G01X3129431Y-6963139D01*
G01X3125274Y-6961240D01*
G01X3121087Y-6960030D01*
G01X3116888Y-6959605D01*
G37*
G36*
G01X2258708Y-5143500D02*
G01X2277758Y-5168900D01*
G01X2273021Y-5169413D01*
G01X2268274Y-5170874D01*
G01X2263543Y-5173172D01*
G01X2258852Y-5176191D01*
G01X2254227Y-5179818D01*
G01X2249692Y-5183939D01*
G01X2240992Y-5193210D01*
G01X2232950Y-5203094D01*
G01X2225765Y-5212681D01*
G01X2219635Y-5221061D01*
G01X2214759Y-5227324D01*
G01X2195709Y-5093675D01*
G01X2201237Y-5098348D01*
G01X2207673Y-5105181D01*
G01X2222794Y-5121895D01*
G01X2231241Y-5130060D01*
G01X2235635Y-5133720D01*
G01X2240122Y-5136955D01*
G01X2244687Y-5139658D01*
G01X2249317Y-5141721D01*
G01X2253996Y-5143037D01*
G01X2258708Y-5143500D01*
G37*
G36*
G01X475500Y-2735702D02*
G01X475500Y-2761102D01*
G01X471366Y-2761518D01*
G01X467244Y-2762703D01*
G01X463152Y-2764564D01*
G01X459105Y-2767005D01*
G01X451220Y-2773257D01*
G01X443724Y-2780707D01*
G01X436755Y-2788603D01*
G01X430451Y-2796195D01*
G01X424947Y-2802730D01*
G01X420382Y-2807457D01*
G01X420382Y-2689347D01*
G01X424947Y-2694074D01*
G01X430451Y-2700609D01*
G01X436755Y-2708201D01*
G01X443724Y-2716097D01*
G01X451220Y-2723547D01*
G01X459105Y-2729799D01*
G01X463152Y-2732241D01*
G01X467244Y-2734101D01*
G01X471366Y-2735286D01*
G01X475500Y-2735702D01*
G37*
G36*
G01X3139808Y-4846871D02*
G01X3157768Y-4828910D01*
G01X3161038Y-4831580D01*
G01X3164854Y-4833685D01*
G01X3169137Y-4835281D01*
G01X3173806Y-4836425D01*
G01X3178781Y-4837171D01*
G01X3183983Y-4837575D01*
G01X3194743Y-4837582D01*
G01X3205447Y-4836889D01*
G01X3215454Y-4835941D01*
G01X3224122Y-4835184D01*
G01X3230812Y-4835062D01*
G01X3145960Y-4919915D01*
G01X3146081Y-4913225D01*
G01X3146839Y-4904556D01*
G01X3147786Y-4894550D01*
G01X3148479Y-4883846D01*
G01X3148473Y-4873085D01*
G01X3148068Y-4867884D01*
G01X3147322Y-4862909D01*
G01X3146179Y-4858240D01*
G01X3144582Y-4853957D01*
G01X3142477Y-4850141D01*
G01X3139808Y-4846871D01*
G37*
G36*
G01X3139808Y-4592871D02*
G01X3157768Y-4574910D01*
G01X3161038Y-4577580D01*
G01X3164854Y-4579685D01*
G01X3169137Y-4581281D01*
G01X3173806Y-4582425D01*
G01X3178781Y-4583171D01*
G01X3183983Y-4583575D01*
G01X3194743Y-4583582D01*
G01X3205447Y-4582889D01*
G01X3215454Y-4581941D01*
G01X3224122Y-4581184D01*
G01X3230812Y-4581062D01*
G01X3145960Y-4665915D01*
G01X3146081Y-4659225D01*
G01X3146839Y-4650556D01*
G01X3147786Y-4640550D01*
G01X3148479Y-4629846D01*
G01X3148473Y-4619085D01*
G01X3148068Y-4613884D01*
G01X3147322Y-4608909D01*
G01X3146179Y-4604240D01*
G01X3144582Y-4599957D01*
G01X3142477Y-4596141D01*
G01X3139808Y-4592871D01*
G37*
G36*
G01X3116888Y-4419605D02*
G01X3116888Y-4394205D01*
G01X3121087Y-4393780D01*
G01X3125274Y-4392570D01*
G01X3129431Y-4390671D01*
G01X3133541Y-4388178D01*
G01X3137587Y-4385188D01*
G01X3141551Y-4381796D01*
G01X3149164Y-4374192D01*
G01X3156243Y-4366133D01*
G01X3162649Y-4358387D01*
G01X3168243Y-4351722D01*
G01X3172888Y-4346905D01*
G01X3172888Y-4466905D01*
G01X3168243Y-4462088D01*
G01X3162649Y-4455423D01*
G01X3156243Y-4447678D01*
G01X3149164Y-4439619D01*
G01X3141551Y-4432014D01*
G01X3137587Y-4428622D01*
G01X3133541Y-4425632D01*
G01X3129431Y-4423139D01*
G01X3125274Y-4421240D01*
G01X3121087Y-4420030D01*
G01X3116888Y-4419605D01*
G37*
G36*
G01X460709Y-2209800D02*
G01X487562Y-2235200D01*
G01X483406Y-2235637D01*
G01X479221Y-2236885D01*
G01X475034Y-2238847D01*
G01X470872Y-2241430D01*
G01X466761Y-2244537D01*
G01X462728Y-2248073D01*
G01X454998Y-2256052D01*
G01X447894Y-2264604D01*
G01X441626Y-2272966D01*
G01X432444Y-2286069D01*
G01X405591Y-2171053D01*
G01X410463Y-2174550D01*
G01X416110Y-2179799D01*
G01X429333Y-2192819D01*
G01X436710Y-2199223D01*
G01X444465Y-2204643D01*
G01X448453Y-2206771D01*
G01X452497Y-2208397D01*
G01X456587Y-2209435D01*
G01X460709Y-2209800D01*
G37*
G36*
G01X1931822Y-1828800D02*
G01X1931822Y-1854200D01*
G01X1927361Y-1854659D01*
G01X1922914Y-1855968D01*
G01X1918501Y-1858022D01*
G01X1914138Y-1860718D01*
G01X1909844Y-1863951D01*
G01X1905638Y-1867618D01*
G01X1897557Y-1875836D01*
G01X1890041Y-1884540D01*
G01X1883233Y-1892898D01*
G01X1877279Y-1900079D01*
G01X1872322Y-1905250D01*
G01X1872322Y-1777750D01*
G01X1877279Y-1782921D01*
G01X1883233Y-1790102D01*
G01X1890041Y-1798460D01*
G01X1897557Y-1807164D01*
G01X1905638Y-1815382D01*
G01X1909844Y-1819049D01*
G01X1914138Y-1822282D01*
G01X1918501Y-1824978D01*
G01X1922914Y-1827032D01*
G01X1927361Y-1828341D01*
G01X1931822Y-1828800D01*
G37*
G36*
G01X1940716Y-1587500D02*
G01X1921666Y-1612900D01*
G01X1917214Y-1613327D01*
G01X1912795Y-1614544D01*
G01X1908421Y-1616450D01*
G01X1904107Y-1618946D01*
G01X1899867Y-1621935D01*
G01X1895715Y-1625316D01*
G01X1887733Y-1632859D01*
G01X1873450Y-1648302D01*
G01X1867377Y-1654615D01*
G01X1862166Y-1658935D01*
G01X1881216Y-1532866D01*
G01X1891547Y-1546624D01*
G01X1898330Y-1555591D01*
G01X1905935Y-1564824D01*
G01X1914169Y-1573477D01*
G01X1918461Y-1577321D01*
G01X1922839Y-1580704D01*
G01X1927277Y-1583519D01*
G01X1931752Y-1585660D01*
G01X1936240Y-1587022D01*
G01X1940716Y-1587500D01*
G37*
G36*
G01X1921666Y-1308100D02*
G01X1940716Y-1333500D01*
G01X1936240Y-1333978D01*
G01X1931752Y-1335340D01*
G01X1927277Y-1337481D01*
G01X1922839Y-1340296D01*
G01X1918461Y-1343679D01*
G01X1914169Y-1347523D01*
G01X1905935Y-1356176D01*
G01X1898330Y-1365409D01*
G01X1891547Y-1374376D01*
G01X1881216Y-1388134D01*
G01X1862166Y-1262065D01*
G01X1867377Y-1266385D01*
G01X1873450Y-1272698D01*
G01X1887733Y-1288141D01*
G01X1895715Y-1295684D01*
G01X1899867Y-1299065D01*
G01X1904107Y-1302054D01*
G01X1908421Y-1304550D01*
G01X1912795Y-1306456D01*
G01X1917214Y-1307673D01*
G01X1921666Y-1308100D01*
G37*
G36*
G01X1939200Y-1066800D02*
G01X1939200Y-1092200D01*
G03X1901100Y-1111250I0J-47625D01*
G01X1901100Y-1047750D01*
G03X1939200Y-1066800I38100J28575D01*
G37*
G04 TearDrop End*

G04 Pad Start*
G54D12*
G01X5981700Y-939800D03*
G54D13*
G01X5981700Y-1193800D03*
G54D12*
G01X5956300Y-3683000D03*
G54D13*
G01X5956300Y-3937000D03*
G01X5956300Y-4191000D03*
G01X5956300Y-4445000D03*
G54D14*
G01X2121027Y-8636000D03*
G01X2121027Y-8382000D03*
G01X2121027Y-8128000D03*
G01X2120773Y-7874000D03*
G54D15*
G01X3225803Y-3390905D03*
G01X3225803Y-3644905D03*
G01X3225803Y-3898905D03*
G01X3225803Y-4152905D03*
G01X3225803Y-4406905D03*
G01X3225803Y-4660905D03*
G01X3225803Y-4914905D03*
G01X3225803Y-5168905D03*
G01X3225803Y-5422905D03*
G01X3225803Y-5676905D03*
G01X3225803Y-5930905D03*
G01X3225803Y-6184905D03*
G01X3225803Y-6438905D03*
G01X3225803Y-6692905D03*
G01X3225803Y-6946905D03*
G01X3225803Y-7200905D03*
G01X3225803Y-7454905D03*
G01X3225803Y-7708905D03*
G01X3225803Y-7962905D03*
G01X3225803Y-8216905D03*
G01X4749803Y-8216905D03*
G01X4749803Y-7962905D03*
G01X4749803Y-7708905D03*
G01X4749803Y-7454905D03*
G01X4749803Y-7200905D03*
G01X4749803Y-6946905D03*
G01X4749803Y-6692905D03*
G01X4749803Y-6438905D03*
G01X4749803Y-6184905D03*
G01X4749803Y-5930905D03*
G01X4749803Y-5676905D03*
G01X4749803Y-5422905D03*
G01X4749803Y-5168905D03*
G01X4749803Y-4914905D03*
G01X4749803Y-4660905D03*
G01X4749803Y-4406905D03*
G01X4749803Y-4152905D03*
G01X4749803Y-3898905D03*
G01X4749803Y-3644905D03*
G01X4749803Y-3390905D03*
G54D13*
G01X4013200Y-787400D03*
G01X3759200Y-787400D03*
G01X3505200Y-787400D03*
G01X3251200Y-787400D03*
G01X2997200Y-787400D03*
G01X2743200Y-787400D03*
G54D16*
G01X2489200Y-787400D03*
G54D18*
G01X5954298Y-6430551D03*
G01X5954298Y-6176551D03*
G54D19*
G01X5954298Y-5922551D03*
G54D18*
G01X368300Y-358298D03*
G01X368300Y-612298D03*
G01X368300Y-866298D03*
G01X368300Y-1120298D03*
G54D19*
G01X368300Y-1374298D03*
G54D18*
G01X368300Y-1986402D03*
G01X368300Y-2240402D03*
G01X368300Y-2494402D03*
G01X368300Y-2748402D03*
G54D19*
G01X368300Y-3002402D03*
G54D18*
G01X366298Y-3614503D03*
G01X366298Y-3868503D03*
G54D19*
G01X366298Y-4122503D03*
G54D18*
G01X355600Y-6350000D03*
G01X355600Y-6096000D03*
G54D19*
G01X355600Y-5842000D03*
G54D18*
G01X366298Y-5242601D03*
G01X366298Y-4988601D03*
G54D19*
G01X366298Y-4734601D03*
G54D18*
G01X5954298Y-8420100D03*
G01X5954298Y-8166100D03*
G54D19*
G01X5954298Y-7912100D03*
G54D20*
G01X2146300Y-4406900D03*
G54D21*
G01X2146300Y-4660900D03*
G01X2146300Y-4914900D03*
G01X2146300Y-5168900D03*
G01X2146300Y-5422900D03*
G01X2146300Y-5676900D03*
G01X2146300Y-5930900D03*
G01X2146300Y-6184900D03*
G54D12*
G01X1816100Y-1079500D03*
G54D13*
G01X1816100Y-1333500D03*
G01X1816100Y-1587500D03*
G01X1816100Y-1841500D03*
G54D12*
G01X1473200Y-1841500D03*
G54D13*
G01X1473200Y-1587500D03*
G01X1473200Y-1333500D03*
G01X1473200Y-1079500D03*
G54D12*
G01X1930400Y-635000D03*
G54D13*
G01X1930400Y-381000D03*
G54D12*
G01X1486482Y-639202D03*
G54D13*
G01X1486482Y-385202D03*
G04 Pad End*

G04 Via Start*
G54D22*
G01X901700Y-406400D03*
G01X5410200Y-381000D03*
G01X863600Y-8407400D03*
G01X5372100Y-8382000D03*
G54D23*
G01X4406900Y-2209800D03*
G01X4406900Y-1981200D03*
G01X3829050Y-3638550D03*
G01X3759200Y-3200400D03*
G01X3505200Y-2921000D03*
G01X1092200Y-3251200D03*
G01X2019300Y-3136900D03*
G01X2921000Y-2235200D03*
G01X2857500Y-2463800D03*
G01X2794000Y-2628900D03*
G01X2717800Y-2463800D03*
G01X4826000Y-1879600D03*
G04 Via End*

G04 Track Start*
G54D24*
G01X4406900Y-1981200D02*
G01X4406900Y-2209800D01*
G54D11*
G01X5956300Y-4191000D02*
G01X6108700Y-4191000D01*
G01X6146800Y-4229100D01*
G01X6146800Y-4660900D01*
G01X6128839Y-4678861D01*
G01X4767758Y-4678861D01*
G01X4749803Y-4660905D01*
G01X5956300Y-4445000D02*
G01X4787897Y-4445000D01*
G01X4749803Y-4406905D01*
G01X5954298Y-6430551D02*
G01X4758157Y-6430551D01*
G01X4749803Y-6438905D01*
G01X4749803Y-7200905D02*
G01X5181605Y-7200905D01*
G01X5676900Y-8166100D02*
G01X5954298Y-8166100D01*
G01X5181605Y-7200905D02*
G01X5549900Y-7569200D01*
G01X5549900Y-8039100D01*
G01X5676900Y-8166100D01*
G01X1435100Y-6362700D02*
G01X1612900Y-6184900D01*
G01X1612900Y-4203700D01*
G01X1714500Y-4102100D01*
G01X2768600Y-5295900D02*
G01X2883624Y-5410924D01*
G01X3213822Y-5410924D01*
G01X3225803Y-5422905D01*
G01X324128Y-2855042D02*
G01X261660Y-2792574D01*
G01X320523Y-2494402D02*
G01X368300Y-2494402D01*
G01X261660Y-2792574D02*
G01X261660Y-2486963D01*
G01X279620Y-2469002D01*
G01X295123Y-2469002D01*
G01X320523Y-2494402D01*
G01X386202Y-2222500D02*
G01X368300Y-2240402D01*
G01X368300Y-1120298D02*
G01X586898Y-1120298D01*
G01X3403600Y-3314700D02*
G01X3403600Y-5905500D01*
G01X3683005Y-6184905D01*
G01X4749803Y-6184905D01*
G01X368300Y-866298D02*
G01X403702Y-901700D01*
G01X635000Y-901700D01*
G01X3408861Y-3192961D02*
G01X3408861Y-3269615D01*
G01X3439200Y-3299954D01*
G01X3439200Y-5737900D01*
G01X3644900Y-5943600D01*
G01X4737108Y-5943600D01*
G01X4749803Y-5930905D01*
G01X3162300Y-2946400D02*
G01X3408861Y-3192961D01*
G01X3098800Y-3009900D02*
G01X3403600Y-3314700D01*
G01X3187700Y-2870200D02*
G01X3543300Y-3225800D01*
G01X3543300Y-5613400D01*
G01X3683000Y-5753100D01*
G01X4673608Y-5753100D01*
G01X4749803Y-5676905D01*
G01X368300Y-358298D02*
G01X599598Y-358298D01*
G01X660400Y-419100D02*
G01X660400Y-660400D01*
G01X1066800Y-1066800D01*
G01X1066800Y-1816100D01*
G01X2085300Y-2834600D01*
G01X3202446Y-2834600D01*
G01X3937000Y-5461000D02*
G01X4711708Y-5461000D01*
G01X4749803Y-5422905D01*
G01X599598Y-358298D02*
G01X660400Y-419100D01*
G01X368300Y-1374298D02*
G01X701000Y-1706999D01*
G01X3254807Y-4260805D02*
G01X3368000Y-4373999D01*
G01X3368000Y-5920246D01*
G01X4394654Y-6946900D01*
G01X4749797Y-6946900D01*
G01X368300Y-3002402D02*
G01X139700Y-3231002D01*
G01X139700Y-6604000D02*
G01X609600Y-7073900D01*
G01X4851400Y-7073900D01*
G01X139700Y-3231002D02*
G01X139700Y-6604000D01*
G01X368300Y-612298D02*
G01X505302Y-749300D01*
G01X1981200Y-2946400D02*
G01X3162300Y-2946400D01*
G01X2019300Y-2870200D02*
G01X3187700Y-2870200D01*
G01X1930400Y-3009900D02*
G01X3098800Y-3009900D01*
G01X586898Y-1120298D02*
G01X800100Y-1333500D01*
G01X800100Y-1879600D01*
G01X1930400Y-3009900D01*
G01X977900Y-1828800D02*
G01X2019300Y-2870200D01*
G01X505302Y-749300D02*
G01X635000Y-749300D01*
G01X977900Y-1092200D01*
G01X977900Y-1828800D01*
G01X635000Y-901700D02*
G01X889000Y-1155700D01*
G01X889000Y-1854200D01*
G01X1981200Y-2946400D01*
G01X4013200Y-787400D02*
G01X4013200Y-3454400D01*
G01X3829050Y-3638550D01*
G01X3759200Y-787400D02*
G01X3759200Y-3200400D01*
G01X3505200Y-787400D02*
G01X3505200Y-2921000D01*
G01X2997200Y-787400D02*
G01X2997200Y-2578554D01*
G01X3962400Y-5168900D02*
G01X4749797Y-5168900D01*
G01X3657600Y-3289754D02*
G01X3657600Y-5181600D01*
G01X3937000Y-5461000D01*
G01X3202446Y-2834600D02*
G01X3657600Y-3289754D01*
G01X2997200Y-2578554D02*
G01X3708400Y-3289754D01*
G01X3708400Y-4914900D01*
G01X3962400Y-5168900D01*
G01X3251200Y-787400D02*
G01X3251200Y-2782208D01*
G01X3744000Y-3275008D01*
G01X3744000Y-4683800D01*
G01X3987800Y-4927600D01*
G01X4737108Y-4927600D01*
G01X4749803Y-4914905D01*
G01X366298Y-4988601D02*
G01X1092200Y-4262700D01*
G01X1092200Y-3251200D01*
G01X2019300Y-3136900D02*
G01X3035305Y-4152905D01*
G01X3225803Y-4152905D01*
G01X4851400Y-7073900D02*
G01X4902200Y-7023100D01*
G01X4902200Y-6845300D01*
G01X4749805Y-6692905D01*
G01X2921000Y-2235200D02*
G01X2921000Y-1638300D01*
G01X2362200Y-1079500D02*
G01X1816100Y-1079500D01*
G01X2921000Y-1638300D02*
G01X2362200Y-1079500D01*
G01X2857500Y-2463800D02*
G01X2857500Y-1879600D01*
G01X2298700Y-1320800D01*
G01X1828800Y-1320800D01*
G01X1816100Y-1333500D01*
G01X2794000Y-2628900D02*
G01X2794000Y-2209800D01*
G01X2184400Y-1600200D01*
G01X1828800Y-1600200D02*
G01X1816100Y-1587500D01*
G01X2717800Y-2463800D02*
G01X2095500Y-1841500D01*
G01X1816100Y-1841500D01*
G54D24*
G01X1930400Y-381000D02*
G01X4597400Y-381000D01*
G01X4826000Y-609600D01*
G01X4826000Y-1879600D01*
G54D11*
G01X393700Y-6362700D02*
G01X1435100Y-6362700D01*
G01X355600Y-6350000D02*
G01X381000Y-6350000D01*
G01X393700Y-6362700D01*
G01X3225803Y-7200905D02*
G01X3175008Y-7251700D01*
G01X2984500Y-7251700D01*
G01X2870200Y-7366000D02*
G01X2870200Y-8178800D01*
G01X2667000Y-8382000D01*
G01X2121027Y-8382000D01*
G01X2984500Y-7251700D02*
G01X2870200Y-7366000D01*
G01X2121027Y-8636000D02*
G01X2527300Y-8636000D01*
G01X2959100Y-8204200D01*
G01X2959100Y-7531100D01*
G01X3022600Y-7467600D01*
G01X3213108Y-7467600D01*
G01X3225803Y-7454905D01*
G01X368300Y-1986402D02*
G01X254000Y-2100702D01*
G01X254000Y-2349500D01*
G01X271961Y-2367461D01*
G01X701000Y-1706999D02*
G01X701000Y-1901190D01*
G01X3060615Y-4260805D01*
G01X3254807Y-4260805D01*
G01X3225803Y-5168905D02*
G01X3225803Y-5067499D01*
G01X1013346Y-2855042D01*
G01X324128Y-2855042D01*
G01X2146300Y-4914900D02*
G01X2603500Y-4914900D01*
G01X2705100Y-6565900D02*
G01X2844800Y-6705600D01*
G01X3213108Y-6705600D01*
G01X3225803Y-6692905D01*
G01X2603500Y-4914900D02*
G01X2705100Y-5016500D01*
G01X2705100Y-6565900D01*
G01X3225803Y-6946905D02*
G01X2882905Y-6946905D01*
G01X2641600Y-6705600D01*
G01X2641600Y-5270500D02*
G01X2527300Y-5156200D01*
G01X2159000Y-5156200D01*
G01X2146300Y-5168900D01*
G01X2641600Y-6705600D02*
G01X2641600Y-5270500D01*
G01X1714500Y-4102100D02*
G01X2060956Y-4102100D01*
G01X2768600Y-4809744D01*
G01X2768600Y-5295900D01*
G01X368300Y-2748402D02*
G01X1059300Y-2748402D01*
G01X3225803Y-4914905D01*
G01X271961Y-2367461D02*
G01X932358Y-2367461D01*
G01X3225797Y-4660900D01*
G01X3225803Y-4406905D02*
G01X3086105Y-4406905D01*
G01X901700Y-2222500D01*
G01X386202Y-2222500D01*
G01X2184400Y-1600200D02*
G01X1828800Y-1600200D01*
G04 Track End*

M02*

